<?xml version="1.0" standalone="no"?><!DOCTYPE svg PUBLIC "-//W3C//DTD SVG 1.1//EN" "http://www.w3.org/Graphics/SVG/1.1/DTD/svg11.dtd" ><svg version="1.1" xmlns="http://www.w3.org/2000/svg"><defs><font horiz-adv-x="0" id="font"><font-face ascent="728" bbox="-197.4083 -248 1206 953" cap-height="662" descent="-210" font-family="GE Inspira Sans" font-stretch="normal" font-style="normal" font-weight="700" units-per-em="1000" x-height="490" /><missing-glyph d="M133 -190C148 -190 155 -183 155 -168V708C155 723 148 730 133 730H72C57 730 50 723 50 708V-168C50 -183 57 -190 72 -190Z" horiz-adv-x="205" /><glyph glyph-name=".null" horiz-adv-x="0" /><glyph d="M175 21C183 54 194 93 206 135H474C487 93 498 54 507 21C511 6 519 0 535 0H643C655 0 660 4 660 13C660 17 659 21 657 28C592 255 513 467 435 642C429 656 420 662 404 662H284C268 662 259 657 253 642C173 468 97 255 32 28C30 21 29 17 29 13C29 4 34 0 46 0H147C163 0 171 6 175 21ZM244 253C273 343 308 438 341 521C374 438 407 343 437 253Z" glyph-name="A" horiz-adv-x="689" unicode="A" /><glyph d="M167 20C186 60 205 98 224 135H473V22C473 7 480 0 495 0H891C906 0 913 7 913 22V96C913 111 906 118 891 118H625V276H854C869 276 876 283 876 298V372C876 387 869 394 854 394H625V544H891C906 544 913 551 913 566V640C913 655 906 662 891 662H414C398 662 389 657 379 644C257 467 125 247 12 20C6 7 10 0 24 0H135C151 0 160 5 167 20ZM285 253C341 357 400 456 473 566V253Z" glyph-name="AE" horiz-adv-x="957" unicode="&#198;" /><glyph d="M175 21C183 54 194 93 206 135H474C487 93 498 54 507 21C511 6 519 0 535 0H643C655 0 660 4 660 13C660 17 659 21 657 28C592 255 513 467 435 642C429 656 420 662 404 662H284C268 662 259 657 253 642C173 468 97 255 32 28C30 21 29 17 29 13C29 4 34 0 46 0H147C163 0 171 6 175 21ZM244 253C273 343 308 438 341 521C374 438 407 343 437 253ZM285 771C278 765 276 760 276 754C276 750 278 745 282 740L297 720C303 712 308 709 315 709C319 709 325 711 330 714L492 805C500 810 504 815 504 821C504 825 502 829 499 834L461 893C457 900 451 903 445 903C441 903 436 901 431 897Z" glyph-name="Aacute" horiz-adv-x="689" unicode="&#193;" /><glyph d="M175 21C183 54 194 93 206 135H474C487 93 498 54 507 21C511 6 519 0 535 0H643C655 0 660 4 660 13C660 17 659 21 657 28C592 255 513 467 435 642C429 656 420 662 404 662H284C268 662 259 657 253 642C173 468 97 255 32 28C30 21 29 17 29 13C29 4 34 0 46 0H147C163 0 171 6 175 21ZM244 253C273 343 308 438 341 521C374 438 407 343 437 253ZM344 719C417 719 474 761 502 823C504 827 505 831 505 834C505 842 500 848 491 852L460 868C454 871 449 872 445 872C435 872 430 866 425 859C406 833 382 815 344 815C306 815 282 833 263 859C258 866 253 872 243 872C239 872 234 871 228 868L197 852C188 848 183 842 183 834C183 831 184 827 186 823C214 761 271 719 344 719Z" glyph-name="Abreve" horiz-adv-x="689" unicode="&#258;" /><glyph d="M175 21C183 54 194 93 206 135H474C487 93 498 54 507 21C511 6 519 0 535 0H643C655 0 660 4 660 13C660 17 659 21 657 28C592 255 513 467 435 642C429 656 420 662 404 662H284C268 662 259 657 253 642C173 468 97 255 32 28C30 21 29 17 29 13C29 4 34 0 46 0H147C163 0 171 6 175 21ZM244 253C273 343 308 438 341 521C374 438 407 343 437 253ZM344 778 450 715C455 712 460 711 465 711C471 711 477 714 483 721L501 743C505 748 507 753 507 757C507 763 504 768 497 774L363 878C357 883 351 885 344 885C337 885 331 883 325 878L191 774C184 768 181 763 181 757C181 753 183 748 187 743L205 721C211 714 217 711 223 711C228 711 233 712 238 715Z" glyph-name="Acircumflex" horiz-adv-x="689" unicode="&#194;" /><glyph d="M175 21C183 54 194 93 206 135H474C487 93 498 54 507 21C511 6 519 0 535 0H643C655 0 660 4 660 13C660 17 659 21 657 28C592 255 513 467 435 642C429 656 420 662 404 662H284C268 662 259 657 253 642C173 468 97 255 32 28C30 21 29 17 29 13C29 4 34 0 46 0H147C163 0 171 6 175 21ZM244 253C273 343 308 438 341 521C374 438 407 343 437 253ZM321 789C321 829 292 862 247 862C202 862 173 829 173 789C173 749 202 716 247 716C292 716 321 749 321 789ZM515 789C515 829 486 862 441 862C396 862 367 829 367 789C367 749 396 716 441 716C486 716 515 749 515 789Z" glyph-name="Adieresis" horiz-adv-x="689" unicode="&#196;" /><glyph d="M175 21C183 54 194 93 206 135H474C487 93 498 54 507 21C511 6 519 0 535 0H643C655 0 660 4 660 13C660 17 659 21 657 28C592 255 513 467 435 642C429 656 420 662 404 662H284C268 662 259 657 253 642C173 468 97 255 32 28C30 21 29 17 29 13C29 4 34 0 46 0H147C163 0 171 6 175 21ZM244 253C273 343 308 438 341 521C374 438 407 343 437 253ZM263 897C258 901 253 903 249 903C243 903 237 900 233 893L195 834C192 829 190 825 190 821C190 815 194 810 202 805L364 714C369 711 375 709 379 709C386 709 391 712 397 720L412 740C416 745 418 750 418 754C418 760 416 765 409 771Z" glyph-name="Agrave" horiz-adv-x="689" unicode="&#192;" /><glyph d="M175 21C183 54 194 93 206 135H474C487 93 498 54 507 21C511 6 519 0 535 0H643C655 0 660 4 660 13C660 17 659 21 657 28C592 255 513 467 435 642C429 656 420 662 404 662H284C268 662 259 657 253 642C173 468 97 255 32 28C30 21 29 17 29 13C29 4 34 0 46 0H147C163 0 171 6 175 21ZM244 253C273 343 308 438 341 521C374 438 407 343 437 253ZM229 834C214 834 207 827 207 812V762C207 747 214 740 229 740H459C474 740 481 747 481 762V812C481 827 474 834 459 834Z" glyph-name="Amacron" horiz-adv-x="689" unicode="&#256;" /><glyph d="M642 -185C654 -177 656 -166 648 -154L638 -138C629 -123 623 -121 606 -128C593 -134 579 -136 570 -136C538 -136 525 -116 525 -92C525 -68 537 -45 568 0H643C655 0 660 4 660 13C660 17 659 21 657 28C592 255 513 467 435 642C429 656 420 662 404 662H284C268 662 259 657 253 642C173 468 97 255 32 28C30 21 29 17 29 13C29 4 34 0 46 0H147C163 0 171 6 175 21C183 54 194 93 206 135H474C489 88 501 44 512 4C462 -31 429 -79 429 -122C429 -173 469 -214 544 -214C582 -214 616 -203 642 -185ZM244 253C273 343 308 438 341 521C374 439 407 345 437 253Z" glyph-name="Aogonek" horiz-adv-x="689" unicode="&#260;" /><glyph d="M175 21C183 54 194 93 206 135H474C487 93 498 54 507 21C511 6 519 0 535 0H643C655 0 660 4 660 13C660 17 659 21 657 28C593 252 515 461 438 635C460 657 473 687 473 723C473 798 414 850 344 850C274 850 215 798 215 723C215 687 228 657 250 635C171 462 96 252 32 28C30 21 29 17 29 13C29 4 34 0 46 0H147C163 0 171 6 175 21ZM285 723C285 760 310 784 344 784C378 784 403 760 403 723C403 686 378 662 344 662C310 662 285 686 285 723ZM244 253C273 343 308 438 341 521C374 438 407 343 437 253Z" glyph-name="Aring" horiz-adv-x="689" unicode="&#197;" /><glyph d="M175 21C183 54 194 93 206 135H474C487 93 498 54 507 21C511 6 519 0 535 0H643C655 0 660 4 660 13C660 17 659 21 657 28C592 255 513 467 435 642C429 656 420 662 404 662H284C268 662 259 657 253 642C173 468 97 255 32 28C30 21 29 17 29 13C29 4 34 0 46 0H147C163 0 171 6 175 21ZM244 253C273 343 308 438 341 521C374 438 407 343 437 253ZM406 722C448 722 483 741 513 790C516 795 518 800 518 805C518 811 514 817 508 822L484 841C478 846 473 848 468 848C462 848 457 845 451 839C436 824 418 817 404 817C369 817 343 856 282 856C240 856 205 837 175 788C172 783 170 778 170 773C170 767 174 761 180 756L204 737C210 732 215 730 220 730C226 730 231 733 237 739C252 754 270 761 284 761C319 761 345 722 406 722Z" glyph-name="Atilde" horiz-adv-x="689" unicode="&#195;" /><glyph d="M592 185C592 259 553 312 471 343C534 375 566 425 566 487C566 587 501 662 319 662H95C80 662 73 655 73 640V22C73 7 80 0 95 0H339C521 0 592 78 592 185ZM225 548H303C377 548 408 520 408 468C408 416 375 388 302 388H225ZM225 278H317C401 278 434 249 434 196C434 143 404 114 328 114H225Z" glyph-name="B" horiz-adv-x="630" unicode="B" /><glyph d="M587 80C598 90 598 100 589 111L532 175C521 187 512 187 501 176C462 139 418 115 363 115C267 115 198 189 198 325C198 458 259 547 368 547C418 547 463 526 499 495C513 483 521 484 530 496L583 564C592 576 592 587 580 597C525 644 460 672 370 672C134 672 40 504 40 323C40 129 145 -10 352 -10C450 -10 528 22 587 80Z" glyph-name="C" horiz-adv-x="629" unicode="C" /><glyph d="M587 80C598 90 598 100 589 111L532 175C521 187 512 187 501 176C462 139 418 115 363 115C267 115 198 189 198 325C198 458 259 547 368 547C418 547 463 526 499 495C513 483 521 484 530 496L583 564C592 576 592 587 580 597C525 644 460 672 370 672C134 672 40 504 40 323C40 129 145 -10 352 -10C450 -10 528 22 587 80ZM285 771C278 765 276 760 276 754C276 750 278 745 282 740L297 720C303 712 308 709 315 709C319 709 325 711 330 714L492 805C500 810 504 815 504 821C504 825 502 829 499 834L461 893C457 900 451 903 445 903C441 903 436 901 431 897Z" glyph-name="Cacute" horiz-adv-x="629" unicode="&#262;" /><glyph d="M587 80C598 90 598 100 589 111L532 175C521 187 512 187 501 176C462 139 418 115 363 115C267 115 198 189 198 325C198 458 259 547 368 547C418 547 463 526 499 495C513 483 521 484 530 496L583 564C592 576 592 587 580 597C525 644 460 672 370 672C134 672 40 504 40 323C40 129 145 -10 352 -10C450 -10 528 22 587 80ZM344 818 238 881C233 884 228 885 223 885C217 885 211 882 205 875L187 853C183 848 181 843 181 839C181 833 184 828 191 822L325 718C331 713 337 711 344 711C351 711 357 713 363 718L497 822C504 828 507 833 507 839C507 843 505 848 501 853L483 875C477 882 471 885 465 885C460 885 455 884 450 881Z" glyph-name="Ccaron" horiz-adv-x="629" unicode="&#268;" /><glyph d="M466 -116C466 -68 429 -38 373 -38C363 -38 354 -39 343 -42L364 -10C457 -7 531 24 587 80C598 90 598 100 589 111L532 175C521 187 512 187 501 176C462 139 418 115 363 115C267 115 198 189 198 325C198 458 259 547 368 547C418 547 463 526 499 495C513 483 521 484 530 496L583 564C592 576 592 587 580 597C525 644 460 672 370 672C134 672 40 504 40 323C40 143 130 11 308 -8L280 -52C273 -64 275 -73 284 -82C293 -90 298 -94 307 -94C317 -94 325 -91 340 -91C366 -91 377 -105 377 -120C377 -139 360 -149 338 -149C321 -149 305 -146 292 -139C286 -136 282 -135 278 -135C271 -135 266 -140 261 -148L251 -164C244 -176 246 -185 259 -193C283 -208 313 -214 340 -214C423 -214 466 -168 466 -116Z" glyph-name="Ccedilla" horiz-adv-x="629" unicode="&#199;" /><glyph d="M587 80C598 90 598 100 589 111L532 175C521 187 512 187 501 176C462 139 418 115 363 115C267 115 198 189 198 325C198 458 259 547 368 547C418 547 463 526 499 495C513 483 521 484 530 496L583 564C592 576 592 587 580 597C525 644 460 672 370 672C134 672 40 504 40 323C40 129 145 -10 352 -10C450 -10 528 22 587 80ZM344 778 450 715C455 712 460 711 465 711C471 711 477 714 483 721L501 743C505 748 507 753 507 757C507 763 504 768 497 774L363 878C357 883 351 885 344 885C337 885 331 883 325 878L191 774C184 768 181 763 181 757C181 753 183 748 187 743L205 721C211 714 217 711 223 711C228 711 233 712 238 715Z" glyph-name="Ccircumflex" horiz-adv-x="629" unicode="&#264;" /><glyph d="M587 80C598 90 598 100 589 111L532 175C521 187 512 187 501 176C462 139 418 115 363 115C267 115 198 189 198 325C198 458 259 547 368 547C418 547 463 526 499 495C513 483 521 484 530 496L583 564C592 576 592 587 580 597C525 644 460 672 370 672C134 672 40 504 40 323C40 129 145 -10 352 -10C450 -10 528 22 587 80ZM418 789C418 829 389 862 344 862C299 862 270 829 270 789C270 749 299 716 344 716C389 716 418 749 418 789Z" glyph-name="Cdotaccent" horiz-adv-x="629" unicode="&#266;" /><glyph d="M327 0C556 0 649 161 649 331C649 499 563 662 327 662H95C80 662 73 655 73 640V22C73 7 80 0 95 0ZM317 546C447 546 491 444 491 331C491 218 447 116 317 116H225V546Z" glyph-name="D" horiz-adv-x="689" unicode="D" /><glyph d="M327 0C556 0 649 161 649 331C649 499 563 662 327 662H95C80 662 73 655 73 640V22C73 7 80 0 95 0ZM317 546C447 546 491 444 491 331C491 218 447 116 317 116H225V546ZM322 818 216 881C211 884 206 885 201 885C195 885 189 882 183 875L165 853C161 848 159 843 159 839C159 833 162 828 169 822L303 718C309 713 315 711 322 711C329 711 335 713 341 718L475 822C482 828 485 833 485 839C485 843 483 848 479 853L461 875C455 882 449 885 443 885C438 885 433 884 428 881Z" glyph-name="Dcaron" horiz-adv-x="689" unicode="&#270;" /><glyph d="M659 331C659 499 573 662 337 662H105C90 662 83 655 83 640V385H37C22 385 15 378 15 363V298C15 283 22 276 37 276H83V22C83 7 90 0 105 0H337C566 0 659 161 659 331ZM235 116V276H347C362 276 369 283 369 298V363C369 378 362 385 347 385H235V546H327C457 546 501 444 501 331C501 218 457 116 327 116Z" glyph-name="Dcroat" horiz-adv-x="699" unicode="&#272;" /><glyph d="M491 0C506 0 513 7 513 22V96C513 111 506 118 491 118H225V276H454C469 276 476 283 476 298V372C476 387 469 394 454 394H225V544H491C506 544 513 551 513 566V640C513 655 506 662 491 662H95C80 662 73 655 73 640V22C73 7 80 0 95 0Z" glyph-name="E" horiz-adv-x="557" unicode="E" /><glyph d="M491 0C506 0 513 7 513 22V96C513 111 506 118 491 118H225V276H454C469 276 476 283 476 298V372C476 387 469 394 454 394H225V544H491C506 544 513 551 513 566V640C513 655 506 662 491 662H95C80 662 73 655 73 640V22C73 7 80 0 95 0ZM234 771C227 765 225 760 225 754C225 750 227 745 231 740L246 720C252 712 257 709 264 709C268 709 274 711 279 714L441 805C449 810 453 815 453 821C453 825 451 829 448 834L410 893C406 900 400 903 394 903C390 903 385 901 380 897Z" glyph-name="Eacute" horiz-adv-x="557" unicode="&#201;" /><glyph d="M491 0C506 0 513 7 513 22V96C513 111 506 118 491 118H225V276H454C469 276 476 283 476 298V372C476 387 469 394 454 394H225V544H491C506 544 513 551 513 566V640C513 655 506 662 491 662H95C80 662 73 655 73 640V22C73 7 80 0 95 0ZM293 719C366 719 423 761 451 823C453 827 454 831 454 834C454 842 449 848 440 852L409 868C403 871 398 872 394 872C384 872 379 866 374 859C355 833 331 815 293 815C255 815 231 833 212 859C207 866 202 872 192 872C188 872 183 871 177 868L146 852C137 848 132 842 132 834C132 831 133 827 135 823C163 761 220 719 293 719Z" glyph-name="Ebreve" horiz-adv-x="557" unicode="&#276;" /><glyph d="M491 0C506 0 513 7 513 22V96C513 111 506 118 491 118H225V276H454C469 276 476 283 476 298V372C476 387 469 394 454 394H225V544H491C506 544 513 551 513 566V640C513 655 506 662 491 662H95C80 662 73 655 73 640V22C73 7 80 0 95 0ZM293 818 187 881C182 884 177 885 172 885C166 885 160 882 154 875L136 853C132 848 130 843 130 839C130 833 133 828 140 822L274 718C280 713 286 711 293 711C300 711 306 713 312 718L446 822C453 828 456 833 456 839C456 843 454 848 450 853L432 875C426 882 420 885 414 885C409 885 404 884 399 881Z" glyph-name="Ecaron" horiz-adv-x="557" unicode="&#282;" /><glyph d="M491 0C506 0 513 7 513 22V96C513 111 506 118 491 118H225V276H454C469 276 476 283 476 298V372C476 387 469 394 454 394H225V544H491C506 544 513 551 513 566V640C513 655 506 662 491 662H95C80 662 73 655 73 640V22C73 7 80 0 95 0ZM293 778 399 715C404 712 409 711 414 711C420 711 426 714 432 721L450 743C454 748 456 753 456 757C456 763 453 768 446 774L312 878C306 883 300 885 293 885C286 885 280 883 274 878L140 774C133 768 130 763 130 757C130 753 132 748 136 743L154 721C160 714 166 711 172 711C177 711 182 712 187 715Z" glyph-name="Ecircumflex" horiz-adv-x="557" unicode="&#202;" /><glyph d="M491 0C506 0 513 7 513 22V96C513 111 506 118 491 118H225V276H454C469 276 476 283 476 298V372C476 387 469 394 454 394H225V544H491C506 544 513 551 513 566V640C513 655 506 662 491 662H95C80 662 73 655 73 640V22C73 7 80 0 95 0ZM270 789C270 829 241 862 196 862C151 862 122 829 122 789C122 749 151 716 196 716C241 716 270 749 270 789ZM464 789C464 829 435 862 390 862C345 862 316 829 316 789C316 749 345 716 390 716C435 716 464 749 464 789Z" glyph-name="Edieresis" horiz-adv-x="557" unicode="&#203;" /><glyph d="M491 0C506 0 513 7 513 22V96C513 111 506 118 491 118H225V276H454C469 276 476 283 476 298V372C476 387 469 394 454 394H225V544H491C506 544 513 551 513 566V640C513 655 506 662 491 662H95C80 662 73 655 73 640V22C73 7 80 0 95 0ZM367 789C367 829 338 862 293 862C248 862 219 829 219 789C219 749 248 716 293 716C338 716 367 749 367 789Z" glyph-name="Edotaccent" horiz-adv-x="557" unicode="&#278;" /><glyph d="M491 0C506 0 513 7 513 22V96C513 111 506 118 491 118H225V276H454C469 276 476 283 476 298V372C476 387 469 394 454 394H225V544H491C506 544 513 551 513 566V640C513 655 506 662 491 662H95C80 662 73 655 73 640V22C73 7 80 0 95 0ZM212 897C207 901 202 903 198 903C192 903 186 900 182 893L144 834C141 829 139 825 139 821C139 815 143 810 151 805L313 714C318 711 324 709 328 709C335 709 340 712 346 720L361 740C365 745 367 750 367 754C367 760 365 765 358 771Z" glyph-name="Egrave" horiz-adv-x="557" unicode="&#200;" /><glyph d="M491 0C506 0 513 7 513 22V96C513 111 506 118 491 118H225V276H454C469 276 476 283 476 298V372C476 387 469 394 454 394H225V544H491C506 544 513 551 513 566V640C513 655 506 662 491 662H95C80 662 73 655 73 640V22C73 7 80 0 95 0ZM178 834C163 834 156 827 156 812V762C156 747 163 740 178 740H408C423 740 430 747 430 762V812C430 827 423 834 408 834Z" glyph-name="Emacron" horiz-adv-x="557" unicode="&#274;" /><glyph d="M283 -122C283 -173 323 -214 398 -214C436 -214 470 -203 496 -185C508 -177 510 -166 502 -154L492 -138C483 -123 476 -122 459 -129C446 -134 433 -136 424 -136C392 -136 379 -116 379 -92C379 -68 391 -45 422 0H491C506 0 513 7 513 22V96C513 111 506 118 491 118H225V276H454C469 276 476 283 476 298V372C476 387 469 394 454 394H225V544H491C506 544 513 551 513 566V640C513 655 506 662 491 662H95C80 662 73 655 73 640V22C73 7 80 0 95 0H361C315 -33 283 -81 283 -122Z" glyph-name="Eogonek" horiz-adv-x="557" unicode="&#280;" /><glyph d="M659 331C659 499 573 662 337 662H105C90 662 83 655 83 640V385H37C22 385 15 378 15 363V298C15 283 22 276 37 276H83V22C83 7 90 0 105 0H337C566 0 659 161 659 331ZM235 116V276H347C362 276 369 283 369 298V363C369 378 362 385 347 385H235V546H327C457 546 501 444 501 331C501 218 457 116 327 116Z" glyph-name="Eth" horiz-adv-x="699" unicode="&#208;" /><glyph d="M510 41C522 50 524 60 517 73L485 131C478 144 470 146 456 137C421 115 387 105 351 105C294 105 250 127 229 203H397C412 203 419 210 419 225V271C419 286 412 293 397 293H216C215 305 215 317 215 331C215 344 215 357 216 369H397C412 369 419 376 419 391V437C419 452 412 459 397 459H229C249 533 292 557 352 557C387 557 421 546 454 523C467 514 477 517 484 530L520 593C527 606 524 615 512 624C471 654 413 672 348 672C204 672 117 590 84 459H40C25 459 18 452 18 437V391C18 376 25 369 40 369H71C70 357 70 344 70 331C70 318 70 305 71 293H40C25 293 18 286 18 271V225C18 210 25 203 40 203H84C116 71 203 -10 344 -10C413 -10 468 11 510 41Z" glyph-name="Euro" horiz-adv-x="532" unicode="&#8364;" /><glyph d="M203 0C218 0 225 7 225 22V261H439C454 261 461 268 461 283V357C461 372 454 379 439 379H225V544H478C493 544 500 551 500 566V640C500 655 493 662 478 662H95C80 662 73 655 73 640V22C73 7 80 0 95 0Z" glyph-name="F" horiz-adv-x="534" unicode="F" /><glyph d="M611 43C624 50 630 60 630 75V353C630 368 623 375 608 375H386C371 375 364 368 364 353V279C364 264 371 257 386 257H484V134C449 118 417 113 383 113C255 113 198 196 198 323C198 453 257 547 388 547C446 547 491 528 530 493C542 483 550 484 560 496L616 566C625 577 624 587 613 597C551 652 471 672 385 672C133 672 40 495 40 324C40 146 140 -10 378 -10C459 -10 543 8 611 43Z" glyph-name="G" horiz-adv-x="698" unicode="G" /><glyph d="M611 43C624 50 630 60 630 75V353C630 368 623 375 608 375H386C371 375 364 368 364 353V279C364 264 371 257 386 257H484V134C449 118 417 113 383 113C255 113 198 196 198 323C198 453 257 547 388 547C446 547 491 528 530 493C542 483 550 484 560 496L616 566C625 577 624 587 613 597C551 652 471 672 385 672C133 672 40 495 40 324C40 146 140 -10 378 -10C459 -10 543 8 611 43ZM359 719C432 719 489 761 517 823C519 827 520 831 520 834C520 842 515 848 506 852L475 868C469 871 464 872 460 872C450 872 445 866 440 859C421 833 397 815 359 815C321 815 297 833 278 859C273 866 268 872 258 872C254 872 249 871 243 868L212 852C203 848 198 842 198 834C198 831 199 827 201 823C229 761 286 719 359 719Z" glyph-name="Gbreve" horiz-adv-x="698" unicode="&#286;" /><glyph d="M611 43C624 50 630 60 630 75V353C630 368 623 375 608 375H386C371 375 364 368 364 353V279C364 264 371 257 386 257H484V134C449 118 417 113 383 113C255 113 198 196 198 323C198 453 257 547 388 547C446 547 491 528 530 493C542 483 550 484 560 496L616 566C625 577 624 587 613 597C551 652 471 672 385 672C133 672 40 495 40 324C40 146 140 -10 378 -10C459 -10 543 8 611 43ZM359 778 465 715C470 712 475 711 480 711C486 711 492 714 498 721L516 743C520 748 522 753 522 757C522 763 519 768 512 774L378 878C372 883 366 885 359 885C352 885 346 883 340 878L206 774C199 768 196 763 196 757C196 753 198 748 202 743L220 721C226 714 232 711 238 711C243 711 248 712 253 715Z" glyph-name="Gcircumflex" horiz-adv-x="698" unicode="&#284;" /><glyph d="M611 43C624 50 630 60 630 75V353C630 368 623 375 608 375H386C371 375 364 368 364 353V279C364 264 371 257 386 257H484V134C449 118 417 113 383 113C255 113 198 196 198 323C198 453 257 547 388 547C446 547 491 528 530 493C542 483 550 484 560 496L616 566C625 577 624 587 613 597C551 652 471 672 385 672C133 672 40 495 40 324C40 146 140 -10 378 -10C459 -10 543 8 611 43ZM433 789C433 829 404 862 359 862C314 862 285 829 285 789C285 749 314 716 359 716C404 716 433 749 433 789Z" glyph-name="Gdotaccent" horiz-adv-x="698" unicode="&#288;" /><glyph d="M203 0C218 0 225 7 225 22V273H490V22C490 7 497 0 512 0H620C635 0 642 7 642 22V640C642 655 635 662 620 662H512C497 662 490 655 490 640V397H225V640C225 655 218 662 203 662H95C80 662 73 655 73 640V22C73 7 80 0 95 0Z" glyph-name="H" horiz-adv-x="715" unicode="H" /><glyph d="M232 22V257H497V22C497 7 504 0 519 0H627C642 0 649 7 649 22V477H695C710 477 717 484 717 499V558C717 573 710 580 695 580H649V640C649 655 642 662 627 662H519C504 662 497 655 497 640V574H232V640C232 655 225 662 210 662H102C87 662 80 655 80 640V580H34C19 580 12 573 12 558V499C12 484 19 477 34 477H80V22C80 7 87 0 102 0H210C225 0 232 7 232 22ZM232 381V483H497V381Z" glyph-name="Hbar" horiz-adv-x="729" unicode="&#294;" /><glyph d="M203 0C218 0 225 7 225 22V273H490V22C490 7 497 0 512 0H620C635 0 642 7 642 22V640C642 655 635 662 620 662H512C497 662 490 655 490 640V397H225V640C225 655 218 662 203 662H95C80 662 73 655 73 640V22C73 7 80 0 95 0ZM357 778 463 715C468 712 473 711 478 711C484 711 490 714 496 721L514 743C518 748 520 753 520 757C520 763 517 768 510 774L376 878C370 883 364 885 357 885C350 885 344 883 338 878L204 774C197 768 194 763 194 757C194 753 196 748 200 743L218 721C224 714 230 711 236 711C241 711 246 712 251 715Z" glyph-name="Hcircumflex" horiz-adv-x="715" unicode="&#292;" /><glyph d="M205 0C220 0 227 7 227 22V640C227 655 220 662 205 662H97C82 662 75 655 75 640V22C75 7 82 0 97 0Z" glyph-name="I" horiz-adv-x="302" unicode="I" /><glyph d="M195 284C210 284 217 291 217 306V640C217 655 210 662 195 662H87C72 662 65 655 65 640V306C65 291 72 284 87 284ZM591 266V640C591 655 584 662 569 662H461C446 662 439 655 439 640V254C439 162 378 117 299 117C255 117 216 132 187 157C175 167 167 166 158 152L110 79C102 67 104 56 115 47C156 13 222 -10 307 -10C488 -10 591 94 591 266Z" glyph-name="IJ" horiz-adv-x="658" unicode="&#306;" /><glyph d="M205 0C220 0 227 7 227 22V640C227 655 220 662 205 662H97C82 662 75 655 75 640V22C75 7 82 0 97 0ZM90 771C83 765 81 760 81 754C81 750 83 745 87 740L102 720C108 712 113 709 120 709C124 709 130 711 135 714L297 805C305 810 309 815 309 821C309 825 307 829 304 834L266 893C262 900 256 903 250 903C246 903 241 901 236 897Z" glyph-name="Iacute" horiz-adv-x="302" unicode="&#205;" /><glyph d="M205 0C220 0 227 7 227 22V640C227 655 220 662 205 662H97C82 662 75 655 75 640V22C75 7 82 0 97 0ZM149 719C222 719 279 761 307 823C309 827 310 831 310 834C310 842 305 848 296 852L265 868C259 871 254 872 250 872C240 872 235 866 230 859C211 833 187 815 149 815C111 815 87 833 68 859C63 866 58 872 48 872C44 872 39 871 33 868L2 852C-7 848 -12 842 -12 834C-12 831 -11 827 -9 823C19 761 76 719 149 719Z" glyph-name="Ibreve" horiz-adv-x="302" unicode="&#300;" /><glyph d="M205 0C220 0 227 7 227 22V640C227 655 220 662 205 662H97C82 662 75 655 75 640V22C75 7 82 0 97 0ZM149 778 255 715C260 712 265 711 270 711C276 711 282 714 288 721L306 743C310 748 312 753 312 757C312 763 309 768 302 774L168 878C162 883 156 885 149 885C142 885 136 883 130 878L-4 774C-11 768 -14 763 -14 757C-14 753 -12 748 -8 743L10 721C16 714 22 711 28 711C33 711 38 712 43 715Z" glyph-name="Icircumflex" horiz-adv-x="302" unicode="&#206;" /><glyph d="M205 0C220 0 227 7 227 22V640C227 655 220 662 205 662H97C82 662 75 655 75 640V22C75 7 82 0 97 0ZM126 789C126 829 97 862 52 862C7 862 -22 829 -22 789C-22 749 7 716 52 716C97 716 126 749 126 789ZM320 789C320 829 291 862 246 862C201 862 172 829 172 789C172 749 201 716 246 716C291 716 320 749 320 789Z" glyph-name="Idieresis" horiz-adv-x="302" unicode="&#207;" /><glyph d="M205 0C220 0 227 7 227 22V640C227 655 220 662 205 662H97C82 662 75 655 75 640V22C75 7 82 0 97 0ZM223 789C223 829 194 862 149 862C104 862 75 829 75 789C75 749 104 716 149 716C194 716 223 749 223 789Z" glyph-name="Idotaccent" horiz-adv-x="302" unicode="&#304;" /><glyph d="M205 0C220 0 227 7 227 22V640C227 655 220 662 205 662H97C82 662 75 655 75 640V22C75 7 82 0 97 0ZM68 897C63 901 58 903 54 903C48 903 42 900 38 893L0 834C-3 829 -5 825 -5 821C-5 815 -1 810 7 805L169 714C174 711 180 709 184 709C191 709 196 712 202 720L217 740C221 745 223 750 223 754C223 760 221 765 214 771Z" glyph-name="Igrave" horiz-adv-x="302" unicode="&#204;" /><glyph d="M205 0C220 0 227 7 227 22V640C227 655 220 662 205 662H97C82 662 75 655 75 640V22C75 7 82 0 97 0ZM34 834C19 834 12 827 12 812V762C12 747 19 740 34 740H264C279 740 286 747 286 762V812C286 827 279 834 264 834Z" glyph-name="Imacron" horiz-adv-x="302" unicode="&#298;" /><glyph d="M43 -122C43 -173 83 -214 158 -214C196 -214 230 -203 256 -185C268 -177 270 -166 262 -154L252 -138C243 -123 236 -122 219 -129C206 -134 193 -136 184 -136C152 -136 139 -116 139 -92C139 -68 151 -45 182 0H205C220 0 227 7 227 22V640C227 655 220 662 205 662H97C82 662 75 655 75 640V22C75 7 82 0 97 0H121C75 -33 43 -81 43 -122Z" glyph-name="Iogonek" horiz-adv-x="302" unicode="&#302;" /><glyph d="M205 0C220 0 227 7 227 22V640C227 655 220 662 205 662H97C82 662 75 655 75 640V22C75 7 82 0 97 0ZM211 722C253 722 288 741 318 790C321 795 323 800 323 805C323 811 319 817 313 822L289 841C283 846 278 848 273 848C267 848 262 845 256 839C241 824 223 817 209 817C174 817 148 856 87 856C45 856 10 837 -20 788C-23 783 -25 778 -25 773C-25 767 -21 761 -15 756L9 737C15 732 20 730 25 730C31 730 36 733 42 739C57 754 75 761 89 761C124 761 150 722 211 722Z" glyph-name="Itilde" horiz-adv-x="302" unicode="&#296;" /><glyph d="M420 246V640C420 655 413 662 398 662H290C275 662 268 655 268 640V234C268 155 229 115 172 115C151 115 119 121 93 135C79 143 72 140 65 126L31 56C25 43 28 33 40 26C80 2 133 -10 188 -10C340 -10 420 79 420 246Z" glyph-name="J" horiz-adv-x="487" unicode="J" /><glyph d="M420 246V640C420 655 413 662 398 662H290C275 662 268 655 268 640V234C268 155 229 115 172 115C151 115 119 121 93 135C79 143 72 140 65 126L31 56C25 43 28 33 40 26C80 2 133 -10 188 -10C340 -10 420 79 420 246ZM344 778 450 715C455 712 460 711 465 711C471 711 477 714 483 721L501 743C505 748 507 753 507 757C507 763 504 768 497 774L363 878C357 883 351 885 344 885C337 885 331 883 325 878L191 774C184 768 181 763 181 757C181 753 183 748 187 743L205 721C211 714 217 711 223 711C228 711 233 712 238 715Z" glyph-name="Jcircumflex" horiz-adv-x="487" unicode="&#308;" /><glyph d="M225 22V217C248 237 270 258 293 279C352 203 407 116 457 20C465 5 473 0 489 0H612C626 0 632 7 625 20C561 149 477 277 392 378C466 456 536 541 602 643C610 655 605 662 591 662H463C446 662 439 657 429 641C378 558 307 466 225 372V640C225 655 218 662 203 662H95C80 662 73 655 73 640V22C73 7 80 0 95 0H203C218 0 225 7 225 22Z" glyph-name="K" horiz-adv-x="643" unicode="K" /><glyph d="M466 0C481 0 488 7 488 22V102C488 117 481 124 466 124H225V640C225 655 218 662 203 662H95C80 662 73 655 73 640V22C73 7 80 0 95 0Z" glyph-name="L" horiz-adv-x="520" unicode="L" /><glyph d="M466 0C481 0 488 7 488 22V102C488 117 481 124 466 124H225V640C225 655 218 662 203 662H95C80 662 73 655 73 640V22C73 7 80 0 95 0ZM90 771C83 765 81 760 81 754C81 750 83 745 87 740L102 720C108 712 113 709 120 709C124 709 130 711 135 714L297 805C305 810 309 815 309 821C309 825 307 829 304 834L266 893C262 900 256 903 250 903C246 903 241 901 236 897Z" glyph-name="Lacute" horiz-adv-x="520" unicode="&#313;" /><glyph d="M466 0C481 0 488 7 488 22V102C488 117 481 124 466 124H225V640C225 655 218 662 203 662H95C80 662 73 655 73 640V22C73 7 80 0 95 0ZM306 440 318 437C333 433 341 437 347 452L414 625C415 628 416 632 416 635C416 644 410 649 400 651L332 666C318 669 309 660 307 645L287 464C285 448 291 444 306 440Z" glyph-name="Lcaron" horiz-adv-x="520" unicode="&#317;" /><glyph d="M466 0C481 0 488 7 488 22V102C488 117 481 124 466 124H225V640C225 655 218 662 203 662H95C80 662 73 655 73 640V22C73 7 80 0 95 0ZM470 345C470 385 441 418 396 418C351 418 322 385 322 345C322 305 351 272 396 272C441 272 470 305 470 345Z" glyph-name="Ldot" horiz-adv-x="520" unicode="&#319;" /><glyph d="M492 22V102C492 117 485 124 470 124H229V327L355 393C370 400 375 409 375 425V501C375 515 368 519 355 513L229 447V640C229 655 222 662 207 662H99C84 662 77 655 77 640V369L20 339C5 331 0 323 0 307V230C0 216 7 211 20 218L77 248V22C77 7 84 0 99 0H470C485 0 492 7 492 22Z" glyph-name="Lslash" horiz-adv-x="524" unicode="&#321;" /><glyph d="M216 22V471L353 179C360 164 369 159 385 159H452C468 159 477 164 484 179L621 471V22C621 7 628 0 643 0H742C757 0 764 7 764 22V640C764 655 757 662 742 662H602C586 662 577 657 570 642L423 333L275 642C268 657 259 662 243 662H95C80 662 73 655 73 640V22C73 7 80 0 95 0H194C209 0 216 7 216 22Z" glyph-name="M" horiz-adv-x="837" unicode="M" /><glyph d="M212 22V465L469 19C477 5 486 0 502 0H635C650 0 657 7 657 22V640C657 655 650 662 635 662H540C525 662 518 655 518 640V204L265 643C257 657 248 662 232 662H95C80 662 73 655 73 640V22C73 7 80 0 95 0H190C205 0 212 7 212 22Z" glyph-name="N" horiz-adv-x="730" unicode="N" /><glyph d="M212 22V465L469 19C477 5 486 0 502 0H635C650 0 657 7 657 22V640C657 655 650 662 635 662H540C525 662 518 655 518 640V204L265 643C257 657 248 662 232 662H95C80 662 73 655 73 640V22C73 7 80 0 95 0H190C205 0 212 7 212 22ZM306 771C299 765 297 760 297 754C297 750 299 745 303 740L318 720C324 712 329 709 336 709C340 709 346 711 351 714L513 805C521 810 525 815 525 821C525 825 523 829 520 834L482 893C478 900 472 903 466 903C462 903 457 901 452 897Z" glyph-name="Nacute" horiz-adv-x="730" unicode="&#323;" /><glyph d="M212 22V465L469 19C477 5 486 0 502 0H635C650 0 657 7 657 22V640C657 655 650 662 635 662H540C525 662 518 655 518 640V204L265 643C257 657 248 662 232 662H95C80 662 73 655 73 640V22C73 7 80 0 95 0H190C205 0 212 7 212 22ZM365 818 259 881C254 884 249 885 244 885C238 885 232 882 226 875L208 853C204 848 202 843 202 839C202 833 205 828 212 822L346 718C352 713 358 711 365 711C372 711 378 713 384 718L518 822C525 828 528 833 528 839C528 843 526 848 522 853L504 875C498 882 492 885 486 885C481 885 476 884 471 881Z" glyph-name="Ncaron" horiz-adv-x="730" unicode="&#327;" /><glyph d="M212 22V465L469 19C477 5 486 0 502 0H635C650 0 657 7 657 22V640C657 655 650 662 635 662H540C525 662 518 655 518 640V204L265 643C257 657 248 662 232 662H95C80 662 73 655 73 640V22C73 7 80 0 95 0H190C205 0 212 7 212 22ZM427 722C469 722 504 741 534 790C537 795 539 800 539 805C539 811 535 817 529 822L505 841C499 846 494 848 489 848C483 848 478 845 472 839C457 824 439 817 425 817C390 817 364 856 303 856C261 856 226 837 196 788C193 783 191 778 191 773C191 767 195 761 201 756L225 737C231 732 236 730 241 730C247 730 252 733 258 739C273 754 291 761 305 761C340 761 366 722 427 722Z" glyph-name="Ntilde" horiz-adv-x="730" unicode="&#209;" /><glyph d="M692 331C692 498 603 672 366 672C136 672 40 500 40 331C40 164 129 -10 366 -10C596 -10 692 162 692 331ZM198 331C198 452 254 548 366 548C478 548 534 452 534 331C534 210 478 114 366 114C254 114 198 210 198 331Z" glyph-name="O" horiz-adv-x="732" unicode="O" /><glyph d="M904 96C904 111 897 118 882 118H616V276H845C860 276 867 283 867 298V372C867 387 860 394 845 394H616V544H882C897 544 904 551 904 566V640C904 655 897 662 882 662H362C133 662 40 501 40 331C40 163 126 0 362 0H882C897 0 904 7 904 22ZM372 116C242 116 198 218 198 331C198 444 242 546 372 546H464V116Z" glyph-name="OE" horiz-adv-x="948" unicode="&#338;" /><glyph d="M692 331C692 498 603 672 366 672C136 672 40 500 40 331C40 164 129 -10 366 -10C596 -10 692 162 692 331ZM198 331C198 452 254 548 366 548C478 548 534 452 534 331C534 210 478 114 366 114C254 114 198 210 198 331ZM307 771C300 765 298 760 298 754C298 750 300 745 304 740L319 720C325 712 330 709 337 709C341 709 347 711 352 714L514 805C522 810 526 815 526 821C526 825 524 829 521 834L483 893C479 900 473 903 467 903C463 903 458 901 453 897Z" glyph-name="Oacute" horiz-adv-x="732" unicode="&#211;" /><glyph d="M692 331C692 498 603 672 366 672C136 672 40 500 40 331C40 164 129 -10 366 -10C596 -10 692 162 692 331ZM198 331C198 452 254 548 366 548C478 548 534 452 534 331C534 210 478 114 366 114C254 114 198 210 198 331ZM366 719C439 719 496 761 524 823C526 827 527 831 527 834C527 842 522 848 513 852L482 868C476 871 471 872 467 872C457 872 452 866 447 859C428 833 404 815 366 815C328 815 304 833 285 859C280 866 275 872 265 872C261 872 256 871 250 868L219 852C210 848 205 842 205 834C205 831 206 827 208 823C236 761 293 719 366 719Z" glyph-name="Obreve" horiz-adv-x="732" unicode="&#334;" /><glyph d="M692 331C692 498 603 672 366 672C136 672 40 500 40 331C40 164 129 -10 366 -10C596 -10 692 162 692 331ZM198 331C198 452 254 548 366 548C478 548 534 452 534 331C534 210 478 114 366 114C254 114 198 210 198 331ZM366 778 472 715C477 712 482 711 487 711C493 711 499 714 505 721L523 743C527 748 529 753 529 757C529 763 526 768 519 774L385 878C379 883 373 885 366 885C359 885 353 883 347 878L213 774C206 768 203 763 203 757C203 753 205 748 209 743L227 721C233 714 239 711 245 711C250 711 255 712 260 715Z" glyph-name="Ocircumflex" horiz-adv-x="732" unicode="&#212;" /><glyph d="M692 331C692 498 603 672 366 672C136 672 40 500 40 331C40 164 129 -10 366 -10C596 -10 692 162 692 331ZM198 331C198 452 254 548 366 548C478 548 534 452 534 331C534 210 478 114 366 114C254 114 198 210 198 331ZM343 789C343 829 314 862 269 862C224 862 195 829 195 789C195 749 224 716 269 716C314 716 343 749 343 789ZM537 789C537 829 508 862 463 862C418 862 389 829 389 789C389 749 418 716 463 716C508 716 537 749 537 789Z" glyph-name="Odieresis" horiz-adv-x="732" unicode="&#214;" /><glyph d="M692 331C692 498 603 672 366 672C136 672 40 500 40 331C40 164 129 -10 366 -10C596 -10 692 162 692 331ZM198 331C198 452 254 548 366 548C478 548 534 452 534 331C534 210 478 114 366 114C254 114 198 210 198 331ZM285 897C280 901 275 903 271 903C265 903 259 900 255 893L217 834C214 829 212 825 212 821C212 815 216 810 224 805L386 714C391 711 397 709 401 709C408 709 413 712 419 720L434 740C438 745 440 750 440 754C440 760 438 765 431 771Z" glyph-name="Ograve" horiz-adv-x="732" unicode="&#210;" /><glyph d="M692 331C692 498 603 672 366 672C136 672 40 500 40 331C40 164 129 -10 366 -10C596 -10 692 162 692 331ZM198 331C198 452 254 548 366 548C478 548 534 452 534 331C534 210 478 114 366 114C254 114 198 210 198 331ZM404 841C408 846 411 850 411 855C411 860 408 866 401 871L351 910C346 914 341 916 336 916C331 916 325 913 321 906L228 768C224 762 223 758 223 753C223 747 226 742 233 736L255 718C261 713 266 711 271 711C277 711 282 713 288 719ZM590 841C594 846 597 850 597 855C597 860 594 866 587 871L537 910C532 914 527 916 522 916C517 916 511 913 507 906L414 768C410 762 409 758 409 753C409 747 412 742 419 736L441 718C447 713 452 711 457 711C463 711 468 713 474 719Z" glyph-name="Ohungarumlaut" horiz-adv-x="732" unicode="&#336;" /><glyph d="M692 331C692 498 603 672 366 672C136 672 40 500 40 331C40 164 129 -10 366 -10C596 -10 692 162 692 331ZM198 331C198 452 254 548 366 548C478 548 534 452 534 331C534 210 478 114 366 114C254 114 198 210 198 331ZM251 834C236 834 229 827 229 812V762C229 747 236 740 251 740H481C496 740 503 747 503 762V812C503 827 496 834 481 834Z" glyph-name="Omacron" horiz-adv-x="732" unicode="&#332;" /><glyph d="M167 -42 213 23C256 2 308 -10 371 -10C601 -10 697 162 697 331C697 422 671 514 609 580L697 704C705 715 701 722 688 722H610C594 722 585 717 575 704L529 639C486 660 434 672 371 672C141 672 45 500 45 331C45 240 71 148 133 82L45 -42C37 -53 41 -60 54 -60H132C148 -60 157 -55 167 -42ZM203 331C203 452 259 548 371 548C405 548 433 539 457 524L229 204C212 239 203 283 203 331ZM539 331C539 210 483 114 371 114C337 114 309 123 285 138L513 458C530 423 539 379 539 331Z" glyph-name="Oslash" horiz-adv-x="742" unicode="&#216;" /><glyph d="M692 331C692 498 603 672 366 672C136 672 40 500 40 331C40 164 129 -10 366 -10C596 -10 692 162 692 331ZM198 331C198 452 254 548 366 548C478 548 534 452 534 331C534 210 478 114 366 114C254 114 198 210 198 331ZM428 722C470 722 505 741 535 790C538 795 540 800 540 805C540 811 536 817 530 822L506 841C500 846 495 848 490 848C484 848 479 845 473 839C458 824 440 817 426 817C391 817 365 856 304 856C262 856 227 837 197 788C194 783 192 778 192 773C192 767 196 761 202 756L226 737C232 732 237 730 242 730C248 730 253 733 259 739C274 754 292 761 306 761C341 761 367 722 428 722Z" glyph-name="Otilde" horiz-adv-x="732" unicode="&#213;" /><glyph d="M203 0C218 0 225 7 225 22V204H287C495 204 576 304 576 435C576 563 500 662 287 662H95C80 662 73 655 73 640V22C73 7 80 0 95 0ZM225 544H295C388 544 418 494 418 433C418 372 388 322 295 322H225Z" glyph-name="P" horiz-adv-x="605" unicode="P" /><glyph d="M619 -172C632 -167 637 -157 632 -144L610 -81C604 -66 597 -62 581 -66C570 -68 559 -70 547 -70C508 -70 470 -52 452 -1C624 37 692 192 692 333C692 498 602 672 368 672C135 672 40 500 40 330C40 175 118 21 306 -6C332 -134 419 -185 530 -185C564 -185 594 -180 619 -172ZM198 331C198 452 254 548 366 548C478 548 534 452 534 331C534 210 478 114 366 114C254 114 198 210 198 331Z" glyph-name="Q" horiz-adv-x="732" unicode="Q" /><glyph d="M225 22V236H287C348 160 385 102 433 21C442 5 448 0 465 0H588C602 0 608 7 601 21C548 120 497 199 439 268C507 294 569 355 569 454C569 580 496 662 296 662H95C80 662 73 655 73 640V22C73 7 80 0 95 0H203C218 0 225 7 225 22ZM225 548H292C374 548 410 510 410 449C410 385 373 346 289 346H225Z" glyph-name="R" horiz-adv-x="629" unicode="R" /><glyph d="M225 22V236H287C348 160 385 102 433 21C442 5 448 0 465 0H588C602 0 608 7 601 21C548 120 497 199 439 268C507 294 569 355 569 454C569 580 496 662 296 662H95C80 662 73 655 73 640V22C73 7 80 0 95 0H203C218 0 225 7 225 22ZM225 548H292C374 548 410 510 410 449C410 385 373 346 289 346H225ZM260 771C253 765 251 760 251 754C251 750 253 745 257 740L272 720C278 712 283 709 290 709C294 709 300 711 305 714L467 805C475 810 479 815 479 821C479 825 477 829 474 834L436 893C432 900 426 903 420 903C416 903 411 901 406 897Z" glyph-name="Racute" horiz-adv-x="629" unicode="&#340;" /><glyph d="M225 22V236H287C348 160 385 102 433 21C442 5 448 0 465 0H588C602 0 608 7 601 21C548 120 497 199 439 268C507 294 569 355 569 454C569 580 496 662 296 662H95C80 662 73 655 73 640V22C73 7 80 0 95 0H203C218 0 225 7 225 22ZM225 548H292C374 548 410 510 410 449C410 385 373 346 289 346H225ZM319 818 213 881C208 884 203 885 198 885C192 885 186 882 180 875L162 853C158 848 156 843 156 839C156 833 159 828 166 822L300 718C306 713 312 711 319 711C326 711 332 713 338 718L472 822C479 828 482 833 482 839C482 843 480 848 476 853L458 875C452 882 446 885 440 885C435 885 430 884 425 881Z" glyph-name="Rcaron" horiz-adv-x="629" unicode="&#344;" /><glyph d="M535 192C535 317 458 361 302 402C222 423 194 437 194 480C194 521 225 549 305 549C365 549 413 529 449 505C462 496 470 498 478 512L522 587C529 600 526 610 514 618C472 646 399 672 311 672C151 672 47 604 47 472C47 332 156 295 272 266C358 243 388 223 388 180C388 133 344 113 274 113C207 113 150 136 106 169C94 179 85 177 77 165L31 90C23 77 24 67 36 59C84 24 160 -10 269 -10C432 -10 535 68 535 192Z" glyph-name="S" horiz-adv-x="571" unicode="S" /><glyph d="M535 192C535 317 458 361 302 402C222 423 194 437 194 480C194 521 225 549 305 549C365 549 413 529 449 505C462 496 470 498 478 512L522 587C529 600 526 610 514 618C472 646 399 672 311 672C151 672 47 604 47 472C47 332 156 295 272 266C358 243 388 223 388 180C388 133 344 113 274 113C207 113 150 136 106 169C94 179 85 177 77 165L31 90C23 77 24 67 36 59C84 24 160 -10 269 -10C432 -10 535 68 535 192ZM233 771C226 765 224 760 224 754C224 750 226 745 230 740L245 720C251 712 256 709 263 709C267 709 273 711 278 714L440 805C448 810 452 815 452 821C452 825 450 829 447 834L409 893C405 900 399 903 393 903C389 903 384 901 379 897Z" glyph-name="Sacute" horiz-adv-x="571" unicode="&#346;" /><glyph d="M535 192C535 317 458 361 302 402C222 423 194 437 194 480C194 521 225 549 305 549C365 549 413 529 449 505C462 496 470 498 478 512L522 587C529 600 526 610 514 618C472 646 399 672 311 672C151 672 47 604 47 472C47 332 156 295 272 266C358 243 388 223 388 180C388 133 344 113 274 113C207 113 150 136 106 169C94 179 85 177 77 165L31 90C23 77 24 67 36 59C84 24 160 -10 269 -10C432 -10 535 68 535 192ZM292 818 186 881C181 884 176 885 171 885C165 885 159 882 153 875L135 853C131 848 129 843 129 839C129 833 132 828 139 822L273 718C279 713 285 711 292 711C299 711 305 713 311 718L445 822C452 828 455 833 455 839C455 843 453 848 449 853L431 875C425 882 419 885 413 885C408 885 403 884 398 881Z" glyph-name="Scaron" horiz-adv-x="571" unicode="&#352;" /><glyph d="M535 192C535 317 458 361 302 402C222 423 194 437 194 480C194 521 225 549 305 549C365 549 413 529 449 505C462 496 470 498 478 512L522 587C529 600 526 610 514 618C472 646 399 672 311 672C151 672 47 604 47 472C47 332 156 295 272 266C358 243 388 223 388 180C388 133 344 113 274 113C207 113 150 136 106 169C94 179 85 177 77 165L31 90C23 77 24 67 36 59C84 24 160 -10 269 -10C432 -10 535 68 535 192ZM292 778 398 715C403 712 408 711 413 711C419 711 425 714 431 721L449 743C453 748 455 753 455 757C455 763 452 768 445 774L311 878C305 883 299 885 292 885C285 885 279 883 273 878L139 774C132 768 129 763 129 757C129 753 131 748 135 743L153 721C159 714 165 711 171 711C176 711 181 712 186 715Z" glyph-name="Scircumflex" horiz-adv-x="571" unicode="&#348;" /><glyph d="M335 0C350 0 357 7 357 22V538H513C528 538 535 545 535 560V640C535 655 528 662 513 662H49C34 662 27 655 27 640V560C27 545 34 538 49 538H205V22C205 7 212 0 227 0Z" glyph-name="T" horiz-adv-x="562" unicode="T" /><glyph d="M357 22V277H455C470 277 477 284 477 299V364C477 379 470 386 455 386H357V538H513C528 538 535 545 535 560V640C535 655 528 662 513 662H49C34 662 27 655 27 640V560C27 545 34 538 49 538H205V386H107C92 386 85 379 85 364V299C85 284 92 277 107 277H205V22C205 7 212 0 227 0H335C350 0 357 7 357 22Z" glyph-name="Tbar" horiz-adv-x="562" unicode="&#358;" /><glyph d="M335 0C350 0 357 7 357 22V538H513C528 538 535 545 535 560V640C535 655 528 662 513 662H49C34 662 27 655 27 640V560C27 545 34 538 49 538H205V22C205 7 212 0 227 0ZM281 818 175 881C170 884 165 885 160 885C154 885 148 882 142 875L124 853C120 848 118 843 118 839C118 833 121 828 128 822L262 718C268 713 274 711 281 711C288 711 294 713 300 718L434 822C441 828 444 833 444 839C444 843 442 848 438 853L420 875C414 882 408 885 402 885C397 885 392 884 387 881Z" glyph-name="Tcaron" horiz-adv-x="562" unicode="&#356;" /><glyph d="M335 0C350 0 357 7 357 22V538H513C528 538 535 545 535 560V640C535 655 528 662 513 662H49C34 662 27 655 27 640V560C27 545 34 538 49 538H205V22C205 7 212 0 227 0ZM347 -114C347 -73 321 -45 281 -45C242 -45 217 -73 217 -101C217 -137 253 -145 253 -173C253 -186 247 -197 236 -210C231 -216 229 -220 229 -225C229 -230 232 -235 238 -240L239 -241C245 -246 251 -248 257 -248C262 -248 268 -246 274 -241C316 -205 347 -159 347 -114Z" glyph-name="Tcommaaccent" horiz-adv-x="562" unicode="&#354;" /><glyph d="M95 662C80 662 73 655 73 640V22C73 7 80 0 95 0H203C218 0 225 7 225 22V106H287C495 106 576 206 576 337C576 465 500 564 287 564H225V640C225 655 218 662 203 662ZM418 335C418 274 388 224 295 224H225V446H295C388 446 418 396 418 335Z" glyph-name="Thorn" horiz-adv-x="605" unicode="&#222;" /><glyph d="M615 278V640C615 655 608 662 593 662H485C470 662 463 655 463 640V264C463 164 411 115 341 115C271 115 219 164 219 264V640C219 655 212 662 197 662H89C74 662 67 655 67 640V278C67 93 164 -10 341 -10C518 -10 615 93 615 278Z" glyph-name="U" horiz-adv-x="682" unicode="U" /><glyph d="M615 278V640C615 655 608 662 593 662H485C470 662 463 655 463 640V264C463 164 411 115 341 115C271 115 219 164 219 264V640C219 655 212 662 197 662H89C74 662 67 655 67 640V278C67 93 164 -10 341 -10C518 -10 615 93 615 278ZM282 771C275 765 273 760 273 754C273 750 275 745 279 740L294 720C300 712 305 709 312 709C316 709 322 711 327 714L489 805C497 810 501 815 501 821C501 825 499 829 496 834L458 893C454 900 448 903 442 903C438 903 433 901 428 897Z" glyph-name="Uacute" horiz-adv-x="682" unicode="&#218;" /><glyph d="M615 278V640C615 655 608 662 593 662H485C470 662 463 655 463 640V264C463 164 411 115 341 115C271 115 219 164 219 264V640C219 655 212 662 197 662H89C74 662 67 655 67 640V278C67 93 164 -10 341 -10C518 -10 615 93 615 278ZM341 719C414 719 471 761 499 823C501 827 502 831 502 834C502 842 497 848 488 852L457 868C451 871 446 872 442 872C432 872 427 866 422 859C403 833 379 815 341 815C303 815 279 833 260 859C255 866 250 872 240 872C236 872 231 871 225 868L194 852C185 848 180 842 180 834C180 831 181 827 183 823C211 761 268 719 341 719Z" glyph-name="Ubreve" horiz-adv-x="682" unicode="&#364;" /><glyph d="M615 278V640C615 655 608 662 593 662H485C470 662 463 655 463 640V264C463 164 411 115 341 115C271 115 219 164 219 264V640C219 655 212 662 197 662H89C74 662 67 655 67 640V278C67 93 164 -10 341 -10C518 -10 615 93 615 278ZM341 778 447 715C452 712 457 711 462 711C468 711 474 714 480 721L498 743C502 748 504 753 504 757C504 763 501 768 494 774L360 878C354 883 348 885 341 885C334 885 328 883 322 878L188 774C181 768 178 763 178 757C178 753 180 748 184 743L202 721C208 714 214 711 220 711C225 711 230 712 235 715Z" glyph-name="Ucircumflex" horiz-adv-x="682" unicode="&#219;" /><glyph d="M615 278V640C615 655 608 662 593 662H485C470 662 463 655 463 640V264C463 164 411 115 341 115C271 115 219 164 219 264V640C219 655 212 662 197 662H89C74 662 67 655 67 640V278C67 93 164 -10 341 -10C518 -10 615 93 615 278ZM318 789C318 829 289 862 244 862C199 862 170 829 170 789C170 749 199 716 244 716C289 716 318 749 318 789ZM512 789C512 829 483 862 438 862C393 862 364 829 364 789C364 749 393 716 438 716C483 716 512 749 512 789Z" glyph-name="Udieresis" horiz-adv-x="682" unicode="&#220;" /><glyph d="M615 278V640C615 655 608 662 593 662H485C470 662 463 655 463 640V264C463 164 411 115 341 115C271 115 219 164 219 264V640C219 655 212 662 197 662H89C74 662 67 655 67 640V278C67 93 164 -10 341 -10C518 -10 615 93 615 278ZM260 897C255 901 250 903 246 903C240 903 234 900 230 893L192 834C189 829 187 825 187 821C187 815 191 810 199 805L361 714C366 711 372 709 376 709C383 709 388 712 394 720L409 740C413 745 415 750 415 754C415 760 413 765 406 771Z" glyph-name="Ugrave" horiz-adv-x="682" unicode="&#217;" /><glyph d="M615 278V640C615 655 608 662 593 662H485C470 662 463 655 463 640V264C463 164 411 115 341 115C271 115 219 164 219 264V640C219 655 212 662 197 662H89C74 662 67 655 67 640V278C67 93 164 -10 341 -10C518 -10 615 93 615 278ZM379 841C383 846 386 850 386 855C386 860 383 866 376 871L326 910C321 914 316 916 311 916C306 916 300 913 296 906L203 768C199 762 198 758 198 753C198 747 201 742 208 736L230 718C236 713 241 711 246 711C252 711 257 713 263 719ZM565 841C569 846 572 850 572 855C572 860 569 866 562 871L512 910C507 914 502 916 497 916C492 916 486 913 482 906L389 768C385 762 384 758 384 753C384 747 387 742 394 736L416 718C422 713 427 711 432 711C438 711 443 713 449 719Z" glyph-name="Uhungarumlaut" horiz-adv-x="682" unicode="&#368;" /><glyph d="M615 278V640C615 655 608 662 593 662H485C470 662 463 655 463 640V264C463 164 411 115 341 115C271 115 219 164 219 264V640C219 655 212 662 197 662H89C74 662 67 655 67 640V278C67 93 164 -10 341 -10C518 -10 615 93 615 278ZM226 834C211 834 204 827 204 812V762C204 747 211 740 226 740H456C471 740 478 747 478 762V812C478 827 471 834 456 834Z" glyph-name="Umacron" horiz-adv-x="682" unicode="&#362;" /><glyph d="M455 -185C467 -177 469 -166 461 -154L451 -138C442 -123 435 -122 418 -129C405 -134 392 -136 383 -136C351 -136 338 -116 338 -92C338 -70 348 -48 375 -9C530 4 615 105 615 278V640C615 655 608 662 593 662H485C470 662 463 655 463 640V264C463 164 411 115 341 115C271 115 219 164 219 264V640C219 655 212 662 197 662H89C74 662 67 655 67 640V278C67 105 152 3 309 -9C269 -41 242 -84 242 -122C242 -173 282 -214 357 -214C395 -214 429 -203 455 -185Z" glyph-name="Uogonek" horiz-adv-x="682" unicode="&#370;" /><glyph d="M615 278V640C615 655 608 662 593 662H485C470 662 463 655 463 640V264C463 164 411 115 341 115C271 115 219 164 219 264V640C219 655 212 662 197 662H89C74 662 67 655 67 640V278C67 93 164 -10 341 -10C518 -10 615 93 615 278ZM470 826C470 901 411 953 341 953C271 953 212 901 212 826C212 751 271 699 341 699C411 699 470 751 470 826ZM282 826C282 863 307 887 341 887C375 887 400 863 400 826C400 789 375 765 341 765C307 765 282 789 282 826Z" glyph-name="Uring" horiz-adv-x="682" unicode="&#366;" /><glyph d="M615 278V640C615 655 608 662 593 662H485C470 662 463 655 463 640V264C463 164 411 115 341 115C271 115 219 164 219 264V640C219 655 212 662 197 662H89C74 662 67 655 67 640V278C67 93 164 -10 341 -10C518 -10 615 93 615 278ZM403 722C445 722 480 741 510 790C513 795 515 800 515 805C515 811 511 817 505 822L481 841C475 846 470 848 465 848C459 848 454 845 448 839C433 824 415 817 401 817C366 817 340 856 279 856C237 856 202 837 172 788C169 783 167 778 167 773C167 767 171 761 177 756L201 737C207 732 212 730 217 730C223 730 228 733 234 739C249 754 267 761 281 761C316 761 342 722 403 722Z" glyph-name="Utilde" horiz-adv-x="682" unicode="&#360;" /><glyph d="M405 20C483 199 563 440 606 627C608 635 609 641 609 645C609 654 602 662 590 662H493C477 662 470 655 466 640C427 481 387 325 324 158C260 325 217 480 183 639C179 655 172 662 156 662H48C36 662 29 654 29 645C29 641 30 635 32 627C75 440 155 199 233 20C239 6 248 0 264 0H374C390 0 399 6 405 20Z" glyph-name="V" horiz-adv-x="638" unicode="V" /><glyph d="M374 20C418 141 463 269 502 433C541 269 586 141 630 20C635 6 644 0 660 0H756C772 0 781 6 787 20C849 167 926 422 968 630C969 635 970 641 970 645C970 655 966 662 950 662H841C825 662 818 656 814 640C788 486 761 344 709 177C652 348 607 504 579 640C576 656 569 662 553 662H451C435 662 428 656 425 640C398 504 359 348 303 177C251 346 217 486 190 640C186 656 179 662 163 662H54C38 662 34 655 34 645C34 641 35 635 36 630C78 422 155 167 217 20C223 6 232 0 248 0H344C360 0 369 6 374 20Z" glyph-name="W" horiz-adv-x="1004" unicode="W" /><glyph d="M374 20C418 141 463 269 502 433C541 269 586 141 630 20C635 6 644 0 660 0H756C772 0 781 6 787 20C849 167 926 422 968 630C969 635 970 641 970 645C970 655 966 662 950 662H841C825 662 818 656 814 640C788 486 761 344 709 177C652 348 607 504 579 640C576 656 569 662 553 662H451C435 662 428 656 425 640C398 504 359 348 303 177C251 346 217 486 190 640C186 656 179 662 163 662H54C38 662 34 655 34 645C34 641 35 635 36 630C78 422 155 167 217 20C223 6 232 0 248 0H344C360 0 369 6 374 20ZM443 771C436 765 434 760 434 754C434 750 436 745 440 740L455 720C461 712 466 709 473 709C477 709 483 711 488 714L650 805C658 810 662 815 662 821C662 825 660 829 657 834L619 893C615 900 609 903 603 903C599 903 594 901 589 897Z" glyph-name="Wacute" horiz-adv-x="1004" unicode="&#7810;" /><glyph d="M374 20C418 141 463 269 502 433C541 269 586 141 630 20C635 6 644 0 660 0H756C772 0 781 6 787 20C849 167 926 422 968 630C969 635 970 641 970 645C970 655 966 662 950 662H841C825 662 818 656 814 640C788 486 761 344 709 177C652 348 607 504 579 640C576 656 569 662 553 662H451C435 662 428 656 425 640C398 504 359 348 303 177C251 346 217 486 190 640C186 656 179 662 163 662H54C38 662 34 655 34 645C34 641 35 635 36 630C78 422 155 167 217 20C223 6 232 0 248 0H344C360 0 369 6 374 20ZM502 778 608 715C613 712 618 711 623 711C629 711 635 714 641 721L659 743C663 748 665 753 665 757C665 763 662 768 655 774L521 878C515 883 509 885 502 885C495 885 489 883 483 878L349 774C342 768 339 763 339 757C339 753 341 748 345 743L363 721C369 714 375 711 381 711C386 711 391 712 396 715Z" glyph-name="Wcircumflex" horiz-adv-x="1004" unicode="&#372;" /><glyph d="M374 20C418 141 463 269 502 433C541 269 586 141 630 20C635 6 644 0 660 0H756C772 0 781 6 787 20C849 167 926 422 968 630C969 635 970 641 970 645C970 655 966 662 950 662H841C825 662 818 656 814 640C788 486 761 344 709 177C652 348 607 504 579 640C576 656 569 662 553 662H451C435 662 428 656 425 640C398 504 359 348 303 177C251 346 217 486 190 640C186 656 179 662 163 662H54C38 662 34 655 34 645C34 641 35 635 36 630C78 422 155 167 217 20C223 6 232 0 248 0H344C360 0 369 6 374 20ZM479 789C479 829 450 862 405 862C360 862 331 829 331 789C331 749 360 716 405 716C450 716 479 749 479 789ZM673 789C673 829 644 862 599 862C554 862 525 829 525 789C525 749 554 716 599 716C644 716 673 749 673 789Z" glyph-name="Wdieresis" horiz-adv-x="1004" unicode="&#7812;" /><glyph d="M374 20C418 141 463 269 502 433C541 269 586 141 630 20C635 6 644 0 660 0H756C772 0 781 6 787 20C849 167 926 422 968 630C969 635 970 641 970 645C970 655 966 662 950 662H841C825 662 818 656 814 640C788 486 761 344 709 177C652 348 607 504 579 640C576 656 569 662 553 662H451C435 662 428 656 425 640C398 504 359 348 303 177C251 346 217 486 190 640C186 656 179 662 163 662H54C38 662 34 655 34 645C34 641 35 635 36 630C78 422 155 167 217 20C223 6 232 0 248 0H344C360 0 369 6 374 20ZM421 897C416 901 411 903 407 903C401 903 395 900 391 893L353 834C350 829 348 825 348 821C348 815 352 810 360 805L522 714C527 711 533 709 537 709C544 709 549 712 555 720L570 740C574 745 576 750 576 754C576 760 574 765 567 771Z" glyph-name="Wgrave" horiz-adv-x="1004" unicode="&#7808;" /><glyph d="M177 23C215 97 248 156 307 246C370 155 406 88 439 22C447 7 453 0 470 0H586C599 0 604 5 604 14C604 19 602 25 599 32C563 112 498 217 400 352C486 470 537 554 576 635C580 643 581 647 581 651C581 657 577 662 566 662H459C442 662 435 656 427 640C395 577 366 523 320 450C271 525 240 586 212 641C204 656 199 662 182 662H62C50 662 46 657 46 649C46 644 47 641 50 634C84 559 136 471 228 342C135 218 76 124 28 29C24 21 23 17 23 13C23 5 28 0 39 0H145C162 0 168 6 177 23Z" glyph-name="X" horiz-adv-x="627" unicode="X" /><glyph d="M378 22V227C451 339 534 497 586 641C591 655 585 662 571 662H456C440 662 432 656 428 641C403 559 364 467 306 361C245 467 205 559 180 641C175 656 168 662 152 662H33C19 662 13 655 18 641C69 497 154 339 226 227V22C226 7 233 0 248 0H356C371 0 378 7 378 22Z" glyph-name="Y" horiz-adv-x="604" unicode="Y" /><glyph d="M378 22V227C451 339 534 497 586 641C591 655 585 662 571 662H456C440 662 432 656 428 641C403 559 364 467 306 361C245 467 205 559 180 641C175 656 168 662 152 662H33C19 662 13 655 18 641C69 497 154 339 226 227V22C226 7 233 0 248 0H356C371 0 378 7 378 22ZM243 771C236 765 234 760 234 754C234 750 236 745 240 740L255 720C261 712 266 709 273 709C277 709 283 711 288 714L450 805C458 810 462 815 462 821C462 825 460 829 457 834L419 893C415 900 409 903 403 903C399 903 394 901 389 897Z" glyph-name="Yacute" horiz-adv-x="604" unicode="&#221;" /><glyph d="M378 22V227C451 339 534 497 586 641C591 655 585 662 571 662H456C440 662 432 656 428 641C403 559 364 467 306 361C245 467 205 559 180 641C175 656 168 662 152 662H33C19 662 13 655 18 641C69 497 154 339 226 227V22C226 7 233 0 248 0H356C371 0 378 7 378 22ZM302 778 408 715C413 712 418 711 423 711C429 711 435 714 441 721L459 743C463 748 465 753 465 757C465 763 462 768 455 774L321 878C315 883 309 885 302 885C295 885 289 883 283 878L149 774C142 768 139 763 139 757C139 753 141 748 145 743L163 721C169 714 175 711 181 711C186 711 191 712 196 715Z" glyph-name="Ycircumflex" horiz-adv-x="604" unicode="&#374;" /><glyph d="M378 22V227C451 339 534 497 586 641C591 655 585 662 571 662H456C440 662 432 656 428 641C403 559 364 467 306 361C245 467 205 559 180 641C175 656 168 662 152 662H33C19 662 13 655 18 641C69 497 154 339 226 227V22C226 7 233 0 248 0H356C371 0 378 7 378 22ZM279 789C279 829 250 862 205 862C160 862 131 829 131 789C131 749 160 716 205 716C250 716 279 749 279 789ZM473 789C473 829 444 862 399 862C354 862 325 829 325 789C325 749 354 716 399 716C444 716 473 749 473 789Z" glyph-name="Ydieresis" horiz-adv-x="604" unicode="&#376;" /><glyph d="M378 22V227C451 339 534 497 586 641C591 655 585 662 571 662H456C440 662 432 656 428 641C403 559 364 467 306 361C245 467 205 559 180 641C175 656 168 662 152 662H33C19 662 13 655 18 641C69 497 154 339 226 227V22C226 7 233 0 248 0H356C371 0 378 7 378 22ZM221 897C216 901 211 903 207 903C201 903 195 900 191 893L153 834C150 829 148 825 148 821C148 815 152 810 160 805L322 714C327 711 333 709 337 709C344 709 349 712 355 720L370 740C374 745 376 750 376 754C376 760 374 765 367 771Z" glyph-name="Ygrave" horiz-adv-x="604" unicode="&#7922;" /><glyph d="M562 22V96C562 111 555 118 540 118H211L513 514C530 536 538 555 538 587V640C538 655 531 662 516 662H81C66 662 59 655 59 640V566C59 551 66 544 81 544H363L61 148C44 126 36 107 36 75V22C36 7 43 0 58 0H540C555 0 562 7 562 22Z" glyph-name="Z" horiz-adv-x="594" unicode="Z" /><glyph d="M562 22V96C562 111 555 118 540 118H211L513 514C530 536 538 555 538 587V640C538 655 531 662 516 662H81C66 662 59 655 59 640V566C59 551 66 544 81 544H363L61 148C44 126 36 107 36 75V22C36 7 43 0 58 0H540C555 0 562 7 562 22ZM239 771C232 765 230 760 230 754C230 750 232 745 236 740L251 720C257 712 262 709 269 709C273 709 279 711 284 714L446 805C454 810 458 815 458 821C458 825 456 829 453 834L415 893C411 900 405 903 399 903C395 903 390 901 385 897Z" glyph-name="Zacute" horiz-adv-x="594" unicode="&#377;" /><glyph d="M562 22V96C562 111 555 118 540 118H211L513 514C530 536 538 555 538 587V640C538 655 531 662 516 662H81C66 662 59 655 59 640V566C59 551 66 544 81 544H363L61 148C44 126 36 107 36 75V22C36 7 43 0 58 0H540C555 0 562 7 562 22ZM298 818 192 881C187 884 182 885 177 885C171 885 165 882 159 875L141 853C137 848 135 843 135 839C135 833 138 828 145 822L279 718C285 713 291 711 298 711C305 711 311 713 317 718L451 822C458 828 461 833 461 839C461 843 459 848 455 853L437 875C431 882 425 885 419 885C414 885 409 884 404 881Z" glyph-name="Zcaron" horiz-adv-x="594" unicode="&#381;" /><glyph d="M562 22V96C562 111 555 118 540 118H211L513 514C530 536 538 555 538 587V640C538 655 531 662 516 662H81C66 662 59 655 59 640V566C59 551 66 544 81 544H363L61 148C44 126 36 107 36 75V22C36 7 43 0 58 0H540C555 0 562 7 562 22ZM372 789C372 829 343 862 298 862C253 862 224 829 224 789C224 749 253 716 298 716C343 716 372 749 372 789Z" glyph-name="Zdotaccent" horiz-adv-x="594" unicode="&#379;" /><glyph d="M335 22C335 7 342 0 357 0H452C467 0 474 7 474 22V306C474 415 424 500 262 500C171 500 103 473 58 437C47 427 45 417 53 404L84 355C92 341 100 341 113 349C150 372 189 389 240 389C304 389 328 357 328 298V275C299 285 267 289 230 289C94 289 32 228 32 138C32 57 83 -10 193 -10C258 -10 301 12 335 54ZM179 145C179 173 192 203 262 203C287 203 309 200 328 193V133C306 103 280 87 242 87C194 87 179 114 179 145Z" glyph-name="a" horiz-adv-x="532" unicode="a" /><glyph d="M335 22C335 7 342 0 357 0H452C467 0 474 7 474 22V306C474 415 424 500 262 500C171 500 103 473 58 437C47 427 45 417 53 404L84 355C92 341 100 341 113 349C150 372 189 389 240 389C304 389 328 357 328 298V275C299 285 267 289 230 289C94 289 32 228 32 138C32 57 83 -10 193 -10C258 -10 301 12 335 54ZM179 145C179 173 192 203 262 203C287 203 309 200 328 193V133C306 103 280 87 242 87C194 87 179 114 179 145ZM198 601C191 595 189 590 189 584C189 580 191 575 195 570L210 550C216 542 221 539 228 539C232 539 238 541 243 544L405 635C413 640 417 645 417 651C417 655 415 659 412 664L374 723C370 730 364 733 358 733C354 733 349 731 344 727Z" glyph-name="aacute" horiz-adv-x="532" unicode="&#225;" /><glyph d="M335 22C335 7 342 0 357 0H452C467 0 474 7 474 22V306C474 415 424 500 262 500C171 500 103 473 58 437C47 427 45 417 53 404L84 355C92 341 100 341 113 349C150 372 189 389 240 389C304 389 328 357 328 298V275C299 285 267 289 230 289C94 289 32 228 32 138C32 57 83 -10 193 -10C258 -10 301 12 335 54ZM179 145C179 173 192 203 262 203C287 203 309 200 328 193V133C306 103 280 87 242 87C194 87 179 114 179 145ZM263 549C336 549 393 591 421 653C423 657 424 661 424 664C424 672 419 678 410 682L379 698C373 701 368 702 364 702C354 702 349 696 344 689C325 663 301 645 263 645C225 645 201 663 182 689C177 696 172 702 162 702C158 702 153 701 147 698L116 682C107 678 102 672 102 664C102 661 103 657 105 653C133 591 190 549 263 549Z" glyph-name="abreve" horiz-adv-x="532" unicode="&#259;" /><glyph d="M335 22C335 7 342 0 357 0H452C467 0 474 7 474 22V306C474 415 424 500 262 500C171 500 103 473 58 437C47 427 45 417 53 404L84 355C92 341 100 341 113 349C150 372 189 389 240 389C304 389 328 357 328 298V275C299 285 267 289 230 289C94 289 32 228 32 138C32 57 83 -10 193 -10C258 -10 301 12 335 54ZM179 145C179 173 192 203 262 203C287 203 309 200 328 193V133C306 103 280 87 242 87C194 87 179 114 179 145ZM263 608 369 545C374 542 379 541 384 541C390 541 396 544 402 551L420 573C424 578 426 583 426 587C426 593 423 598 416 604L282 708C276 713 270 715 263 715C256 715 250 713 244 708L110 604C103 598 100 593 100 587C100 583 102 578 106 573L124 551C130 544 136 541 142 541C147 541 152 542 157 545Z" glyph-name="acircumflex" horiz-adv-x="532" unicode="&#226;" /><glyph d="M66 601C59 595 57 590 57 584C57 580 59 575 63 570L78 550C84 542 89 539 96 539C100 539 106 541 111 544L273 635C281 640 285 645 285 651C285 655 283 659 280 664L242 723C238 730 232 733 226 733C222 733 217 731 212 727Z" glyph-name="acute" horiz-adv-x="342" unicode="&#180;" /><glyph d="M66 771C59 765 57 760 57 754C57 750 59 745 63 740L78 720C84 712 89 709 96 709C100 709 106 711 111 714L273 805C281 810 285 815 285 821C285 825 283 829 280 834L242 893C238 900 232 903 226 903C222 903 217 901 212 897Z" glyph-name="acute.case" horiz-adv-x="342" /><glyph d="M335 22C335 7 342 0 357 0H452C467 0 474 7 474 22V306C474 415 424 500 262 500C171 500 103 473 58 437C47 427 45 417 53 404L84 355C92 341 100 341 113 349C150 372 189 389 240 389C304 389 328 357 328 298V275C299 285 267 289 230 289C94 289 32 228 32 138C32 57 83 -10 193 -10C258 -10 301 12 335 54ZM179 145C179 173 192 203 262 203C287 203 309 200 328 193V133C306 103 280 87 242 87C194 87 179 114 179 145ZM240 619C240 659 211 692 166 692C121 692 92 659 92 619C92 579 121 546 166 546C211 546 240 579 240 619ZM434 619C434 659 405 692 360 692C315 692 286 659 286 619C286 579 315 546 360 546C405 546 434 579 434 619Z" glyph-name="adieresis" horiz-adv-x="532" unicode="&#228;" /><glyph d="M765 39C777 47 779 57 772 70L741 126C734 140 726 141 712 133C677 110 633 100 591 100C525 100 483 128 473 205H774C789 205 796 212 796 227V247C796 377 731 500 567 500C495 500 445 478 411 443C382 478 335 500 259 500C171 500 104 473 58 437C47 427 45 417 53 404L84 355C92 341 100 341 113 349C150 372 189 389 240 389C304 389 328 357 328 298V291H254C98 291 32 230 32 136C32 57 79 -10 208 -10C283 -10 342 12 394 57C435 16 497 -10 583 -10C649 -10 715 5 765 39ZM565 403C623 403 649 355 655 292H473C482 371 516 403 565 403ZM245 87C193 87 179 114 179 144C179 174 193 205 283 205H331C333 179 339 153 348 130C318 100 282 87 245 87Z" glyph-name="ae" horiz-adv-x="830" unicode="&#230;" /><glyph d="M335 22C335 7 342 0 357 0H452C467 0 474 7 474 22V306C474 415 424 500 262 500C171 500 103 473 58 437C47 427 45 417 53 404L84 355C92 341 100 341 113 349C150 372 189 389 240 389C304 389 328 357 328 298V275C299 285 267 289 230 289C94 289 32 228 32 138C32 57 83 -10 193 -10C258 -10 301 12 335 54ZM179 145C179 173 192 203 262 203C287 203 309 200 328 193V133C306 103 280 87 242 87C194 87 179 114 179 145ZM182 727C177 731 172 733 168 733C162 733 156 730 152 723L114 664C111 659 109 655 109 651C109 645 113 640 121 635L283 544C288 541 294 539 298 539C305 539 310 542 316 550L331 570C335 575 337 580 337 584C337 590 335 595 328 601Z" glyph-name="agrave" horiz-adv-x="532" unicode="&#224;" /><glyph d="M335 22C335 7 342 0 357 0H452C467 0 474 7 474 22V306C474 415 424 500 262 500C171 500 103 473 58 437C47 427 45 417 53 404L84 355C92 341 100 341 113 349C150 372 189 389 240 389C304 389 328 357 328 298V275C299 285 267 289 230 289C94 289 32 228 32 138C32 57 83 -10 193 -10C258 -10 301 12 335 54ZM179 145C179 173 192 203 262 203C287 203 309 200 328 193V133C306 103 280 87 242 87C194 87 179 114 179 145ZM148 664C133 664 126 657 126 642V592C126 577 133 570 148 570H378C393 570 400 577 400 592V642C400 657 393 664 378 664Z" glyph-name="amacron" horiz-adv-x="532" unicode="&#257;" /><glyph d="M605 6C613 0 618 -3 623 -3C630 -3 634 1 639 7L688 71C698 83 697 92 685 102L595 173C620 228 634 291 637 356C638 371 631 378 616 378H532C517 378 509 372 509 356C509 319 504 284 495 253L328 385C274 428 241 454 241 494C241 533 274 558 336 558C381 558 417 544 446 524C452 520 456 518 460 518C466 518 469 521 475 529L519 593C528 606 526 615 514 623C476 649 414 672 333 672C186 672 95 599 95 499C95 452 115 412 157 368C82 322 50 257 50 191C50 76 147 -10 301 -10C398 -10 471 21 524 70ZM192 204C192 236 203 268 234 300L431 144C401 117 363 101 316 101C240 101 192 144 192 204Z" glyph-name="ampersand" horiz-adv-x="710" unicode="&amp;" /><glyph d="M474 22V306C474 415 424 500 262 500C171 500 103 473 58 437C47 427 45 417 53 404L84 355C92 341 100 341 113 349C150 372 189 389 240 389C304 389 328 357 328 298V275C299 285 267 289 230 289C94 289 32 228 32 138C32 57 83 -10 193 -10C258 -10 301 12 335 54V0C289 -33 257 -81 257 -122C257 -173 297 -214 372 -214C410 -214 444 -203 470 -185C482 -177 484 -166 476 -154L466 -138C457 -123 450 -122 433 -129C420 -134 407 -136 398 -136C366 -136 353 -116 353 -92C353 -68 365 -45 396 0H452C467 0 474 7 474 22ZM179 145C179 173 192 203 262 203C287 203 309 200 328 193V133C306 103 280 87 242 87C194 87 179 114 179 145Z" glyph-name="aogonek" horiz-adv-x="532" unicode="&#261;" /><glyph d="M357 349C435 349 491 421 506 459C508 464 509 468 509 472C509 483 503 488 495 492L454 512C450 514 446 515 442 515C435 515 430 512 425 503C408 474 389 451 359 451C308 451 255 526 175 526C97 526 41 454 26 416C24 411 23 407 23 403C23 392 29 387 37 383L78 363C82 361 86 360 90 360C97 360 102 363 107 372C124 401 143 424 173 424C224 424 277 349 357 349ZM357 136C435 136 491 208 506 246C508 251 509 255 509 259C509 270 503 275 495 279L454 299C450 301 446 302 442 302C435 302 430 299 425 290C408 261 389 238 359 238C308 238 255 313 175 313C97 313 41 241 26 203C24 198 23 194 23 190C23 179 29 174 37 170L78 150C82 148 86 147 90 147C97 147 102 150 107 159C124 188 143 211 173 211C224 211 277 136 357 136Z" glyph-name="approxequal" horiz-adv-x="532" unicode="&#8776;" /><glyph d="M335 22C335 7 342 0 357 0H452C467 0 474 7 474 22V306C474 415 424 500 262 500C171 500 103 473 58 437C47 427 45 417 53 404L84 355C92 341 100 341 113 349C150 372 189 389 240 389C304 389 328 357 328 298V275C299 285 267 289 230 289C94 289 32 228 32 138C32 57 83 -10 193 -10C258 -10 301 12 335 54ZM179 145C179 173 192 203 262 203C287 203 309 200 328 193V133C306 103 280 87 242 87C194 87 179 114 179 145ZM392 666C392 741 333 793 263 793C193 793 134 741 134 666C134 591 193 539 263 539C333 539 392 591 392 666ZM204 666C204 703 229 727 263 727C297 727 322 703 322 666C322 629 297 605 263 605C229 605 204 629 204 666Z" glyph-name="aring" horiz-adv-x="532" unicode="&#229;" /><glyph d="M480 325 522 355C530 360 533 365 533 371C533 375 531 380 527 386L344 647C335 660 325 665 309 665H261C245 665 235 660 226 647L43 386C39 380 37 375 37 371C37 365 40 360 48 355L90 325C95 321 100 319 105 319C111 319 116 322 121 330L285 566L449 330C454 322 459 319 465 319C470 319 475 321 480 325Z" glyph-name="asciicircum" horiz-adv-x="570" unicode="^" /><glyph d="M357 243C435 243 491 315 506 353C508 358 509 362 509 366C509 377 503 382 495 386L454 406C450 408 446 409 442 409C435 409 430 406 425 397C408 368 389 345 359 345C308 345 255 420 175 420C97 420 41 348 26 310C24 305 23 301 23 297C23 286 29 281 37 277L78 257C82 255 86 254 90 254C97 254 102 257 107 266C124 295 143 318 173 318C224 318 277 243 357 243Z" glyph-name="asciitilde" horiz-adv-x="532" unicode="~" /><glyph d="M196 718C181 718 175 709 176 696L183 589L90 626C79 630 74 631 71 631C63 631 59 627 56 617L41 569C40 566 39 560 39 558C39 548 46 543 57 540L159 514L89 431C85 426 83 421 83 417C83 412 86 407 93 402L135 371C140 367 145 365 149 365C155 365 160 369 165 377L222 468L279 377C284 369 289 365 295 365C299 365 304 367 309 371L351 402C358 407 361 412 361 417C361 421 359 426 355 431L285 514L387 540C398 543 405 548 405 558C405 560 404 566 403 569L388 617C385 627 381 631 373 631C370 631 365 630 354 626L261 589L268 696C269 709 263 718 248 718Z" glyph-name="asterisk" horiz-adv-x="444" unicode="*" /><glyph d="M645 -105C658 -97 662 -88 655 -74L643 -50C636 -37 628 -35 615 -41C567 -64 505 -83 435 -83C255 -83 126 40 126 247C126 459 261 575 449 575C633 575 755 463 755 275C755 172 711 124 668 124C641 124 627 139 627 170V413C627 428 620 435 606 435H539C524 435 518 428 518 413V392C491 427 449 443 404 443C306 443 241 369 241 245C241 121 306 47 405 47C457 47 502 68 533 110C551 72 597 47 650 47C761 47 832 142 832 284C832 501 680 646 449 646C207 646 46 487 46 247C46 9 204 -154 433 -154C526 -154 597 -129 645 -105ZM360 245C360 319 392 354 442 354C468 354 493 344 512 316V175C491 144 466 136 442 136C392 136 360 171 360 245Z" glyph-name="at" horiz-adv-x="875" unicode="@" /><glyph d="M335 22C335 7 342 0 357 0H452C467 0 474 7 474 22V306C474 415 424 500 262 500C171 500 103 473 58 437C47 427 45 417 53 404L84 355C92 341 100 341 113 349C150 372 189 389 240 389C304 389 328 357 328 298V275C299 285 267 289 230 289C94 289 32 228 32 138C32 57 83 -10 193 -10C258 -10 301 12 335 54ZM179 145C179 173 192 203 262 203C287 203 309 200 328 193V133C306 103 280 87 242 87C194 87 179 114 179 145ZM325 552C367 552 402 571 432 620C435 625 437 630 437 635C437 641 433 647 427 652L403 671C397 676 392 678 387 678C381 678 376 675 370 669C355 654 337 647 323 647C288 647 262 686 201 686C159 686 124 667 94 618C91 613 89 608 89 603C89 597 93 591 99 586L123 567C129 562 134 560 139 560C145 560 150 563 156 569C171 584 189 591 203 591C238 591 264 552 325 552Z" glyph-name="atilde" horiz-adv-x="532" unicode="&#227;" /><glyph d="M560 247C560 410 479 500 351 500C287 500 243 475 208 434V696C208 711 201 718 186 718H84C69 718 62 711 62 696V22C62 7 69 0 84 0H179C194 0 201 7 201 22V59C238 16 284 -10 351 -10C479 -10 560 91 560 247ZM304 388C368 388 410 342 410 245C410 148 368 102 305 102C265 102 236 117 208 152V333C232 367 264 388 304 388Z" glyph-name="b" horiz-adv-x="594" unicode="b" /><glyph d="M356 -74C356 -70 355 -65 353 -58L109 731C104 747 96 752 80 752H23C11 752 4 747 4 736C4 732 5 727 7 720L251 -69C256 -85 264 -90 280 -90H337C349 -90 356 -85 356 -74Z" glyph-name="backslash" horiz-adv-x="360" unicode="\" /><glyph d="M192 -90C207 -90 214 -83 214 -68V730C214 745 207 752 192 752H134C119 752 112 745 112 730V-68C112 -83 119 -90 134 -90Z" glyph-name="bar" horiz-adv-x="326" unicode="|" /><glyph d="M25 -234H55V953H25Z" glyph-name="bbox" horiz-adv-x="80" /><glyph d="M160 321C214 354 235 410 235 509V575C235 634 254 652 301 652H337C352 652 359 659 359 674V718C359 733 352 740 337 740H285C164 740 113 692 113 555V495C113 380 83 370 49 365C41 364 30 362 30 343V299C30 280 41 278 49 277C83 272 113 262 113 147V87C113 -50 164 -98 285 -98H337C352 -98 359 -91 359 -76V-32C359 -17 352 -10 337 -10H301C254 -10 235 8 235 67V133C235 232 214 288 160 321Z" glyph-name="braceleft" horiz-adv-x="375" unicode="{" /><glyph d="M215 321C161 288 140 232 140 133V67C140 8 121 -10 74 -10H38C23 -10 16 -17 16 -32V-76C16 -91 23 -98 38 -98H90C211 -98 262 -50 262 87V147C262 262 292 272 326 277C334 278 345 280 345 299V343C345 362 334 364 326 365C292 370 262 380 262 495V555C262 692 211 740 90 740H38C23 740 16 733 16 718V674C16 659 23 652 38 652H74C121 652 140 634 140 575V509C140 410 161 354 215 321Z" glyph-name="braceright" horiz-adv-x="375" unicode="}" /><glyph d="M316 -98C331 -98 338 -91 338 -76V-32C338 -17 331 -10 316 -10H208V652H316C331 652 338 659 338 674V718C338 733 331 740 316 740H107C92 740 85 733 85 718V-76C85 -91 92 -98 107 -98Z" glyph-name="bracketleft" horiz-adv-x="355" unicode="[" /><glyph d="M39 740C24 740 17 733 17 718V674C17 659 24 652 39 652H147V-10H39C24 -10 17 -17 17 -32V-76C17 -91 24 -98 39 -98H248C263 -98 270 -91 270 -76V718C270 733 263 740 248 740Z" glyph-name="bracketright" horiz-adv-x="355" unicode="]" /><glyph d="M215 549C288 549 345 591 373 653C375 657 376 661 376 664C376 672 371 678 362 682L331 698C325 701 320 702 316 702C306 702 301 696 296 689C277 663 253 645 215 645C177 645 153 663 134 689C129 696 124 702 114 702C110 702 105 701 99 698L68 682C59 678 54 672 54 664C54 661 55 657 57 653C85 591 142 549 215 549Z" glyph-name="breve" horiz-adv-x="430" unicode="&#728;" /><glyph d="M215 719C288 719 345 761 373 823C375 827 376 831 376 834C376 842 371 848 362 852L331 868C325 871 320 872 316 872C306 872 301 866 296 859C277 833 253 815 215 815C177 815 153 833 134 859C129 866 124 872 114 872C110 872 105 871 99 868L68 852C59 848 54 842 54 834C54 831 55 827 57 823C85 761 142 719 215 719Z" glyph-name="breve.case" horiz-adv-x="430" /><glyph d="M192 437C207 437 214 444 214 459V730C214 745 207 752 192 752H134C119 752 112 745 112 730V459C112 444 119 437 134 437ZM192 -90C207 -90 214 -83 214 -68V203C214 218 207 225 192 225H134C119 225 112 218 112 203V-68C112 -83 119 -90 134 -90Z" glyph-name="brokenbar" horiz-adv-x="326" unicode="&#166;" /><glyph d="M344 292C344 374 287 441 197 441C107 441 50 374 50 292C50 210 107 143 197 143C287 143 344 210 344 292Z" glyph-name="bullet" horiz-adv-x="394" unicode="&#8226;" /><glyph d="M438 39C450 48 452 58 444 71L411 127C403 141 395 142 382 133C354 113 325 100 292 100C224 100 184 154 184 242C184 327 217 390 294 390C327 390 356 379 381 361C394 352 403 354 410 368L441 424C448 437 446 447 434 456C395 485 346 500 284 500C107 500 34 374 34 239C34 99 110 -10 276 -10C334 -10 392 6 438 39Z" glyph-name="c" horiz-adv-x="481" unicode="c" /><glyph d="M438 39C450 48 452 58 444 71L411 127C403 141 395 142 382 133C354 113 325 100 292 100C224 100 184 154 184 242C184 327 217 390 294 390C327 390 356 379 381 361C394 352 403 354 410 368L441 424C448 437 446 447 434 456C395 485 346 500 284 500C107 500 34 374 34 239C34 99 110 -10 276 -10C334 -10 392 6 438 39ZM199 601C192 595 190 590 190 584C190 580 192 575 196 570L211 550C217 542 222 539 229 539C233 539 239 541 244 544L406 635C414 640 418 645 418 651C418 655 416 659 413 664L375 723C371 730 365 733 359 733C355 733 350 731 345 727Z" glyph-name="cacute" horiz-adv-x="481" unicode="&#263;" /><glyph d="M221 648 115 711C110 714 105 715 100 715C94 715 88 712 82 705L64 683C60 678 58 673 58 669C58 663 61 658 68 652L202 548C208 543 214 541 221 541C228 541 234 543 240 548L374 652C381 658 384 663 384 669C384 673 382 678 378 683L360 705C354 712 348 715 342 715C337 715 332 714 327 711Z" glyph-name="caron" horiz-adv-x="442" unicode="&#711;" /><glyph d="M221 818 115 881C110 884 105 885 100 885C94 885 88 882 82 875L64 853C60 848 58 843 58 839C58 833 61 828 68 822L202 718C208 713 214 711 221 711C228 711 234 713 240 718L374 822C381 828 384 833 384 839C384 843 382 848 378 853L360 875C354 882 348 885 342 885C337 885 332 884 327 881Z" glyph-name="caron.case" horiz-adv-x="442" /><glyph d="M438 39C450 48 452 58 444 71L411 127C403 141 395 142 382 133C354 113 325 100 292 100C224 100 184 154 184 242C184 327 217 390 294 390C327 390 356 379 381 361C394 352 403 354 410 368L441 424C448 437 446 447 434 456C395 485 346 500 284 500C107 500 34 374 34 239C34 99 110 -10 276 -10C334 -10 392 6 438 39ZM264 648 158 711C153 714 148 715 143 715C137 715 131 712 125 705L107 683C103 678 101 673 101 669C101 663 104 658 111 652L245 548C251 543 257 541 264 541C271 541 277 543 283 548L417 652C424 658 427 663 427 669C427 673 425 678 421 683L403 705C397 712 391 715 385 715C380 715 375 714 370 711Z" glyph-name="ccaron" horiz-adv-x="481" unicode="&#269;" /><glyph d="M386 -116C386 -68 349 -38 293 -38C283 -38 274 -39 263 -42L284 -10C340 -8 394 8 438 39C450 48 452 58 444 71L411 127C403 141 395 142 382 133C354 113 325 100 292 100C224 100 184 154 184 242C184 327 217 390 294 390C327 390 356 379 381 361C394 352 403 354 410 368L441 424C448 437 446 447 434 456C395 485 346 500 284 500C107 500 34 374 34 239C34 113 96 12 229 -7L200 -52C193 -64 195 -73 204 -82C213 -90 218 -94 227 -94C237 -94 245 -91 260 -91C286 -91 297 -105 297 -120C297 -139 280 -149 258 -149C241 -149 225 -146 212 -139C206 -136 202 -135 198 -135C191 -135 186 -140 181 -148L171 -164C164 -176 166 -185 179 -193C203 -208 233 -214 260 -214C343 -214 386 -168 386 -116Z" glyph-name="ccedilla" horiz-adv-x="481" unicode="&#231;" /><glyph d="M438 39C450 48 452 58 444 71L411 127C403 141 395 142 382 133C354 113 325 100 292 100C224 100 184 154 184 242C184 327 217 390 294 390C327 390 356 379 381 361C394 352 403 354 410 368L441 424C448 437 446 447 434 456C395 485 346 500 284 500C107 500 34 374 34 239C34 99 110 -10 276 -10C334 -10 392 6 438 39ZM264 608 370 545C375 542 380 541 385 541C391 541 397 544 403 551L421 573C425 578 427 583 427 587C427 593 424 598 417 604L283 708C277 713 271 715 264 715C257 715 251 713 245 708L111 604C104 598 101 593 101 587C101 583 103 578 107 573L125 551C131 544 137 541 143 541C148 541 153 542 158 545Z" glyph-name="ccircumflex" horiz-adv-x="481" unicode="&#265;" /><glyph d="M438 39C450 48 452 58 444 71L411 127C403 141 395 142 382 133C354 113 325 100 292 100C224 100 184 154 184 242C184 327 217 390 294 390C327 390 356 379 381 361C394 352 403 354 410 368L441 424C448 437 446 447 434 456C395 485 346 500 284 500C107 500 34 374 34 239C34 99 110 -10 276 -10C334 -10 392 6 438 39ZM338 619C338 659 309 692 264 692C219 692 190 659 190 619C190 579 219 546 264 546C309 546 338 579 338 619Z" glyph-name="cdotaccent" horiz-adv-x="481" unicode="&#267;" /><glyph d="M275 -116C275 -68 238 -38 182 -38C172 -38 163 -39 152 -42L180 0H122L89 -52C82 -64 84 -73 93 -82C102 -90 107 -94 116 -94C126 -94 134 -91 149 -91C175 -91 186 -105 186 -120C186 -139 169 -149 147 -149C130 -149 114 -146 101 -139C95 -136 91 -135 87 -135C80 -135 75 -140 70 -148L60 -164C53 -176 55 -185 68 -193C92 -208 122 -214 149 -214C232 -214 275 -168 275 -116Z" glyph-name="cedilla" horiz-adv-x="325" unicode="&#184;" /><glyph d="M359 2V88C412 96 458 117 485 136C497 145 500 154 492 167L459 223C451 237 443 239 430 229C414 217 388 202 356 195V465C385 460 406 449 429 433C442 424 450 426 458 440L489 496C496 509 494 519 481 527C455 545 416 565 359 572V657C359 672 352 679 337 679H293C278 679 271 672 271 657V573C134 556 48 462 48 325C48 191 127 101 271 86V2C271 -13 278 -20 293 -20H337C352 -20 359 -13 359 2ZM187 324C187 404 222 450 274 464V195C220 207 187 248 187 324Z" glyph-name="cent" horiz-adv-x="532" unicode="&#162;" /><glyph d="M221 608 327 545C332 542 337 541 342 541C348 541 354 544 360 551L378 573C382 578 384 583 384 587C384 593 381 598 374 604L240 708C234 713 228 715 221 715C214 715 208 713 202 708L68 604C61 598 58 593 58 587C58 583 60 578 64 573L82 551C88 544 94 541 100 541C105 541 110 542 115 545Z" glyph-name="circumflex" horiz-adv-x="442" unicode="&#710;" /><glyph d="M221 778 327 715C332 712 337 711 342 711C348 711 354 714 360 721L378 743C382 748 384 753 384 757C384 763 381 768 374 774L240 878C234 883 228 885 221 885C214 885 208 883 202 878L68 774C61 768 58 763 58 757C58 753 60 748 64 743L82 721C88 714 94 711 100 711C105 711 110 712 115 715Z" glyph-name="circumflex.case" horiz-adv-x="442" /><glyph d="M229 407C229 458 193 500 137 500C81 500 45 458 45 407C45 356 81 314 137 314C193 314 229 356 229 407ZM229 83C229 134 193 176 137 176C81 176 45 134 45 83C45 32 81 -10 137 -10C193 -10 229 32 229 83Z" glyph-name="colon" horiz-adv-x="274" unicode=":" /><glyph d="M209 78C209 132 183 176 120 176C62 176 31 141 31 91C31 40 83 21 83 -21C83 -58 72 -83 44 -119C40 -124 38 -129 38 -133C38 -139 41 -143 49 -148L67 -159C72 -162 79 -164 84 -164C89 -164 95 -162 101 -156C169 -85 209 13 209 78Z" glyph-name="comma" horiz-adv-x="240" unicode="," /><glyph d="M389 -10C583 -10 730 136 730 331C730 526 583 672 389 672C195 672 48 526 48 331C48 136 195 -10 389 -10ZM389 607C545 607 658 490 658 331C658 172 545 55 389 55C233 55 120 172 120 331C120 490 233 607 389 607ZM517 189C527 197 533 205 522 217L498 247C488 259 481 261 469 252C449 238 425 230 404 230C352 230 323 268 323 332C323 397 355 436 401 436C423 436 442 429 463 414C476 405 482 406 491 418L515 451C523 461 522 472 511 480C484 505 446 518 401 518C280 518 225 434 225 333C225 233 278 148 401 148C444 148 485 163 517 189Z" glyph-name="copyright" horiz-adv-x="778" unicode="&#169;" /><glyph d="M109 83 177 152C204 140 234 134 266 134C298 134 328 140 355 152L423 83C433 73 443 72 454 83L495 124C506 135 506 147 496 156L436 215C461 247 476 287 476 331C476 375 461 415 436 447L496 506C506 515 506 527 495 538L454 579C443 590 433 589 423 579L355 510C328 522 298 528 266 528C234 528 204 522 177 510L109 579C99 589 89 590 78 579L37 538C26 527 26 515 36 506L96 447C71 415 56 375 56 331C56 287 71 247 96 215L36 156C26 146 26 135 37 124L78 83C89 72 100 73 109 83ZM178 331C178 382 210 424 266 424C322 424 354 382 354 331C354 280 322 238 266 238C210 238 178 280 178 331Z" glyph-name="currency" horiz-adv-x="532" unicode="&#164;" /><glyph d="M393 22C393 7 400 0 415 0H510C525 0 532 7 532 22V696C532 711 525 718 510 718H408C393 718 386 711 386 696V439C350 477 306 500 243 500C115 500 34 399 34 243C34 80 115 -10 243 -10C311 -10 357 19 393 64ZM184 245C184 342 226 388 289 388C329 388 358 373 386 338V157C362 123 330 102 290 102C226 102 184 148 184 245Z" glyph-name="d" horiz-adv-x="594" unicode="d" /><glyph d="M180 511V234C180 219 187 212 202 212H246C261 212 268 219 268 234V511H372C387 511 394 518 394 533V567C394 582 387 589 372 589H268V696C268 711 261 718 246 718H202C187 718 180 711 180 696V589H76C61 589 54 582 54 567V533C54 518 61 511 76 511Z" glyph-name="dagger" horiz-adv-x="448" unicode="&#8224;" /><glyph d="M268 299H372C387 299 394 306 394 321V355C394 370 387 377 372 377H268V511H372C387 511 394 518 394 533V567C394 582 387 589 372 589H268V696C268 711 261 718 246 718H202C187 718 180 711 180 696V589H76C61 589 54 582 54 567V533C54 518 61 511 76 511H180V377H76C61 377 54 370 54 355V321C54 306 61 299 76 299H180V152C180 137 187 130 202 130H246C261 130 268 137 268 152Z" glyph-name="daggerdbl" horiz-adv-x="448" unicode="&#8225;" /><glyph d="M393 22C393 7 400 0 415 0H510C525 0 532 7 532 22V696C532 711 525 718 510 718H408C393 718 386 711 386 696V439C350 477 306 500 243 500C115 500 34 399 34 243C34 80 115 -10 243 -10C311 -10 357 19 393 64ZM184 245C184 342 226 388 289 388C329 388 358 373 386 338V157C362 123 330 102 290 102C226 102 184 148 184 245ZM593 496 605 493C620 489 628 493 634 508L701 681C702 684 703 688 703 691C703 700 697 705 687 707L619 722C605 725 596 716 594 701L574 520C572 504 578 500 593 496Z" glyph-name="dcaron" horiz-adv-x="594" unicode="&#271;" /><glyph d="M393 64V22C393 7 400 0 415 0H510C525 0 532 7 532 22V550H565C580 550 587 557 587 572V622C587 637 580 644 565 644H532V696C532 711 525 718 510 718H408C393 718 386 711 386 696V644H293C278 644 271 637 271 622V572C271 557 278 550 293 550H386V439C350 477 306 500 243 500C115 500 34 399 34 243C34 80 115 -10 243 -10C311 -10 357 19 393 64ZM184 245C184 342 226 388 289 388C329 388 358 373 386 338V157C362 123 330 102 290 102C226 102 184 148 184 245Z" glyph-name="dcroat" horiz-adv-x="594" unicode="&#273;" /><glyph d="M374 503C374 598 300 672 203 672C106 672 32 598 32 503C32 408 106 334 203 334C300 334 374 408 374 503ZM118 503C118 553 154 589 203 589C252 589 288 553 288 503C288 453 252 417 203 417C154 417 118 453 118 503Z" glyph-name="degree" horiz-adv-x="406" unicode="&#176;" /><glyph d="M198 619C198 659 169 692 124 692C79 692 50 659 50 619C50 579 79 546 124 546C169 546 198 579 198 619ZM392 619C392 659 363 692 318 692C273 692 244 659 244 619C244 579 273 546 318 546C363 546 392 579 392 619Z" glyph-name="dieresis" horiz-adv-x="442" unicode="&#168;" /><glyph d="M198 789C198 829 169 862 124 862C79 862 50 829 50 789C50 749 79 716 124 716C169 716 198 749 198 789ZM392 789C392 829 363 862 318 862C273 862 244 829 244 789C244 749 273 716 318 716C363 716 392 749 392 789Z" glyph-name="dieresis.case" horiz-adv-x="442" /><glyph d="M340 513C340 553 311 586 266 586C221 586 192 553 192 513C192 473 221 440 266 440C311 440 340 473 340 513ZM486 282C501 282 508 289 508 304V358C508 373 501 380 486 380H46C31 380 24 373 24 358V304C24 289 31 282 46 282ZM340 149C340 189 311 222 266 222C221 222 192 189 192 149C192 109 221 76 266 76C311 76 340 109 340 149Z" glyph-name="divide" horiz-adv-x="532" unicode="&#247;" /><glyph d="M316 -62V13C436 29 508 104 508 199C508 304 433 356 312 388V533C362 526 398 507 420 493C433 485 442 487 450 501L490 567C498 580 495 590 483 597C451 619 400 644 316 650V714C316 729 309 736 294 736H250C235 736 228 729 228 714V649C111 635 36 563 36 462C36 350 121 305 232 277V128C169 136 126 160 98 181C85 191 77 188 68 175L24 110C15 97 19 88 31 79C67 52 131 19 228 11V-62C228 -77 235 -84 250 -84H294C309 -84 316 -77 316 -62ZM169 471C169 501 193 525 232 534V406C183 421 169 439 169 471ZM375 190C375 157 352 136 312 128V257C354 243 375 224 375 190Z" glyph-name="dollar" horiz-adv-x="532" unicode="$" /><glyph d="M198 619C198 659 169 692 124 692C79 692 50 659 50 619C50 579 79 546 124 546C169 546 198 579 198 619Z" glyph-name="dotaccent" horiz-adv-x="248" unicode="&#729;" /><glyph d="M198 789C198 829 169 862 124 862C79 862 50 829 50 789C50 749 79 716 124 716C169 716 198 749 198 789Z" glyph-name="dotaccent.case" horiz-adv-x="248" /><glyph d="M188 0C203 0 210 7 210 22V468C210 483 203 490 188 490H86C71 490 64 483 64 468V22C64 7 71 0 86 0Z" glyph-name="dotlessi" horiz-adv-x="274" unicode="&#305;" /><glyph d="M470 39C482 47 484 57 477 70L446 126C439 140 431 141 417 133C382 110 338 100 296 100C228 100 187 129 178 209H479C494 209 501 216 501 231V251C501 381 434 500 270 500C102 500 34 375 34 242C34 105 105 -10 288 -10C354 -10 420 5 470 39ZM270 403C328 403 354 359 360 296H179C188 373 222 403 270 403Z" glyph-name="e" horiz-adv-x="535" unicode="e" /><glyph d="M470 39C482 47 484 57 477 70L446 126C439 140 431 141 417 133C382 110 338 100 296 100C228 100 187 129 178 209H479C494 209 501 216 501 231V251C501 381 434 500 270 500C102 500 34 375 34 242C34 105 105 -10 288 -10C354 -10 420 5 470 39ZM270 403C328 403 354 359 360 296H179C188 373 222 403 270 403ZM207 601C200 595 198 590 198 584C198 580 200 575 204 570L219 550C225 542 230 539 237 539C241 539 247 541 252 544L414 635C422 640 426 645 426 651C426 655 424 659 421 664L383 723C379 730 373 733 367 733C363 733 358 731 353 727Z" glyph-name="eacute" horiz-adv-x="535" unicode="&#233;" /><glyph d="M470 39C482 47 484 57 477 70L446 126C439 140 431 141 417 133C382 110 338 100 296 100C228 100 187 129 178 209H479C494 209 501 216 501 231V251C501 381 434 500 270 500C102 500 34 375 34 242C34 105 105 -10 288 -10C354 -10 420 5 470 39ZM270 403C328 403 354 359 360 296H179C188 373 222 403 270 403ZM272 549C345 549 402 591 430 653C432 657 433 661 433 664C433 672 428 678 419 682L388 698C382 701 377 702 373 702C363 702 358 696 353 689C334 663 310 645 272 645C234 645 210 663 191 689C186 696 181 702 171 702C167 702 162 701 156 698L125 682C116 678 111 672 111 664C111 661 112 657 114 653C142 591 199 549 272 549Z" glyph-name="ebreve" horiz-adv-x="535" unicode="&#277;" /><glyph d="M470 39C482 47 484 57 477 70L446 126C439 140 431 141 417 133C382 110 338 100 296 100C228 100 187 129 178 209H479C494 209 501 216 501 231V251C501 381 434 500 270 500C102 500 34 375 34 242C34 105 105 -10 288 -10C354 -10 420 5 470 39ZM270 403C328 403 354 359 360 296H179C188 373 222 403 270 403ZM272 648 166 711C161 714 156 715 151 715C145 715 139 712 133 705L115 683C111 678 109 673 109 669C109 663 112 658 119 652L253 548C259 543 265 541 272 541C279 541 285 543 291 548L425 652C432 658 435 663 435 669C435 673 433 678 429 683L411 705C405 712 399 715 393 715C388 715 383 714 378 711Z" glyph-name="ecaron" horiz-adv-x="535" unicode="&#283;" /><glyph d="M470 39C482 47 484 57 477 70L446 126C439 140 431 141 417 133C382 110 338 100 296 100C228 100 187 129 178 209H479C494 209 501 216 501 231V251C501 381 434 500 270 500C102 500 34 375 34 242C34 105 105 -10 288 -10C354 -10 420 5 470 39ZM270 403C328 403 354 359 360 296H179C188 373 222 403 270 403ZM272 608 378 545C383 542 388 541 393 541C399 541 405 544 411 551L429 573C433 578 435 583 435 587C435 593 432 598 425 604L291 708C285 713 279 715 272 715C265 715 259 713 253 708L119 604C112 598 109 593 109 587C109 583 111 578 115 573L133 551C139 544 145 541 151 541C156 541 161 542 166 545Z" glyph-name="ecircumflex" horiz-adv-x="535" unicode="&#234;" /><glyph d="M470 39C482 47 484 57 477 70L446 126C439 140 431 141 417 133C382 110 338 100 296 100C228 100 187 129 178 209H479C494 209 501 216 501 231V251C501 381 434 500 270 500C102 500 34 375 34 242C34 105 105 -10 288 -10C354 -10 420 5 470 39ZM270 403C328 403 354 359 360 296H179C188 373 222 403 270 403ZM249 619C249 659 220 692 175 692C130 692 101 659 101 619C101 579 130 546 175 546C220 546 249 579 249 619ZM443 619C443 659 414 692 369 692C324 692 295 659 295 619C295 579 324 546 369 546C414 546 443 579 443 619Z" glyph-name="edieresis" horiz-adv-x="535" unicode="&#235;" /><glyph d="M470 39C482 47 484 57 477 70L446 126C439 140 431 141 417 133C382 110 338 100 296 100C228 100 187 129 178 209H479C494 209 501 216 501 231V251C501 381 434 500 270 500C102 500 34 375 34 242C34 105 105 -10 288 -10C354 -10 420 5 470 39ZM270 403C328 403 354 359 360 296H179C188 373 222 403 270 403ZM346 619C346 659 317 692 272 692C227 692 198 659 198 619C198 579 227 546 272 546C317 546 346 579 346 619Z" glyph-name="edotaccent" horiz-adv-x="535" unicode="&#279;" /><glyph d="M470 39C482 47 484 57 477 70L446 126C439 140 431 141 417 133C382 110 338 100 296 100C228 100 187 129 178 209H479C494 209 501 216 501 231V251C501 381 434 500 270 500C102 500 34 375 34 242C34 105 105 -10 288 -10C354 -10 420 5 470 39ZM270 403C328 403 354 359 360 296H179C188 373 222 403 270 403ZM191 727C186 731 181 733 177 733C171 733 165 730 161 723L123 664C120 659 118 655 118 651C118 645 122 640 130 635L292 544C297 541 303 539 307 539C314 539 319 542 325 550L340 570C344 575 346 580 346 584C346 590 344 595 337 601Z" glyph-name="egrave" horiz-adv-x="535" unicode="&#232;" /><glyph d="M506 165C506 241 464 298 371 337C450 372 490 422 490 496C490 597 409 672 270 672C128 672 42 598 42 498C42 419 83 369 162 333C76 298 26 246 26 167C26 54 127 -10 261 -10C396 -10 506 55 506 165ZM185 492C185 541 219 568 268 568C316 568 352 540 352 490C352 449 329 416 267 387C207 417 185 450 185 492ZM165 176C165 218 197 252 264 282C338 249 362 212 362 174C362 127 325 94 263 94C203 94 165 128 165 176Z" glyph-name="eight" horiz-adv-x="532" unicode="8" /><glyph d="M214 81C214 130 180 170 126 170C72 170 38 130 38 81C38 32 72 -8 126 -8C180 -8 214 32 214 81ZM460 81C460 130 426 170 372 170C318 170 284 130 284 81C284 32 318 -8 372 -8C426 -8 460 32 460 81ZM706 81C706 130 672 170 618 170C564 170 530 130 530 81C530 32 564 -8 618 -8C672 -8 706 32 706 81Z" glyph-name="ellipsis" horiz-adv-x="744" unicode="&#8230;" /><glyph d="M470 39C482 47 484 57 477 70L446 126C439 140 431 141 417 133C382 110 338 100 296 100C228 100 187 129 178 209H479C494 209 501 216 501 231V251C501 381 434 500 270 500C102 500 34 375 34 242C34 105 105 -10 288 -10C354 -10 420 5 470 39ZM270 403C328 403 354 359 360 296H179C188 373 222 403 270 403ZM157 664C142 664 135 657 135 642V592C135 577 142 570 157 570H387C402 570 409 577 409 592V642C409 657 402 664 387 664Z" glyph-name="emacron" horiz-adv-x="535" unicode="&#275;" /><glyph d="M720 236C735 236 742 243 742 258V312C742 327 735 334 720 334H80C65 334 58 327 58 312V258C58 243 65 236 80 236Z" glyph-name="emdash" horiz-adv-x="800" unicode="&#8212;" /><glyph d="M420 236C435 236 442 243 442 258V312C442 327 435 334 420 334H80C65 334 58 327 58 312V258C58 243 65 236 80 236Z" glyph-name="endash" horiz-adv-x="500" unicode="&#8211;" /><glyph d="M465 -185C477 -177 479 -166 471 -154L461 -138C452 -123 446 -121 429 -128C416 -134 402 -136 393 -136C361 -136 348 -116 348 -92C348 -63 368 -20 439 21L470 39C481 46 484 57 477 69L446 126C439 140 431 141 417 133C382 110 338 100 296 100C228 100 187 129 178 209H479C494 209 501 216 501 231V251C501 381 434 500 270 500C102 500 34 375 34 242C34 104 109 -10 281 -10C297 -10 314 -9 324 -7C284 -35 252 -80 252 -123C252 -172 292 -214 367 -214C405 -214 439 -203 465 -185ZM270 403C328 403 354 359 360 296H179C188 373 222 403 270 403Z" glyph-name="eogonek" horiz-adv-x="535" unicode="&#281;" /><glyph d="M469 388C484 388 491 395 491 410V464C491 479 484 486 469 486H63C48 486 41 479 41 464V410C41 395 48 388 63 388ZM469 176C484 176 491 183 491 198V252C491 267 484 274 469 274H63C48 274 41 267 41 252V198C41 183 48 176 63 176Z" glyph-name="equal" horiz-adv-x="532" unicode="=" /><glyph d="M546 264C546 418 472 539 371 620L420 652C427 657 431 662 431 669C431 673 429 677 426 682L401 721C396 728 391 731 384 731C380 731 376 730 371 727L288 673C247 695 203 711 159 721C148 723 144 724 140 724C131 724 123 719 120 707L110 672C108 666 107 662 107 659C107 650 113 645 124 642C150 634 174 625 197 614L143 578C136 574 132 568 132 561C132 557 134 553 137 548L162 509C167 502 172 499 179 499C183 499 187 500 192 503L280 561C325 524 360 480 388 427C358 458 319 476 261 476C111 476 34 357 34 231C34 106 109 -10 289 -10C472 -10 546 109 546 264ZM185 233C185 304 219 374 290 374C361 374 395 304 395 233C395 160 361 92 290 92C219 92 185 162 185 233Z" glyph-name="eth" horiz-adv-x="580" unicode="&#240;" /><glyph d="M163 224C179 224 186 230 188 246L248 640C250 655 244 662 229 662H69C54 662 48 655 50 640L110 246C112 230 119 224 135 224ZM241 79C241 128 205 168 149 168C93 168 57 128 57 79C57 30 93 -10 149 -10C205 -10 241 30 241 79Z" glyph-name="exclam" horiz-adv-x="298" unicode="!" /><glyph d="M236 411C236 460 200 500 144 500C88 500 52 460 52 411C52 362 88 322 144 322C200 322 236 362 236 411ZM183 244C181 260 174 266 158 266H130C114 266 107 260 105 244L45 -150C43 -165 49 -172 64 -172H224C239 -172 245 -165 243 -150Z" glyph-name="exclamdown" horiz-adv-x="288" unicode="&#161;" /><glyph d="M246 22V382H338C353 382 360 389 360 404V468C360 483 353 490 338 490H246V520C246 591 270 613 311 613C330 613 348 608 363 600C377 593 384 595 392 610L421 671C427 684 424 694 412 701C383 718 344 728 296 728C179 728 100 671 100 510V490H37C22 490 15 483 15 468V404C15 389 22 382 37 382H100V22C100 7 107 0 122 0H224C239 0 246 7 246 22Z" glyph-name="f" horiz-adv-x="367" unicode="f" /><glyph d="M324 728C195 728 100 665 100 495V490H37C22 490 15 483 15 468V404C15 389 22 382 37 382H100V22C100 7 107 0 122 0H224C239 0 246 7 246 22V382H321C336 382 343 389 343 404V468C343 483 336 490 321 490H246V510C246 587 283 615 342 615C367 615 389 610 404 603V22C404 7 411 0 426 0H521C536 0 543 7 543 22V59C580 16 626 -10 693 -10C821 -10 902 91 902 247C902 410 821 500 693 500C629 500 585 475 550 434V696C550 711 543 718 528 718H406C382 724 357 728 324 728ZM646 388C710 388 752 342 752 245C752 148 710 102 647 102C607 102 578 117 550 152V333C574 367 606 388 646 388Z" glyph-name="f_b" horiz-adv-x="936" /><glyph d="M246 22V382H404V22C404 7 411 0 426 0H528C543 0 550 7 550 22V382H642C657 382 664 389 664 404V468C664 483 657 490 642 490H550V520C550 591 574 613 615 613C634 613 652 608 667 600C681 593 688 595 696 610L725 671C731 684 728 694 716 701C687 718 648 728 600 728C549 728 505 717 471 691C430 715 383 728 325 728C196 728 100 665 100 495V490H37C22 490 15 483 15 468V404C15 389 22 382 37 382H100V22C100 7 107 0 122 0H224C239 0 246 7 246 22ZM246 512C246 589 284 615 342 615C368 615 391 609 414 597C407 572 404 543 404 510V490H246Z" glyph-name="f_f" horiz-adv-x="671" unicode="&#64256;" /><glyph d="M628 728C570 728 519 715 480 686C437 713 387 728 325 728C196 728 100 665 100 495V490H37C22 490 15 483 15 468V404C15 389 22 382 37 382H100V22C100 7 107 0 122 0H224C239 0 246 7 246 22V382H404V22C404 7 411 0 426 0H528C543 0 550 7 550 22V382H620C635 382 642 389 642 404V468C642 483 635 490 620 490H550V510C550 587 587 615 646 615C671 615 693 610 708 603V22C708 7 715 0 730 0H825C840 0 847 7 847 22V59C884 16 930 -10 997 -10C1125 -10 1206 91 1206 247C1206 410 1125 500 997 500C933 500 889 475 854 434V696C854 711 847 718 832 718H710C686 724 661 728 628 728ZM246 512C246 589 284 615 342 615C369 615 394 608 418 595C409 567 404 534 404 495V490H246ZM950 388C1014 388 1056 342 1056 245C1056 148 1014 102 951 102C911 102 882 117 854 152V333C878 367 910 388 950 388Z" glyph-name="f_f_b" horiz-adv-x="1240" /><glyph d="M628 728C570 728 519 715 480 686C437 713 387 728 325 728C196 728 100 665 100 495V490H37C22 490 15 483 15 468V404C15 389 22 382 37 382H100V22C100 7 107 0 122 0H224C239 0 246 7 246 22V382H404V22C404 7 411 0 426 0H528C543 0 550 7 550 22V382H620C635 382 642 389 642 404V468C642 483 635 490 620 490H550V510C550 587 587 615 646 615C671 615 693 610 708 603V22C708 7 715 0 730 0H832C847 0 854 7 854 22V341C877 371 907 387 943 387C996 387 1015 344 1015 294V22C1015 7 1022 0 1037 0H1139C1154 0 1161 7 1161 22V309C1161 413 1114 500 994 500C935 500 891 480 854 439V696C854 711 847 718 832 718H710C686 724 661 728 628 728ZM246 512C246 589 284 615 342 615C369 615 394 608 418 595C409 567 404 534 404 495V490H246Z" glyph-name="f_f_h" horiz-adv-x="1219" /><glyph d="M550 508C550 588 590 613 650 613C688 613 715 603 738 589C751 581 759 582 767 596L804 660C811 672 808 683 796 690C760 714 704 728 638 728C575 728 521 715 481 685C438 713 387 728 325 728C196 728 100 665 100 495V490H37C22 490 15 483 15 468V404C15 389 22 382 37 382H100V22C100 7 107 0 122 0H224C239 0 246 7 246 22V382H404V22C404 7 411 0 426 0H528C543 0 550 7 550 22V382H708V22C708 7 715 0 730 0H832C847 0 854 7 854 22V468C854 483 847 490 832 490H550ZM246 512C246 589 284 615 342 615C369 615 394 608 418 595C409 567 404 534 404 495V490H246Z" glyph-name="f_f_i" horiz-adv-x="918" unicode="&#64259;" /><glyph d="M550 508C550 588 590 613 650 613C688 613 715 603 738 589C751 581 759 582 767 596L804 660C811 672 808 683 796 690C760 714 704 728 638 728C575 728 521 715 481 685C438 713 387 728 325 728C196 728 100 665 100 495V490H37C22 490 15 483 15 468V404C15 389 22 382 37 382H100V22C100 7 107 0 122 0H224C239 0 246 7 246 22V382H404V22C404 7 411 0 426 0H528C543 0 550 7 550 22V382H708V-13C708 -63 694 -96 651 -96C640 -96 629 -94 617 -89C602 -83 595 -86 589 -101L565 -162C560 -176 564 -186 577 -192C607 -205 642 -210 672 -210C792 -210 854 -138 854 -24V468C854 483 847 490 832 490H550ZM246 512C246 589 284 615 342 615C369 615 394 608 418 595C409 567 404 534 404 495V490H246Z" glyph-name="f_f_j" horiz-adv-x="918" /><glyph d="M628 728C570 728 519 715 480 686C437 713 387 728 325 728C196 728 100 665 100 495V490H37C22 490 15 483 15 468V404C15 389 22 382 37 382H100V22C100 7 107 0 122 0H224C239 0 246 7 246 22V382H404V22C404 7 411 0 426 0H528C543 0 550 7 550 22V382H620C635 382 642 389 642 404V468C642 483 635 490 620 490H550V510C550 587 587 615 646 615C671 615 693 610 708 603V22C708 7 715 0 730 0H832C847 0 854 7 854 22V134C876 155 897 175 916 194C958 132 988 74 1016 20C1024 5 1030 0 1046 0H1160C1174 0 1181 7 1174 21C1135 106 1079 200 1013 293C1067 351 1112 407 1157 469C1166 482 1159 490 1145 490H1033C1016 490 1009 485 997 468C957 409 920 361 854 283V696C854 711 847 718 832 718H710C686 724 661 728 628 728ZM246 512C246 589 284 615 342 615C369 615 394 608 418 595C409 567 404 534 404 495V490H246Z" glyph-name="f_f_k" horiz-adv-x="1196" /><glyph d="M628 728C570 728 519 715 480 686C437 713 387 728 325 728C196 728 100 665 100 495V490H37C22 490 15 483 15 468V404C15 389 22 382 37 382H100V22C100 7 107 0 122 0H224C239 0 246 7 246 22V382H404V22C404 7 411 0 426 0H528C543 0 550 7 550 22V382H620C635 382 642 389 642 404V468C642 483 635 490 620 490H550V510C550 587 587 615 646 615C671 615 693 610 708 603V22C708 7 715 0 730 0H832C847 0 854 7 854 22V696C854 711 847 718 832 718H710C686 724 661 728 628 728ZM246 512C246 589 284 615 342 615C369 615 394 608 418 595C409 567 404 534 404 495V490H246Z" glyph-name="f_f_l" horiz-adv-x="918" unicode="&#64260;" /><glyph d="M324 728C195 728 100 665 100 495V490H37C22 490 15 483 15 468V404C15 389 22 382 37 382H100V22C100 7 107 0 122 0H224C239 0 246 7 246 22V382H321C336 382 343 389 343 404V468C343 483 336 490 321 490H246V510C246 587 283 615 342 615C367 615 389 610 404 603V22C404 7 411 0 426 0H528C543 0 550 7 550 22V341C573 371 603 387 639 387C692 387 711 344 711 294V22C711 7 718 0 733 0H835C850 0 857 7 857 22V309C857 413 810 500 690 500C631 500 587 480 550 439V696C550 711 543 718 528 718H406C382 724 357 728 324 728Z" glyph-name="f_h" horiz-adv-x="915" /><glyph d="M246 508C246 588 286 613 346 613C384 613 411 603 434 589C447 581 455 582 463 596L500 660C507 672 504 683 492 690C456 714 400 728 334 728C195 728 100 665 100 495V490H37C22 490 15 483 15 468V404C15 389 22 382 37 382H100V22C100 7 107 0 122 0H224C239 0 246 7 246 22V382H404V22C404 7 411 0 426 0H528C543 0 550 7 550 22V468C550 483 543 490 528 490H246Z" glyph-name="f_i" horiz-adv-x="614" /><glyph d="M246 508C246 588 286 613 346 613C384 613 411 603 434 589C447 581 455 582 463 596L500 660C507 672 504 683 492 690C456 714 400 728 334 728C195 728 100 665 100 495V490H37C22 490 15 483 15 468V404C15 389 22 382 37 382H100V22C100 7 107 0 122 0H224C239 0 246 7 246 22V382H404V-13C404 -63 390 -96 347 -96C336 -96 325 -94 313 -89C298 -83 291 -86 285 -101L261 -162C256 -176 260 -186 273 -192C303 -205 338 -210 368 -210C488 -210 550 -138 550 -24V468C550 483 543 490 528 490H246Z" glyph-name="f_j" horiz-adv-x="614" /><glyph d="M324 728C195 728 100 665 100 495V490H37C22 490 15 483 15 468V404C15 389 22 382 37 382H100V22C100 7 107 0 122 0H224C239 0 246 7 246 22V382H321C336 382 343 389 343 404V468C343 483 336 490 321 490H246V510C246 587 283 615 342 615C367 615 389 610 404 603V22C404 7 411 0 426 0H528C543 0 550 7 550 22V134C572 155 593 175 612 194C654 132 684 74 712 20C720 5 726 0 742 0H856C870 0 877 7 870 21C831 106 775 200 709 293C763 351 808 407 853 469C862 482 855 490 841 490H729C712 490 705 485 693 468C653 409 616 361 550 283V696C550 711 543 718 528 718H406C382 724 357 728 324 728Z" glyph-name="f_k" horiz-adv-x="892" /><glyph d="M246 22V382H321C336 382 343 389 343 404V468C343 483 336 490 321 490H246V510C246 587 283 615 342 615C367 615 389 610 404 603V23C404 8 411 1 426 1H528C543 1 550 8 550 23V697C550 712 543 719 528 719H426C423 719 420 719 418 718H406C382 724 357 728 324 728C195 728 100 665 100 495V490H37C22 490 15 483 15 468V404C15 389 22 382 37 382H100V22C100 7 107 0 122 0H224C239 0 246 7 246 22Z" glyph-name="f_l" horiz-adv-x="614" /><glyph d="M246 508C246 588 286 613 346 613C384 613 411 603 434 589C447 581 455 582 463 596L500 660C507 672 504 683 492 690C456 714 400 728 334 728C195 728 100 665 100 495V490H37C22 490 15 483 15 468V404C15 389 22 382 37 382H100V22C100 7 107 0 122 0H224C239 0 246 7 246 22V382H404V22C404 7 411 0 426 0H528C543 0 550 7 550 22V468C550 483 543 490 528 490H246Z" glyph-name="fi" horiz-adv-x="614" unicode="&#64257;" /><glyph d="M491 216C491 344 408 422 260 422C239 422 222 420 197 416L208 545H445C460 545 467 552 467 567V640C467 655 460 662 445 662H111C95 662 88 656 87 640L61 358C60 342 64 333 77 323L105 303C119 293 128 292 145 298C172 308 195 313 234 313C302 313 345 277 345 212C345 148 304 109 236 109C184 109 138 135 104 159C91 168 82 166 74 153L32 88C24 75 26 65 38 56C81 22 153 -10 240 -10C407 -10 491 94 491 216Z" glyph-name="five" horiz-adv-x="532" unicode="5" /><glyph d="M246 22V382H321C336 382 343 389 343 404V468C343 483 336 490 321 490H246V510C246 587 283 615 342 615C367 615 389 610 404 603V23C404 8 411 1 426 1H528C543 1 550 8 550 23V697C550 712 543 719 528 719H426C423 719 420 719 418 718H406C382 724 357 728 324 728C195 728 100 665 100 495V490H37C22 490 15 483 15 468V404C15 389 22 382 37 382H100V22C100 7 107 0 122 0H224C239 0 246 7 246 22Z" glyph-name="fl" horiz-adv-x="614" unicode="&#64258;" /><glyph d="M241 643 26 259C18 246 15 233 15 218V157C15 142 22 135 37 135H298V22C298 7 305 0 320 0H410C425 0 432 7 432 22V135H498C513 135 520 142 520 157V219C520 234 513 241 498 241H432V640C432 655 425 662 410 662H274C258 662 249 657 241 643ZM233 394C257 438 281 483 302 527V237H146Z" glyph-name="four" horiz-adv-x="532" unicode="4" /><glyph d="M-127 0C-111 0 -102 5 -93 18L99 314L329 644C337 655 332 662 319 662H262C246 662 237 657 228 644L36 348L-194 18C-201 7 -197 0 -184 0Z" glyph-name="fraction" horiz-adv-x="136" unicode="&#8260;" /><glyph d="M519 -35C519 56 449 94 347 94H206C170 94 158 107 158 128C158 140 161 151 170 164C195 156 224 152 257 152C408 152 465 237 465 322C465 360 452 386 430 408C460 394 486 389 511 389C524 389 530 395 530 409V468C530 483 523 490 508 490H338C315 496 287 500 255 500C108 500 43 414 43 326C43 272 67 220 118 187C70 160 49 130 49 88C49 47 69 21 102 10C36 -8 7 -46 7 -91C7 -173 103 -210 237 -210C409 -210 519 -149 519 -35ZM178 326C178 372 204 406 255 406C306 406 332 372 332 326C332 280 306 246 255 246C204 246 178 280 178 326ZM134 -73C134 -51 143 -35 167 -20H305C362 -20 379 -40 379 -67C379 -107 339 -132 249 -132C167 -132 134 -112 134 -73Z" glyph-name="g" horiz-adv-x="534" unicode="g" /><glyph d="M519 -35C519 56 449 94 347 94H206C170 94 158 107 158 128C158 140 161 151 170 164C195 156 224 152 257 152C408 152 465 237 465 322C465 360 452 386 430 408C460 394 486 389 511 389C524 389 530 395 530 409V468C530 483 523 490 508 490H338C315 496 287 500 255 500C108 500 43 414 43 326C43 272 67 220 118 187C70 160 49 130 49 88C49 47 69 21 102 10C36 -8 7 -46 7 -91C7 -173 103 -210 237 -210C409 -210 519 -149 519 -35ZM178 326C178 372 204 406 255 406C306 406 332 372 332 326C332 280 306 246 255 246C204 246 178 280 178 326ZM134 -73C134 -51 143 -35 167 -20H305C362 -20 379 -40 379 -67C379 -107 339 -132 249 -132C167 -132 134 -112 134 -73ZM255 549C328 549 385 591 413 653C415 657 416 661 416 664C416 672 411 678 402 682L371 698C365 701 360 702 356 702C346 702 341 696 336 689C317 663 293 645 255 645C217 645 193 663 174 689C169 696 164 702 154 702C150 702 145 701 139 698L108 682C99 678 94 672 94 664C94 661 95 657 97 653C125 591 182 549 255 549Z" glyph-name="gbreve" horiz-adv-x="534" unicode="&#287;" /><glyph d="M519 -35C519 56 449 94 347 94H206C170 94 158 107 158 128C158 140 161 151 170 164C195 156 224 152 257 152C408 152 465 237 465 322C465 360 452 386 430 408C460 394 486 389 511 389C524 389 530 395 530 409V468C530 483 523 490 508 490H338C315 496 287 500 255 500C108 500 43 414 43 326C43 272 67 220 118 187C70 160 49 130 49 88C49 47 69 21 102 10C36 -8 7 -46 7 -91C7 -173 103 -210 237 -210C409 -210 519 -149 519 -35ZM178 326C178 372 204 406 255 406C306 406 332 372 332 326C332 280 306 246 255 246C204 246 178 280 178 326ZM134 -73C134 -51 143 -35 167 -20H305C362 -20 379 -40 379 -67C379 -107 339 -132 249 -132C167 -132 134 -112 134 -73ZM255 608 361 545C366 542 371 541 376 541C382 541 388 544 394 551L412 573C416 578 418 583 418 587C418 593 415 598 408 604L274 708C268 713 262 715 255 715C248 715 242 713 236 708L102 604C95 598 92 593 92 587C92 583 94 578 98 573L116 551C122 544 128 541 134 541C139 541 144 542 149 545Z" glyph-name="gcircumflex" horiz-adv-x="534" unicode="&#285;" /><glyph d="M519 -35C519 56 449 94 347 94H206C170 94 158 107 158 128C158 140 161 151 170 164C195 156 224 152 257 152C408 152 465 237 465 322C465 360 452 386 430 408C460 394 486 389 511 389C524 389 530 395 530 409V468C530 483 523 490 508 490H338C315 496 287 500 255 500C108 500 43 414 43 326C43 272 67 220 118 187C70 160 49 130 49 88C49 47 69 21 102 10C36 -8 7 -46 7 -91C7 -173 103 -210 237 -210C409 -210 519 -149 519 -35ZM178 326C178 372 204 406 255 406C306 406 332 372 332 326C332 280 306 246 255 246C204 246 178 280 178 326ZM134 -73C134 -51 143 -35 167 -20H305C362 -20 379 -40 379 -67C379 -107 339 -132 249 -132C167 -132 134 -112 134 -73ZM329 619C329 659 300 692 255 692C210 692 181 659 181 619C181 579 210 546 255 546C300 546 329 579 329 619Z" glyph-name="gdotaccent" horiz-adv-x="534" unicode="&#289;" /><glyph d="M204 491C204 581 237 625 303 625C360 625 385 594 385 556C385 517 370 501 328 465C278 423 259 394 259 342C259 276 300 239 365 215C436 189 454 177 454 143C454 112 429 93 390 93C362 93 335 103 311 116C297 124 290 122 281 107L252 57C245 44 248 33 259 25C291 5 332 -10 393 -10C516 -10 593 49 593 144C593 228 541 264 452 298C392 321 378 330 378 351C378 371 392 383 443 423C497 466 525 505 525 569C525 667 432 728 308 728C165 728 62 658 62 482V22C62 7 69 0 84 0H182C197 0 204 7 204 22Z" glyph-name="germandbls" horiz-adv-x="608" unicode="&#223;" /><glyph d="M130 727C125 731 120 733 116 733C110 733 104 730 100 723L62 664C59 659 57 655 57 651C57 645 61 640 69 635L231 544C236 541 242 539 246 539C253 539 258 542 264 550L279 570C283 575 285 580 285 584C285 590 283 595 276 601Z" glyph-name="grave" horiz-adv-x="342" unicode="`" /><glyph d="M130 897C125 901 120 903 116 903C110 903 104 900 100 893L62 834C59 829 57 825 57 821C57 815 61 810 69 805L231 714C236 711 242 709 246 709C253 709 258 712 264 720L279 740C283 745 285 750 285 754C285 760 283 765 276 771Z" glyph-name="grave.case" horiz-adv-x="342" /><glyph d="M126 115 454 278C469 285 474 294 474 310V352C474 368 469 377 454 384L126 547C119 551 113 553 108 553C100 553 94 548 90 539L68 494C66 489 65 485 65 481C65 473 70 467 79 463L357 329L79 195C70 191 65 184 65 177C65 173 66 170 68 165L90 122C95 113 100 109 107 109C111 109 118 111 126 115Z" glyph-name="greater" horiz-adv-x="532" unicode="&gt;" /><glyph d="M131 156 459 319C474 326 479 335 479 351V393C479 409 474 418 459 425L125 591C120 593 117 594 113 594C106 594 100 589 95 580L74 537C71 531 70 527 70 523C70 515 74 509 84 504L362 370L84 236C75 232 70 225 70 218C70 214 71 210 73 206L95 163C99 155 105 150 112 150C116 150 121 151 131 156ZM467 0C482 0 489 7 489 22V70C489 85 482 92 467 92H75C60 92 53 85 53 70V22C53 7 60 0 75 0Z" glyph-name="greaterequal" horiz-adv-x="532" unicode="&#8805;" /><glyph d="M168 266 264 408C267 413 269 417 269 421C269 428 265 433 257 438L213 466C207 470 202 471 197 471C191 471 186 467 181 461L48 285C43 279 41 272 41 266C41 260 43 253 48 247L181 71C186 65 191 61 197 61C202 61 207 62 213 66L257 94C265 99 269 104 269 111C269 115 267 119 264 124ZM387 266 483 408C486 413 488 417 488 421C488 428 484 433 476 438L432 466C426 470 421 471 416 471C410 471 405 467 400 461L267 285C262 279 260 272 260 266C260 260 262 253 267 247L400 71C405 65 410 61 416 61C421 61 426 62 432 66L476 94C484 99 488 104 488 111C488 115 486 119 483 124Z" glyph-name="guillemotleft" horiz-adv-x="530" unicode="&#171;" /><glyph d="M143 266 47 124C44 119 42 115 42 111C42 104 46 99 54 94L98 66C104 62 109 61 114 61C120 61 125 65 130 71L263 247C268 253 270 260 270 266C270 272 268 279 263 285L130 461C125 467 120 471 114 471C109 471 104 470 98 466L54 438C46 433 42 428 42 421C42 417 44 413 47 408ZM362 266 266 124C263 119 261 115 261 111C261 104 265 99 273 94L317 66C323 62 328 61 333 61C339 61 344 65 349 71L482 247C487 253 489 260 489 266C489 272 487 279 482 285L349 461C344 467 339 471 333 471C328 471 323 470 317 466L273 438C265 433 261 428 261 421C261 417 263 413 266 408Z" glyph-name="guillemotright" horiz-adv-x="530" unicode="&#187;" /><glyph d="M168 266 264 408C267 413 269 417 269 421C269 428 265 433 257 438L213 466C207 470 202 471 197 471C191 471 186 467 181 461L48 285C43 279 41 272 41 266C41 260 43 253 48 247L181 71C186 65 191 61 197 61C202 61 207 62 213 66L257 94C265 99 269 104 269 111C269 115 267 119 264 124Z" glyph-name="guilsinglleft" horiz-adv-x="311" unicode="&#8249;" /><glyph d="M143 266 47 124C44 119 42 115 42 111C42 104 46 99 54 94L98 66C104 62 109 61 114 61C120 61 125 65 130 71L263 247C268 253 270 260 270 266C270 272 268 279 263 285L130 461C125 467 120 471 114 471C109 471 104 470 98 466L54 438C46 433 42 428 42 421C42 417 44 413 47 408Z" glyph-name="guilsinglright" horiz-adv-x="311" unicode="&#8250;" /><glyph d="M208 22V341C231 371 261 387 297 387C350 387 369 344 369 294V22C369 7 376 0 391 0H493C508 0 515 7 515 22V309C515 413 468 500 348 500C289 500 245 480 208 439V696C208 711 201 718 186 718H84C69 718 62 711 62 696V22C62 7 69 0 84 0H186C201 0 208 7 208 22Z" glyph-name="h" horiz-adv-x="573" unicode="h" /><glyph d="M208 22V341C231 371 261 387 297 387C350 387 369 344 369 294V22C369 7 376 0 391 0H493C508 0 515 7 515 22V309C515 413 468 500 348 500C289 500 245 480 208 439V550H301C316 550 323 557 323 572V622C323 637 316 644 301 644H208V696C208 711 201 718 186 718H84C69 718 62 711 62 696V644H29C14 644 7 637 7 622V572C7 557 14 550 29 550H62V22C62 7 69 0 84 0H186C201 0 208 7 208 22Z" glyph-name="hbar" horiz-adv-x="573" unicode="&#295;" /><glyph d="M208 22V341C231 371 261 387 297 387C350 387 369 344 369 294V22C369 7 376 0 391 0H493C508 0 515 7 515 22V309C515 413 468 500 348 500C289 500 245 480 208 439V696C208 711 201 718 186 718H84C69 718 62 711 62 696V22C62 7 69 0 84 0H186C201 0 208 7 208 22ZM135 819 241 756C246 753 251 752 256 752C262 752 268 755 274 762L292 784C296 789 298 794 298 798C298 804 295 809 288 815L154 919C148 924 142 926 135 926C128 926 122 924 116 919L-18 815C-25 809 -28 804 -28 798C-28 794 -26 789 -22 784L-4 762C2 755 8 752 14 752C19 752 24 753 29 756Z" glyph-name="hcircumflex" horiz-adv-x="573" unicode="&#293;" /><glyph d="M238 671C242 676 245 680 245 685C245 690 242 696 235 701L185 740C180 744 175 746 170 746C165 746 159 743 155 736L62 598C58 592 57 588 57 583C57 577 60 572 67 566L89 548C95 543 100 541 105 541C111 541 116 543 122 549ZM424 671C428 676 431 680 431 685C431 690 428 696 421 701L371 740C366 744 361 746 356 746C351 746 345 743 341 736L248 598C244 592 243 588 243 583C243 577 246 572 253 566L275 548C281 543 286 541 291 541C297 541 302 543 308 549Z" glyph-name="hungarumlaut" horiz-adv-x="489" unicode="&#733;" /><glyph d="M238 841C242 846 245 850 245 855C245 860 242 866 235 871L185 910C180 914 175 916 170 916C165 916 159 913 155 906L62 768C58 762 57 758 57 753C57 747 60 742 67 736L89 718C95 713 100 711 105 711C111 711 116 713 122 719ZM424 841C428 846 431 850 431 855C431 860 428 866 421 871L371 910C366 914 361 916 356 916C351 916 345 913 341 906L248 768C244 762 243 758 243 753C243 747 246 742 253 736L275 718C281 713 286 711 291 711C297 711 302 713 308 719Z" glyph-name="hungarumlaut.case" horiz-adv-x="489" /><glyph d="M278 223C293 223 300 230 300 245V325C300 340 293 347 278 347H66C51 347 44 340 44 325V245C44 230 51 223 66 223Z" glyph-name="hyphen" horiz-adv-x="344" unicode="-" /><glyph d="M223 641C223 688 189 726 137 726C85 726 51 688 51 641C51 594 85 556 137 556C189 556 223 594 223 641ZM188 0C203 0 210 7 210 22V468C210 483 203 490 188 490H86C71 490 64 483 64 468V22C64 7 71 0 86 0Z" glyph-name="i" horiz-adv-x="274" unicode="i" /><glyph d="M223 641C223 688 189 726 137 726C85 726 51 688 51 641C51 594 85 556 137 556C189 556 223 594 223 641ZM188 0C203 0 210 7 210 22V468C210 483 203 490 188 490H86C71 490 64 483 64 468V22C64 7 71 0 86 0Z" glyph-name="i.trk" horiz-adv-x="274" /><glyph d="M188 0C203 0 210 7 210 22V468C210 483 203 490 188 490H86C71 490 64 483 64 468V22C64 7 71 0 86 0ZM72 601C65 595 63 590 63 584C63 580 65 575 69 570L84 550C90 542 95 539 102 539C106 539 112 541 117 544L279 635C287 640 291 645 291 651C291 655 289 659 286 664L248 723C244 730 238 733 232 733C228 733 223 731 218 727Z" glyph-name="iacute" horiz-adv-x="274" unicode="&#237;" /><glyph d="M188 0C203 0 210 7 210 22V468C210 483 203 490 188 490H86C71 490 64 483 64 468V22C64 7 71 0 86 0ZM137 549C210 549 267 591 295 653C297 657 298 661 298 664C298 672 293 678 284 682L253 698C247 701 242 702 238 702C228 702 223 696 218 689C199 663 175 645 137 645C99 645 75 663 56 689C51 696 46 702 36 702C32 702 27 701 21 698L-10 682C-19 678 -24 672 -24 664C-24 661 -23 657 -21 653C7 591 64 549 137 549Z" glyph-name="ibreve" horiz-adv-x="274" unicode="&#301;" /><glyph d="M188 0C203 0 210 7 210 22V468C210 483 203 490 188 490H86C71 490 64 483 64 468V22C64 7 71 0 86 0ZM137 608 243 545C248 542 253 541 258 541C264 541 270 544 276 551L294 573C298 578 300 583 300 587C300 593 297 598 290 604L156 708C150 713 144 715 137 715C130 715 124 713 118 708L-16 604C-23 598 -26 593 -26 587C-26 583 -24 578 -20 573L-2 551C4 544 10 541 16 541C21 541 26 542 31 545Z" glyph-name="icircumflex" horiz-adv-x="274" unicode="&#238;" /><glyph d="M188 0C203 0 210 7 210 22V468C210 483 203 490 188 490H86C71 490 64 483 64 468V22C64 7 71 0 86 0ZM114 619C114 659 85 692 40 692C-5 692 -34 659 -34 619C-34 579 -5 546 40 546C85 546 114 579 114 619ZM308 619C308 659 279 692 234 692C189 692 160 659 160 619C160 579 189 546 234 546C279 546 308 579 308 619Z" glyph-name="idieresis" horiz-adv-x="274" unicode="&#239;" /><glyph d="M188 0C203 0 210 7 210 22V468C210 483 203 490 188 490H86C71 490 64 483 64 468V22C64 7 71 0 86 0ZM56 727C51 731 46 733 42 733C36 733 30 730 26 723L-12 664C-15 659 -17 655 -17 651C-17 645 -13 640 -5 635L157 544C162 541 168 539 172 539C179 539 184 542 190 550L205 570C209 575 211 580 211 584C211 590 209 595 202 601Z" glyph-name="igrave" horiz-adv-x="274" unicode="&#236;" /><glyph d="M223 641C223 688 189 726 137 726C85 726 51 688 51 641C51 594 85 556 137 556C189 556 223 594 223 641ZM188 0C203 0 210 7 210 22V468C210 483 203 490 188 490H86C71 490 64 483 64 468V22C64 7 71 0 86 0ZM504 641C504 688 470 726 418 726C366 726 332 688 332 641C332 594 366 556 418 556C470 556 504 594 504 641ZM491 -24V468C491 483 484 490 469 490H367C352 490 345 483 345 468V-13C345 -63 331 -96 288 -96C277 -96 266 -94 254 -89C239 -83 232 -86 226 -101L202 -162C197 -176 201 -186 214 -192C244 -205 279 -210 309 -210C429 -210 491 -138 491 -24Z" glyph-name="ij" horiz-adv-x="555" unicode="&#307;" /><glyph d="M188 0C203 0 210 7 210 22V468C210 483 203 490 188 490H86C71 490 64 483 64 468V22C64 7 71 0 86 0ZM22 664C7 664 0 657 0 642V592C0 577 7 570 22 570H252C267 570 274 577 274 592V642C274 657 267 664 252 664Z" glyph-name="imacron" horiz-adv-x="274" unicode="&#299;" /><glyph d="M734 331C734 427 673 491 569 491C487 491 435 454 388 390C342 451 292 491 207 491C103 491 42 427 42 331C42 235 103 171 207 171C289 171 341 208 388 272C437 206 488 171 569 171C673 171 734 235 734 331ZM121 331C121 385 151 420 210 420C269 420 305 388 346 331C305 273 267 242 210 242C151 242 121 277 121 331ZM566 420C625 420 655 385 655 331C655 277 625 242 566 242C511 242 475 269 430 331C473 390 508 420 566 420Z" glyph-name="infinity" horiz-adv-x="776" unicode="&#8734;" /><glyph d="M92 -95C73 -95 55 -90 40 -82C26 -75 19 -77 11 -92L-18 -153C-24 -166 -21 -176 -9 -183C20 -200 59 -210 107 -210C224 -210 303 -153 303 8V520C303 591 327 613 368 613C387 613 405 608 420 600C434 593 441 595 449 610L478 671C484 684 481 694 469 701C440 718 401 728 353 728C236 728 157 671 157 510V-2C157 -73 133 -95 92 -95Z" glyph-name="integral" horiz-adv-x="494" unicode="&#8747;" /><glyph d="M223 641C223 688 189 726 137 726C85 726 51 688 51 641C51 594 85 556 137 556C189 556 223 594 223 641ZM29 -122C29 -173 69 -214 144 -214C182 -214 216 -203 242 -185C254 -177 256 -166 248 -154L238 -138C229 -123 222 -122 205 -129C192 -134 179 -136 170 -136C138 -136 125 -116 125 -92C125 -68 137 -45 168 0H188C203 0 210 7 210 22V468C210 483 203 490 188 490H86C71 490 64 483 64 468V22C64 7 71 0 86 0H107C61 -33 29 -81 29 -122Z" glyph-name="iogonek" horiz-adv-x="274" unicode="&#303;" /><glyph d="M188 0C203 0 210 7 210 22V468C210 483 203 490 188 490H86C71 490 64 483 64 468V22C64 7 71 0 86 0ZM199 552C241 552 276 571 306 620C309 625 311 630 311 635C311 641 307 647 301 652L277 671C271 676 266 678 261 678C255 678 250 675 244 669C229 654 211 647 197 647C162 647 136 686 75 686C33 686 -2 667 -32 618C-35 613 -37 608 -37 603C-37 597 -33 591 -27 586L-3 567C3 562 8 560 13 560C19 560 24 563 30 569C45 584 63 591 77 591C112 591 138 552 199 552Z" glyph-name="itilde" horiz-adv-x="274" unicode="&#297;" /><glyph d="M223 641C223 688 189 726 137 726C85 726 51 688 51 641C51 594 85 556 137 556C189 556 223 594 223 641ZM210 -24V468C210 483 203 490 188 490H86C71 490 64 483 64 468V-13C64 -63 50 -96 7 -96C-4 -96 -15 -94 -27 -89C-42 -83 -49 -86 -55 -101L-79 -162C-84 -176 -80 -186 -67 -192C-37 -205 -2 -210 28 -210C148 -210 210 -138 210 -24Z" glyph-name="j" horiz-adv-x="274" unicode="j" /><glyph d="M210 -24V468C210 483 203 490 188 490H86C71 490 64 483 64 468V-13C64 -63 50 -96 7 -96C-4 -96 -15 -94 -27 -89C-42 -83 -49 -86 -55 -101L-79 -162C-84 -176 -80 -186 -67 -192C-37 -205 -2 -210 28 -210C148 -210 210 -138 210 -24ZM137 608 243 545C248 542 253 541 258 541C264 541 270 544 276 551L294 573C298 578 300 583 300 587C300 593 297 598 290 604L156 708C150 713 144 715 137 715C130 715 124 713 118 708L-16 604C-23 598 -26 593 -26 587C-26 583 -24 578 -20 573L-2 551C4 544 10 541 16 541C21 541 26 542 31 545Z" glyph-name="jcircumflex" horiz-adv-x="274" unicode="&#309;" /><glyph d="M208 22V134C230 155 251 175 270 194C312 132 342 74 370 20C378 5 384 0 400 0H514C528 0 535 7 528 21C489 106 433 200 367 293C421 351 466 407 511 469C520 482 513 490 499 490H387C370 490 363 485 351 468C311 409 274 361 208 283V696C208 711 201 718 186 718H84C69 718 62 711 62 696V22C62 7 69 0 84 0H186C201 0 208 7 208 22Z" glyph-name="k" horiz-adv-x="550" unicode="k" /><glyph d="M188 0C203 0 210 7 210 22V696C210 711 203 718 188 718H86C71 718 64 711 64 696V22C64 7 71 0 86 0Z" glyph-name="l" horiz-adv-x="274" unicode="l" /><glyph d="M188 0C203 0 210 7 210 22V696C210 711 203 718 188 718H86C71 718 64 711 64 696V22C64 7 71 0 86 0ZM50 812C43 806 41 801 41 795C41 791 43 786 47 781L62 761C68 753 73 750 80 750C84 750 90 752 95 755L257 846C265 851 269 856 269 862C269 866 267 870 264 875L226 934C222 941 216 944 210 944C206 944 201 942 196 938Z" glyph-name="lacute" horiz-adv-x="274" unicode="&#314;" /><glyph d="M188 0C203 0 210 7 210 22V696C210 711 203 718 188 718H86C71 718 64 711 64 696V22C64 7 71 0 86 0ZM274 496 286 493C301 489 309 493 315 508L382 681C383 684 384 688 384 691C384 700 378 705 368 707L300 722C286 725 277 716 275 701L255 520C253 504 259 500 274 496Z" glyph-name="lcaron" horiz-adv-x="274" unicode="&#318;" /><glyph d="M188 0C203 0 210 7 210 22V696C210 711 203 718 188 718H86C71 718 64 711 64 696V22C64 7 71 0 86 0ZM442 292C442 332 413 365 368 365C323 365 294 332 294 292C294 252 323 219 368 219C413 219 442 252 442 292Z" glyph-name="ldot" horiz-adv-x="468" unicode="&#320;" /><glyph d="M442 123 464 168C466 173 467 177 467 181C467 189 462 195 453 199L175 333L453 467C462 471 467 478 467 485C467 489 466 492 464 497L442 540C437 549 432 553 425 553C421 553 414 551 406 547L78 384C63 377 58 368 58 352V310C58 294 63 285 78 278L406 115C413 111 419 109 424 109C432 109 438 114 442 123Z" glyph-name="less" horiz-adv-x="532" unicode="&lt;" /><glyph d="M437 164 458 207C461 213 462 217 462 221C462 229 458 235 448 240L170 374L448 508C457 512 462 519 462 526C462 530 461 534 459 538L437 581C433 589 427 594 420 594C416 594 411 593 401 588L73 425C58 418 53 409 53 393V351C53 335 58 326 73 319L407 153C412 151 415 150 419 150C426 150 432 155 437 164ZM457 0C472 0 479 7 479 22V70C479 85 472 92 457 92H65C50 92 43 85 43 70V22C43 7 50 0 65 0Z" glyph-name="lessequal" horiz-adv-x="532" unicode="&#8804;" /><glyph d="M488 358C488 373 481 380 466 380H46C31 380 24 373 24 358V304C24 289 31 282 46 282H376V108C376 93 383 86 398 86H466C481 86 488 93 488 108Z" glyph-name="logicalnot" horiz-adv-x="532" unicode="&#172;" /><glyph d="M279 662C263 662 254 657 246 643L39 302C32 289 28 276 28 261V202C28 187 32 174 39 161L245 -181C253 -195 262 -200 278 -200H388C404 -200 413 -195 421 -181L628 160C635 173 639 186 639 201V260C639 275 635 288 628 301L422 643C414 657 405 662 389 662ZM140 236 329 559 527 226 338 -97Z" glyph-name="lozenge" horiz-adv-x="667" unicode="&#9674;" /><glyph d="M224 22V343L283 374C297 381 302 390 302 406V482C302 496 295 500 283 494L224 463V696C224 711 217 718 202 718H100C85 718 78 711 78 696V388L20 357C5 349 0 341 0 325V248C0 234 7 229 20 236L78 267V22C78 7 85 0 100 0H202C217 0 224 7 224 22Z" glyph-name="lslash" horiz-adv-x="302" unicode="&#322;" /><glyph d="M594 387C646 387 664 344 664 294V22C664 7 671 0 686 0H788C803 0 810 7 810 22V309C810 413 767 500 642 500C572 500 519 474 478 429C453 472 410 500 345 500C283 500 239 478 201 432V468C201 483 194 490 179 490H84C69 490 62 483 62 468V22C62 7 69 0 84 0H186C201 0 208 7 208 22V342C230 371 259 387 293 387C345 387 363 344 363 294V22C363 7 370 0 385 0H487C502 0 509 7 509 22V342C531 371 560 387 594 387Z" glyph-name="m" horiz-adv-x="868" unicode="m" /><glyph d="M72 664C57 664 50 657 50 642V592C50 577 57 570 72 570H302C317 570 324 577 324 592V642C324 657 317 664 302 664Z" glyph-name="macron" horiz-adv-x="374" unicode="&#175;" /><glyph d="M72 834C57 834 50 827 50 812V762C50 747 57 740 72 740H302C317 740 324 747 324 762V812C324 827 317 834 302 834Z" glyph-name="macron.case" horiz-adv-x="374" /><glyph d="M486 282C501 282 508 289 508 304V358C508 373 501 380 486 380H46C31 380 24 373 24 358V304C24 289 31 282 46 282Z" glyph-name="minus" horiz-adv-x="532" unicode="&#8722;" /><glyph d="M436 123 474 161C480 167 482 172 482 177C482 182 480 187 474 193L336 331L474 469C480 475 482 480 482 485C482 490 480 495 474 501L436 539C430 545 425 547 420 547C415 547 410 545 404 539L266 401L128 539C122 545 117 547 112 547C107 547 102 545 96 539L58 501C52 495 50 490 50 485C50 480 52 475 58 469L196 331L58 193C52 187 50 182 50 177C50 172 52 167 58 161L96 123C102 117 107 115 112 115C117 115 122 117 128 123L266 261L404 123C410 117 415 115 420 115C425 115 430 117 436 123Z" glyph-name="multiply" horiz-adv-x="532" unicode="&#215;" /><glyph d="M208 22V341C231 371 261 387 297 387C350 387 369 344 369 294V22C369 7 376 0 391 0H493C508 0 515 7 515 22V309C515 413 468 500 348 500C285 500 240 477 201 431V468C201 483 194 490 179 490H84C69 490 62 483 62 468V22C62 7 69 0 84 0H186C201 0 208 7 208 22Z" glyph-name="n" horiz-adv-x="573" unicode="n" /><glyph d="M208 22V341C231 371 261 387 297 387C350 387 369 344 369 294V22C369 7 376 0 391 0H493C508 0 515 7 515 22V309C515 413 468 500 348 500C285 500 240 477 201 431V468C201 483 194 490 179 490H84C69 490 62 483 62 468V22C62 7 69 0 84 0H186C201 0 208 7 208 22ZM223 601C216 595 214 590 214 584C214 580 216 575 220 570L235 550C241 542 246 539 253 539C257 539 263 541 268 544L430 635C438 640 442 645 442 651C442 655 440 659 437 664L399 723C395 730 389 733 383 733C379 733 374 731 369 727Z" glyph-name="nacute" horiz-adv-x="573" unicode="&#324;" /><glyph d="M400 22V341C423 371 453 387 489 387C542 387 561 344 561 294V22C561 7 568 0 583 0H685C700 0 707 7 707 22V309C707 413 660 500 540 500C477 500 432 477 393 431V468C393 483 386 490 371 490H276C261 490 254 483 254 468V22C254 7 261 0 276 0H378C393 0 400 7 400 22ZM41 649C41 595 88 591 88 540C88 512 76 490 54 459C50 454 49 449 49 446C49 439 53 434 61 429L72 422C77 419 82 417 87 417C94 417 100 420 106 427C164 489 201 581 201 635C201 683 177 723 120 723C69 723 41 690 41 649Z" glyph-name="napostrophe" horiz-adv-x="765" unicode="&#329;" /><glyph d="M208 22V341C231 371 261 387 297 387C350 387 369 344 369 294V22C369 7 376 0 391 0H493C508 0 515 7 515 22V309C515 413 468 500 348 500C285 500 240 477 201 431V468C201 483 194 490 179 490H84C69 490 62 483 62 468V22C62 7 69 0 84 0H186C201 0 208 7 208 22ZM288 648 182 711C177 714 172 715 167 715C161 715 155 712 149 705L131 683C127 678 125 673 125 669C125 663 128 658 135 652L269 548C275 543 281 541 288 541C295 541 301 543 307 548L441 652C448 658 451 663 451 669C451 673 449 678 445 683L427 705C421 712 415 715 409 715C404 715 399 714 394 711Z" glyph-name="ncaron" horiz-adv-x="573" unicode="&#328;" /><glyph d="M407 67C469 129 498 224 498 347C498 581 394 672 250 672C105 672 25 577 25 444C25 311 106 228 223 228C272 228 315 242 351 272C342 160 287 102 190 102C161 102 133 107 109 119C94 125 87 122 82 107L59 40C55 26 59 16 73 11C103 -1 145 -10 196 -10C278 -10 353 13 407 67ZM167 451C167 520 199 565 253 565C313 565 350 505 352 358C328 344 302 337 275 337C207 337 167 377 167 451Z" glyph-name="nine" horiz-adv-x="532" unicode="9" /><glyph d="M173 78 227 176H469C484 176 491 183 491 198V252C491 267 484 274 469 274H281L343 388H469C484 388 491 395 491 410V464C491 479 484 486 469 486H397L451 584C458 596 454 603 440 603H392C376 603 367 598 359 584L305 486H63C48 486 41 479 41 464V410C41 395 48 388 63 388H251L189 274H63C48 274 41 267 41 252V198C41 183 48 176 63 176H135L81 78C74 66 78 59 92 59H140C156 59 165 64 173 78Z" glyph-name="notequal" horiz-adv-x="532" unicode="&#8800;" /><glyph d="M208 22V341C231 371 261 387 297 387C350 387 369 344 369 294V22C369 7 376 0 391 0H493C508 0 515 7 515 22V309C515 413 468 500 348 500C285 500 240 477 201 431V468C201 483 194 490 179 490H84C69 490 62 483 62 468V22C62 7 69 0 84 0H186C201 0 208 7 208 22ZM350 552C392 552 427 571 457 620C460 625 462 630 462 635C462 641 458 647 452 652L428 671C422 676 417 678 412 678C406 678 401 675 395 669C380 654 362 647 348 647C313 647 287 686 226 686C184 686 149 667 119 618C116 613 114 608 114 603C114 597 118 591 124 586L148 567C154 562 159 560 164 560C170 560 175 563 181 569C196 584 214 591 228 591C263 591 289 552 350 552Z" glyph-name="ntilde" horiz-adv-x="573" unicode="&#241;" /><glyph d="M197 22 221 172H346L322 22C320 7 325 0 340 0H405C421 0 428 6 431 22L455 172H542C557 172 564 179 564 194V245C564 260 557 267 542 267H471L491 395H579C594 395 601 402 601 417V468C601 483 594 490 579 490H507L531 640C534 655 528 662 513 662H448C432 662 425 656 422 640L398 490H273L297 640C299 655 294 662 279 662H214C198 662 191 656 188 640L164 490H77C62 490 55 483 55 468V417C55 402 62 395 77 395H148L128 267H40C25 267 18 260 18 245V194C18 179 25 172 40 172H112L88 22C85 7 91 0 106 0H171C187 0 194 6 197 22ZM229 261 252 401H390L367 261Z" glyph-name="numbersign" horiz-adv-x="619" unicode="#" /><glyph d="M544 245C544 380 469 500 289 500C108 500 34 375 34 245C34 110 109 -10 289 -10C470 -10 544 115 544 245ZM184 245C184 326 218 393 289 393C360 393 394 326 394 245C394 164 360 97 289 97C218 97 184 164 184 245Z" glyph-name="o" horiz-adv-x="578" unicode="o" /><glyph d="M544 245C544 380 469 500 289 500C108 500 34 375 34 245C34 110 109 -10 289 -10C470 -10 544 115 544 245ZM184 245C184 326 218 393 289 393C360 393 394 326 394 245C394 164 360 97 289 97C218 97 184 164 184 245ZM224 601C217 595 215 590 215 584C215 580 217 575 221 570L236 550C242 542 247 539 254 539C258 539 264 541 269 544L431 635C439 640 443 645 443 651C443 655 441 659 438 664L400 723C396 730 390 733 384 733C380 733 375 731 370 727Z" glyph-name="oacute" horiz-adv-x="578" unicode="&#243;" /><glyph d="M544 245C544 380 469 500 289 500C108 500 34 375 34 245C34 110 109 -10 289 -10C470 -10 544 115 544 245ZM184 245C184 326 218 393 289 393C360 393 394 326 394 245C394 164 360 97 289 97C218 97 184 164 184 245ZM289 549C362 549 419 591 447 653C449 657 450 661 450 664C450 672 445 678 436 682L405 698C399 701 394 702 390 702C380 702 375 696 370 689C351 663 327 645 289 645C251 645 227 663 208 689C203 696 198 702 188 702C184 702 179 701 173 698L142 682C133 678 128 672 128 664C128 661 129 657 131 653C159 591 216 549 289 549Z" glyph-name="obreve" horiz-adv-x="578" unicode="&#335;" /><glyph d="M544 245C544 380 469 500 289 500C108 500 34 375 34 245C34 110 109 -10 289 -10C470 -10 544 115 544 245ZM184 245C184 326 218 393 289 393C360 393 394 326 394 245C394 164 360 97 289 97C218 97 184 164 184 245ZM289 608 395 545C400 542 405 541 410 541C416 541 422 544 428 551L446 573C450 578 452 583 452 587C452 593 449 598 442 604L308 708C302 713 296 715 289 715C282 715 276 713 270 708L136 604C129 598 126 593 126 587C126 583 128 578 132 573L150 551C156 544 162 541 168 541C173 541 178 542 183 545Z" glyph-name="ocircumflex" horiz-adv-x="578" unicode="&#244;" /><glyph d="M544 245C544 380 469 500 289 500C108 500 34 375 34 245C34 110 109 -10 289 -10C470 -10 544 115 544 245ZM184 245C184 326 218 393 289 393C360 393 394 326 394 245C394 164 360 97 289 97C218 97 184 164 184 245ZM266 619C266 659 237 692 192 692C147 692 118 659 118 619C118 579 147 546 192 546C237 546 266 579 266 619ZM460 619C460 659 431 692 386 692C341 692 312 659 312 619C312 579 341 546 386 546C431 546 460 579 460 619Z" glyph-name="odieresis" horiz-adv-x="578" unicode="&#246;" /><glyph d="M830 39C842 47 844 57 837 70L806 126C799 140 791 141 777 133C742 110 698 100 656 100C588 100 547 129 538 209H839C854 209 861 216 861 231V251C861 381 794 500 630 500C555 500 502 471 467 425C428 471 369 500 284 500C111 500 34 375 34 245C34 110 111 -10 284 -10C370 -10 429 20 467 65C505 19 563 -10 648 -10C714 -10 780 5 830 39ZM630 403C688 403 714 359 720 296H539C548 373 582 403 630 403ZM184 245C184 326 218 393 289 393C360 393 394 326 394 245C394 164 360 97 289 97C218 97 184 164 184 245Z" glyph-name="oe" horiz-adv-x="895" unicode="&#339;" /><glyph d="M50 -122C50 -173 90 -214 165 -214C203 -214 237 -203 263 -185C275 -177 277 -166 269 -154L259 -138C250 -123 243 -122 226 -129C213 -134 200 -136 191 -136C159 -136 146 -116 146 -92C146 -68 158 -45 189 0H128C82 -33 50 -81 50 -122Z" glyph-name="ogonek" horiz-adv-x="330" unicode="&#731;" /><glyph d="M544 245C544 380 469 500 289 500C108 500 34 375 34 245C34 110 109 -10 289 -10C470 -10 544 115 544 245ZM184 245C184 326 218 393 289 393C360 393 394 326 394 245C394 164 360 97 289 97C218 97 184 164 184 245ZM208 727C203 731 198 733 194 733C188 733 182 730 178 723L140 664C137 659 135 655 135 651C135 645 139 640 147 635L309 544C314 541 320 539 324 539C331 539 336 542 342 550L357 570C361 575 363 580 363 584C363 590 361 595 354 601Z" glyph-name="ograve" horiz-adv-x="578" unicode="&#242;" /><glyph d="M544 245C544 380 469 500 289 500C108 500 34 375 34 245C34 110 109 -10 289 -10C470 -10 544 115 544 245ZM184 245C184 326 218 393 289 393C360 393 394 326 394 245C394 164 360 97 289 97C218 97 184 164 184 245ZM327 671C331 676 334 680 334 685C334 690 331 696 324 701L274 740C269 744 264 746 259 746C254 746 248 743 244 736L151 598C147 592 146 588 146 583C146 577 149 572 156 566L178 548C184 543 189 541 194 541C200 541 205 543 211 549ZM513 671C517 676 520 680 520 685C520 690 517 696 510 701L460 740C455 744 450 746 445 746C440 746 434 743 430 736L337 598C333 592 332 588 332 583C332 577 335 572 342 566L364 548C370 543 375 541 380 541C386 541 391 543 397 549Z" glyph-name="ohungarumlaut" horiz-adv-x="578" unicode="&#337;" /><glyph d="M544 245C544 380 469 500 289 500C108 500 34 375 34 245C34 110 109 -10 289 -10C470 -10 544 115 544 245ZM184 245C184 326 218 393 289 393C360 393 394 326 394 245C394 164 360 97 289 97C218 97 184 164 184 245ZM174 664C159 664 152 657 152 642V592C152 577 159 570 174 570H404C419 570 426 577 426 592V642C426 657 419 664 404 664Z" glyph-name="omacron" horiz-adv-x="578" unicode="&#333;" /><glyph d="M499 22V90C499 105 492 112 477 112H367V640C367 655 360 662 345 662H283C268 662 255 659 242 652L73 563C60 556 57 547 64 533L92 474C99 460 108 457 122 464L222 517V112H93C78 112 71 105 71 90V22C71 7 78 0 93 0H477C492 0 499 7 499 22Z" glyph-name="one" horiz-adv-x="532" unicode="1" /><glyph d="M344 300V334C344 349 337 356 322 356H266V640C266 655 259 662 244 662H216C201 662 187 659 174 653L82 610C68 604 65 595 71 581L85 551C91 537 100 534 114 540L163 562V356H101C86 356 79 349 79 334V300C79 285 86 278 101 278H322C337 278 344 285 344 300ZM273 0C289 0 298 5 307 18L499 314L729 644C737 655 732 662 719 662H662C646 662 637 657 628 644L436 348L206 18C199 7 203 0 216 0ZM876 22V56C876 71 869 78 854 78H686C693 100 713 116 753 139C820 179 866 217 866 279C866 344 821 390 727 390C667 390 621 367 594 346C584 338 581 326 589 315L612 284C621 271 630 269 644 279C670 297 693 307 722 307C751 307 765 293 765 273C765 249 751 235 699 205C639 170 580 120 580 32V22C580 7 587 0 602 0H854C869 0 876 7 876 22Z" glyph-name="onehalf" horiz-adv-x="916" unicode="&#189;" /><glyph d="M344 300V334C344 349 337 356 322 356H266V640C266 655 259 662 244 662H216C201 662 187 659 174 653L82 610C68 604 65 595 71 581L85 551C91 537 100 534 114 540L163 562V356H101C86 356 79 349 79 334V300C79 285 86 278 101 278H322C337 278 344 285 344 300ZM283 0C299 0 308 5 317 18L509 314L739 644C747 655 742 662 729 662H672C656 662 647 657 638 644L446 348L216 18C209 7 213 0 226 0ZM699 366 566 168C556 153 551 141 551 124V97C551 82 558 75 573 75H745V22C745 7 752 0 767 0H822C837 0 844 7 844 22V75H872C887 75 894 82 894 97V128C894 143 887 150 872 150H844V362C844 377 837 384 822 384H733C717 384 708 380 699 366ZM748 297V147H650Z" glyph-name="onequarter" horiz-adv-x="916" unicode="&#188;" /><glyph d="M344 300V334C344 349 337 356 322 356H266V640C266 655 259 662 244 662H216C201 662 187 659 174 653L82 610C68 604 65 595 71 581L85 551C91 537 100 534 114 540L163 562V356H101C86 356 79 349 79 334V300C79 285 86 278 101 278H322C337 278 344 285 344 300Z" glyph-name="onesuperior" horiz-adv-x="390" unicode="&#185;" /><glyph d="M245 400C245 385 252 378 267 378H321C336 378 343 385 343 400V592C343 669 309 728 195 728C134 728 88 711 57 688C45 680 43 669 51 657L65 633C74 619 82 618 95 626C121 642 152 650 179 650C232 650 241 620 241 585V571C225 576 203 581 170 581C77 581 33 538 33 475C33 418 69 371 146 371C192 371 223 387 245 416ZM136 479C136 499 146 520 193 520C209 520 226 518 241 514V472C224 447 205 439 181 439C147 439 136 458 136 479Z" glyph-name="ordfeminine" horiz-adv-x="387" unicode="&#170;" /><glyph d="M390 549C390 641 338 728 212 728C86 728 34 641 34 549C34 457 86 370 212 370C338 370 390 457 390 549ZM139 549C139 607 162 653 212 653C262 653 285 607 285 549C285 491 262 445 212 445C162 445 139 491 139 549Z" glyph-name="ordmasculine" horiz-adv-x="424" unicode="&#186;" /><glyph d="M152 -32 181 10C212 -3 250 -10 293 -10C474 -10 548 115 548 245C548 318 526 387 477 434L538 522C546 533 542 540 529 540H469C453 540 444 536 434 522L405 481C374 493 336 500 293 500C112 500 38 375 38 245C38 172 60 103 109 55L48 -32C40 -43 44 -50 57 -50H117C133 -50 142 -45 152 -32ZM184 245C184 329 220 397 293 397C314 397 332 392 346 382L197 167C188 190 184 216 184 245ZM402 245C402 161 366 93 293 93C272 93 254 99 239 109L389 323C398 300 402 274 402 245Z" glyph-name="oslash" horiz-adv-x="586" unicode="&#248;" /><glyph d="M544 245C544 380 469 500 289 500C108 500 34 375 34 245C34 110 109 -10 289 -10C470 -10 544 115 544 245ZM184 245C184 326 218 393 289 393C360 393 394 326 394 245C394 164 360 97 289 97C218 97 184 164 184 245ZM351 552C393 552 428 571 458 620C461 625 463 630 463 635C463 641 459 647 453 652L429 671C423 676 418 678 413 678C407 678 402 675 396 669C381 654 363 647 349 647C314 647 288 686 227 686C185 686 150 667 120 618C117 613 115 608 115 603C115 597 119 591 125 586L149 567C155 562 160 560 165 560C171 560 176 563 182 569C197 584 215 591 229 591C264 591 290 552 351 552Z" glyph-name="otilde" horiz-adv-x="578" unicode="&#245;" /><glyph d="M208 -178V51C244 13 288 -10 351 -10C479 -10 560 91 560 247C560 410 479 500 351 500C283 500 237 471 201 426V468C201 483 194 490 179 490H84C69 490 62 483 62 468V-178C62 -193 69 -200 84 -200H186C201 -200 208 -193 208 -178ZM304 388C368 388 410 342 410 245C410 148 368 102 305 102C265 102 236 117 208 152V333C232 367 264 388 304 388Z" glyph-name="p" horiz-adv-x="594" unicode="p" /><glyph d="M506 -120C521 -120 528 -113 528 -98V560H590C605 560 612 567 612 582V640C612 655 605 662 590 662H254C92 662 35 587 35 490C35 403 81 333 199 317V-98C199 -113 206 -120 221 -120H294C309 -120 316 -113 316 -98V560H411V-98C411 -113 418 -120 433 -120Z" glyph-name="paragraph" horiz-adv-x="642" unicode="&#182;" /><glyph d="M196 319C196 463 240 570 319 676C322 680 324 683 324 688C324 694 321 698 313 705L271 738C264 743 259 745 253 745C248 745 242 744 235 737C161 667 66 523 66 319C66 115 161 -29 235 -99C242 -106 248 -107 253 -107C259 -107 264 -105 271 -100L313 -67C321 -60 324 -56 324 -50C324 -45 322 -42 319 -38C240 68 196 175 196 319Z" glyph-name="parenleft" horiz-adv-x="355" unicode="(" /><glyph d="M159 319C159 175 115 68 36 -38C33 -42 31 -45 31 -50C31 -56 34 -60 42 -67L84 -100C91 -105 96 -107 102 -107C107 -107 113 -106 120 -99C194 -29 289 115 289 319C289 523 194 667 120 737C113 744 107 745 102 745C96 745 91 743 84 738L42 705C34 698 31 694 31 688C31 683 33 680 36 676C115 570 159 463 159 319Z" glyph-name="parenright" horiz-adv-x="355" unicode=")" /><glyph d="M545 253C545 538 284 671 134 671C121 671 114 665 111 651L100 586C99 581 98 574 98 572C98 562 104 558 117 556C248 536 372 470 408 380C369 422 319 436 264 436C107 436 33 321 33 212C33 102 108 -10 288 -10C471 -10 545 105 545 253ZM184 213C184 274 218 334 289 334C360 334 394 274 394 213C394 150 360 92 289 92C218 92 184 152 184 213Z" glyph-name="partialdiff" horiz-adv-x="578" unicode="&#8706;" /><glyph d="M371 483C371 588 312 672 203 672C94 672 35 588 35 483C35 378 94 294 203 294C312 294 371 378 371 483ZM229 0C245 0 254 5 263 18L455 314L685 644C693 655 688 662 675 662H618C602 662 593 657 584 644L392 348L162 18C155 7 159 0 172 0ZM138 483C138 546 162 584 203 584C245 584 268 546 268 483C268 420 245 382 203 382C162 382 138 420 138 483ZM476 179C476 74 535 -10 644 -10C753 -10 812 74 812 179C812 284 753 368 644 368C535 368 476 284 476 179ZM709 179C709 116 685 78 644 78C602 78 579 116 579 179C579 242 602 280 644 280C685 280 709 242 709 179Z" glyph-name="percent" horiz-adv-x="847" unicode="%" /><glyph d="M212 83C212 134 176 176 120 176C64 176 28 134 28 83C28 32 64 -10 120 -10C176 -10 212 32 212 83Z" glyph-name="period" horiz-adv-x="240" unicode="." /><glyph d="M222 292C222 343 186 385 130 385C74 385 38 343 38 292C38 241 74 199 130 199C186 199 222 241 222 292Z" glyph-name="periodcentered" horiz-adv-x="260" unicode="&#183;" /><glyph d="M371 483C371 588 312 672 203 672C94 672 35 588 35 483C35 378 94 294 203 294C312 294 371 378 371 483ZM229 0C245 0 254 5 263 18L455 314L685 644C693 655 688 662 675 662H618C602 662 593 657 584 644L392 348L162 18C155 7 159 0 172 0ZM138 483C138 546 162 584 203 584C245 584 268 546 268 483C268 420 245 382 203 382C162 382 138 420 138 483ZM476 179C476 74 535 -10 644 -10C753 -10 812 74 812 179C812 284 753 368 644 368C535 368 476 284 476 179ZM859 179C859 74 918 -10 1027 -10C1136 -10 1195 74 1195 179C1195 284 1136 368 1027 368C918 368 859 284 859 179ZM709 179C709 116 685 78 644 78C602 78 579 116 579 179C579 242 602 280 644 280C685 280 709 242 709 179ZM1092 179C1092 116 1068 78 1027 78C985 78 962 116 962 179C962 242 985 280 1027 280C1068 280 1092 242 1092 179Z" glyph-name="perthousand" horiz-adv-x="1230" unicode="&#8240;" /><glyph d="M32 490C17 490 10 483 10 468V404C10 389 17 382 32 382H90V22C90 7 97 0 112 0H214C229 0 236 7 236 22V382H371V159C371 45 421 -10 530 -10C563 -10 599 -5 627 7C640 12 644 22 639 36L616 95C610 110 603 113 588 108C580 105 572 104 564 104C529 104 517 128 517 165V382H575C590 382 597 389 597 404V468C597 483 590 490 575 490Z" glyph-name="pi" horiz-adv-x="636" unicode="&#960;" /><glyph d="M213 282V111C213 96 220 89 235 89H297C312 89 319 96 319 111V282H486C501 282 508 289 508 304V358C508 373 501 380 486 380H319V551C319 566 312 573 297 573H235C220 573 213 566 213 551V380H46C31 380 24 373 24 358V304C24 289 31 282 46 282Z" glyph-name="plus" horiz-adv-x="532" unicode="+" /><glyph d="M213 303V172C213 157 220 150 235 150H297C312 150 319 157 319 172V303H486C501 303 508 310 508 325V379C508 394 501 401 486 401H319V532C319 547 312 554 297 554H235C220 554 213 547 213 532V401H46C31 401 24 394 24 379V325C24 310 31 303 46 303ZM486 0C501 0 508 7 508 22V70C508 85 501 92 486 92H46C31 92 24 85 24 70V22C24 7 31 0 46 0Z" glyph-name="plusminus" horiz-adv-x="532" unicode="&#177;" /><glyph d="M203 0C218 0 225 7 225 22V539H472V22C472 7 479 0 494 0H602C617 0 624 7 624 22V640C624 655 617 662 602 662H95C80 662 73 655 73 640V22C73 7 80 0 95 0Z" glyph-name="product" horiz-adv-x="697" unicode="&#8719;" /><glyph d="M532 -178V468C532 483 525 490 510 490H415C400 490 393 483 393 468V431C356 474 310 500 243 500C115 500 34 399 34 243C34 80 115 -10 243 -10C307 -10 351 15 386 56V-178C386 -193 393 -200 408 -200H510C525 -200 532 -193 532 -178ZM184 245C184 342 226 388 289 388C329 388 358 373 386 338V157C362 123 330 102 290 102C226 102 184 148 184 245Z" glyph-name="q" horiz-adv-x="594" unicode="q" /><glyph d="M213 222C229 222 235 227 240 243C256 297 264 307 337 358C403 404 445 450 445 517C445 606 379 672 244 672C148 672 85 641 36 601C25 592 22 582 31 569L75 507C83 495 91 494 104 503C136 529 181 551 229 551C275 551 298 537 298 505C298 476 277 460 232 428C168 383 150 358 150 307C150 288 154 262 159 242C162 229 170 222 185 222ZM296 79C296 128 260 168 204 168C148 168 112 128 112 79C112 30 148 -10 204 -10C260 -10 296 30 296 79Z" glyph-name="question" horiz-adv-x="472" unicode="?" /><glyph d="M327 411C327 460 291 500 235 500C179 500 143 460 143 411C143 362 179 322 235 322C291 322 327 362 327 411ZM403 -111C414 -102 417 -92 408 -79L364 -17C356 -5 348 -4 335 -13C303 -39 258 -61 210 -61C164 -61 141 -47 141 -15C141 14 162 30 207 62C271 107 289 132 289 183C289 202 285 228 280 248C277 261 269 268 254 268H226C210 268 204 263 199 247C183 193 175 183 102 132C36 86 -6 40 -6 -27C-6 -116 60 -182 195 -182C291 -182 354 -151 403 -111Z" glyph-name="questiondown" horiz-adv-x="408" unicode="&#191;" /><glyph d="M67 718C54 718 48 713 48 701C48 699 49 690 50 683L84 445C86 429 93 423 109 423H119C135 423 142 429 144 445L178 683C179 690 180 699 180 701C180 713 174 718 161 718ZM254 718C241 718 235 713 235 701C235 699 236 690 237 683L271 445C273 429 280 423 296 423H306C322 423 329 429 331 445L365 683C366 690 367 699 367 701C367 713 361 718 348 718Z" glyph-name="quotedbl" horiz-adv-x="415" unicode="&quot;" /><glyph d="M41 99C41 45 88 41 88 -10C88 -38 76 -60 54 -91C50 -96 49 -101 49 -104C49 -111 53 -116 61 -121L72 -128C77 -131 82 -133 87 -133C94 -133 100 -130 106 -123C164 -61 201 31 201 85C201 133 177 173 120 173C69 173 41 140 41 99ZM234 99C234 45 281 41 281 -10C281 -38 269 -60 247 -91C243 -96 242 -101 242 -104C242 -111 246 -116 254 -121L265 -128C270 -131 275 -133 280 -133C287 -133 293 -130 299 -123C357 -61 394 31 394 85C394 133 370 173 313 173C262 173 234 140 234 99Z" glyph-name="quotedblbase" horiz-adv-x="429" unicode="&#8222;" /><glyph d="M195 492C195 546 148 550 148 601C148 629 160 651 182 682C186 687 187 692 187 695C187 702 183 707 175 712L164 719C159 722 154 724 149 724C142 724 136 721 130 714C72 652 35 560 35 506C35 458 59 418 116 418C167 418 195 451 195 492ZM388 492C388 546 341 550 341 601C341 629 353 651 375 682C379 687 380 692 380 695C380 702 376 707 368 712L357 719C352 722 347 724 342 724C335 724 329 721 323 714C265 652 228 560 228 506C228 458 252 418 309 418C360 418 388 451 388 492Z" glyph-name="quotedblleft" horiz-adv-x="429" unicode="&#8220;" /><glyph d="M41 649C41 595 88 591 88 540C88 512 76 490 54 459C50 454 49 449 49 446C49 439 53 434 61 429L72 422C77 419 82 417 87 417C94 417 100 420 106 427C164 489 201 581 201 635C201 683 177 723 120 723C69 723 41 690 41 649ZM234 649C234 595 281 591 281 540C281 512 269 490 247 459C243 454 242 449 242 446C242 439 246 434 254 429L265 422C270 419 275 417 280 417C287 417 293 420 299 427C357 489 394 581 394 635C394 683 370 723 313 723C262 723 234 690 234 649Z" glyph-name="quotedblright" horiz-adv-x="429" unicode="&#8221;" /><glyph d="M195 492C195 546 148 550 148 601C148 629 160 651 182 682C186 687 187 692 187 695C187 702 183 707 175 712L164 719C159 722 154 724 149 724C142 724 136 721 130 714C72 652 35 560 35 506C35 458 59 418 116 418C167 418 195 451 195 492Z" glyph-name="quoteleft" horiz-adv-x="236" unicode="&#8216;" /><glyph d="M41 649C41 595 88 591 88 540C88 512 76 490 54 459C50 454 49 449 49 446C49 439 53 434 61 429L72 422C77 419 82 417 87 417C94 417 100 420 106 427C164 489 201 581 201 635C201 683 177 723 120 723C69 723 41 690 41 649Z" glyph-name="quoteright" horiz-adv-x="236" unicode="&#8217;" /><glyph d="M41 99C41 45 88 41 88 -10C88 -38 76 -60 54 -91C50 -96 49 -101 49 -104C49 -111 53 -116 61 -121L72 -128C77 -131 82 -133 87 -133C94 -133 100 -130 106 -123C164 -61 201 31 201 85C201 133 177 173 120 173C69 173 41 140 41 99Z" glyph-name="quotesinglbase" horiz-adv-x="236" unicode="&#8218;" /><glyph d="M67 718C54 718 48 713 48 701C48 699 49 690 50 683L84 445C86 429 93 423 109 423H119C135 423 142 429 144 445L178 683C179 690 180 699 180 701C180 713 174 718 161 718Z" glyph-name="quotesingle" horiz-adv-x="228" unicode="'" /><glyph d="M208 22V337C233 362 263 374 301 374C318 374 336 371 353 365C368 360 375 363 378 379L397 466C400 480 394 490 380 494C366 498 351 500 337 500C275 500 232 466 201 420V468C201 483 194 490 179 490H84C69 490 62 483 62 468V22C62 7 69 0 84 0H186C201 0 208 7 208 22Z" glyph-name="r" horiz-adv-x="406" unicode="r" /><glyph d="M208 22V337C233 362 263 374 301 374C318 374 336 371 353 365C368 360 375 363 378 379L397 466C400 480 394 490 380 494C366 498 351 500 337 500C275 500 232 466 201 420V468C201 483 194 490 179 490H84C69 490 62 483 62 468V22C62 7 69 0 84 0H186C201 0 208 7 208 22ZM168 601C161 595 159 590 159 584C159 580 161 575 165 570L180 550C186 542 191 539 198 539C202 539 208 541 213 544L375 635C383 640 387 645 387 651C387 655 385 659 382 664L344 723C340 730 334 733 328 733C324 733 319 731 314 727Z" glyph-name="racute" horiz-adv-x="406" unicode="&#341;" /><glyph d="M429 21 638 690C640 696 641 702 641 704C641 713 635 718 624 718H542C526 718 518 712 514 697L353 161L260 469C255 484 248 490 232 490H37C22 490 15 483 15 468V404C15 389 22 382 37 382H146L264 21C269 6 277 0 293 0H400C416 0 424 6 429 21Z" glyph-name="radical" horiz-adv-x="667" unicode="&#8730;" /><glyph d="M208 22V337C233 362 263 374 301 374C318 374 336 371 353 365C368 360 375 363 378 379L397 466C400 480 394 490 380 494C366 498 351 500 337 500C275 500 232 466 201 420V468C201 483 194 490 179 490H84C69 490 62 483 62 468V22C62 7 69 0 84 0H186C201 0 208 7 208 22ZM233 648 127 711C122 714 117 715 112 715C106 715 100 712 94 705L76 683C72 678 70 673 70 669C70 663 73 658 80 652L214 548C220 543 226 541 233 541C240 541 246 543 252 548L386 652C393 658 396 663 396 669C396 673 394 678 390 683L372 705C366 712 360 715 354 715C349 715 344 714 339 711Z" glyph-name="rcaron" horiz-adv-x="406" unicode="&#345;" /><glyph d="M626 428C626 597 496 728 327 728C158 728 28 597 28 428C28 259 158 128 327 128C496 128 626 259 626 428ZM562 428C562 283 460 186 327 186C194 186 92 283 92 428C92 573 194 670 327 670C460 670 562 573 562 428ZM293 291V373H320C341 346 357 318 373 290C383 273 389 269 406 269H460C475 269 481 276 473 290C448 336 424 374 399 399C431 411 461 440 461 485C461 550 422 593 324 593H226C211 593 204 586 204 571V291C204 276 211 269 226 269H271C286 269 293 276 293 291ZM293 523H319C350 523 367 510 367 481C367 455 351 439 314 439H293Z" glyph-name="registered" horiz-adv-x="654" unicode="&#174;" /><glyph d="M308 666C308 741 249 793 179 793C109 793 50 741 50 666C50 591 109 539 179 539C249 539 308 591 308 666ZM120 666C120 703 145 727 179 727C213 727 238 703 238 666C238 629 213 605 179 605C145 605 120 629 120 666Z" glyph-name="ring" horiz-adv-x="358" unicode="&#730;" /><glyph d="M308 826C308 901 249 953 179 953C109 953 50 901 50 826C50 751 109 699 179 699C249 699 308 751 308 826ZM120 826C120 863 145 887 179 887C213 887 238 863 238 826C238 789 213 765 179 765C145 765 120 789 120 826Z" glyph-name="ring.case" horiz-adv-x="358" /><glyph d="M448 145C448 247 381 280 285 302C203 321 183 328 183 356C183 383 210 394 256 394C305 394 344 380 373 362C387 353 394 354 402 368L435 430C442 442 439 452 426 460C389 481 323 500 250 500C132 500 43 450 43 345C43 246 104 212 199 191C289 171 308 162 308 136C308 106 275 96 228 96C179 96 139 109 99 136C86 145 77 144 69 131L30 72C22 60 24 50 37 41C77 14 144 -10 232 -10C362 -10 448 43 448 145Z" glyph-name="s" horiz-adv-x="481" unicode="s" /><glyph d="M448 145C448 247 381 280 285 302C203 321 183 328 183 356C183 383 210 394 256 394C305 394 344 380 373 362C387 353 394 354 402 368L435 430C442 442 439 452 426 460C389 481 323 500 250 500C132 500 43 450 43 345C43 246 104 212 199 191C289 171 308 162 308 136C308 106 275 96 228 96C179 96 139 109 99 136C86 145 77 144 69 131L30 72C22 60 24 50 37 41C77 14 144 -10 232 -10C362 -10 448 43 448 145ZM191 601C184 595 182 590 182 584C182 580 184 575 188 570L203 550C209 542 214 539 221 539C225 539 231 541 236 544L398 635C406 640 410 645 410 651C410 655 408 659 405 664L367 723C363 730 357 733 351 733C347 733 342 731 337 727Z" glyph-name="sacute" horiz-adv-x="481" unicode="&#347;" /><glyph d="M448 145C448 247 381 280 285 302C203 321 183 328 183 356C183 383 210 394 256 394C305 394 344 380 373 362C387 353 394 354 402 368L435 430C442 442 439 452 426 460C389 481 323 500 250 500C132 500 43 450 43 345C43 246 104 212 199 191C289 171 308 162 308 136C308 106 275 96 228 96C179 96 139 109 99 136C86 145 77 144 69 131L30 72C22 60 24 50 37 41C77 14 144 -10 232 -10C362 -10 448 43 448 145ZM256 648 150 711C145 714 140 715 135 715C129 715 123 712 117 705L99 683C95 678 93 673 93 669C93 663 96 658 103 652L237 548C243 543 249 541 256 541C263 541 269 543 275 548L409 652C416 658 419 663 419 669C419 673 417 678 413 683L395 705C389 712 383 715 377 715C372 715 367 714 362 711Z" glyph-name="scaron" horiz-adv-x="481" unicode="&#353;" /><glyph d="M448 145C448 247 381 280 285 302C203 321 183 328 183 356C183 383 210 394 256 394C305 394 344 380 373 362C387 353 394 354 402 368L435 430C442 442 439 452 426 460C389 481 323 500 250 500C132 500 43 450 43 345C43 246 104 212 199 191C289 171 308 162 308 136C308 106 275 96 228 96C179 96 139 109 99 136C86 145 77 144 69 131L30 72C22 60 24 50 37 41C77 14 144 -10 232 -10C362 -10 448 43 448 145ZM256 608 362 545C367 542 372 541 377 541C383 541 389 544 395 551L413 573C417 578 419 583 419 587C419 593 416 598 409 604L275 708C269 713 263 715 256 715C249 715 243 713 237 708L103 604C96 598 93 593 93 587C93 583 95 578 99 573L117 551C123 544 129 541 135 541C140 541 145 542 150 545Z" glyph-name="scircumflex" horiz-adv-x="481" unicode="&#349;" /><glyph d="M486 -15C486 42 463 78 419 106C476 134 516 176 516 248C516 363 410 397 340 419C256 445 205 461 205 508C205 545 237 564 299 564C352 564 393 550 426 529C439 520 447 522 455 536L491 598C498 611 495 621 483 629C444 652 382 672 301 672C157 672 68 610 68 498C68 440 91 404 135 376C78 348 38 306 38 234C38 119 144 85 214 63C304 35 349 19 349 -24C349 -63 313 -82 243 -82C183 -82 142 -68 108 -47C95 -38 87 -40 79 -54L43 -116C36 -129 39 -139 51 -146C90 -170 153 -190 238 -190C390 -190 486 -127 486 -15ZM300 157C221 183 166 205 166 256C166 284 182 312 225 335C235 332 244 328 254 325C333 299 388 277 388 226C388 198 372 170 329 147C319 150 310 154 300 157Z" glyph-name="section" horiz-adv-x="560" unicode="&#167;" /><glyph d="M229 407C229 458 193 500 137 500C81 500 45 458 45 407C45 356 81 314 137 314C193 314 229 356 229 407ZM226 78C226 132 200 176 137 176C79 176 48 141 48 91C48 40 100 21 100 -21C100 -58 89 -83 61 -119C57 -124 55 -129 55 -133C55 -139 58 -143 66 -148L84 -159C89 -162 96 -164 101 -164C106 -164 112 -162 118 -156C186 -85 226 13 226 78Z" glyph-name="semicolon" horiz-adv-x="274" unicode=";" /><glyph d="M287 22C330 234 419 438 494 558C503 572 506 584 506 600V640C506 655 499 662 484 662H59C44 662 37 655 37 640V567C37 552 44 545 59 545H342C246 394 172 207 135 22C132 7 138 0 153 0H261C277 0 284 6 287 22Z" glyph-name="seven" horiz-adv-x="532" unicode="7" /><glyph d="M507 218C507 351 426 434 309 434C260 434 217 420 181 390C190 502 245 560 342 560C371 560 399 555 423 543C438 537 445 540 450 555L473 622C477 636 473 646 459 651C429 663 387 672 336 672C254 672 179 649 125 595C63 533 34 438 34 315C34 81 138 -10 282 -10C427 -10 507 85 507 218ZM257 325C325 325 365 285 365 211C365 142 333 97 279 97C219 97 182 157 180 304C204 318 230 325 257 325Z" glyph-name="six" horiz-adv-x="532" unicode="6" /><glyph d="M4 -74C4 -85 11 -90 23 -90H80C96 -90 104 -85 109 -69L353 720C355 727 356 732 356 736C356 747 349 752 337 752H280C264 752 256 747 251 731L7 -58C5 -65 4 -70 4 -74Z" glyph-name="slash" horiz-adv-x="360" unicode="/" /><glyph glyph-name="space" horiz-adv-x="205" unicode=" " /><glyph d="M504 22V90C504 105 497 112 482 112H222C260 149 280 185 280 243C280 251 280 258 279 265H416C431 265 438 272 438 287V347C438 362 431 369 416 369H253C239 415 232 444 232 469C232 520 270 556 321 556C371 556 406 535 435 513C448 503 457 506 467 520L509 580C517 592 516 602 505 611C459 650 398 672 323 672C168 672 92 573 92 475C92 443 97 418 114 369H59C44 369 37 362 37 347V287C37 272 44 265 59 265H147C150 252 151 241 151 230C151 181 125 145 69 111C52 101 47 95 47 77V22C47 7 53 0 68 0H482C497 0 504 7 504 22Z" glyph-name="sterling" horiz-adv-x="532" unicode="&#163;" /><glyph d="M498 22V96C498 111 491 118 476 118H231L380 270C391 282 395 292 395 308V354C395 370 391 380 380 392L231 544H476C491 544 498 551 498 566V640C498 655 491 662 476 662H60C45 662 38 655 38 640V566C38 550 42 540 53 528L251 326L53 124C42 112 38 102 38 86V22C38 7 45 0 60 0H476C491 0 498 7 498 22Z" glyph-name="summation" horiz-adv-x="542" unicode="&#8721;" /><glyph d="M383 18C395 25 399 35 394 49L371 107C366 122 358 125 344 117C331 110 317 106 300 106C257 106 244 132 244 179V382H368C383 382 390 389 390 404V468C390 483 383 490 368 490H244V608C244 623 237 630 222 630H120C105 630 98 623 98 608V490H35C20 490 13 483 13 468V404C13 389 20 382 35 382H98V169C98 38 160 -10 269 -10C311 -10 348 -3 383 18Z" glyph-name="t" horiz-adv-x="428" unicode="t" /><glyph d="M388 18C400 25 404 35 399 49L376 107C371 122 363 125 349 117C336 110 322 106 305 106C262 106 249 132 249 179V217H332C347 217 354 224 354 239V289C354 304 347 311 332 311H249V382H373C388 382 395 389 395 404V468C395 483 388 490 373 490H249V608C249 623 242 630 227 630H125C110 630 103 623 103 608V490H40C25 490 18 483 18 468V404C18 389 25 382 40 382H103V311H60C45 311 38 304 38 289V239C38 224 45 217 60 217H103V169C103 38 165 -10 274 -10C316 -10 353 -3 388 18Z" glyph-name="tbar" horiz-adv-x="433" unicode="&#359;" /><glyph d="M383 18C395 25 399 35 394 49L371 107C366 122 358 125 344 117C331 110 317 106 300 106C257 106 244 132 244 179V382H368C383 382 390 389 390 404V468C390 483 383 490 368 490H244V608C244 623 237 630 222 630H120C105 630 98 623 98 608V490H35C20 490 13 483 13 468V404C13 389 20 382 35 382H98V169C98 38 160 -10 269 -10C311 -10 348 -3 383 18ZM325 546 337 543C352 539 360 543 366 558L433 731C434 734 435 738 435 741C435 750 429 755 419 757L351 772C337 775 328 766 326 751L306 570C304 554 310 550 325 546Z" glyph-name="tcaron" horiz-adv-x="428" unicode="&#357;" /><glyph d="M383 18C395 25 399 35 394 49L371 107C366 122 358 125 344 117C331 110 317 106 300 106C257 106 244 132 244 179V382H368C383 382 390 389 390 404V468C390 483 383 490 368 490H244V608C244 623 237 630 222 630H120C105 630 98 623 98 608V490H35C20 490 13 483 13 468V404C13 389 20 382 35 382H98V169C98 38 160 -10 269 -10C311 -10 348 -3 383 18ZM325 -114C325 -73 299 -45 259 -45C220 -45 195 -73 195 -101C195 -137 231 -145 231 -173C231 -186 225 -197 214 -210C209 -216 207 -220 207 -225C207 -230 210 -235 216 -240L217 -241C223 -246 229 -248 235 -248C240 -248 246 -246 252 -241C294 -205 325 -159 325 -114Z" glyph-name="tcommaaccent" horiz-adv-x="428" unicode="&#355;" /><glyph d="M208 -178V51C244 13 288 -10 351 -10C479 -10 560 91 560 247C560 410 479 500 351 500C287 500 243 475 208 434V696C208 711 201 718 186 718H84C69 718 62 711 62 696V-178C62 -193 69 -200 84 -200H186C201 -200 208 -193 208 -178ZM304 388C368 388 410 342 410 245C410 148 368 102 305 102C265 102 236 117 208 152V333C232 367 264 388 304 388Z" glyph-name="thorn" horiz-adv-x="594" unicode="&#254;" /><glyph d="M490 207C490 312 425 385 310 401C345 430 371 457 409 500L462 560C472 572 476 583 476 599V640C476 655 469 662 454 662H81C66 662 59 655 59 640V572C59 557 66 550 81 550H293L149 391C138 379 139 368 147 355L173 314C180 303 188 298 205 298H232C310 298 344 261 344 203C344 149 302 109 239 109C178 109 143 136 110 161C98 170 90 169 80 157L31 94C22 83 23 73 34 63C73 25 145 -10 241 -10C400 -10 490 88 490 207Z" glyph-name="three" horiz-adv-x="532" unicode="3" /><glyph d="M339 408C339 460 305 506 231 517C258 537 279 554 305 579L319 592C328 601 331 608 331 619V640C331 655 324 662 309 662H88C73 662 66 655 66 640V606C66 591 73 584 88 584H197L119 511C107 500 108 486 119 474L139 451C145 445 150 443 160 443H177C219 443 237 428 237 402C237 375 213 356 176 356C145 356 123 367 100 381C85 390 77 387 69 373L48 339C41 327 44 317 56 308C85 289 124 272 186 272C274 272 339 330 339 408ZM273 0C289 0 298 5 307 18L499 314L729 644C737 655 732 662 719 662H662C646 662 637 657 628 644L436 348L206 18C199 7 203 0 216 0ZM699 366 566 168C556 153 551 141 551 124V97C551 82 558 75 573 75H745V22C745 7 752 0 767 0H822C837 0 844 7 844 22V75H872C887 75 894 82 894 97V128C894 143 887 150 872 150H844V362C844 377 837 384 822 384H733C717 384 708 380 699 366ZM748 297V147H650Z" glyph-name="threequarters" horiz-adv-x="916" unicode="&#190;" /><glyph d="M339 408C339 460 305 506 231 517C258 537 279 554 305 579L319 592C328 601 331 608 331 619V640C331 655 324 662 309 662H88C73 662 66 655 66 640V606C66 591 73 584 88 584H197L119 511C107 500 108 486 119 474L139 451C145 445 150 443 160 443H177C219 443 237 428 237 402C237 375 213 356 176 356C145 356 123 367 100 381C85 390 77 387 69 373L48 339C41 327 44 317 56 308C85 289 124 272 186 272C274 272 339 330 339 408Z" glyph-name="threesuperior" horiz-adv-x="390" unicode="&#179;" /><glyph d="M292 552C334 552 369 571 399 620C402 625 404 630 404 635C404 641 400 647 394 652L370 671C364 676 359 678 354 678C348 678 343 675 337 669C322 654 304 647 290 647C255 647 229 686 168 686C126 686 91 667 61 618C58 613 56 608 56 603C56 597 60 591 66 586L90 567C96 562 101 560 106 560C112 560 117 563 123 569C138 584 156 591 170 591C205 591 231 552 292 552Z" glyph-name="tilde" horiz-adv-x="460" unicode="&#732;" /><glyph d="M292 722C334 722 369 741 399 790C402 795 404 800 404 805C404 811 400 817 394 822L370 841C364 846 359 848 354 848C348 848 343 845 337 839C322 824 304 817 290 817C255 817 229 856 168 856C126 856 91 837 61 788C58 783 56 778 56 773C56 767 60 761 66 756L90 737C96 732 101 730 106 730C112 730 117 733 123 739C138 754 156 761 170 761C205 761 231 722 292 722Z" glyph-name="tilde.case" horiz-adv-x="460" /><glyph d="M184 338C199 338 206 345 206 360V585H279C294 585 301 592 301 607V640C301 655 294 662 279 662H40C25 662 18 655 18 640V607C18 592 25 585 40 585H113V360C113 345 120 338 135 338ZM432 360V552L482 428C489 411 494 408 510 408H538C554 408 559 411 566 428L616 552V360C616 345 623 338 638 338H685C700 338 707 345 707 360V640C707 655 700 662 685 662H604C588 662 580 656 574 642L527 522L480 642C474 656 466 662 450 662H363C348 662 341 655 341 640V360C341 345 348 338 363 338H410C425 338 432 345 432 360Z" glyph-name="trademark" horiz-adv-x="775" unicode="&#8482;" /><glyph d="M489 22V90C489 105 482 112 467 112H195C203 159 232 192 314 250C432 333 476 385 476 487C476 588 407 672 260 672C167 672 105 642 55 599C43 589 42 579 52 566L97 508C107 495 116 493 127 502C162 531 199 553 248 553C301 553 331 523 331 477C331 427 304 398 227 345C109 264 45 189 45 55V22C45 7 52 0 66 0H467C482 0 489 7 489 22Z" glyph-name="two" horiz-adv-x="532" unicode="2" /><glyph d="M350 300V334C350 349 343 356 328 356H160C167 378 187 394 227 417C294 457 340 495 340 557C340 622 295 668 201 668C141 668 95 645 68 624C58 616 55 604 63 593L86 562C95 549 104 547 118 557C144 575 167 585 196 585C225 585 239 571 239 551C239 527 225 513 173 483C113 448 54 398 54 310V300C54 285 61 278 76 278H328C343 278 350 285 350 300Z" glyph-name="twosuperior" horiz-adv-x="390" unicode="&#178;" /><glyph d="M363 22C363 7 370 0 385 0H480C495 0 502 7 502 22V468C502 483 495 490 480 490H378C363 490 356 483 356 468V147C334 119 306 103 272 103C223 103 204 142 204 196V468C204 483 197 490 182 490H80C65 490 58 483 58 468V181C58 77 104 -10 220 -10C281 -10 325 12 363 58Z" glyph-name="u" horiz-adv-x="564" unicode="u" /><glyph d="M363 22C363 7 370 0 385 0H480C495 0 502 7 502 22V468C502 483 495 490 480 490H378C363 490 356 483 356 468V147C334 119 306 103 272 103C223 103 204 142 204 196V468C204 483 197 490 182 490H80C65 490 58 483 58 468V181C58 77 104 -10 220 -10C281 -10 325 12 363 58ZM215 601C208 595 206 590 206 584C206 580 208 575 212 570L227 550C233 542 238 539 245 539C249 539 255 541 260 544L422 635C430 640 434 645 434 651C434 655 432 659 429 664L391 723C387 730 381 733 375 733C371 733 366 731 361 727Z" glyph-name="uacute" horiz-adv-x="564" unicode="&#250;" /><glyph d="M363 22C363 7 370 0 385 0H480C495 0 502 7 502 22V468C502 483 495 490 480 490H378C363 490 356 483 356 468V147C334 119 306 103 272 103C223 103 204 142 204 196V468C204 483 197 490 182 490H80C65 490 58 483 58 468V181C58 77 104 -10 220 -10C281 -10 325 12 363 58ZM280 549C353 549 410 591 438 653C440 657 441 661 441 664C441 672 436 678 427 682L396 698C390 701 385 702 381 702C371 702 366 696 361 689C342 663 318 645 280 645C242 645 218 663 199 689C194 696 189 702 179 702C175 702 170 701 164 698L133 682C124 678 119 672 119 664C119 661 120 657 122 653C150 591 207 549 280 549Z" glyph-name="ubreve" horiz-adv-x="564" unicode="&#365;" /><glyph d="M363 22C363 7 370 0 385 0H480C495 0 502 7 502 22V468C502 483 495 490 480 490H378C363 490 356 483 356 468V147C334 119 306 103 272 103C223 103 204 142 204 196V468C204 483 197 490 182 490H80C65 490 58 483 58 468V181C58 77 104 -10 220 -10C281 -10 325 12 363 58ZM280 608 386 545C391 542 396 541 401 541C407 541 413 544 419 551L437 573C441 578 443 583 443 587C443 593 440 598 433 604L299 708C293 713 287 715 280 715C273 715 267 713 261 708L127 604C120 598 117 593 117 587C117 583 119 578 123 573L141 551C147 544 153 541 159 541C164 541 169 542 174 545Z" glyph-name="ucircumflex" horiz-adv-x="564" unicode="&#251;" /><glyph d="M363 22C363 7 370 0 385 0H480C495 0 502 7 502 22V468C502 483 495 490 480 490H378C363 490 356 483 356 468V147C334 119 306 103 272 103C223 103 204 142 204 196V468C204 483 197 490 182 490H80C65 490 58 483 58 468V181C58 77 104 -10 220 -10C281 -10 325 12 363 58ZM257 619C257 659 228 692 183 692C138 692 109 659 109 619C109 579 138 546 183 546C228 546 257 579 257 619ZM451 619C451 659 422 692 377 692C332 692 303 659 303 619C303 579 332 546 377 546C422 546 451 579 451 619Z" glyph-name="udieresis" horiz-adv-x="564" unicode="&#252;" /><glyph d="M363 22C363 7 370 0 385 0H480C495 0 502 7 502 22V468C502 483 495 490 480 490H378C363 490 356 483 356 468V147C334 119 306 103 272 103C223 103 204 142 204 196V468C204 483 197 490 182 490H80C65 490 58 483 58 468V181C58 77 104 -10 220 -10C281 -10 325 12 363 58ZM199 727C194 731 189 733 185 733C179 733 173 730 169 723L131 664C128 659 126 655 126 651C126 645 130 640 138 635L300 544C305 541 311 539 315 539C322 539 327 542 333 550L348 570C352 575 354 580 354 584C354 590 352 595 345 601Z" glyph-name="ugrave" horiz-adv-x="564" unicode="&#249;" /><glyph d="M363 22C363 7 370 0 385 0H480C495 0 502 7 502 22V468C502 483 495 490 480 490H378C363 490 356 483 356 468V147C334 119 306 103 272 103C223 103 204 142 204 196V468C204 483 197 490 182 490H80C65 490 58 483 58 468V181C58 77 104 -10 220 -10C281 -10 325 12 363 58ZM318 671C322 676 325 680 325 685C325 690 322 696 315 701L265 740C260 744 255 746 250 746C245 746 239 743 235 736L142 598C138 592 137 588 137 583C137 577 140 572 147 566L169 548C175 543 180 541 185 541C191 541 196 543 202 549ZM504 671C508 676 511 680 511 685C511 690 508 696 501 701L451 740C446 744 441 746 436 746C431 746 425 743 421 736L328 598C324 592 323 588 323 583C323 577 326 572 333 566L355 548C361 543 366 541 371 541C377 541 382 543 388 549Z" glyph-name="uhungarumlaut" horiz-adv-x="564" unicode="&#369;" /><glyph d="M363 22C363 7 370 0 385 0H480C495 0 502 7 502 22V468C502 483 495 490 480 490H378C363 490 356 483 356 468V147C334 119 306 103 272 103C223 103 204 142 204 196V468C204 483 197 490 182 490H80C65 490 58 483 58 468V181C58 77 104 -10 220 -10C281 -10 325 12 363 58ZM165 664C150 664 143 657 143 642V592C143 577 150 570 165 570H395C410 570 417 577 417 592V642C417 657 410 664 395 664Z" glyph-name="umacron" horiz-adv-x="564" unicode="&#363;" /><glyph d="M390 -98C405 -98 412 -91 412 -76V-22C412 -7 405 0 390 0H60C45 0 38 -7 38 -22V-76C38 -91 45 -98 60 -98Z" glyph-name="underscore" horiz-adv-x="450" unicode="_" /><glyph glyph-name="uni00A0" horiz-adv-x="205" unicode="&#160;" /><glyph d="M278 223C293 223 300 230 300 245V325C300 340 293 347 278 347H66C51 347 44 340 44 325V245C44 230 51 223 66 223Z" glyph-name="uni00AD" horiz-adv-x="344" unicode="&#173;" /><glyph d="M213 -178V-109C213 -66 211 -27 201 10C221 -5 242 -10 269 -10C314 -10 345 15 372 56V22C372 7 379 0 394 0H489C504 0 511 7 511 22V468C511 483 504 490 489 490H387C372 490 365 483 365 468V148C342 117 311 103 281 103C229 103 213 145 213 186V468C213 483 206 490 191 490H89C74 490 67 483 67 468V-178C67 -193 74 -200 89 -200H191C206 -200 213 -193 213 -178Z" glyph-name="uni00B5" horiz-adv-x="578" unicode="&#181;" /><glyph d="M611 43C624 50 630 60 630 75V353C630 368 623 375 608 375H386C371 375 364 368 364 353V279C364 264 371 257 386 257H484V134C449 118 417 113 383 113C255 113 198 196 198 323C198 453 257 547 388 547C446 547 491 528 530 493C542 483 550 484 560 496L616 566C625 577 624 587 613 597C551 652 471 672 385 672C133 672 40 495 40 324C40 146 140 -10 378 -10C459 -10 543 8 611 43ZM425 -114C425 -73 399 -45 359 -45C320 -45 295 -73 295 -101C295 -137 331 -145 331 -173C331 -186 325 -197 314 -210C309 -216 307 -220 307 -225C307 -230 310 -235 316 -240L317 -241C323 -246 329 -248 335 -248C340 -248 346 -246 352 -241C394 -205 425 -159 425 -114Z" glyph-name="uni0122" horiz-adv-x="698" unicode="&#290;" /><glyph d="M519 -35C519 56 449 94 347 94H206C170 94 158 107 158 128C158 140 161 151 170 164C195 156 224 152 257 152C408 152 465 237 465 322C465 360 452 386 430 408C460 394 486 389 511 389C524 389 530 395 530 409V468C530 483 523 490 508 490H338C315 496 287 500 255 500C108 500 43 414 43 326C43 272 67 220 118 187C70 160 49 130 49 88C49 47 69 21 102 10C36 -8 7 -46 7 -91C7 -173 103 -210 237 -210C409 -210 519 -149 519 -35ZM178 326C178 372 204 406 255 406C306 406 332 372 332 326C332 280 306 246 255 246C204 246 178 280 178 326ZM134 -73C134 -51 143 -35 167 -20H305C362 -20 379 -40 379 -67C379 -107 339 -132 249 -132C167 -132 134 -112 134 -73ZM192 615C192 574 218 546 258 546C297 546 322 574 322 602C322 638 286 646 286 674C286 687 292 698 303 711C308 717 310 721 310 726C310 731 307 736 301 741L300 742C294 747 288 749 282 749C277 749 271 747 265 742C223 706 192 660 192 615Z" glyph-name="uni0123" horiz-adv-x="534" unicode="&#291;" /><glyph d="M225 22V217C248 237 270 258 293 279C352 203 407 116 457 20C465 5 473 0 489 0H612C626 0 632 7 625 20C561 149 477 277 392 378C466 456 536 541 602 643C610 655 605 662 591 662H463C446 662 439 657 429 641C378 558 307 466 225 372V640C225 655 218 662 203 662H95C80 662 73 655 73 640V22C73 7 80 0 95 0H203C218 0 225 7 225 22ZM409 -114C409 -73 383 -45 343 -45C304 -45 279 -73 279 -101C279 -137 315 -145 315 -173C315 -186 309 -197 298 -210C293 -216 291 -220 291 -225C291 -230 294 -235 300 -240L301 -241C307 -246 313 -248 319 -248C324 -248 330 -246 336 -241C378 -205 409 -159 409 -114Z" glyph-name="uni0136" horiz-adv-x="643" unicode="&#310;" /><glyph d="M208 22V134C230 155 251 175 270 194C312 132 342 74 370 20C378 5 384 0 400 0H514C528 0 535 7 528 21C489 106 433 200 367 293C421 351 466 407 511 469C520 482 513 490 499 490H387C370 490 363 485 351 468C311 409 274 361 208 283V696C208 711 201 718 186 718H84C69 718 62 711 62 696V22C62 7 69 0 84 0H186C201 0 208 7 208 22ZM358 -114C358 -73 332 -45 292 -45C253 -45 228 -73 228 -101C228 -137 264 -145 264 -173C264 -186 258 -197 247 -210C242 -216 240 -220 240 -225C240 -230 243 -235 249 -240L250 -241C256 -246 262 -248 268 -248C273 -248 279 -246 285 -241C327 -205 358 -159 358 -114Z" glyph-name="uni0137" horiz-adv-x="550" unicode="&#311;" /><glyph d="M466 0C481 0 488 7 488 22V102C488 117 481 124 466 124H225V640C225 655 218 662 203 662H95C80 662 73 655 73 640V22C73 7 80 0 95 0ZM353 -114C353 -73 327 -45 287 -45C248 -45 223 -73 223 -101C223 -137 259 -145 259 -173C259 -186 253 -197 242 -210C237 -216 235 -220 235 -225C235 -230 238 -235 244 -240L245 -241C251 -246 257 -248 263 -248C268 -248 274 -246 280 -241C322 -205 353 -159 353 -114Z" glyph-name="uni013B" horiz-adv-x="520" unicode="&#315;" /><glyph d="M188 0C203 0 210 7 210 22V696C210 711 203 718 188 718H86C71 718 64 711 64 696V22C64 7 71 0 86 0ZM199 -114C199 -73 173 -45 133 -45C94 -45 69 -73 69 -101C69 -137 105 -145 105 -173C105 -186 99 -197 88 -210C83 -216 81 -220 81 -225C81 -230 84 -235 90 -240L91 -241C97 -246 103 -248 109 -248C114 -248 120 -246 126 -241C168 -205 199 -159 199 -114Z" glyph-name="uni013C" horiz-adv-x="274" unicode="&#316;" /><glyph d="M212 22V465L469 19C477 5 486 0 502 0H635C650 0 657 7 657 22V640C657 655 650 662 635 662H540C525 662 518 655 518 640V204L265 643C257 657 248 662 232 662H95C80 662 73 655 73 640V22C73 7 80 0 95 0H190C205 0 212 7 212 22ZM431 -114C431 -73 405 -45 365 -45C326 -45 301 -73 301 -101C301 -137 337 -145 337 -173C337 -186 331 -197 320 -210C315 -216 313 -220 313 -225C313 -230 316 -235 322 -240L323 -241C329 -246 335 -248 341 -248C346 -248 352 -246 358 -241C400 -205 431 -159 431 -114Z" glyph-name="uni0145" horiz-adv-x="730" unicode="&#325;" /><glyph d="M208 22V341C231 371 261 387 297 387C350 387 369 344 369 294V22C369 7 376 0 391 0H493C508 0 515 7 515 22V309C515 413 468 500 348 500C285 500 240 477 201 431V468C201 483 194 490 179 490H84C69 490 62 483 62 468V22C62 7 69 0 84 0H186C201 0 208 7 208 22ZM354 -114C354 -73 328 -45 288 -45C249 -45 224 -73 224 -101C224 -137 260 -145 260 -173C260 -186 254 -197 243 -210C238 -216 236 -220 236 -225C236 -230 239 -235 245 -240L246 -241C252 -246 258 -248 264 -248C269 -248 275 -246 281 -241C323 -205 354 -159 354 -114Z" glyph-name="uni0146" horiz-adv-x="573" unicode="&#326;" /><glyph d="M225 22V236H287C348 160 385 102 433 21C442 5 448 0 465 0H588C602 0 608 7 601 21C548 120 497 199 439 268C507 294 569 355 569 454C569 580 496 662 296 662H95C80 662 73 655 73 640V22C73 7 80 0 95 0H203C218 0 225 7 225 22ZM225 548H292C374 548 410 510 410 449C410 385 373 346 289 346H225ZM397 -114C397 -73 371 -45 331 -45C292 -45 267 -73 267 -101C267 -137 303 -145 303 -173C303 -186 297 -197 286 -210C281 -216 279 -220 279 -225C279 -230 282 -235 288 -240L289 -241C295 -246 301 -248 307 -248C312 -248 318 -246 324 -241C366 -205 397 -159 397 -114Z" glyph-name="uni0156" horiz-adv-x="629" unicode="&#342;" /><glyph d="M208 22V337C233 362 263 374 301 374C318 374 336 371 353 365C368 360 375 363 378 379L397 466C400 480 394 490 380 494C366 498 351 500 337 500C275 500 232 466 201 420V468C201 483 194 490 179 490H84C69 490 62 483 62 468V22C62 7 69 0 84 0H186C201 0 208 7 208 22ZM199 -114C199 -73 173 -45 133 -45C94 -45 69 -73 69 -101C69 -137 105 -145 105 -173C105 -186 99 -197 88 -210C83 -216 81 -220 81 -225C81 -230 84 -235 90 -240L91 -241C97 -246 103 -248 109 -248C114 -248 120 -246 126 -241C168 -205 199 -159 199 -114Z" glyph-name="uni0157" horiz-adv-x="406" unicode="&#343;" /><glyph d="M394 -116C394 -68 357 -38 301 -38C291 -38 282 -39 271 -42L293 -9C442 -2 535 74 535 192C535 317 458 361 302 402C222 423 194 437 194 480C194 521 225 549 305 549C365 549 413 529 449 505C462 496 470 498 478 512L522 587C529 600 526 610 514 618C472 646 399 672 311 672C151 672 47 604 47 472C47 332 156 295 272 266C358 243 388 223 388 180C388 133 344 113 274 113C207 113 150 136 106 169C94 179 85 177 77 165L31 90C23 77 24 67 36 59C79 28 144 -3 235 -9L208 -52C201 -64 203 -73 212 -82C221 -90 226 -94 235 -94C245 -94 253 -91 268 -91C294 -91 305 -105 305 -120C305 -139 288 -149 266 -149C249 -149 233 -146 220 -139C214 -136 210 -135 206 -135C199 -135 194 -140 189 -148L179 -164C172 -176 174 -185 187 -193C211 -208 241 -214 268 -214C351 -214 394 -168 394 -116Z" glyph-name="uni015E" horiz-adv-x="571" unicode="&#350;" /><glyph d="M353 -116C353 -68 316 -38 260 -38C250 -38 241 -39 230 -42L252 -10C371 -4 448 48 448 145C448 247 381 280 285 302C203 321 183 328 183 356C183 383 210 394 256 394C305 394 344 380 373 362C387 353 394 354 402 368L435 430C442 442 439 452 426 460C389 481 323 500 250 500C132 500 43 450 43 345C43 246 104 212 199 191C289 171 308 162 308 136C308 106 275 96 228 96C179 96 139 109 99 136C86 145 77 144 69 131L30 72C22 60 24 50 37 41C71 18 125 -3 195 -9L167 -52C160 -64 162 -73 171 -82C180 -90 185 -94 194 -94C204 -94 212 -91 227 -91C253 -91 264 -105 264 -120C264 -139 247 -149 225 -149C208 -149 192 -146 179 -139C173 -136 169 -135 165 -135C158 -135 153 -140 148 -148L138 -164C131 -176 133 -185 146 -193C170 -208 200 -214 227 -214C310 -214 353 -168 353 -116Z" glyph-name="uni015F" horiz-adv-x="481" unicode="&#351;" /><glyph d="M271 -2 316 282H419C435 282 442 290 445 306L452 350C454 362 454 366 454 368C454 379 449 386 436 386H332L345 469C355 534 380 560 418 560C445 560 465 552 481 545C495 539 502 542 509 559L536 622C541 633 540 643 525 650C498 663 460 672 409 672C304 672 225 610 205 483L190 386H100C84 386 77 378 74 362L67 318C65 306 65 302 65 300C65 289 70 282 83 282H173L131 12C120 -61 95 -94 40 -94C29 -94 14 -92 7 -92C-6 -92 -11 -98 -15 -112L-32 -179C-36 -194 -32 -200 -17 -204C0 -208 23 -210 51 -210C156 -210 246 -164 271 -2Z" glyph-name="uni0192" horiz-adv-x="532" unicode="&#402;" /><glyph d="M535 192C535 317 458 361 302 402C222 423 194 437 194 480C194 521 225 549 305 549C365 549 413 529 449 505C462 496 470 498 478 512L522 587C529 600 526 610 514 618C472 646 399 672 311 672C151 672 47 604 47 472C47 332 156 295 272 266C358 243 388 223 388 180C388 133 344 113 274 113C207 113 150 136 106 169C94 179 85 177 77 165L31 90C23 77 24 67 36 59C84 24 160 -10 269 -10C432 -10 535 68 535 192ZM338 -114C338 -73 312 -45 272 -45C233 -45 208 -73 208 -101C208 -137 244 -145 244 -173C244 -186 238 -197 227 -210C222 -216 220 -220 220 -225C220 -230 223 -235 229 -240L230 -241C236 -246 242 -248 248 -248C253 -248 259 -246 265 -241C307 -205 338 -159 338 -114Z" glyph-name="uni0218" horiz-adv-x="571" unicode="&#536;" /><glyph d="M448 145C448 247 381 280 285 302C203 321 183 328 183 356C183 383 210 394 256 394C305 394 344 380 373 362C387 353 394 354 402 368L435 430C442 442 439 452 426 460C389 481 323 500 250 500C132 500 43 450 43 345C43 246 104 212 199 191C289 171 308 162 308 136C308 106 275 96 228 96C179 96 139 109 99 136C86 145 77 144 69 131L30 72C22 60 24 50 37 41C77 14 144 -10 232 -10C362 -10 448 43 448 145ZM297 -114C297 -73 271 -45 231 -45C192 -45 167 -73 167 -101C167 -137 203 -145 203 -173C203 -186 197 -197 186 -210C181 -216 179 -220 179 -225C179 -230 182 -235 188 -240L189 -241C195 -246 201 -248 207 -248C212 -248 218 -246 224 -241C266 -205 297 -159 297 -114Z" glyph-name="uni0219" horiz-adv-x="481" unicode="&#537;" /><glyph d="M335 0C350 0 357 7 357 22V538H513C528 538 535 545 535 560V640C535 655 528 662 513 662H49C34 662 27 655 27 640V560C27 545 34 538 49 538H205V22C205 7 212 0 227 0ZM347 -114C347 -73 321 -45 281 -45C242 -45 217 -73 217 -101C217 -137 253 -145 253 -173C253 -186 247 -197 236 -210C231 -216 229 -220 229 -225C229 -230 232 -235 238 -240L239 -241C245 -246 251 -248 257 -248C262 -248 268 -246 274 -241C316 -205 347 -159 347 -114Z" glyph-name="uni021A" horiz-adv-x="562" unicode="&#538;" /><glyph d="M383 18C395 25 399 35 394 49L371 107C366 122 358 125 344 117C331 110 317 106 300 106C257 106 244 132 244 179V382H368C383 382 390 389 390 404V468C390 483 383 490 368 490H244V608C244 623 237 630 222 630H120C105 630 98 623 98 608V490H35C20 490 13 483 13 468V404C13 389 20 382 35 382H98V169C98 38 160 -10 269 -10C311 -10 348 -3 383 18ZM325 -114C325 -73 299 -45 259 -45C220 -45 195 -73 195 -101C195 -137 231 -145 231 -173C231 -186 225 -197 214 -210C209 -216 207 -220 207 -225C207 -230 210 -235 216 -240L217 -241C223 -246 229 -248 235 -248C240 -248 246 -246 252 -241C294 -205 325 -159 325 -114Z" glyph-name="uni021B" horiz-adv-x="428" unicode="&#539;" /><glyph d="M210 -24V468C210 483 203 490 188 490H86C71 490 64 483 64 468V-13C64 -63 50 -96 7 -96C-4 -96 -15 -94 -27 -89C-42 -83 -49 -86 -55 -101L-79 -162C-84 -176 -80 -186 -67 -192C-37 -205 -2 -210 28 -210C148 -210 210 -138 210 -24Z" glyph-name="uni0237" horiz-adv-x="274" unicode="&#567;" /><glyph d="M50 615C50 574 76 546 116 546C155 546 180 574 180 602C180 638 144 646 144 674C144 687 150 698 161 711C166 717 168 721 168 726C168 731 165 736 159 741L158 742C152 747 146 749 140 749C135 749 129 747 123 742C81 706 50 660 50 615Z" glyph-name="uni0312" horiz-adv-x="230" unicode="&#786;" /><glyph d="M71 496 83 493C98 489 106 493 112 508L179 681C180 684 181 688 181 691C181 700 175 705 165 707L97 722C83 725 74 716 72 701L52 520C50 504 56 500 71 496Z" glyph-name="uni0315" horiz-adv-x="237" unicode="&#789;" /><glyph d="M180 -114C180 -73 154 -45 114 -45C75 -45 50 -73 50 -101C50 -137 86 -145 86 -173C86 -186 80 -197 69 -210C64 -216 62 -220 62 -225C62 -230 65 -235 71 -240L72 -241C78 -246 84 -248 90 -248C95 -248 101 -246 107 -241C149 -205 180 -159 180 -114Z" glyph-name="uni0326" horiz-adv-x="230" unicode="&#806;" /><glyph d="M350 22V56C350 71 343 78 328 78H160C167 100 187 116 227 139C294 179 340 217 340 279C340 344 295 390 201 390C141 390 95 367 68 346C58 338 55 326 63 315L86 284C95 271 104 269 118 279C144 297 167 307 196 307C225 307 239 293 239 273C239 249 225 235 173 205C113 170 54 120 54 32V22C54 7 61 0 76 0H328C343 0 350 7 350 22Z" glyph-name="uni2082" horiz-adv-x="390" unicode="&#8322;" /><glyph d="M173 366 40 168C30 153 25 141 25 124V97C25 82 32 75 47 75H219V22C219 7 226 0 241 0H296C311 0 318 7 318 22V75H346C361 75 368 82 368 97V128C368 143 361 150 346 150H318V362C318 377 311 384 296 384H207C191 384 182 380 173 366ZM222 297V147H124Z" glyph-name="uni2084" horiz-adv-x="390" unicode="&#8324;" /><glyph d="M215 20C240 123 248 171 266 288C284 171 292 123 317 20C320 6 324 0 333 0H417C426 0 431 6 433 20C440 64 447 118 455 178H507C522 178 529 185 529 200V248C529 263 522 270 507 270H466C469 298 472 326 476 355H507C522 355 529 362 529 377V425C529 440 522 447 507 447H485C491 509 497 572 501 630C501 635 502 641 502 645C501 655 497 662 481 662H409C393 662 384 656 383 640C381 574 378 511 373 447H317C315 466 314 487 313 510C312 526 310 532 296 532H236C222 532 220 526 219 510L216 447H160C155 511 152 574 149 640C148 656 139 662 123 662H51C35 662 31 655 30 645C30 641 31 635 31 630C35 572 41 509 47 447H25C10 447 3 440 3 425V377C3 362 10 355 25 355H56C60 326 63 298 66 270H25C10 270 3 263 3 248V200C3 185 10 178 25 178H77C85 118 92 64 99 20C101 6 106 0 115 0H199C208 0 212 6 215 20ZM167 365H209C204 317 197 270 184 204C177 260 172 313 167 365ZM324 365H367C362 313 357 261 350 205C338 271 330 317 324 365Z" glyph-name="uni20A9" horiz-adv-x="532" unicode="&#8361;" /><glyph d="M45 640V592C45 577 52 570 67 570H158C223 570 261 545 275 504H67C52 504 45 497 45 482V434C45 419 52 412 67 412H274C259 371 220 346 155 346H67C52 346 45 339 45 324V279C45 269 47 262 57 254C153 172 218 110 306 21C322 5 330 0 347 0H470C484 0 487 7 474 21C388 114 312 188 234 254C317 267 406 317 427 412H487C502 412 509 419 509 434V482C509 497 502 504 487 504H426C419 531 407 554 388 573H487C502 573 509 580 509 595V640C509 655 502 662 487 662H67C52 662 45 655 45 640Z" glyph-name="uni20B9" horiz-adv-x="532" unicode="&#8377;" /><glyph d="M501 154C510 167 509 175 497 184L433 231C421 240 409 239 400 226C364 174 316 133 249 125V259L374 323C389 330 394 339 394 355V417C394 431 387 435 374 429L249 362V428L374 492C389 499 394 508 394 524V586C394 600 387 604 374 598L249 531V640C249 655 242 662 227 662H121C106 662 99 655 99 640V454L39 424C24 416 19 408 19 392V329C19 315 26 310 39 317L99 350V285L39 255C24 247 19 239 19 223V160C19 146 26 141 39 148L99 181V22C99 7 106 0 121 0H210C366 0 447 71 501 154Z" glyph-name="uni20BA" horiz-adv-x="532" unicode="&#8378;" /><glyph d="M231 22V99H404C419 99 426 106 426 121V169C426 184 419 191 404 191H231V243H238C423 243 510 328 510 455C510 579 435 662 245 662H101C86 662 79 655 79 640V336H30C15 336 8 329 8 314V265C8 250 15 243 30 243H79V191H30C15 191 8 184 8 169V121C8 106 15 99 30 99H79V22C79 7 86 0 101 0H209C224 0 231 7 231 22ZM231 544H243C329 544 358 502 358 441C358 380 326 336 239 336H231Z" glyph-name="uni20BD" horiz-adv-x="532" unicode="&#8381;" /><glyph d="M331 22V94C331 112 327 120 313 130C254 172 200 244 200 357C200 472 256 548 368 548C480 548 536 472 536 357C536 244 482 172 423 130C409 120 405 112 405 94V22C405 7 412 0 427 0H663C678 0 685 7 685 22V89C685 104 678 111 663 111H565C644 167 694 272 694 374C694 506 605 672 368 672C131 672 42 506 42 374C42 272 92 167 171 111H73C58 111 51 104 51 89V22C51 7 58 0 73 0H309C324 0 331 7 331 22Z" glyph-name="uni2126" horiz-adv-x="736" unicode="&#8486;" /><glyph d="M281 662C265 662 256 657 249 643C169 493 95 316 35 124C30 111 28 95 28 81V22C28 7 35 0 50 0H617C632 0 639 7 639 22V81C639 95 636 111 632 124C565 315 493 493 422 642C416 657 407 662 391 662ZM177 118C225 266 271 386 331 512C391 386 437 266 484 118Z" glyph-name="uni2206" horiz-adv-x="667" unicode="&#8710;" /><glyph d="M502 22V468C502 483 495 490 480 490H378C363 490 356 483 356 468V147C334 119 306 103 272 103C223 103 204 142 204 196V468C204 483 197 490 182 490H80C65 490 58 483 58 468V181C58 77 104 -10 220 -10C281 -10 325 12 363 58V-5C321 -38 292 -83 292 -122C292 -173 332 -214 407 -214C445 -214 479 -203 505 -185C517 -177 519 -166 511 -154L501 -138C492 -123 485 -122 468 -129C455 -134 442 -136 433 -136C401 -136 388 -116 388 -92C388 -68 400 -45 431 0H480C495 0 502 7 502 22Z" glyph-name="uogonek" horiz-adv-x="564" unicode="&#371;" /><glyph d="M363 22C363 7 370 0 385 0H480C495 0 502 7 502 22V468C502 483 495 490 480 490H378C363 490 356 483 356 468V147C334 119 306 103 272 103C223 103 204 142 204 196V468C204 483 197 490 182 490H80C65 490 58 483 58 468V181C58 77 104 -10 220 -10C281 -10 325 12 363 58ZM409 666C409 741 350 793 280 793C210 793 151 741 151 666C151 591 210 539 280 539C350 539 409 591 409 666ZM221 666C221 703 246 727 280 727C314 727 339 703 339 666C339 629 314 605 280 605C246 605 221 629 221 666Z" glyph-name="uring" horiz-adv-x="564" unicode="&#367;" /><glyph d="M363 22C363 7 370 0 385 0H480C495 0 502 7 502 22V468C502 483 495 490 480 490H378C363 490 356 483 356 468V147C334 119 306 103 272 103C223 103 204 142 204 196V468C204 483 197 490 182 490H80C65 490 58 483 58 468V181C58 77 104 -10 220 -10C281 -10 325 12 363 58ZM342 552C384 552 419 571 449 620C452 625 454 630 454 635C454 641 450 647 444 652L420 671C414 676 409 678 404 678C398 678 393 675 387 669C372 654 354 647 340 647C305 647 279 686 218 686C176 686 141 667 111 618C108 613 106 608 106 603C106 597 110 591 116 586L140 567C146 562 151 560 156 560C162 560 167 563 173 569C188 584 206 591 220 591C255 591 281 552 342 552Z" glyph-name="utilde" horiz-adv-x="564" unicode="&#361;" /><glyph d="M346 19C407 128 479 325 506 455C507 460 509 469 509 474C509 484 503 490 489 490H390C374 490 367 484 364 468C347 377 317 272 271 154C226 272 194 376 178 468C175 484 168 490 152 490H42C28 490 22 484 22 474C22 469 24 460 25 455C52 325 124 128 185 19C193 5 202 0 217 0H314C329 0 338 5 346 19Z" glyph-name="v" horiz-adv-x="531" unicode="v" /><glyph d="M315 20C347 92 380 176 413 291C446 176 479 93 511 20C517 6 526 0 542 0H629C645 0 654 6 660 20C707 129 772 319 797 451C798 456 800 467 800 474C800 485 794 490 781 490H672C656 490 649 484 647 468C633 374 611 271 575 159C538 274 508 374 481 469C477 484 470 490 453 490H372C355 490 348 484 344 468C321 374 289 272 249 159C215 272 193 374 180 468C177 484 170 490 154 490H45C32 490 26 485 26 474C26 467 28 456 29 451C54 319 119 129 166 20C172 6 181 0 197 0H284C300 0 309 6 315 20Z" glyph-name="w" horiz-adv-x="826" unicode="w" /><glyph d="M315 20C347 92 380 176 413 291C446 176 479 93 511 20C517 6 526 0 542 0H629C645 0 654 6 660 20C707 129 772 319 797 451C798 456 800 467 800 474C800 485 794 490 781 490H672C656 490 649 484 647 468C633 374 611 271 575 159C538 274 508 374 481 469C477 484 470 490 453 490H372C355 490 348 484 344 468C321 374 289 272 249 159C215 272 193 374 180 468C177 484 170 490 154 490H45C32 490 26 485 26 474C26 467 28 456 29 451C54 319 119 129 166 20C172 6 181 0 197 0H284C300 0 309 6 315 20ZM348 601C341 595 339 590 339 584C339 580 341 575 345 570L360 550C366 542 371 539 378 539C382 539 388 541 393 544L555 635C563 640 567 645 567 651C567 655 565 659 562 664L524 723C520 730 514 733 508 733C504 733 499 731 494 727Z" glyph-name="wacute" horiz-adv-x="826" unicode="&#7811;" /><glyph d="M315 20C347 92 380 176 413 291C446 176 479 93 511 20C517 6 526 0 542 0H629C645 0 654 6 660 20C707 129 772 319 797 451C798 456 800 467 800 474C800 485 794 490 781 490H672C656 490 649 484 647 468C633 374 611 271 575 159C538 274 508 374 481 469C477 484 470 490 453 490H372C355 490 348 484 344 468C321 374 289 272 249 159C215 272 193 374 180 468C177 484 170 490 154 490H45C32 490 26 485 26 474C26 467 28 456 29 451C54 319 119 129 166 20C172 6 181 0 197 0H284C300 0 309 6 315 20ZM413 608 519 545C524 542 529 541 534 541C540 541 546 544 552 551L570 573C574 578 576 583 576 587C576 593 573 598 566 604L432 708C426 713 420 715 413 715C406 715 400 713 394 708L260 604C253 598 250 593 250 587C250 583 252 578 256 573L274 551C280 544 286 541 292 541C297 541 302 542 307 545Z" glyph-name="wcircumflex" horiz-adv-x="826" unicode="&#373;" /><glyph d="M315 20C347 92 380 176 413 291C446 176 479 93 511 20C517 6 526 0 542 0H629C645 0 654 6 660 20C707 129 772 319 797 451C798 456 800 467 800 474C800 485 794 490 781 490H672C656 490 649 484 647 468C633 374 611 271 575 159C538 274 508 374 481 469C477 484 470 490 453 490H372C355 490 348 484 344 468C321 374 289 272 249 159C215 272 193 374 180 468C177 484 170 490 154 490H45C32 490 26 485 26 474C26 467 28 456 29 451C54 319 119 129 166 20C172 6 181 0 197 0H284C300 0 309 6 315 20ZM390 619C390 659 361 692 316 692C271 692 242 659 242 619C242 579 271 546 316 546C361 546 390 579 390 619ZM584 619C584 659 555 692 510 692C465 692 436 659 436 619C436 579 465 546 510 546C555 546 584 579 584 619Z" glyph-name="wdieresis" horiz-adv-x="826" unicode="&#7813;" /><glyph d="M315 20C347 92 380 176 413 291C446 176 479 93 511 20C517 6 526 0 542 0H629C645 0 654 6 660 20C707 129 772 319 797 451C798 456 800 467 800 474C800 485 794 490 781 490H672C656 490 649 484 647 468C633 374 611 271 575 159C538 274 508 374 481 469C477 484 470 490 453 490H372C355 490 348 484 344 468C321 374 289 272 249 159C215 272 193 374 180 468C177 484 170 490 154 490H45C32 490 26 485 26 474C26 467 28 456 29 451C54 319 119 129 166 20C172 6 181 0 197 0H284C300 0 309 6 315 20ZM378 727C373 731 368 733 364 733C358 733 352 730 348 723L310 664C307 659 305 655 305 651C305 645 309 640 317 635L479 544C484 541 490 539 494 539C501 539 506 542 512 550L527 570C531 575 533 580 533 584C533 590 531 595 524 601Z" glyph-name="wgrave" horiz-adv-x="826" unicode="&#7809;" /><glyph d="M163 20C186 59 211 98 254 159C298 99 318 62 342 20C351 5 356 0 373 0H481C492 0 497 5 497 13C497 16 496 20 492 28C458 93 409 166 341 253C406 333 454 399 486 460C490 468 491 473 491 477C491 486 485 490 475 490H380C363 490 357 484 348 469C327 431 303 394 263 338C226 391 201 432 181 469C173 483 168 490 151 490H44C32 490 27 484 27 476C27 472 28 467 33 457C61 400 107 332 176 244C105 157 58 90 26 29C22 21 21 17 21 13C21 5 27 0 37 0H131C148 0 155 6 163 20Z" glyph-name="x" horiz-adv-x="518" unicode="x" /><glyph d="M185 -194C268 -124 340 -9 401 133C445 237 487 363 506 455C507 460 509 469 509 474C509 484 503 490 489 490H390C374 490 367 484 364 468C348 386 312 254 271 154C229 261 193 378 178 468C175 484 168 490 152 490H42C28 490 22 484 22 474C22 469 24 460 25 455C57 312 114 153 190 11C149 -50 120 -78 90 -108C84 -114 82 -119 82 -124C82 -129 84 -133 90 -138L152 -194C158 -199 163 -201 168 -201C173 -201 179 -199 185 -194Z" glyph-name="y" horiz-adv-x="531" unicode="y" /><glyph d="M185 -194C268 -124 340 -9 401 133C445 237 487 363 506 455C507 460 509 469 509 474C509 484 503 490 489 490H390C374 490 367 484 364 468C348 386 312 254 271 154C229 261 193 378 178 468C175 484 168 490 152 490H42C28 490 22 484 22 474C22 469 24 460 25 455C57 312 114 153 190 11C149 -50 120 -78 90 -108C84 -114 82 -119 82 -124C82 -129 84 -133 90 -138L152 -194C158 -199 163 -201 168 -201C173 -201 179 -199 185 -194ZM211 601C204 595 202 590 202 584C202 580 204 575 208 570L223 550C229 542 234 539 241 539C245 539 251 541 256 544L418 635C426 640 430 645 430 651C430 655 428 659 425 664L387 723C383 730 377 733 371 733C367 733 362 731 357 727Z" glyph-name="yacute" horiz-adv-x="531" unicode="&#253;" /><glyph d="M185 -194C268 -124 340 -9 401 133C445 237 487 363 506 455C507 460 509 469 509 474C509 484 503 490 489 490H390C374 490 367 484 364 468C348 386 312 254 271 154C229 261 193 378 178 468C175 484 168 490 152 490H42C28 490 22 484 22 474C22 469 24 460 25 455C57 312 114 153 190 11C149 -50 120 -78 90 -108C84 -114 82 -119 82 -124C82 -129 84 -133 90 -138L152 -194C158 -199 163 -201 168 -201C173 -201 179 -199 185 -194ZM276 608 382 545C387 542 392 541 397 541C403 541 409 544 415 551L433 573C437 578 439 583 439 587C439 593 436 598 429 604L295 708C289 713 283 715 276 715C269 715 263 713 257 708L123 604C116 598 113 593 113 587C113 583 115 578 119 573L137 551C143 544 149 541 155 541C160 541 165 542 170 545Z" glyph-name="ycircumflex" horiz-adv-x="531" unicode="&#375;" /><glyph d="M185 -194C268 -124 340 -9 401 133C445 237 487 363 506 455C507 460 509 469 509 474C509 484 503 490 489 490H390C374 490 367 484 364 468C348 386 312 254 271 154C229 261 193 378 178 468C175 484 168 490 152 490H42C28 490 22 484 22 474C22 469 24 460 25 455C57 312 114 153 190 11C149 -50 120 -78 90 -108C84 -114 82 -119 82 -124C82 -129 84 -133 90 -138L152 -194C158 -199 163 -201 168 -201C173 -201 179 -199 185 -194ZM253 619C253 659 224 692 179 692C134 692 105 659 105 619C105 579 134 546 179 546C224 546 253 579 253 619ZM447 619C447 659 418 692 373 692C328 692 299 659 299 619C299 579 328 546 373 546C418 546 447 579 447 619Z" glyph-name="ydieresis" horiz-adv-x="531" unicode="&#255;" /><glyph d="M338 22V77H469C484 77 491 84 491 99V147C491 162 484 169 469 169H338V229H469C484 229 491 236 491 251V299C491 314 484 321 469 321H378C434 435 489 555 520 641C525 655 519 662 505 662H408C392 662 385 656 380 641C353 558 314 462 270 355C226 462 187 558 160 641C155 656 148 662 132 662H27C13 662 7 655 12 641C42 558 102 425 153 321H63C48 321 41 314 41 299V251C41 236 48 229 63 229H194V169H63C48 169 41 162 41 147V99C41 84 48 77 63 77H194V22C194 7 201 0 216 0H316C331 0 338 7 338 22Z" glyph-name="yen" horiz-adv-x="532" unicode="&#165;" /><glyph d="M185 -194C268 -124 340 -9 401 133C445 237 487 363 506 455C507 460 509 469 509 474C509 484 503 490 489 490H390C374 490 367 484 364 468C348 386 312 254 271 154C229 261 193 378 178 468C175 484 168 490 152 490H42C28 490 22 484 22 474C22 469 24 460 25 455C57 312 114 153 190 11C149 -50 120 -78 90 -108C84 -114 82 -119 82 -124C82 -129 84 -133 90 -138L152 -194C158 -199 163 -201 168 -201C173 -201 179 -199 185 -194ZM195 727C190 731 185 733 181 733C175 733 169 730 165 723L127 664C124 659 122 655 122 651C122 645 126 640 134 635L296 544C301 541 307 539 311 539C318 539 323 542 329 550L344 570C348 575 350 580 350 584C350 590 348 595 341 601Z" glyph-name="ygrave" horiz-adv-x="531" unicode="&#7923;" /><glyph d="M462 22V86C462 101 455 108 440 108H216L433 371C447 388 452 400 452 419V468C452 483 445 490 430 490H66C51 490 44 483 44 468V404C44 389 51 382 66 382H268L51 119C37 102 32 90 32 71V22C32 7 39 0 54 0H440C455 0 462 7 462 22Z" glyph-name="z" horiz-adv-x="490" unicode="z" /><glyph d="M462 22V86C462 101 455 108 440 108H216L433 371C447 388 452 400 452 419V468C452 483 445 490 430 490H66C51 490 44 483 44 468V404C44 389 51 382 66 382H268L51 119C37 102 32 90 32 71V22C32 7 39 0 54 0H440C455 0 462 7 462 22ZM176 601C169 595 167 590 167 584C167 580 169 575 173 570L188 550C194 542 199 539 206 539C210 539 216 541 221 544L383 635C391 640 395 645 395 651C395 655 393 659 390 664L352 723C348 730 342 733 336 733C332 733 327 731 322 727Z" glyph-name="zacute" horiz-adv-x="490" unicode="&#378;" /><glyph d="M462 22V86C462 101 455 108 440 108H216L433 371C447 388 452 400 452 419V468C452 483 445 490 430 490H66C51 490 44 483 44 468V404C44 389 51 382 66 382H268L51 119C37 102 32 90 32 71V22C32 7 39 0 54 0H440C455 0 462 7 462 22ZM241 648 135 711C130 714 125 715 120 715C114 715 108 712 102 705L84 683C80 678 78 673 78 669C78 663 81 658 88 652L222 548C228 543 234 541 241 541C248 541 254 543 260 548L394 652C401 658 404 663 404 669C404 673 402 678 398 683L380 705C374 712 368 715 362 715C357 715 352 714 347 711Z" glyph-name="zcaron" horiz-adv-x="490" unicode="&#382;" /><glyph d="M462 22V86C462 101 455 108 440 108H216L433 371C447 388 452 400 452 419V468C452 483 445 490 430 490H66C51 490 44 483 44 468V404C44 389 51 382 66 382H268L51 119C37 102 32 90 32 71V22C32 7 39 0 54 0H440C455 0 462 7 462 22ZM315 619C315 659 286 692 241 692C196 692 167 659 167 619C167 579 196 546 241 546C286 546 315 579 315 619Z" glyph-name="zdotaccent" horiz-adv-x="490" unicode="&#380;" /><glyph d="M507 331C507 522 438 672 266 672C94 672 25 522 25 331C25 140 94 -10 266 -10C438 -10 507 140 507 331ZM266 561C327 561 358 485 358 331C358 177 327 101 266 101C205 101 174 177 174 331C174 485 205 561 266 561Z" glyph-name="zero" horiz-adv-x="532" unicode="0" /><glyph d="M507 331C507 522 438 672 266 672C94 672 25 522 25 331C25 140 94 -10 266 -10C438 -10 507 140 507 331ZM266 561C327 561 364 493 364 331C364 169 327 101 266 101C205 101 168 169 168 331C168 493 205 561 266 561ZM324 331C324 365 301 390 266 390C231 390 208 365 208 331C208 297 231 272 266 272C301 272 324 297 324 331Z" glyph-name="zero.alt" horiz-adv-x="532" /></font>
</defs>
</svg>
