<?xml version="1.0" standalone="no"?><!DOCTYPE svg PUBLIC "-//W3C//DTD SVG 1.1//EN" "http://www.w3.org/Graphics/SVG/1.1/DTD/svg11.dtd" ><svg version="1.1" xmlns="http://www.w3.org/2000/svg"><defs><font horiz-adv-x="0" id="font"><font-face ascent="728" bbox="-222 -234 1096 953" cap-height="662" descent="-210" font-family="GE Inspira Sans" font-stretch="normal" font-style="italic" font-weight="400" units-per-em="1000" x-height="480" /><missing-glyph d="M162 -190C175 -190 180 -185 180 -172V712C180 725 175 730 162 730H68C55 730 50 725 50 712V-172C50 -185 55 -190 68 -190Z" horiz-adv-x="230" /><glyph glyph-name=".null" horiz-adv-x="0" /><glyph d="M80 16C103 71 128 127 153 182H440C448 128 455 73 462 18C464 5 469 0 482 0H525C536 0 541 5 541 15C541 18 541 19 540 27C508 256 463 467 413 645C410 657 402 662 389 662H353C340 662 332 658 325 647C216 469 98 247 0 21C-3 14 -3 11 -3 9C-3 3 1 0 9 0H55C68 0 75 4 80 16ZM184 246C240 362 300 475 360 581C386 481 409 367 430 246Z" glyph-name="A" horiz-adv-x="604" unicode="A" /><glyph d="M56 15C92 68 131 124 173 182H431L406 24C405 16 405 15 405 13C405 4 410 0 420 0H759C772 0 778 5 780 18L784 42C785 50 785 51 785 53C785 62 780 66 770 66H492L530 311H776C789 311 795 316 797 329L801 353C802 361 802 362 802 364C802 373 797 377 787 377H541L575 596H853C866 596 872 601 874 614L878 638C879 646 879 647 879 649C879 658 874 662 864 662H487C474 662 465 658 457 649C299 471 128 252 -35 15C-41 6 -38 0 -27 0H28C41 0 48 4 56 15ZM220 246C309 365 405 487 497 596L441 246Z" glyph-name="AE" horiz-adv-x="866" unicode="&#198;" /><glyph d="M80 16C103 71 128 127 153 182H440C448 128 455 73 462 18C464 5 469 0 482 0H525C536 0 541 5 541 15C541 18 541 19 540 27C508 256 463 467 413 645C410 657 402 662 389 662H353C340 662 332 658 325 647C216 469 98 247 0 21C-3 14 -3 11 -3 9C-3 3 1 0 9 0H55C68 0 75 4 80 16ZM184 246C240 362 300 475 360 581C386 481 409 367 430 246ZM455 853C451 859 447 861 442 861C437 861 433 859 428 855L304 754C299 750 296 745 296 740C296 736 298 732 301 728L307 720C311 715 316 711 322 711C325 711 329 712 333 715L467 807C473 811 475 815 475 820C475 823 474 827 470 832Z" glyph-name="Aacute" horiz-adv-x="604" unicode="&#193;" /><glyph d="M80 16C103 71 128 127 153 182H440C448 128 455 73 462 18C464 5 469 0 482 0H525C536 0 541 5 541 15C541 18 541 19 540 27C508 256 463 467 413 645C410 657 402 662 389 662H353C340 662 332 658 325 647C216 469 98 247 0 21C-3 14 -3 11 -3 9C-3 3 1 0 9 0H55C68 0 75 4 80 16ZM184 246C240 362 300 475 360 581C386 481 409 367 430 246ZM309 821C306 829 303 833 297 833C294 833 290 832 285 830L272 825C263 821 261 817 261 810C261 806 263 797 265 792C280 750 318 713 381 713C441 713 490 747 514 790C518 797 523 806 523 813C523 819 519 823 511 826L498 831C493 833 490 834 487 834C480 834 476 829 472 822C452 789 423 770 383 770C344 770 321 788 309 821Z" glyph-name="Abreve" horiz-adv-x="604" unicode="&#258;" /><glyph d="M80 16C103 71 128 127 153 182H440C448 128 455 73 462 18C464 5 469 0 482 0H525C536 0 541 5 541 15C541 18 541 19 540 27C508 256 463 467 413 645C410 657 402 662 389 662H353C340 662 332 658 325 647C216 469 98 247 0 21C-3 14 -3 11 -3 9C-3 3 1 0 9 0H55C68 0 75 4 80 16ZM184 246C240 362 300 475 360 581C386 481 409 367 430 246ZM388 780 470 721C475 717 479 715 483 715C488 715 492 718 497 723L505 732C509 736 511 741 511 745C511 749 509 754 504 758L411 841C406 846 401 848 396 848C390 848 385 846 380 843L255 760C249 756 246 751 246 746C246 742 248 737 251 732L256 724C260 718 264 715 270 715C273 715 276 716 281 719Z" glyph-name="Acircumflex" horiz-adv-x="604" unicode="&#194;" /><glyph d="M80 16C103 71 128 127 153 182H440C448 128 455 73 462 18C464 5 469 0 482 0H525C536 0 541 5 541 15C541 18 541 19 540 27C508 256 463 467 413 645C410 657 402 662 389 662H353C340 662 332 658 325 647C216 469 98 247 0 21C-3 14 -3 11 -3 9C-3 3 1 0 9 0H55C68 0 75 4 80 16ZM184 246C240 362 300 475 360 581C386 481 409 367 430 246ZM348 787C348 812 333 832 304 832C273 832 251 808 251 777C251 752 266 732 295 732C326 732 348 756 348 787ZM518 787C518 812 503 832 474 832C443 832 421 808 421 777C421 752 436 732 465 732C496 732 518 756 518 787Z" glyph-name="Adieresis" horiz-adv-x="604" unicode="&#196;" /><glyph d="M80 16C103 71 128 127 153 182H440C448 128 455 73 462 18C464 5 469 0 482 0H525C536 0 541 5 541 15C541 18 541 19 540 27C508 256 463 467 413 645C410 657 402 662 389 662H353C340 662 332 658 325 647C216 469 98 247 0 21C-3 14 -3 11 -3 9C-3 3 1 0 9 0H55C68 0 75 4 80 16ZM184 246C240 362 300 475 360 581C386 481 409 367 430 246ZM268 831C264 826 263 822 263 819C263 814 265 810 271 806L404 714C408 711 412 710 415 710C421 710 426 714 430 719L437 728C440 732 442 736 442 740C442 745 439 750 434 754L312 855C307 859 303 861 298 861C293 861 289 859 285 853Z" glyph-name="Agrave" horiz-adv-x="604" unicode="&#192;" /><glyph d="M80 16C103 71 128 127 153 182H440C448 128 455 73 462 18C464 5 469 0 482 0H525C536 0 541 5 541 15C541 18 541 19 540 27C508 256 463 467 413 645C410 657 402 662 389 662H353C340 662 332 658 325 647C216 469 98 247 0 21C-3 14 -3 11 -3 9C-3 3 1 0 9 0H55C68 0 75 4 80 16ZM184 246C240 362 300 475 360 581C386 481 409 367 430 246ZM482 796H291C278 796 272 792 270 778L269 769C268 760 268 759 268 757C268 746 273 742 284 742H475C488 742 494 746 496 760L497 769C498 778 498 779 498 781C498 792 493 796 482 796Z" glyph-name="Amacron" horiz-adv-x="604" unicode="&#256;" /><glyph d="M536 -167C545 -161 547 -152 542 -142L540 -138C534 -126 527 -125 515 -131C503 -137 490 -139 479 -139C458 -139 442 -130 442 -105C442 -70 471 -41 508 0H525C536 0 541 5 541 15C541 18 541 19 540 27C508 256 463 467 413 645C410 657 402 662 389 662H353C340 662 332 658 325 647C216 469 98 247 0 21C-3 14 -3 11 -3 9C-3 3 1 0 9 0H55C68 0 75 4 80 16C103 71 128 127 153 182H440C448 124 457 63 464 0C425 -33 385 -78 385 -124C385 -163 414 -187 462 -187C489 -187 515 -179 536 -167ZM184 246C240 362 300 475 360 581C386 483 409 370 429 246Z" glyph-name="Aogonek" horiz-adv-x="604" unicode="&#260;" /><glyph d="M80 16C103 71 128 127 153 182H440C448 128 455 73 462 18C464 5 469 0 482 0H525C536 0 541 5 541 15C541 18 541 19 540 27C509 250 465 456 417 632C458 649 485 689 485 736C485 792 447 828 390 828C323 828 274 777 274 714C274 677 290 649 317 634C210 459 96 242 0 21C-3 14 -3 11 -3 9C-3 3 1 0 9 0H55C68 0 75 4 80 16ZM320 715C320 756 348 788 388 788C417 788 439 770 439 735C439 694 411 662 371 662C342 662 320 680 320 715ZM184 246C240 362 300 475 360 581C386 481 409 367 430 246Z" glyph-name="Aring" horiz-adv-x="604" unicode="&#197;" /><glyph d="M80 16C103 71 128 127 153 182H440C448 128 455 73 462 18C464 5 469 0 482 0H525C536 0 541 5 541 15C541 18 541 19 540 27C508 256 463 467 413 645C410 657 402 662 389 662H353C340 662 332 658 325 647C216 469 98 247 0 21C-3 14 -3 11 -3 9C-3 3 1 0 9 0H55C68 0 75 4 80 16ZM184 246C240 362 300 475 360 581C386 481 409 367 430 246ZM443 788C410 788 382 822 338 822C301 822 269 798 250 773C247 769 245 764 245 760C245 756 247 752 252 747L256 743C261 738 265 736 269 736C274 736 278 738 283 742C296 754 314 764 332 764C365 764 393 730 437 730C474 730 506 754 525 779C528 783 530 788 530 792C530 796 528 800 523 805L519 809C514 814 510 816 506 816C501 816 497 814 492 810C479 798 461 788 443 788Z" glyph-name="Atilde" horiz-adv-x="604" unicode="&#195;" /><glyph d="M63 0H269C439 0 523 85 523 201C523 268 493 314 423 339C498 364 541 431 541 507C541 596 481 662 345 662H168C155 662 149 657 147 644L49 24C48 18 48 16 48 14C48 4 53 0 63 0ZM219 596H336C424 596 459 559 459 502C459 434 411 368 301 368H183ZM173 304H321C411 304 441 262 441 205C441 132 393 66 281 66H135Z" glyph-name="B" horiz-adv-x="571" unicode="B" /><glyph d="M520 61C530 68 531 76 525 87L507 117C500 128 493 129 483 121C436 85 379 59 316 59C199 59 138 142 138 268C138 447 242 603 399 603C459 603 509 583 544 552C554 544 561 545 570 554L595 581C603 590 603 598 595 606C548 650 482 672 404 672C179 672 56 470 56 264C56 111 134 -10 312 -10C390 -10 459 14 520 61Z" glyph-name="C" horiz-adv-x="585" unicode="C" /><glyph d="M520 61C530 68 531 76 525 87L507 117C500 128 493 129 483 121C436 85 379 59 316 59C199 59 138 142 138 268C138 447 242 603 399 603C459 603 509 583 544 552C554 544 561 545 570 554L595 581C603 590 603 598 595 606C548 650 482 672 404 672C179 672 56 470 56 264C56 111 134 -10 312 -10C390 -10 459 14 520 61ZM487 853C483 859 479 861 474 861C469 861 465 859 460 855L336 754C331 750 328 745 328 740C328 736 330 732 333 728L339 720C343 715 348 711 354 711C357 711 361 712 365 715L499 807C505 811 507 815 507 820C507 823 506 827 502 832Z" glyph-name="Cacute" horiz-adv-x="585" unicode="&#262;" /><glyph d="M520 61C530 68 531 76 525 87L507 117C500 128 493 129 483 121C436 85 379 59 316 59C199 59 138 142 138 268C138 447 242 603 399 603C459 603 509 583 544 552C554 544 561 545 570 554L595 581C603 590 603 598 595 606C548 650 482 672 404 672C179 672 56 470 56 264C56 111 134 -10 312 -10C390 -10 459 14 520 61ZM414 778 332 837C327 841 323 843 319 843C314 843 310 840 305 835L297 826C293 822 291 817 291 813C291 809 293 804 298 800L391 717C396 712 401 710 406 710C412 710 417 712 422 715L547 798C553 802 556 807 556 812C556 816 554 821 551 826L546 834C542 840 538 843 532 843C529 843 526 842 521 839Z" glyph-name="Ccaron" horiz-adv-x="585" unicode="&#268;" /><glyph d="M372 -107C372 -72 350 -49 313 -49C307 -49 301 -50 295 -51L322 -10C396 -8 462 16 520 61C530 68 531 76 525 87L507 117C500 128 493 129 483 121C436 85 379 59 316 59C199 59 138 142 138 268C138 447 242 603 399 603C459 603 509 583 544 552C554 544 561 545 570 554L595 581C603 590 603 598 595 606C548 650 482 672 404 672C179 672 56 470 56 264C56 121 124 5 279 -9L242 -65C238 -71 238 -75 243 -80L244 -81C249 -87 252 -87 261 -86C268 -85 277 -84 285 -84C314 -84 323 -95 323 -110C323 -131 304 -145 273 -145C259 -145 246 -142 236 -136C225 -130 217 -130 210 -141L207 -146C201 -156 202 -164 211 -170C227 -181 252 -187 276 -187C337 -187 372 -152 372 -107Z" glyph-name="Ccedilla" horiz-adv-x="585" unicode="&#199;" /><glyph d="M520 61C530 68 531 76 525 87L507 117C500 128 493 129 483 121C436 85 379 59 316 59C199 59 138 142 138 268C138 447 242 603 399 603C459 603 509 583 544 552C554 544 561 545 570 554L595 581C603 590 603 598 595 606C548 650 482 672 404 672C179 672 56 470 56 264C56 111 134 -10 312 -10C390 -10 459 14 520 61ZM420 780 502 721C507 717 511 715 515 715C520 715 524 718 529 723L537 732C541 736 543 741 543 745C543 749 541 754 536 758L443 841C438 846 433 848 428 848C422 848 417 846 412 843L287 760C281 756 278 751 278 746C278 742 280 737 283 732L288 724C292 718 296 715 302 715C305 715 308 716 313 719Z" glyph-name="Ccircumflex" horiz-adv-x="585" unicode="&#264;" /><glyph d="M520 61C530 68 531 76 525 87L507 117C500 128 493 129 483 121C436 85 379 59 316 59C199 59 138 142 138 268C138 447 242 603 399 603C459 603 509 583 544 552C554 544 561 545 570 554L595 581C603 590 603 598 595 606C548 650 482 672 404 672C179 672 56 470 56 264C56 111 134 -10 312 -10C390 -10 459 14 520 61ZM466 787C466 812 451 832 422 832C391 832 369 808 369 777C369 752 384 732 413 732C444 732 466 756 466 787Z" glyph-name="Cdotaccent" horiz-adv-x="585" unicode="&#266;" /><glyph d="M168 662C155 662 149 657 147 644L49 24C48 18 48 16 48 14C48 4 53 0 63 0H242C500 0 617 185 617 396C617 546 538 662 347 662ZM219 596H333C477 596 535 519 535 393C535 222 443 66 249 66H135Z" glyph-name="D" horiz-adv-x="645" unicode="D" /><glyph d="M168 662C155 662 149 657 147 644L49 24C48 18 48 16 48 14C48 4 53 0 63 0H242C500 0 617 185 617 396C617 546 538 662 347 662ZM219 596H333C477 596 535 519 535 393C535 222 443 66 249 66H135ZM377 778 295 837C290 841 286 843 282 843C277 843 273 840 268 835L260 826C256 822 254 817 254 813C254 809 256 804 261 800L354 717C359 712 364 710 369 710C375 710 380 712 385 715L510 798C516 802 519 807 519 812C519 816 517 821 514 826L509 834C505 840 501 843 495 843C492 843 489 842 484 839Z" glyph-name="Dcaron" horiz-adv-x="645" unicode="&#270;" /><glyph d="M622 396C622 546 543 662 352 662H173C160 662 154 657 152 644L107 362H56C43 362 37 357 35 344L30 319C28 307 33 301 45 301H98L54 24C53 18 53 16 53 14C53 4 58 0 68 0H247C505 0 622 185 622 396ZM140 66 177 301H327C340 301 346 306 348 319L353 344C355 356 350 362 338 362H187L224 596H338C482 596 540 519 540 393C540 222 448 66 254 66Z" glyph-name="Dcroat" horiz-adv-x="650" unicode="&#272;" /><glyph d="M521 638C522 646 522 647 522 649C522 658 517 662 507 662H168C155 662 149 657 147 644L49 24C48 16 48 15 48 13C48 4 53 0 63 0H402C415 0 421 5 423 18L427 42C428 50 428 51 428 53C428 62 423 66 413 66H135L173 311H419C432 311 438 316 440 329L444 353C445 361 445 362 445 364C445 373 440 377 430 377H184L218 596H496C509 596 515 601 517 614Z" glyph-name="E" horiz-adv-x="509" unicode="E" /><glyph d="M521 638C522 646 522 647 522 649C522 658 517 662 507 662H168C155 662 149 657 147 644L49 24C48 16 48 15 48 13C48 4 53 0 63 0H402C415 0 421 5 423 18L427 42C428 50 428 51 428 53C428 62 423 66 413 66H135L173 311H419C432 311 438 316 440 329L444 353C445 361 445 362 445 364C445 373 440 377 430 377H184L218 596H496C509 596 515 601 517 614ZM429 853C425 859 421 861 416 861C411 861 407 859 402 855L278 754C273 750 270 745 270 740C270 736 272 732 275 728L281 720C285 715 290 711 296 711C299 711 303 712 307 715L441 807C447 811 449 815 449 820C449 823 448 827 444 832Z" glyph-name="Eacute" horiz-adv-x="509" unicode="&#201;" /><glyph d="M521 638C522 646 522 647 522 649C522 658 517 662 507 662H168C155 662 149 657 147 644L49 24C48 16 48 15 48 13C48 4 53 0 63 0H402C415 0 421 5 423 18L427 42C428 50 428 51 428 53C428 62 423 66 413 66H135L173 311H419C432 311 438 316 440 329L444 353C445 361 445 362 445 364C445 373 440 377 430 377H184L218 596H496C509 596 515 601 517 614ZM283 821C280 829 277 833 271 833C268 833 264 832 259 830L246 825C237 821 235 817 235 810C235 806 237 797 239 792C254 750 292 713 355 713C415 713 464 747 488 790C492 797 497 806 497 813C497 819 493 823 485 826L472 831C467 833 464 834 461 834C454 834 450 829 446 822C426 789 397 770 357 770C318 770 295 788 283 821Z" glyph-name="Ebreve" horiz-adv-x="509" unicode="&#276;" /><glyph d="M521 638C522 646 522 647 522 649C522 658 517 662 507 662H168C155 662 149 657 147 644L49 24C48 16 48 15 48 13C48 4 53 0 63 0H402C415 0 421 5 423 18L427 42C428 50 428 51 428 53C428 62 423 66 413 66H135L173 311H419C432 311 438 316 440 329L444 353C445 361 445 362 445 364C445 373 440 377 430 377H184L218 596H496C509 596 515 601 517 614ZM356 778 274 837C269 841 265 843 261 843C256 843 252 840 247 835L239 826C235 822 233 817 233 813C233 809 235 804 240 800L333 717C338 712 343 710 348 710C354 710 359 712 364 715L489 798C495 802 498 807 498 812C498 816 496 821 493 826L488 834C484 840 480 843 474 843C471 843 468 842 463 839Z" glyph-name="Ecaron" horiz-adv-x="509" unicode="&#282;" /><glyph d="M521 638C522 646 522 647 522 649C522 658 517 662 507 662H168C155 662 149 657 147 644L49 24C48 16 48 15 48 13C48 4 53 0 63 0H402C415 0 421 5 423 18L427 42C428 50 428 51 428 53C428 62 423 66 413 66H135L173 311H419C432 311 438 316 440 329L444 353C445 361 445 362 445 364C445 373 440 377 430 377H184L218 596H496C509 596 515 601 517 614ZM362 780 444 721C449 717 453 715 457 715C462 715 466 718 471 723L479 732C483 736 485 741 485 745C485 749 483 754 478 758L385 841C380 846 375 848 370 848C364 848 359 846 354 843L229 760C223 756 220 751 220 746C220 742 222 737 225 732L230 724C234 718 238 715 244 715C247 715 250 716 255 719Z" glyph-name="Ecircumflex" horiz-adv-x="509" unicode="&#202;" /><glyph d="M521 638C522 646 522 647 522 649C522 658 517 662 507 662H168C155 662 149 657 147 644L49 24C48 16 48 15 48 13C48 4 53 0 63 0H402C415 0 421 5 423 18L427 42C428 50 428 51 428 53C428 62 423 66 413 66H135L173 311H419C432 311 438 316 440 329L444 353C445 361 445 362 445 364C445 373 440 377 430 377H184L218 596H496C509 596 515 601 517 614ZM322 787C322 812 307 832 278 832C247 832 225 808 225 777C225 752 240 732 269 732C300 732 322 756 322 787ZM492 787C492 812 477 832 448 832C417 832 395 808 395 777C395 752 410 732 439 732C470 732 492 756 492 787Z" glyph-name="Edieresis" horiz-adv-x="509" unicode="&#203;" /><glyph d="M521 638C522 646 522 647 522 649C522 658 517 662 507 662H168C155 662 149 657 147 644L49 24C48 16 48 15 48 13C48 4 53 0 63 0H402C415 0 421 5 423 18L427 42C428 50 428 51 428 53C428 62 423 66 413 66H135L173 311H419C432 311 438 316 440 329L444 353C445 361 445 362 445 364C445 373 440 377 430 377H184L218 596H496C509 596 515 601 517 614ZM408 787C408 812 393 832 364 832C333 832 311 808 311 777C311 752 326 732 355 732C386 732 408 756 408 787Z" glyph-name="Edotaccent" horiz-adv-x="509" unicode="&#278;" /><glyph d="M521 638C522 646 522 647 522 649C522 658 517 662 507 662H168C155 662 149 657 147 644L49 24C48 16 48 15 48 13C48 4 53 0 63 0H402C415 0 421 5 423 18L427 42C428 50 428 51 428 53C428 62 423 66 413 66H135L173 311H419C432 311 438 316 440 329L444 353C445 361 445 362 445 364C445 373 440 377 430 377H184L218 596H496C509 596 515 601 517 614ZM242 831C238 826 237 822 237 819C237 814 239 810 245 806L378 714C382 711 386 710 389 710C395 710 400 714 404 719L411 728C414 732 416 736 416 740C416 745 413 750 408 754L286 855C281 859 277 861 272 861C267 861 263 859 259 853Z" glyph-name="Egrave" horiz-adv-x="509" unicode="&#200;" /><glyph d="M521 638C522 646 522 647 522 649C522 658 517 662 507 662H168C155 662 149 657 147 644L49 24C48 16 48 15 48 13C48 4 53 0 63 0H402C415 0 421 5 423 18L427 42C428 50 428 51 428 53C428 62 423 66 413 66H135L173 311H419C432 311 438 316 440 329L444 353C445 361 445 362 445 364C445 373 440 377 430 377H184L218 596H496C509 596 515 601 517 614ZM456 796H265C252 796 246 792 244 778L243 769C242 760 242 759 242 757C242 746 247 742 258 742H449C462 742 468 746 470 760L471 769C472 778 472 779 472 781C472 792 467 796 456 796Z" glyph-name="Emacron" horiz-adv-x="509" unicode="&#274;" /><glyph d="M231 -124C231 -163 260 -187 308 -187C335 -187 361 -179 382 -167C391 -161 393 -152 388 -142L386 -138C380 -126 373 -125 361 -131C349 -137 336 -139 325 -139C304 -139 288 -130 288 -105C288 -70 317 -41 354 0H402C415 0 421 5 423 18L427 42C428 50 428 51 428 53C428 62 423 66 413 66H135L173 311H419C432 311 438 316 440 329L444 353C445 361 445 362 445 364C445 373 440 377 430 377H184L218 596H496C509 596 515 601 517 614L521 638C522 646 522 647 522 649C522 658 517 662 507 662H168C155 662 149 657 147 644L49 24C48 16 48 15 48 13C48 4 53 0 63 0H310C271 -33 231 -78 231 -124Z" glyph-name="Eogonek" horiz-adv-x="509" unicode="&#280;" /><glyph d="M622 396C622 546 543 662 352 662H173C160 662 154 657 152 644L107 362H56C43 362 37 357 35 344L30 319C28 307 33 301 45 301H98L54 24C53 18 53 16 53 14C53 4 58 0 68 0H247C505 0 622 185 622 396ZM140 66 177 301H327C340 301 346 306 348 319L353 344C355 356 350 362 338 362H187L224 596H338C482 596 540 519 540 393C540 222 448 66 254 66Z" glyph-name="Eth" horiz-adv-x="650" unicode="&#208;" /><glyph d="M465 23C476 29 479 36 474 48L462 76C457 87 450 90 438 84C405 67 362 55 323 55C239 55 198 129 192 230H392C405 230 411 235 413 248L417 271C419 283 414 289 402 289H192C193 318 197 346 202 373H415C428 373 434 378 436 391L440 414C442 426 437 432 425 432H219C254 532 322 607 420 607C457 607 490 597 520 579C531 572 540 574 546 582L564 608C567 612 569 617 569 621C569 627 566 631 560 635C524 658 477 672 422 672C273 672 180 563 139 432H81C68 432 62 427 60 414L56 391C54 379 59 373 71 373H124C118 345 115 317 114 289H58C45 289 39 284 37 271L33 248C31 236 36 230 48 230H114C122 103 179 -10 321 -10C372 -10 424 2 465 23Z" glyph-name="Euro" horiz-adv-x="532" unicode="&#8364;" /><glyph d="M49 24C48 18 48 15 48 13C48 4 53 0 63 0H106C119 0 125 5 127 18L171 294H417C430 294 436 299 438 312L442 336C443 344 443 345 443 347C443 356 438 360 428 360H181L219 596H503C516 596 522 601 524 614L528 638C529 646 529 647 529 649C529 658 524 662 514 662H168C155 662 149 657 147 644Z" glyph-name="F" horiz-adv-x="500" unicode="F" /><glyph d="M542 44C553 50 559 58 561 70L602 334C604 346 599 352 587 352H386C373 352 367 347 365 334L361 304C359 292 364 286 376 286H516L485 92C442 69 389 56 333 56C201 56 139 141 139 284C139 427 219 603 398 603C466 603 522 579 558 546C567 537 574 537 583 547L608 574C616 583 616 592 607 601C558 651 482 672 406 672C167 672 57 457 57 281C57 97 157 -10 328 -10C404 -10 476 8 542 44Z" glyph-name="G" horiz-adv-x="640" unicode="G" /><glyph d="M542 44C553 50 559 58 561 70L602 334C604 346 599 352 587 352H386C373 352 367 347 365 334L361 304C359 292 364 286 376 286H516L485 92C442 69 389 56 333 56C201 56 139 141 139 284C139 427 219 603 398 603C466 603 522 579 558 546C567 537 574 537 583 547L608 574C616 583 616 592 607 601C558 651 482 672 406 672C167 672 57 457 57 281C57 97 157 -10 328 -10C404 -10 476 8 542 44ZM341 821C338 829 335 833 329 833C326 833 322 832 317 830L304 825C295 821 293 817 293 810C293 806 295 797 297 792C312 750 350 713 413 713C473 713 522 747 546 790C550 797 555 806 555 813C555 819 551 823 543 826L530 831C525 833 522 834 519 834C512 834 508 829 504 822C484 789 455 770 415 770C376 770 353 788 341 821Z" glyph-name="Gbreve" horiz-adv-x="640" unicode="&#286;" /><glyph d="M542 44C553 50 559 58 561 70L602 334C604 346 599 352 587 352H386C373 352 367 347 365 334L361 304C359 292 364 286 376 286H516L485 92C442 69 389 56 333 56C201 56 139 141 139 284C139 427 219 603 398 603C466 603 522 579 558 546C567 537 574 537 583 547L608 574C616 583 616 592 607 601C558 651 482 672 406 672C167 672 57 457 57 281C57 97 157 -10 328 -10C404 -10 476 8 542 44ZM420 780 502 721C507 717 511 715 515 715C520 715 524 718 529 723L537 732C541 736 543 741 543 745C543 749 541 754 536 758L443 841C438 846 433 848 428 848C422 848 417 846 412 843L287 760C281 756 278 751 278 746C278 742 280 737 283 732L288 724C292 718 296 715 302 715C305 715 308 716 313 719Z" glyph-name="Gcircumflex" horiz-adv-x="640" unicode="&#284;" /><glyph d="M542 44C553 50 559 58 561 70L602 334C604 346 599 352 587 352H386C373 352 367 347 365 334L361 304C359 292 364 286 376 286H516L485 92C442 69 389 56 333 56C201 56 139 141 139 284C139 427 219 603 398 603C466 603 522 579 558 546C567 537 574 537 583 547L608 574C616 583 616 592 607 601C558 651 482 672 406 672C167 672 57 457 57 281C57 97 157 -10 328 -10C404 -10 476 8 542 44ZM466 787C466 812 451 832 422 832C391 832 369 808 369 777C369 752 384 732 413 732C444 732 466 756 466 787Z" glyph-name="Gdotaccent" horiz-adv-x="640" unicode="&#288;" /><glyph d="M457 24C456 18 456 16 456 14C456 4 461 0 471 0H514C527 0 533 5 535 18L633 638C634 644 634 646 634 648C634 658 629 662 619 662H576C563 662 557 657 555 644L511 367H182L225 638C226 644 226 646 226 648C226 658 221 662 211 662H168C155 662 149 657 147 644L49 24C48 18 48 16 48 14C48 4 53 0 63 0H106C119 0 125 5 127 18L171 301H501Z" glyph-name="H" horiz-adv-x="653" unicode="H" /><glyph d="M132 18 176 301H506L462 24C461 18 461 16 461 14C461 4 466 0 476 0H519C532 0 538 5 540 18L614 484H676C689 484 696 489 697 502L698 512C699 521 699 522 699 524C699 535 694 539 683 539H622L638 638C639 644 639 646 639 648C639 658 634 662 624 662H581C568 662 562 657 560 644L543 539H214L230 638C231 644 231 646 231 648C231 658 226 662 216 662H173C160 662 154 657 152 644L135 539H73C60 539 53 534 52 521L51 511C50 502 50 501 50 499C50 488 55 484 66 484H127L54 24C53 18 53 16 53 14C53 4 58 0 68 0H111C124 0 130 5 132 18ZM187 367 206 484H535L516 367Z" glyph-name="Hbar" horiz-adv-x="663" unicode="&#294;" /><glyph d="M457 24C456 18 456 16 456 14C456 4 461 0 471 0H514C527 0 533 5 535 18L633 638C634 644 634 646 634 648C634 658 629 662 619 662H576C563 662 557 657 555 644L511 367H182L225 638C226 644 226 646 226 648C226 658 221 662 211 662H168C155 662 149 657 147 644L49 24C48 18 48 16 48 14C48 4 53 0 63 0H106C119 0 125 5 127 18L171 301H501ZM416 780 498 721C503 717 507 715 511 715C516 715 520 718 525 723L533 732C537 736 539 741 539 745C539 749 537 754 532 758L439 841C434 846 429 848 424 848C418 848 413 846 408 843L283 760C277 756 274 751 274 746C274 742 276 737 279 732L284 724C288 718 292 715 298 715C301 715 304 716 309 719Z" glyph-name="Hcircumflex" horiz-adv-x="653" unicode="&#292;" /><glyph d="M49 24C48 18 48 16 48 14C48 4 53 0 63 0H106C119 0 125 5 127 18L225 638C226 644 226 646 226 648C226 658 221 662 211 662H168C155 662 149 657 147 644Z" glyph-name="I" horiz-adv-x="245" unicode="I" /><glyph d="M139 270C152 270 158 275 160 288L216 644C218 656 213 662 201 662H158C145 662 139 657 137 644L81 288C79 276 84 270 96 270ZM514 234 578 637C579 645 579 647 579 649C579 658 574 662 564 662H521C508 662 502 657 500 644L436 240C417 124 343 58 248 58C196 58 154 78 128 102C119 111 111 110 103 100L81 75C77 70 75 66 75 62C75 57 78 53 82 49C110 20 163 -10 250 -10C398 -10 489 77 514 234Z" glyph-name="IJ" horiz-adv-x="591" unicode="&#306;" /><glyph d="M49 24C48 18 48 16 48 14C48 4 53 0 63 0H106C119 0 125 5 127 18L225 638C226 644 226 646 226 648C226 658 221 662 211 662H168C155 662 149 657 147 644ZM277 853C273 859 269 861 264 861C259 861 255 859 250 855L126 754C121 750 118 745 118 740C118 736 120 732 123 728L129 720C133 715 138 711 144 711C147 711 151 712 155 715L289 807C295 811 297 815 297 820C297 823 296 827 292 832Z" glyph-name="Iacute" horiz-adv-x="245" unicode="&#205;" /><glyph d="M49 24C48 18 48 16 48 14C48 4 53 0 63 0H106C119 0 125 5 127 18L225 638C226 644 226 646 226 648C226 658 221 662 211 662H168C155 662 149 657 147 644ZM131 821C128 829 125 833 119 833C116 833 112 832 107 830L94 825C85 821 83 817 83 810C83 806 85 797 87 792C102 750 140 713 203 713C263 713 312 747 336 790C340 797 345 806 345 813C345 819 341 823 333 826L320 831C315 833 312 834 309 834C302 834 298 829 294 822C274 789 245 770 205 770C166 770 143 788 131 821Z" glyph-name="Ibreve" horiz-adv-x="245" unicode="&#300;" /><glyph d="M49 24C48 18 48 16 48 14C48 4 53 0 63 0H106C119 0 125 5 127 18L225 638C226 644 226 646 226 648C226 658 221 662 211 662H168C155 662 149 657 147 644ZM210 780 292 721C297 717 301 715 305 715C310 715 314 718 319 723L327 732C331 736 333 741 333 745C333 749 331 754 326 758L233 841C228 846 223 848 218 848C212 848 207 846 202 843L77 760C71 756 68 751 68 746C68 742 70 737 73 732L78 724C82 718 86 715 92 715C95 715 98 716 103 719Z" glyph-name="Icircumflex" horiz-adv-x="245" unicode="&#206;" /><glyph d="M49 24C48 18 48 16 48 14C48 4 53 0 63 0H106C119 0 125 5 127 18L225 638C226 644 226 646 226 648C226 658 221 662 211 662H168C155 662 149 657 147 644ZM170 787C170 812 155 832 126 832C95 832 73 808 73 777C73 752 88 732 117 732C148 732 170 756 170 787ZM340 787C340 812 325 832 296 832C265 832 243 808 243 777C243 752 258 732 287 732C318 732 340 756 340 787Z" glyph-name="Idieresis" horiz-adv-x="245" unicode="&#207;" /><glyph d="M49 24C48 18 48 16 48 14C48 4 53 0 63 0H106C119 0 125 5 127 18L225 638C226 644 226 646 226 648C226 658 221 662 211 662H168C155 662 149 657 147 644ZM256 787C256 812 241 832 212 832C181 832 159 808 159 777C159 752 174 732 203 732C234 732 256 756 256 787Z" glyph-name="Idotaccent" horiz-adv-x="245" unicode="&#304;" /><glyph d="M49 24C48 18 48 16 48 14C48 4 53 0 63 0H106C119 0 125 5 127 18L225 638C226 644 226 646 226 648C226 658 221 662 211 662H168C155 662 149 657 147 644ZM90 831C86 826 85 822 85 819C85 814 87 810 93 806L226 714C230 711 234 710 237 710C243 710 248 714 252 719L259 728C262 732 264 736 264 740C264 745 261 750 256 754L134 855C129 859 125 861 120 861C115 861 111 859 107 853Z" glyph-name="Igrave" horiz-adv-x="245" unicode="&#204;" /><glyph d="M49 24C48 18 48 16 48 14C48 4 53 0 63 0H106C119 0 125 5 127 18L225 638C226 644 226 646 226 648C226 658 221 662 211 662H168C155 662 149 657 147 644ZM304 796H113C100 796 94 792 92 778L91 769C90 760 90 759 90 757C90 746 95 742 106 742H297C310 742 316 746 318 760L319 769C320 778 320 779 320 781C320 792 315 796 304 796Z" glyph-name="Imacron" horiz-adv-x="245" unicode="&#298;" /><glyph d="M-16 -124C-16 -163 13 -187 61 -187C88 -187 114 -179 135 -167C144 -161 146 -152 141 -142L139 -138C133 -126 126 -125 114 -131C102 -137 89 -139 78 -139C57 -139 41 -130 41 -105C41 -70 70 -41 107 0H106C119 0 125 5 127 18L225 638C226 644 226 646 226 648C226 658 221 662 211 662H168C155 662 149 657 147 644L49 24C48 18 48 16 48 14C48 4 53 0 63 0C24 -33 -16 -78 -16 -124Z" glyph-name="Iogonek" horiz-adv-x="245" unicode="&#302;" /><glyph d="M49 24C48 18 48 16 48 14C48 4 53 0 63 0H106C119 0 125 5 127 18L225 638C226 644 226 646 226 648C226 658 221 662 211 662H168C155 662 149 657 147 644ZM265 788C232 788 204 822 160 822C123 822 91 798 72 773C69 769 67 764 67 760C67 756 69 752 74 747L78 743C83 738 87 736 91 736C96 736 100 738 105 742C118 754 136 764 154 764C187 764 215 730 259 730C296 730 328 754 347 779C350 783 352 788 352 792C352 796 350 800 345 805L341 809C336 814 332 816 328 816C323 816 319 814 314 810C301 798 283 788 265 788Z" glyph-name="Itilde" horiz-adv-x="245" unicode="&#296;" /><glyph d="M359 644 292 221C275 113 223 58 144 58C103 58 71 74 53 90C47 95 42 97 37 97C32 97 27 94 23 89L3 65C-1 61 -3 56 -3 52C-3 48 -1 44 4 39C30 13 74 -10 143 -10C273 -10 347 71 371 220L437 638C438 644 438 646 438 648C438 658 433 662 423 662H380C367 662 361 657 359 644Z" glyph-name="J" horiz-adv-x="452" unicode="J" /><glyph d="M359 644 292 221C275 113 223 58 144 58C103 58 71 74 53 90C47 95 42 97 37 97C32 97 27 94 23 89L3 65C-1 61 -3 56 -3 52C-3 48 -1 44 4 39C30 13 74 -10 143 -10C273 -10 347 71 371 220L437 638C438 644 438 646 438 648C438 658 433 662 423 662H380C367 662 361 657 359 644ZM422 780 504 721C509 717 513 715 517 715C522 715 526 718 531 723L539 732C543 736 545 741 545 745C545 749 543 754 538 758L445 841C440 846 435 848 430 848C424 848 419 846 414 843L289 760C283 756 280 751 280 746C280 742 282 737 285 732L290 724C294 718 298 715 304 715C307 715 310 716 315 719Z" glyph-name="Jcircumflex" horiz-adv-x="452" unicode="&#308;" /><glyph d="M127 18 161 233C200 263 238 292 274 322C338 221 393 114 434 17C439 5 444 0 457 0H506C515 0 520 4 520 10C520 12 521 14 518 21C470 136 404 263 333 371C425 451 509 538 591 643C595 648 596 651 596 654C596 659 593 662 585 662H529C516 662 510 659 503 649C428 547 299 427 175 323L225 638C226 644 226 646 226 648C226 658 221 662 211 662H168C155 662 149 657 147 644L49 24C48 18 48 16 48 14C48 4 53 0 63 0H106C119 0 125 5 127 18Z" glyph-name="K" horiz-adv-x="577" unicode="K" /><glyph d="M397 0C410 0 416 5 418 18L422 42C423 50 423 51 423 53C423 62 418 66 408 66H134L225 638C226 644 226 646 226 648C226 658 221 662 211 662H168C155 662 149 657 147 644L49 24C48 18 48 16 48 14C48 4 53 0 63 0Z" glyph-name="L" horiz-adv-x="468" unicode="L" /><glyph d="M397 0C410 0 416 5 418 18L422 42C423 50 423 51 423 53C423 62 418 66 408 66H134L225 638C226 644 226 646 226 648C226 658 221 662 211 662H168C155 662 149 657 147 644L49 24C48 18 48 16 48 14C48 4 53 0 63 0ZM280 853C276 859 272 861 267 861C262 861 258 859 253 855L129 754C124 750 121 745 121 740C121 736 123 732 126 728L132 720C136 715 141 711 147 711C150 711 154 712 158 715L292 807C298 811 300 815 300 820C300 823 299 827 295 832Z" glyph-name="Lacute" horiz-adv-x="468" unicode="&#313;" /><glyph d="M397 0C410 0 416 5 418 18L422 42C423 50 423 51 423 53C423 62 418 66 408 66H134L225 638C226 644 226 646 226 648C226 658 221 662 211 662H168C155 662 149 657 147 644L49 24C48 18 48 16 48 14C48 4 53 0 63 0ZM301 488C308 488 312 491 316 499L382 627C385 633 386 637 386 640C386 646 382 650 374 653L343 663C340 664 334 665 331 665C324 665 319 660 317 651L282 514C281 511 280 505 280 503C280 492 294 488 301 488Z" glyph-name="Lcaron" horiz-adv-x="468" unicode="&#317;" /><glyph d="M397 0C410 0 416 5 418 18L422 42C423 50 423 51 423 53C423 62 418 66 408 66H134L225 638C226 644 226 646 226 648C226 658 221 662 211 662H168C155 662 149 657 147 644L49 24C48 18 48 16 48 14C48 4 53 0 63 0ZM425 345C425 375 407 397 374 397C337 397 311 368 311 331C311 301 329 279 362 279C399 279 425 308 425 345Z" glyph-name="Ldot" horiz-adv-x="468" unicode="&#319;" /><glyph d="M418 18 422 42C423 50 423 51 423 53C423 62 418 66 408 66H134L172 303L338 388C350 394 355 401 357 414L362 444C363 451 363 452 363 453C363 459 360 462 355 462C353 462 350 461 344 458L183 376L225 638C226 644 226 646 226 648C226 658 221 662 211 662H168C155 662 149 657 147 644L98 337L42 308C30 302 25 295 23 282L18 252C17 245 17 244 17 243C17 237 20 234 25 234C27 234 30 235 36 238L87 264L49 24C48 18 48 16 48 14C48 4 53 0 63 0H397C410 0 416 5 418 18Z" glyph-name="Lslash" horiz-adv-x="473" unicode="&#321;" /><glyph d="M121 18 208 568 352 215C357 203 364 198 376 198H388C401 198 409 202 417 213L673 568L586 18C584 6 589 0 601 0H638C651 0 657 5 659 18L757 638C758 644 758 646 758 648C758 658 753 662 743 662H679C666 662 658 658 650 647L394 293L249 645C244 657 237 662 224 662H168C155 662 149 657 147 644L49 24C48 18 48 16 48 14C48 4 53 0 63 0H100C113 0 119 5 121 18Z" glyph-name="M" horiz-adv-x="777" unicode="M" /><glyph d="M124 18 211 570 457 16C462 4 469 0 482 0H530C543 0 549 5 551 18L649 638C650 644 650 646 650 648C650 658 645 662 635 662H595C582 662 576 657 574 644L489 109L251 646C246 658 239 662 226 662H168C155 662 149 657 147 644L49 24C48 18 48 16 48 14C48 4 53 0 63 0H103C116 0 122 5 124 18Z" glyph-name="N" horiz-adv-x="669" unicode="N" /><glyph d="M124 18 211 570 457 16C462 4 469 0 482 0H530C543 0 549 5 551 18L649 638C650 644 650 646 650 648C650 658 645 662 635 662H595C582 662 576 657 574 644L489 109L251 646C246 658 239 662 226 662H168C155 662 149 657 147 644L49 24C48 18 48 16 48 14C48 4 53 0 63 0H103C116 0 122 5 124 18ZM489 853C485 859 481 861 476 861C471 861 467 859 462 855L338 754C333 750 330 745 330 740C330 736 332 732 335 728L341 720C345 715 350 711 356 711C359 711 363 712 367 715L501 807C507 811 509 815 509 820C509 823 508 827 504 832Z" glyph-name="Nacute" horiz-adv-x="669" unicode="&#323;" /><glyph d="M124 18 211 570 457 16C462 4 469 0 482 0H530C543 0 549 5 551 18L649 638C650 644 650 646 650 648C650 658 645 662 635 662H595C582 662 576 657 574 644L489 109L251 646C246 658 239 662 226 662H168C155 662 149 657 147 644L49 24C48 18 48 16 48 14C48 4 53 0 63 0H103C116 0 122 5 124 18ZM416 778 334 837C329 841 325 843 321 843C316 843 312 840 307 835L299 826C295 822 293 817 293 813C293 809 295 804 300 800L393 717C398 712 403 710 408 710C414 710 419 712 424 715L549 798C555 802 558 807 558 812C558 816 556 821 553 826L548 834C544 840 540 843 534 843C531 843 528 842 523 839Z" glyph-name="Ncaron" horiz-adv-x="669" unicode="&#327;" /><glyph d="M124 18 211 570 457 16C462 4 469 0 482 0H530C543 0 549 5 551 18L649 638C650 644 650 646 650 648C650 658 645 662 635 662H595C582 662 576 657 574 644L489 109L251 646C246 658 239 662 226 662H168C155 662 149 657 147 644L49 24C48 18 48 16 48 14C48 4 53 0 63 0H103C116 0 122 5 124 18ZM477 788C444 788 416 822 372 822C335 822 303 798 284 773C281 769 279 764 279 760C279 756 281 752 286 747L290 743C295 738 299 736 303 736C308 736 312 738 317 742C330 754 348 764 366 764C399 764 427 730 471 730C508 730 540 754 559 779C562 783 564 788 564 792C564 796 562 800 557 805L553 809C548 814 544 816 540 816C535 816 531 814 526 810C513 798 495 788 477 788Z" glyph-name="Ntilde" horiz-adv-x="669" unicode="&#209;" /><glyph d="M668 388C668 564 570 672 407 672C194 672 58 486 58 274C58 98 156 -10 319 -10C532 -10 668 176 668 388ZM140 275C140 437 242 604 402 604C523 604 586 524 586 387C586 225 484 58 324 58C203 58 140 138 140 275Z" glyph-name="O" horiz-adv-x="697" unicode="O" /><glyph d="M906 662H432C164 662 56 466 56 261C56 122 134 0 327 0H801C814 0 820 5 822 18L826 42C827 50 827 51 827 53C827 62 822 66 812 66H534L572 311H818C831 311 837 316 839 329L843 353C844 361 844 362 844 364C844 373 839 377 829 377H583L617 596H895C908 596 914 601 916 614L920 638C921 646 921 647 921 649C921 658 916 662 906 662ZM425 596H538L454 66H341C197 66 138 145 138 264C138 441 231 596 425 596Z" glyph-name="OE" horiz-adv-x="908" unicode="&#338;" /><glyph d="M668 388C668 564 570 672 407 672C194 672 58 486 58 274C58 98 156 -10 319 -10C532 -10 668 176 668 388ZM140 275C140 437 242 604 402 604C523 604 586 524 586 387C586 225 484 58 324 58C203 58 140 138 140 275ZM502 853C498 859 494 861 489 861C484 861 480 859 475 855L351 754C346 750 343 745 343 740C343 736 345 732 348 728L354 720C358 715 363 711 369 711C372 711 376 712 380 715L514 807C520 811 522 815 522 820C522 823 521 827 517 832Z" glyph-name="Oacute" horiz-adv-x="697" unicode="&#211;" /><glyph d="M668 388C668 564 570 672 407 672C194 672 58 486 58 274C58 98 156 -10 319 -10C532 -10 668 176 668 388ZM140 275C140 437 242 604 402 604C523 604 586 524 586 387C586 225 484 58 324 58C203 58 140 138 140 275ZM356 821C353 829 350 833 344 833C341 833 337 832 332 830L319 825C310 821 308 817 308 810C308 806 310 797 312 792C327 750 365 713 428 713C488 713 537 747 561 790C565 797 570 806 570 813C570 819 566 823 558 826L545 831C540 833 537 834 534 834C527 834 523 829 519 822C499 789 470 770 430 770C391 770 368 788 356 821Z" glyph-name="Obreve" horiz-adv-x="697" unicode="&#334;" /><glyph d="M668 388C668 564 570 672 407 672C194 672 58 486 58 274C58 98 156 -10 319 -10C532 -10 668 176 668 388ZM140 275C140 437 242 604 402 604C523 604 586 524 586 387C586 225 484 58 324 58C203 58 140 138 140 275ZM435 780 517 721C522 717 526 715 530 715C535 715 539 718 544 723L552 732C556 736 558 741 558 745C558 749 556 754 551 758L458 841C453 846 448 848 443 848C437 848 432 846 427 843L302 760C296 756 293 751 293 746C293 742 295 737 298 732L303 724C307 718 311 715 317 715C320 715 323 716 328 719Z" glyph-name="Ocircumflex" horiz-adv-x="697" unicode="&#212;" /><glyph d="M668 388C668 564 570 672 407 672C194 672 58 486 58 274C58 98 156 -10 319 -10C532 -10 668 176 668 388ZM140 275C140 437 242 604 402 604C523 604 586 524 586 387C586 225 484 58 324 58C203 58 140 138 140 275ZM395 787C395 812 380 832 351 832C320 832 298 808 298 777C298 752 313 732 342 732C373 732 395 756 395 787ZM565 787C565 812 550 832 521 832C490 832 468 808 468 777C468 752 483 732 512 732C543 732 565 756 565 787Z" glyph-name="Odieresis" horiz-adv-x="697" unicode="&#214;" /><glyph d="M668 388C668 564 570 672 407 672C194 672 58 486 58 274C58 98 156 -10 319 -10C532 -10 668 176 668 388ZM140 275C140 437 242 604 402 604C523 604 586 524 586 387C586 225 484 58 324 58C203 58 140 138 140 275ZM315 831C311 826 310 822 310 819C310 814 312 810 318 806L451 714C455 711 459 710 462 710C468 710 473 714 477 719L484 728C487 732 489 736 489 740C489 745 486 750 481 754L359 855C354 859 350 861 345 861C340 861 336 859 332 853Z" glyph-name="Ograve" horiz-adv-x="697" unicode="&#210;" /><glyph d="M668 388C668 564 570 672 407 672C194 672 58 486 58 274C58 98 156 -10 319 -10C532 -10 668 176 668 388ZM140 275C140 437 242 604 402 604C523 604 586 524 586 387C586 225 484 58 324 58C203 58 140 138 140 275ZM454 810C459 814 462 819 462 823C462 827 460 831 456 836L439 855C436 859 430 862 426 862C421 862 417 860 412 855L307 746C303 742 301 738 301 734C301 730 303 725 307 721L316 712C320 708 324 706 329 706C333 706 337 707 342 711ZM611 810C616 814 619 819 619 823C619 827 617 831 613 836L596 855C593 859 587 862 583 862C578 862 574 860 569 855L464 746C460 742 458 738 458 734C458 730 460 725 464 721L473 712C477 708 481 706 486 706C490 706 494 707 499 711Z" glyph-name="Ohungarumlaut" horiz-adv-x="697" unicode="&#336;" /><glyph d="M668 388C668 564 570 672 407 672C194 672 58 486 58 274C58 98 156 -10 319 -10C532 -10 668 176 668 388ZM140 275C140 437 242 604 402 604C523 604 586 524 586 387C586 225 484 58 324 58C203 58 140 138 140 275ZM529 796H338C325 796 319 792 317 778L316 769C315 760 315 759 315 757C315 746 320 742 331 742H522C535 742 541 746 543 760L544 769C545 778 545 779 545 781C545 792 540 796 529 796Z" glyph-name="Omacron" horiz-adv-x="697" unicode="&#332;" /><glyph d="M89 -32 154 43C197 9 253 -10 321 -10C534 -10 670 176 670 388C670 464 652 528 618 575L721 694C728 702 725 708 715 708H671C658 708 650 704 641 694L576 619C533 653 477 672 409 672C196 672 60 486 60 274C60 198 78 134 112 87L9 -32C2 -40 5 -46 15 -46H59C72 -46 80 -42 89 -32ZM142 275C142 437 244 604 404 604C455 604 496 590 527 562L167 149C150 183 142 225 142 275ZM588 387C588 225 486 58 326 58C275 58 234 72 203 100L563 513C580 479 588 437 588 387Z" glyph-name="Oslash" horiz-adv-x="701" unicode="&#216;" /><glyph d="M668 388C668 564 570 672 407 672C194 672 58 486 58 274C58 98 156 -10 319 -10C532 -10 668 176 668 388ZM140 275C140 437 242 604 402 604C523 604 586 524 586 387C586 225 484 58 324 58C203 58 140 138 140 275ZM490 788C457 788 429 822 385 822C348 822 316 798 297 773C294 769 292 764 292 760C292 756 294 752 299 747L303 743C308 738 312 736 316 736C321 736 325 738 330 742C343 754 361 764 379 764C412 764 440 730 484 730C521 730 553 754 572 779C575 783 577 788 577 792C577 796 575 800 570 805L566 809C561 814 557 816 553 816C548 816 544 814 539 810C526 798 508 788 490 788Z" glyph-name="Otilde" horiz-adv-x="697" unicode="&#213;" /><glyph d="M168 662C155 662 149 657 147 644L49 24C48 18 48 16 48 14C48 4 53 0 63 0H106C119 0 125 5 127 18L163 245H270C451 245 551 338 551 484C551 583 488 662 347 662ZM218 596H331C430 596 469 548 469 483C469 383 407 311 277 311H173Z" glyph-name="P" horiz-adv-x="543" unicode="P" /><glyph d="M518 -153C529 -148 532 -140 528 -129L520 -110C515 -98 509 -95 497 -100C485 -104 470 -108 453 -108C400 -108 370 -82 358 -2C549 18 668 192 668 391C668 567 570 672 407 672C194 672 58 489 58 277C58 114 143 12 284 -2C298 -123 354 -169 443 -169C469 -169 495 -163 518 -153ZM140 278C140 440 242 604 402 604C523 604 586 527 586 390C586 228 485 61 325 61C204 61 140 141 140 278Z" glyph-name="Q" horiz-adv-x="697" unicode="Q" /><glyph d="M127 18 167 272H261C327 189 382 99 421 17C427 5 433 0 444 0H495C507 0 511 7 506 19C462 113 402 213 345 281C456 294 546 369 546 493C546 584 492 662 343 662H168C155 662 149 657 147 644L49 24C48 18 48 16 48 14C48 4 53 0 63 0H106C119 0 125 5 127 18ZM218 596H335C421 596 464 557 464 491C464 394 398 338 290 338H178Z" glyph-name="R" horiz-adv-x="562" unicode="R" /><glyph d="M127 18 167 272H261C327 189 382 99 421 17C427 5 433 0 444 0H495C507 0 511 7 506 19C462 113 402 213 345 281C456 294 546 369 546 493C546 584 492 662 343 662H168C155 662 149 657 147 644L49 24C48 18 48 16 48 14C48 4 53 0 63 0H106C119 0 125 5 127 18ZM218 596H335C421 596 464 557 464 491C464 394 398 338 290 338H178ZM427 853C423 859 419 861 414 861C409 861 405 859 400 855L276 754C271 750 268 745 268 740C268 736 270 732 273 728L279 720C283 715 288 711 294 711C297 711 301 712 305 715L439 807C445 811 447 815 447 820C447 823 446 827 442 832Z" glyph-name="Racute" horiz-adv-x="562" unicode="&#340;" /><glyph d="M127 18 167 272H261C327 189 382 99 421 17C427 5 433 0 444 0H495C507 0 511 7 506 19C462 113 402 213 345 281C456 294 546 369 546 493C546 584 492 662 343 662H168C155 662 149 657 147 644L49 24C48 18 48 16 48 14C48 4 53 0 63 0H106C119 0 125 5 127 18ZM218 596H335C421 596 464 557 464 491C464 394 398 338 290 338H178ZM354 778 272 837C267 841 263 843 259 843C254 843 250 840 245 835L237 826C233 822 231 817 231 813C231 809 233 804 238 800L331 717C336 712 341 710 346 710C352 710 357 712 362 715L487 798C493 802 496 807 496 812C496 816 494 821 491 826L486 834C482 840 478 843 472 843C469 843 466 842 461 839Z" glyph-name="Rcaron" horiz-adv-x="562" unicode="&#344;" /><glyph d="M471 185C471 270 424 317 298 370C197 412 179 444 179 493C179 557 237 603 320 603C384 603 430 584 467 556C477 549 487 548 494 558L516 587C523 596 524 605 514 612C470 648 409 672 323 672C194 672 98 593 98 488C98 402 135 355 259 301C361 257 390 228 390 178C390 112 323 59 238 59C170 59 117 84 74 125C64 134 56 133 48 124L21 95C13 86 14 78 22 70C74 22 149 -10 237 -10C373 -10 471 72 471 185Z" glyph-name="S" horiz-adv-x="522" unicode="S" /><glyph d="M471 185C471 270 424 317 298 370C197 412 179 444 179 493C179 557 237 603 320 603C384 603 430 584 467 556C477 549 487 548 494 558L516 587C523 596 524 605 514 612C470 648 409 672 323 672C194 672 98 593 98 488C98 402 135 355 259 301C361 257 390 228 390 178C390 112 323 59 238 59C170 59 117 84 74 125C64 134 56 133 48 124L21 95C13 86 14 78 22 70C74 22 149 -10 237 -10C373 -10 471 72 471 185ZM420 853C416 859 412 861 407 861C402 861 398 859 393 855L269 754C264 750 261 745 261 740C261 736 263 732 266 728L272 720C276 715 281 711 287 711C290 711 294 712 298 715L432 807C438 811 440 815 440 820C440 823 439 827 435 832Z" glyph-name="Sacute" horiz-adv-x="522" unicode="&#346;" /><glyph d="M471 185C471 270 424 317 298 370C197 412 179 444 179 493C179 557 237 603 320 603C384 603 430 584 467 556C477 549 487 548 494 558L516 587C523 596 524 605 514 612C470 648 409 672 323 672C194 672 98 593 98 488C98 402 135 355 259 301C361 257 390 228 390 178C390 112 323 59 238 59C170 59 117 84 74 125C64 134 56 133 48 124L21 95C13 86 14 78 22 70C74 22 149 -10 237 -10C373 -10 471 72 471 185ZM347 778 265 837C260 841 256 843 252 843C247 843 243 840 238 835L230 826C226 822 224 817 224 813C224 809 226 804 231 800L324 717C329 712 334 710 339 710C345 710 350 712 355 715L480 798C486 802 489 807 489 812C489 816 487 821 484 826L479 834C475 840 471 843 465 843C462 843 459 842 454 839Z" glyph-name="Scaron" horiz-adv-x="522" unicode="&#352;" /><glyph d="M471 185C471 270 424 317 298 370C197 412 179 444 179 493C179 557 237 603 320 603C384 603 430 584 467 556C477 549 487 548 494 558L516 587C523 596 524 605 514 612C470 648 409 672 323 672C194 672 98 593 98 488C98 402 135 355 259 301C361 257 390 228 390 178C390 112 323 59 238 59C170 59 117 84 74 125C64 134 56 133 48 124L21 95C13 86 14 78 22 70C74 22 149 -10 237 -10C373 -10 471 72 471 185ZM353 780 435 721C440 717 444 715 448 715C453 715 457 718 462 723L470 732C474 736 476 741 476 745C476 749 474 754 469 758L376 841C371 846 366 848 361 848C355 848 350 846 345 843L220 760C214 756 211 751 211 746C211 742 213 737 216 732L221 724C225 718 229 715 235 715C238 715 241 716 246 719Z" glyph-name="Scircumflex" horiz-adv-x="522" unicode="&#348;" /><glyph d="M261 596 170 24C169 18 169 16 169 14C169 4 174 0 184 0H227C240 0 246 5 248 18L340 596H517C530 596 536 601 538 614L542 638C543 646 543 647 543 649C543 658 538 662 528 662H95C82 662 76 657 74 644L70 620C69 612 69 611 69 609C69 600 74 596 84 596Z" glyph-name="T" horiz-adv-x="488" unicode="T" /><glyph d="M248 18 294 304H391C404 304 410 309 412 322L414 338C415 347 415 348 415 350C415 361 410 365 399 365H303L340 596H517C530 596 536 601 538 614L542 638C543 646 543 647 543 649C543 658 538 662 528 662H95C82 662 76 657 74 644L70 620C69 612 69 611 69 609C69 600 74 596 84 596H261L224 365H128C115 365 109 360 107 347L105 331C104 322 104 321 104 319C104 308 109 304 120 304H215L170 24C169 18 169 16 169 14C169 4 174 0 184 0H227C240 0 246 5 248 18Z" glyph-name="Tbar" horiz-adv-x="488" unicode="&#358;" /><glyph d="M261 596 170 24C169 18 169 16 169 14C169 4 174 0 184 0H227C240 0 246 5 248 18L340 596H517C530 596 536 601 538 614L542 638C543 646 543 647 543 649C543 658 538 662 528 662H95C82 662 76 657 74 644L70 620C69 612 69 611 69 609C69 600 74 596 84 596ZM322 778 240 837C235 841 231 843 227 843C222 843 218 840 213 835L205 826C201 822 199 817 199 813C199 809 201 804 206 800L299 717C304 712 309 710 314 710C320 710 325 712 330 715L455 798C461 802 464 807 464 812C464 816 462 821 459 826L454 834C450 840 446 843 440 843C437 843 434 842 429 839Z" glyph-name="Tcaron" horiz-adv-x="488" unicode="&#356;" /><glyph d="M261 596 170 24C169 18 169 16 169 14C169 4 174 0 184 0H227C240 0 246 5 248 18L340 596H517C530 596 536 601 538 614L542 638C543 646 543 647 543 649C543 658 538 662 528 662H95C82 662 76 657 74 644L70 620C69 612 69 611 69 609C69 600 74 596 84 596ZM240 -88C240 -61 225 -47 199 -47C171 -47 150 -64 150 -91C150 -116 167 -120 167 -144C167 -158 163 -171 141 -194C138 -197 137 -200 137 -203C137 -206 139 -209 143 -212L146 -214C149 -216 152 -217 155 -217C161 -217 167 -212 170 -209C203 -177 240 -131 240 -88Z" glyph-name="Tcommaaccent" horiz-adv-x="488" unicode="&#354;" /><glyph d="M168 662C155 662 149 657 147 644L49 24C48 18 48 16 48 14C48 4 53 0 63 0H106C119 0 125 5 127 18L144 127H267C448 127 533 232 533 359C533 462 478 544 332 544H209L225 644C227 656 222 662 210 662ZM451 362C451 276 401 193 272 193H154L199 478H317C419 478 451 430 451 362Z" glyph-name="Thorn" horiz-adv-x="542" unicode="&#222;" /><glyph d="M564 249 627 644C629 656 624 662 612 662H569C556 662 550 657 548 644L487 257C465 119 389 58 295 58C208 58 155 104 155 207C155 224 157 251 160 270L219 644C221 656 216 662 204 662H161C148 662 142 657 140 644L82 271C78 243 76 219 76 203C76 69 152 -10 296 -10C438 -10 536 76 564 249Z" glyph-name="U" horiz-adv-x="639" unicode="U" /><glyph d="M564 249 627 644C629 656 624 662 612 662H569C556 662 550 657 548 644L487 257C465 119 389 58 295 58C208 58 155 104 155 207C155 224 157 251 160 270L219 644C221 656 216 662 204 662H161C148 662 142 657 140 644L82 271C78 243 76 219 76 203C76 69 152 -10 296 -10C438 -10 536 76 564 249ZM475 853C471 859 467 861 462 861C457 861 453 859 448 855L324 754C319 750 316 745 316 740C316 736 318 732 321 728L327 720C331 715 336 711 342 711C345 711 349 712 353 715L487 807C493 811 495 815 495 820C495 823 494 827 490 832Z" glyph-name="Uacute" horiz-adv-x="639" unicode="&#218;" /><glyph d="M564 249 627 644C629 656 624 662 612 662H569C556 662 550 657 548 644L487 257C465 119 389 58 295 58C208 58 155 104 155 207C155 224 157 251 160 270L219 644C221 656 216 662 204 662H161C148 662 142 657 140 644L82 271C78 243 76 219 76 203C76 69 152 -10 296 -10C438 -10 536 76 564 249ZM329 821C326 829 323 833 317 833C314 833 310 832 305 830L292 825C283 821 281 817 281 810C281 806 283 797 285 792C300 750 338 713 401 713C461 713 510 747 534 790C538 797 543 806 543 813C543 819 539 823 531 826L518 831C513 833 510 834 507 834C500 834 496 829 492 822C472 789 443 770 403 770C364 770 341 788 329 821Z" glyph-name="Ubreve" horiz-adv-x="639" unicode="&#364;" /><glyph d="M564 249 627 644C629 656 624 662 612 662H569C556 662 550 657 548 644L487 257C465 119 389 58 295 58C208 58 155 104 155 207C155 224 157 251 160 270L219 644C221 656 216 662 204 662H161C148 662 142 657 140 644L82 271C78 243 76 219 76 203C76 69 152 -10 296 -10C438 -10 536 76 564 249ZM408 780 490 721C495 717 499 715 503 715C508 715 512 718 517 723L525 732C529 736 531 741 531 745C531 749 529 754 524 758L431 841C426 846 421 848 416 848C410 848 405 846 400 843L275 760C269 756 266 751 266 746C266 742 268 737 271 732L276 724C280 718 284 715 290 715C293 715 296 716 301 719Z" glyph-name="Ucircumflex" horiz-adv-x="639" unicode="&#219;" /><glyph d="M564 249 627 644C629 656 624 662 612 662H569C556 662 550 657 548 644L487 257C465 119 389 58 295 58C208 58 155 104 155 207C155 224 157 251 160 270L219 644C221 656 216 662 204 662H161C148 662 142 657 140 644L82 271C78 243 76 219 76 203C76 69 152 -10 296 -10C438 -10 536 76 564 249ZM368 787C368 812 353 832 324 832C293 832 271 808 271 777C271 752 286 732 315 732C346 732 368 756 368 787ZM538 787C538 812 523 832 494 832C463 832 441 808 441 777C441 752 456 732 485 732C516 732 538 756 538 787Z" glyph-name="Udieresis" horiz-adv-x="639" unicode="&#220;" /><glyph d="M564 249 627 644C629 656 624 662 612 662H569C556 662 550 657 548 644L487 257C465 119 389 58 295 58C208 58 155 104 155 207C155 224 157 251 160 270L219 644C221 656 216 662 204 662H161C148 662 142 657 140 644L82 271C78 243 76 219 76 203C76 69 152 -10 296 -10C438 -10 536 76 564 249ZM288 831C284 826 283 822 283 819C283 814 285 810 291 806L424 714C428 711 432 710 435 710C441 710 446 714 450 719L457 728C460 732 462 736 462 740C462 745 459 750 454 754L332 855C327 859 323 861 318 861C313 861 309 859 305 853Z" glyph-name="Ugrave" horiz-adv-x="639" unicode="&#217;" /><glyph d="M564 249 627 644C629 656 624 662 612 662H569C556 662 550 657 548 644L487 257C465 119 389 58 295 58C208 58 155 104 155 207C155 224 157 251 160 270L219 644C221 656 216 662 204 662H161C148 662 142 657 140 644L82 271C78 243 76 219 76 203C76 69 152 -10 296 -10C438 -10 536 76 564 249ZM427 810C432 814 435 819 435 823C435 827 433 831 429 836L412 855C409 859 403 862 399 862C394 862 390 860 385 855L280 746C276 742 274 738 274 734C274 730 276 725 280 721L289 712C293 708 297 706 302 706C306 706 310 707 315 711ZM584 810C589 814 592 819 592 823C592 827 590 831 586 836L569 855C566 859 560 862 556 862C551 862 547 860 542 855L437 746C433 742 431 738 431 734C431 730 433 725 437 721L446 712C450 708 454 706 459 706C463 706 467 707 472 711Z" glyph-name="Uhungarumlaut" horiz-adv-x="639" unicode="&#368;" /><glyph d="M564 249 627 644C629 656 624 662 612 662H569C556 662 550 657 548 644L487 257C465 119 389 58 295 58C208 58 155 104 155 207C155 224 157 251 160 270L219 644C221 656 216 662 204 662H161C148 662 142 657 140 644L82 271C78 243 76 219 76 203C76 69 152 -10 296 -10C438 -10 536 76 564 249ZM502 796H311C298 796 292 792 290 778L289 769C288 760 288 759 288 757C288 746 293 742 304 742H495C508 742 514 746 516 760L517 769C518 778 518 779 518 781C518 792 513 796 502 796Z" glyph-name="Umacron" horiz-adv-x="639" unicode="&#362;" /><glyph d="M348 -167C357 -161 359 -152 354 -142L352 -138C346 -126 339 -125 327 -131C315 -137 302 -139 291 -139C270 -139 254 -130 254 -105C254 -73 279 -46 311 -10C445 -4 537 82 564 249L627 644C629 656 624 662 612 662H569C556 662 550 657 548 644L487 257C465 119 389 58 295 58C208 58 155 104 155 207C155 224 157 251 160 270L219 644C221 656 216 662 204 662H161C148 662 142 657 140 644L82 271C78 243 76 219 76 203C76 79 141 2 266 -9C230 -41 197 -82 197 -124C197 -163 226 -187 274 -187C301 -187 327 -179 348 -167Z" glyph-name="Uogonek" horiz-adv-x="639" unicode="&#370;" /><glyph d="M564 249 627 644C629 656 624 662 612 662H569C556 662 550 657 548 644L487 257C465 119 389 58 295 58C208 58 155 104 155 207C155 224 157 251 160 270L219 644C221 656 216 662 204 662H161C148 662 142 657 140 644L82 271C78 243 76 219 76 203C76 69 152 -10 296 -10C438 -10 536 76 564 249ZM512 799C512 855 474 891 417 891C350 891 301 840 301 777C301 721 339 685 396 685C463 685 512 736 512 799ZM347 778C347 819 375 851 415 851C444 851 466 833 466 798C466 757 438 725 398 725C369 725 347 743 347 778Z" glyph-name="Uring" horiz-adv-x="639" unicode="&#366;" /><glyph d="M564 249 627 644C629 656 624 662 612 662H569C556 662 550 657 548 644L487 257C465 119 389 58 295 58C208 58 155 104 155 207C155 224 157 251 160 270L219 644C221 656 216 662 204 662H161C148 662 142 657 140 644L82 271C78 243 76 219 76 203C76 69 152 -10 296 -10C438 -10 536 76 564 249ZM463 788C430 788 402 822 358 822C321 822 289 798 270 773C267 769 265 764 265 760C265 756 267 752 272 747L276 743C281 738 285 736 289 736C294 736 298 738 303 742C316 754 334 764 352 764C385 764 413 730 457 730C494 730 526 754 545 779C548 783 550 788 550 792C550 796 548 800 543 805L539 809C534 814 530 816 526 816C521 816 517 814 512 810C499 798 481 788 463 788Z" glyph-name="Utilde" horiz-adv-x="639" unicode="&#360;" /><glyph d="M300 15C409 193 518 412 607 638C610 647 610 650 610 652C610 659 606 662 597 662H550C537 662 532 657 527 645C453 451 357 249 264 88C225 245 194 433 174 644C173 657 168 662 155 662H111C99 662 93 656 94 644C117 420 162 182 211 17C215 5 223 0 236 0H272C285 0 293 4 300 15Z" glyph-name="V" horiz-adv-x="578" unicode="V" /><glyph d="M265 15C356 165 443 349 511 537C521 349 548 173 590 17C593 5 601 0 614 0H655C668 0 676 4 682 15C768 166 884 432 949 636C952 646 952 648 952 651C952 658 948 662 939 662H892C880 662 873 656 869 644C814 459 726 242 641 75C602 248 575 463 569 644C569 657 564 662 551 662H506C493 662 487 657 483 645C425 469 323 244 227 75C199 254 184 468 183 644C183 657 178 662 165 662H122C109 662 104 657 104 644C108 431 137 179 173 17C176 5 183 0 196 0H237C250 0 258 4 265 15Z" glyph-name="W" horiz-adv-x="927" unicode="W" /><glyph d="M265 15C356 165 443 349 511 537C521 349 548 173 590 17C593 5 601 0 614 0H655C668 0 676 4 682 15C768 166 884 432 949 636C952 646 952 648 952 651C952 658 948 662 939 662H892C880 662 873 656 869 644C814 459 726 242 641 75C602 248 575 463 569 644C569 657 564 662 551 662H506C493 662 487 657 483 645C425 469 323 244 227 75C199 254 184 468 183 644C183 657 178 662 165 662H122C109 662 104 657 104 644C108 431 137 179 173 17C176 5 183 0 196 0H237C250 0 258 4 265 15ZM618 853C614 859 610 861 605 861C600 861 596 859 591 855L467 754C462 750 459 745 459 740C459 736 461 732 464 728L470 720C474 715 479 711 485 711C488 711 492 712 496 715L630 807C636 811 638 815 638 820C638 823 637 827 633 832Z" glyph-name="Wacute" horiz-adv-x="927" unicode="&#7810;" /><glyph d="M265 15C356 165 443 349 511 537C521 349 548 173 590 17C593 5 601 0 614 0H655C668 0 676 4 682 15C768 166 884 432 949 636C952 646 952 648 952 651C952 658 948 662 939 662H892C880 662 873 656 869 644C814 459 726 242 641 75C602 248 575 463 569 644C569 657 564 662 551 662H506C493 662 487 657 483 645C425 469 323 244 227 75C199 254 184 468 183 644C183 657 178 662 165 662H122C109 662 104 657 104 644C108 431 137 179 173 17C176 5 183 0 196 0H237C250 0 258 4 265 15ZM551 780 633 721C638 717 642 715 646 715C651 715 655 718 660 723L668 732C672 736 674 741 674 745C674 749 672 754 667 758L574 841C569 846 564 848 559 848C553 848 548 846 543 843L418 760C412 756 409 751 409 746C409 742 411 737 414 732L419 724C423 718 427 715 433 715C436 715 439 716 444 719Z" glyph-name="Wcircumflex" horiz-adv-x="927" unicode="&#372;" /><glyph d="M265 15C356 165 443 349 511 537C521 349 548 173 590 17C593 5 601 0 614 0H655C668 0 676 4 682 15C768 166 884 432 949 636C952 646 952 648 952 651C952 658 948 662 939 662H892C880 662 873 656 869 644C814 459 726 242 641 75C602 248 575 463 569 644C569 657 564 662 551 662H506C493 662 487 657 483 645C425 469 323 244 227 75C199 254 184 468 183 644C183 657 178 662 165 662H122C109 662 104 657 104 644C108 431 137 179 173 17C176 5 183 0 196 0H237C250 0 258 4 265 15ZM511 787C511 812 496 832 467 832C436 832 414 808 414 777C414 752 429 732 458 732C489 732 511 756 511 787ZM681 787C681 812 666 832 637 832C606 832 584 808 584 777C584 752 599 732 628 732C659 732 681 756 681 787Z" glyph-name="Wdieresis" horiz-adv-x="927" unicode="&#7812;" /><glyph d="M265 15C356 165 443 349 511 537C521 349 548 173 590 17C593 5 601 0 614 0H655C668 0 676 4 682 15C768 166 884 432 949 636C952 646 952 648 952 651C952 658 948 662 939 662H892C880 662 873 656 869 644C814 459 726 242 641 75C602 248 575 463 569 644C569 657 564 662 551 662H506C493 662 487 657 483 645C425 469 323 244 227 75C199 254 184 468 183 644C183 657 178 662 165 662H122C109 662 104 657 104 644C108 431 137 179 173 17C176 5 183 0 196 0H237C250 0 258 4 265 15ZM431 831C427 826 426 822 426 819C426 814 428 810 434 806L567 714C571 711 575 710 578 710C584 710 589 714 593 719L600 728C603 732 605 736 605 740C605 745 602 750 597 754L475 855C470 859 466 861 461 861C456 861 452 859 448 853Z" glyph-name="Wgrave" horiz-adv-x="927" unicode="&#7808;" /><glyph d="M82 17C128 90 179 158 298 290C366 163 402 88 426 18C430 5 436 0 447 0H492C504 0 510 6 506 18C471 110 422 210 350 339C460 465 530 560 575 642C578 648 578 650 578 652C578 658 574 662 565 662H519C505 662 500 657 493 645C457 579 410 513 313 397C255 511 226 581 209 644C205 657 201 662 188 662H143C131 662 125 656 129 644C153 565 190 480 261 347C134 211 59 114 0 21C-3 16 -4 13 -4 10C-4 4 0 0 9 0H57C70 0 74 4 82 17Z" glyph-name="X" horiz-adv-x="566" unicode="X" /><glyph d="M269 18 302 232C397 343 499 498 572 640C576 647 576 651 576 653C576 659 572 662 563 662H516C503 662 497 657 491 645C433 532 352 406 272 302C227 408 190 528 165 644C162 657 157 662 144 662H100C90 662 85 657 85 649C85 646 85 643 86 638C120 495 169 350 223 235L190 18C188 6 193 0 205 0H248C261 0 267 5 269 18Z" glyph-name="Y" horiz-adv-x="528" unicode="Y" /><glyph d="M269 18 302 232C397 343 499 498 572 640C576 647 576 651 576 653C576 659 572 662 563 662H516C503 662 497 657 491 645C433 532 352 406 272 302C227 408 190 528 165 644C162 657 157 662 144 662H100C90 662 85 657 85 649C85 646 85 643 86 638C120 495 169 350 223 235L190 18C188 6 193 0 205 0H248C261 0 267 5 269 18ZM417 853C413 859 409 861 404 861C399 861 395 859 390 855L266 754C261 750 258 745 258 740C258 736 260 732 263 728L269 720C273 715 278 711 284 711C287 711 291 712 295 715L429 807C435 811 437 815 437 820C437 823 436 827 432 832Z" glyph-name="Yacute" horiz-adv-x="528" unicode="&#221;" /><glyph d="M269 18 302 232C397 343 499 498 572 640C576 647 576 651 576 653C576 659 572 662 563 662H516C503 662 497 657 491 645C433 532 352 406 272 302C227 408 190 528 165 644C162 657 157 662 144 662H100C90 662 85 657 85 649C85 646 85 643 86 638C120 495 169 350 223 235L190 18C188 6 193 0 205 0H248C261 0 267 5 269 18ZM350 780 432 721C437 717 441 715 445 715C450 715 454 718 459 723L467 732C471 736 473 741 473 745C473 749 471 754 466 758L373 841C368 846 363 848 358 848C352 848 347 846 342 843L217 760C211 756 208 751 208 746C208 742 210 737 213 732L218 724C222 718 226 715 232 715C235 715 238 716 243 719Z" glyph-name="Ycircumflex" horiz-adv-x="528" unicode="&#374;" /><glyph d="M269 18 302 232C397 343 499 498 572 640C576 647 576 651 576 653C576 659 572 662 563 662H516C503 662 497 657 491 645C433 532 352 406 272 302C227 408 190 528 165 644C162 657 157 662 144 662H100C90 662 85 657 85 649C85 646 85 643 86 638C120 495 169 350 223 235L190 18C188 6 193 0 205 0H248C261 0 267 5 269 18ZM310 787C310 812 295 832 266 832C235 832 213 808 213 777C213 752 228 732 257 732C288 732 310 756 310 787ZM480 787C480 812 465 832 436 832C405 832 383 808 383 777C383 752 398 732 427 732C458 732 480 756 480 787Z" glyph-name="Ydieresis" horiz-adv-x="528" unicode="&#376;" /><glyph d="M269 18 302 232C397 343 499 498 572 640C576 647 576 651 576 653C576 659 572 662 563 662H516C503 662 497 657 491 645C433 532 352 406 272 302C227 408 190 528 165 644C162 657 157 662 144 662H100C90 662 85 657 85 649C85 646 85 643 86 638C120 495 169 350 223 235L190 18C188 6 193 0 205 0H248C261 0 267 5 269 18ZM230 831C226 826 225 822 225 819C225 814 227 810 233 806L366 714C370 711 374 710 377 710C383 710 388 714 392 719L399 728C402 732 404 736 404 740C404 745 401 750 396 754L274 855C269 859 265 861 260 861C255 861 251 859 247 853Z" glyph-name="Ygrave" horiz-adv-x="528" unicode="&#7922;" /><glyph d="M449 18 453 49C455 61 450 67 438 67H100L502 566C518 586 524 598 527 616L530 636C531 642 531 647 531 648C531 658 526 662 516 662H140C127 662 121 657 119 644L114 613C112 601 117 595 129 595H434L32 96C16 76 10 64 7 46L4 26C3 20 3 15 3 14C3 4 8 0 18 0H428C441 0 447 5 449 18Z" glyph-name="Z" horiz-adv-x="510" unicode="Z" /><glyph d="M449 18 453 49C455 61 450 67 438 67H100L502 566C518 586 524 598 527 616L530 636C531 642 531 647 531 648C531 658 526 662 516 662H140C127 662 121 657 119 644L114 613C112 601 117 595 129 595H434L32 96C16 76 10 64 7 46L4 26C3 20 3 15 3 14C3 4 8 0 18 0H428C441 0 447 5 449 18ZM412 853C408 859 404 861 399 861C394 861 390 859 385 855L261 754C256 750 253 745 253 740C253 736 255 732 258 728L264 720C268 715 273 711 279 711C282 711 286 712 290 715L424 807C430 811 432 815 432 820C432 823 431 827 427 832Z" glyph-name="Zacute" horiz-adv-x="510" unicode="&#377;" /><glyph d="M449 18 453 49C455 61 450 67 438 67H100L502 566C518 586 524 598 527 616L530 636C531 642 531 647 531 648C531 658 526 662 516 662H140C127 662 121 657 119 644L114 613C112 601 117 595 129 595H434L32 96C16 76 10 64 7 46L4 26C3 20 3 15 3 14C3 4 8 0 18 0H428C441 0 447 5 449 18ZM339 778 257 837C252 841 248 843 244 843C239 843 235 840 230 835L222 826C218 822 216 817 216 813C216 809 218 804 223 800L316 717C321 712 326 710 331 710C337 710 342 712 347 715L472 798C478 802 481 807 481 812C481 816 479 821 476 826L471 834C467 840 463 843 457 843C454 843 451 842 446 839Z" glyph-name="Zcaron" horiz-adv-x="510" unicode="&#381;" /><glyph d="M449 18 453 49C455 61 450 67 438 67H100L502 566C518 586 524 598 527 616L530 636C531 642 531 647 531 648C531 658 526 662 516 662H140C127 662 121 657 119 644L114 613C112 601 117 595 129 595H434L32 96C16 76 10 64 7 46L4 26C3 20 3 15 3 14C3 4 8 0 18 0H428C441 0 447 5 449 18ZM391 787C391 812 376 832 347 832C316 832 294 808 294 777C294 752 309 732 338 732C369 732 391 756 391 787Z" glyph-name="Zdotaccent" horiz-adv-x="510" unicode="&#379;" /><glyph d="M331 18C329 6 334 0 346 0H383C396 0 402 5 404 18L474 462C476 474 471 480 459 480H419C406 480 400 475 398 462L394 437C366 472 327 490 275 490C134 490 36 339 36 176C36 66 82 -10 183 -10C249 -10 301 22 343 92ZM113 175C113 312 181 426 284 426C326 426 359 410 385 378L368 270C346 130 276 51 201 51C141 51 113 100 113 175Z" glyph-name="a" horiz-adv-x="516" unicode="a" /><glyph d="M331 18C329 6 334 0 346 0H383C396 0 402 5 404 18L474 462C476 474 471 480 459 480H419C406 480 400 475 398 462L394 437C366 472 327 490 275 490C134 490 36 339 36 176C36 66 82 -10 183 -10C249 -10 301 22 343 92ZM113 175C113 312 181 426 284 426C326 426 359 410 385 378L368 270C346 130 276 51 201 51C141 51 113 100 113 175ZM379 688C375 694 371 696 366 696C361 696 357 694 352 690L228 589C223 585 220 580 220 575C220 571 222 567 225 563L231 555C235 550 240 546 246 546C249 546 253 547 257 550L391 642C397 646 399 650 399 655C399 658 398 662 394 667Z" glyph-name="aacute" horiz-adv-x="516" unicode="&#225;" /><glyph d="M331 18C329 6 334 0 346 0H383C396 0 402 5 404 18L474 462C476 474 471 480 459 480H419C406 480 400 475 398 462L394 437C366 472 327 490 275 490C134 490 36 339 36 176C36 66 82 -10 183 -10C249 -10 301 22 343 92ZM113 175C113 312 181 426 284 426C326 426 359 410 385 378L368 270C346 130 276 51 201 51C141 51 113 100 113 175ZM233 656C230 664 227 668 221 668C218 668 214 667 209 665L196 660C187 656 185 652 185 645C185 641 187 632 189 627C204 585 242 548 305 548C365 548 414 582 438 625C442 632 447 641 447 648C447 654 443 658 435 661L422 666C417 668 414 669 411 669C404 669 400 664 396 657C376 624 347 605 307 605C268 605 245 623 233 656Z" glyph-name="abreve" horiz-adv-x="516" unicode="&#259;" /><glyph d="M331 18C329 6 334 0 346 0H383C396 0 402 5 404 18L474 462C476 474 471 480 459 480H419C406 480 400 475 398 462L394 437C366 472 327 490 275 490C134 490 36 339 36 176C36 66 82 -10 183 -10C249 -10 301 22 343 92ZM113 175C113 312 181 426 284 426C326 426 359 410 385 378L368 270C346 130 276 51 201 51C141 51 113 100 113 175ZM312 615 394 556C399 552 403 550 407 550C412 550 416 553 421 558L429 567C433 571 435 576 435 580C435 584 433 589 428 593L335 676C330 681 325 683 320 683C314 683 309 681 304 678L179 595C173 591 170 586 170 581C170 577 172 572 175 567L180 559C184 553 188 550 194 550C197 550 200 551 205 554Z" glyph-name="acircumflex" horiz-adv-x="516" unicode="&#226;" /><glyph d="M270 688C266 694 262 696 257 696C252 696 248 694 243 690L119 589C114 585 111 580 111 575C111 571 113 567 116 563L122 555C126 550 131 546 137 546C140 546 144 547 148 550L282 642C288 646 290 650 290 655C290 658 289 662 285 667Z" glyph-name="acute" horiz-adv-x="291" unicode="&#180;" /><glyph d="M301 853C297 859 293 861 288 861C283 861 279 859 274 855L150 754C145 750 142 745 142 740C142 736 144 732 147 728L153 720C157 715 162 711 168 711C171 711 175 712 179 715L313 807C319 811 321 815 321 820C321 823 320 827 316 832Z" glyph-name="acute.case" horiz-adv-x="291" /><glyph d="M331 18C329 6 334 0 346 0H383C396 0 402 5 404 18L474 462C476 474 471 480 459 480H419C406 480 400 475 398 462L394 437C366 472 327 490 275 490C134 490 36 339 36 176C36 66 82 -10 183 -10C249 -10 301 22 343 92ZM113 175C113 312 181 426 284 426C326 426 359 410 385 378L368 270C346 130 276 51 201 51C141 51 113 100 113 175ZM273 622C273 647 258 667 229 667C198 667 176 643 176 612C176 587 191 567 220 567C251 567 273 591 273 622ZM443 622C443 647 428 667 399 667C368 667 346 643 346 612C346 587 361 567 390 567C421 567 443 591 443 622Z" glyph-name="adieresis" horiz-adv-x="516" unicode="&#228;" /><glyph d="M679 35C690 42 691 50 685 61L672 83C665 94 658 95 648 88C614 65 570 53 528 53C440 53 409 108 409 199V213H462C663 213 733 263 733 360C733 439 674 490 579 490C499 490 440 449 403 389C385 457 331 490 257 490C200 490 130 471 84 435C74 427 73 419 79 409L93 388C100 377 107 376 117 384C156 414 205 428 249 428C320 428 348 390 348 328C348 311 346 291 342 267H289C79 267 15 214 15 119C15 42 74 -10 166 -10C248 -10 318 33 360 108C380 37 429 -10 524 -10C579 -10 633 5 679 35ZM577 431C628 431 663 406 663 358C663 304 620 267 449 267H416C438 371 502 431 577 431ZM171 49C120 49 85 74 85 122C85 176 128 213 299 213H334C313 110 251 49 171 49Z" glyph-name="ae" horiz-adv-x="756" unicode="&#230;" /><glyph d="M331 18C329 6 334 0 346 0H383C396 0 402 5 404 18L474 462C476 474 471 480 459 480H419C406 480 400 475 398 462L394 437C366 472 327 490 275 490C134 490 36 339 36 176C36 66 82 -10 183 -10C249 -10 301 22 343 92ZM113 175C113 312 181 426 284 426C326 426 359 410 385 378L368 270C346 130 276 51 201 51C141 51 113 100 113 175ZM192 666C188 661 187 657 187 654C187 649 189 645 195 641L328 549C332 546 336 545 339 545C345 545 350 549 354 554L361 563C364 567 366 571 366 575C366 580 363 585 358 589L236 690C231 694 227 696 222 696C217 696 213 694 209 688Z" glyph-name="agrave" horiz-adv-x="516" unicode="&#224;" /><glyph d="M331 18C329 6 334 0 346 0H383C396 0 402 5 404 18L474 462C476 474 471 480 459 480H419C406 480 400 475 398 462L394 437C366 472 327 490 275 490C134 490 36 339 36 176C36 66 82 -10 183 -10C249 -10 301 22 343 92ZM113 175C113 312 181 426 284 426C326 426 359 410 385 378L368 270C346 130 276 51 201 51C141 51 113 100 113 175ZM407 631H216C203 631 197 627 195 613L194 604C193 595 193 594 193 592C193 581 198 577 209 577H400C413 577 419 581 421 595L422 604C423 613 423 614 423 616C423 627 418 631 407 631Z" glyph-name="amacron" horiz-adv-x="516" unicode="&#257;" /><glyph d="M552 2C561 -6 569 -6 577 3L601 29C609 38 609 46 600 54L508 142C549 201 579 276 591 360C593 372 588 378 576 378H541C528 378 522 373 520 360C511 296 490 237 459 189L294 346C240 397 206 437 206 488C206 553 259 607 348 607C397 607 437 591 466 568C477 560 485 560 493 569L515 595C523 605 521 613 512 621C481 647 424 672 349 672C210 672 128 587 128 487C128 442 146 401 183 359C87 316 31 244 31 159C31 67 98 -10 231 -10C320 -10 400 26 463 88ZM109 165C109 225 148 281 223 319L416 133C367 83 306 53 241 53C157 53 109 99 109 165Z" glyph-name="ampersand" horiz-adv-x="645" unicode="&amp;" /><glyph d="M249 -124C249 -163 278 -187 326 -187C353 -187 379 -179 400 -167C409 -161 411 -152 406 -142L404 -138C398 -126 391 -125 379 -131C367 -137 354 -139 343 -139C322 -139 306 -130 306 -105C306 -70 335 -41 372 0H383C396 0 402 5 404 18L474 462C476 474 471 480 459 480H419C406 480 400 475 398 462L394 437C366 472 327 490 275 490C134 490 36 339 36 176C36 66 82 -10 183 -10C249 -10 301 22 343 91L328 0C289 -33 249 -78 249 -124ZM113 175C113 312 181 426 284 426C326 426 359 410 385 378L368 270C346 130 276 51 201 51C141 51 113 100 113 175Z" glyph-name="aogonek" horiz-adv-x="516" unicode="&#261;" /><glyph d="M381 411C322 411 298 494 209 494C166 494 123 466 78 403C74 398 73 394 73 391C73 385 76 381 82 377L98 366C103 363 108 362 111 362C116 362 120 364 125 371C156 413 180 432 208 432C267 432 291 349 380 349C423 349 466 377 511 440C515 445 516 449 516 452C516 458 513 462 507 466L491 477C486 480 481 481 478 481C473 481 469 479 464 472C433 430 409 411 381 411ZM353 231C294 231 270 314 181 314C138 314 95 286 50 223C46 218 45 214 45 211C45 205 48 201 54 197L70 186C75 183 80 182 83 182C88 182 92 184 97 191C128 233 152 252 180 252C239 252 263 169 352 169C395 169 438 197 483 260C487 265 488 269 488 272C488 278 485 282 479 286L463 297C458 300 453 301 450 301C445 301 441 299 436 292C405 250 381 231 353 231Z" glyph-name="approxequal" horiz-adv-x="532" unicode="&#8776;" /><glyph d="M331 18C329 6 334 0 346 0H383C396 0 402 5 404 18L474 462C476 474 471 480 459 480H419C406 480 400 475 398 462L394 437C366 472 327 490 275 490C134 490 36 339 36 176C36 66 82 -10 183 -10C249 -10 301 22 343 92ZM113 175C113 312 181 426 284 426C326 426 359 410 385 378L368 270C346 130 276 51 201 51C141 51 113 100 113 175ZM419 654C419 710 381 746 324 746C257 746 208 695 208 632C208 576 246 540 303 540C370 540 419 591 419 654ZM254 633C254 674 282 706 322 706C351 706 373 688 373 653C373 612 345 580 305 580C276 580 254 598 254 633Z" glyph-name="aring" horiz-adv-x="516" unicode="&#229;" /><glyph d="M478 365C485 369 488 373 488 378C488 381 487 386 483 393L345 646C338 658 331 662 318 662H298C285 662 277 658 268 648L48 394C44 389 42 385 42 381C42 377 45 372 50 368L64 355C74 347 82 347 90 357L302 601L434 362C440 351 448 349 459 355Z" glyph-name="asciicircum" horiz-adv-x="490" unicode="^" /><glyph d="M367 321C308 321 284 404 195 404C152 404 109 376 64 313C60 308 59 304 59 301C59 295 62 291 68 287L84 276C89 273 94 272 97 272C102 272 106 274 111 281C142 323 166 342 194 342C253 342 277 259 366 259C409 259 452 287 497 350C501 355 502 359 502 362C502 368 499 372 493 376L477 387C472 390 467 391 464 391C459 391 455 389 450 382C419 340 395 321 367 321Z" glyph-name="asciitilde" horiz-adv-x="532" unicode="~" /><glyph d="M349 393C360 399 361 408 354 418L288 523L416 564C426 567 431 573 431 581C431 583 431 586 429 592L424 609C421 620 413 623 401 619L278 573L301 700C303 712 298 718 286 718H256C243 718 237 713 236 700L225 573L112 620C100 625 93 622 87 611L76 588C74 584 73 581 73 578C73 572 77 569 85 566L201 525L105 419C97 410 98 403 108 396L129 380C139 372 147 374 155 384L242 493L302 386C308 375 315 374 326 380Z" glyph-name="asterisk" horiz-adv-x="396" unicode="*" /><glyph d="M562 -110C573 -104 575 -97 570 -85L566 -76C561 -65 554 -62 542 -68C501 -89 441 -107 381 -107C218 -107 110 -1 110 191C110 437 291 599 492 599C661 599 775 495 775 323C775 189 711 105 643 105C610 105 590 126 590 163C590 173 591 184 593 198L627 413C629 425 624 431 612 431H576C563 431 558 426 556 413L552 389C529 420 495 438 453 438C356 438 269 343 269 208C269 113 321 57 396 57C447 57 492 84 522 134C529 87 569 57 629 57C742 57 827 161 827 326C827 520 693 646 495 646C256 646 54 461 54 188C54 -22 188 -154 378 -154C449 -154 512 -136 562 -110ZM341 207C341 308 399 382 459 382C493 382 520 367 544 334L532 261C517 166 469 114 414 114C370 114 341 148 341 207Z" glyph-name="at" horiz-adv-x="870" unicode="@" /><glyph d="M331 18C329 6 334 0 346 0H383C396 0 402 5 404 18L474 462C476 474 471 480 459 480H419C406 480 400 475 398 462L394 437C366 472 327 490 275 490C134 490 36 339 36 176C36 66 82 -10 183 -10C249 -10 301 22 343 92ZM113 175C113 312 181 426 284 426C326 426 359 410 385 378L368 270C346 130 276 51 201 51C141 51 113 100 113 175ZM364 623C331 623 303 657 259 657C222 657 190 633 171 608C168 604 166 599 166 595C166 591 168 587 173 582L177 578C182 573 186 571 190 571C195 571 199 573 204 577C217 589 235 599 253 599C286 599 314 565 358 565C395 565 427 589 446 614C449 618 451 623 451 627C451 631 449 635 444 640L440 644C435 649 431 651 427 651C422 651 418 649 413 645C400 633 382 623 364 623Z" glyph-name="atilde" horiz-adv-x="516" unicode="&#227;" /><glyph d="M485 304C485 414 438 490 336 490C271 490 219 459 177 392L226 700C228 712 223 718 211 718H171C158 718 152 713 150 700L42 18C40 6 45 0 57 0H97C110 0 116 5 118 18L122 43C150 8 190 -10 243 -10C386 -10 485 141 485 304ZM148 210C170 350 242 429 318 429C379 429 408 380 408 305C408 168 339 54 234 54C192 54 157 70 131 102Z" glyph-name="b" horiz-adv-x="521" unicode="b" /><glyph d="M288 -65 149 734C147 747 141 752 129 752H106C95 752 90 747 90 738C90 736 90 733 91 727L230 -72C232 -85 238 -90 250 -90H273C284 -90 289 -85 289 -76C289 -74 289 -71 288 -65Z" glyph-name="backslash" horiz-adv-x="350" unicode="\" /><glyph d="M67 -66C66 -72 66 -74 66 -76C66 -86 71 -90 81 -90H105C118 -90 124 -85 126 -72L254 728C255 734 255 736 255 738C255 748 250 752 240 752H216C203 752 197 747 195 734Z" glyph-name="bar" horiz-adv-x="292" unicode="|" /><glyph d="M25 -234H55V953H25Z" glyph-name="bbox" horiz-adv-x="80" /><glyph d="M245 -79C246 -70 246 -69 246 -67C246 -56 241 -52 230 -52C166 -52 149 -17 149 19C149 33 151 57 154 75L164 139C169 170 172 194 172 219C172 261 160 292 132 317C183 351 204 397 220 493L237 598C250 678 284 694 348 694C362 694 368 699 370 713C371 722 371 723 371 725C371 736 366 740 355 740H338C246 740 189 715 170 595L153 488C138 393 112 347 63 344C50 343 44 339 42 325C41 316 41 315 41 313C41 302 46 299 56 298C92 294 106 274 106 223C106 204 104 180 100 154L90 84C86 58 84 36 84 19C84 -54 130 -98 219 -98H224C237 -98 243 -93 245 -79Z" glyph-name="braceleft" horiz-adv-x="321" unicode="{" /><glyph d="M177 47 194 154C209 249 235 295 284 298C297 299 303 303 305 317C306 326 306 327 306 329C306 340 301 343 291 344C255 348 241 368 241 419C241 438 243 462 247 488L257 558C261 584 263 606 263 623C263 696 217 740 128 740H123C110 740 104 735 102 721C101 712 101 711 101 709C101 698 106 694 117 694C181 694 198 659 198 623C198 609 196 585 193 567L183 503C178 472 175 448 175 423C175 381 187 350 215 325C164 291 143 245 127 149L110 44C97 -36 63 -52 -1 -52C-15 -52 -21 -57 -23 -71C-24 -80 -24 -81 -24 -83C-24 -94 -19 -98 -8 -98H9C101 -98 158 -73 177 47Z" glyph-name="braceright" horiz-adv-x="321" unicode="}" /><glyph d="M199 -98C212 -98 217 -93 220 -80L221 -75C222 -69 222 -67 222 -65C222 -57 217 -52 207 -52H103L221 694H325C338 694 343 699 346 712L347 717C348 722 348 725 348 727C348 735 343 740 333 740H180C167 740 161 735 159 722L33 -74C32 -80 32 -84 32 -85C32 -94 37 -98 47 -98Z" glyph-name="bracketleft" horiz-adv-x="296" unicode="[" /><glyph d="M123 740C110 740 105 735 102 722L101 717C100 711 100 709 100 707C100 699 105 694 115 694H219L101 -52H-3C-16 -52 -21 -57 -24 -70L-25 -75C-26 -80 -26 -83 -26 -85C-26 -93 -21 -98 -11 -98H142C155 -98 161 -93 163 -80L289 716C290 722 290 726 290 727C290 736 285 740 275 740Z" glyph-name="bracketright" horiz-adv-x="296" unicode="]" /><glyph d="M154 656C151 664 148 668 142 668C139 668 135 667 130 665L117 660C108 656 106 652 106 645C106 641 108 632 110 627C125 585 163 548 226 548C286 548 335 582 359 625C363 632 368 641 368 648C368 654 364 658 356 661L343 666C338 668 335 669 332 669C325 669 321 664 317 657C297 624 268 605 228 605C189 605 166 623 154 656Z" glyph-name="breve" horiz-adv-x="367" unicode="&#728;" /><glyph d="M185 821C182 829 179 833 173 833C170 833 166 832 161 830L148 825C139 821 137 817 137 810C137 806 139 797 141 792C156 750 194 713 257 713C317 713 366 747 390 790C394 797 399 806 399 813C399 819 395 823 387 826L374 831C369 833 366 834 363 834C356 834 352 829 348 822C328 789 299 770 259 770C220 770 197 788 185 821Z" glyph-name="breve.case" horiz-adv-x="367" /><glyph d="M151 461C150 455 150 453 150 451C150 441 155 437 165 437H189C202 437 208 442 210 455L254 728C255 734 255 736 255 738C255 748 250 752 240 752H216C203 752 197 747 195 734ZM67 -66C66 -72 66 -74 66 -76C66 -86 71 -90 81 -90H105C118 -90 124 -85 126 -72L170 201C171 207 171 209 171 211C171 221 166 225 156 225H132C119 225 113 220 111 207Z" glyph-name="brokenbar" horiz-adv-x="308" unicode="&#166;" /><glyph d="M285 288C285 349 236 397 175 397C115 397 66 349 66 288C66 227 115 179 175 179C236 179 285 227 285 288Z" glyph-name="bullet" horiz-adv-x="335" unicode="&#8226;" /><glyph d="M367 37C377 44 378 52 372 63L359 85C352 96 345 98 334 90C299 67 262 54 225 54C148 54 114 112 114 195C114 303 172 426 291 426C328 426 359 415 384 395C395 386 401 387 410 397L431 422C439 431 436 439 428 447C399 473 350 490 297 490C119 490 37 332 37 193C37 78 93 -10 216 -10C268 -10 324 5 367 37Z" glyph-name="c" horiz-adv-x="438" unicode="c" /><glyph d="M367 37C377 44 378 52 372 63L359 85C352 96 345 98 334 90C299 67 262 54 225 54C148 54 114 112 114 195C114 303 172 426 291 426C328 426 359 415 384 395C395 386 401 387 410 397L431 422C439 431 436 439 428 447C399 473 350 490 297 490C119 490 37 332 37 193C37 78 93 -10 216 -10C268 -10 324 5 367 37ZM389 688C385 694 381 696 376 696C371 696 367 694 362 690L238 589C233 585 230 580 230 575C230 571 232 567 235 563L241 555C245 550 250 546 256 546C259 546 263 547 267 550L401 642C407 646 409 650 409 655C409 658 408 662 404 667Z" glyph-name="cacute" horiz-adv-x="438" unicode="&#263;" /><glyph d="M234 619 152 678C147 682 143 684 139 684C134 684 130 681 125 676L117 667C113 663 111 658 111 654C111 650 113 645 118 641L211 558C216 553 221 551 226 551C232 551 237 553 242 556L367 639C373 643 376 648 376 653C376 657 374 662 371 667L366 675C362 681 358 684 352 684C349 684 346 683 341 680Z" glyph-name="caron" horiz-adv-x="377" unicode="&#711;" /><glyph d="M265 778 183 837C178 841 174 843 170 843C165 843 161 840 156 835L148 826C144 822 142 817 142 813C142 809 144 804 149 800L242 717C247 712 252 710 257 710C263 710 268 712 273 715L398 798C404 802 407 807 407 812C407 816 405 821 402 826L397 834C393 840 389 843 383 843C380 843 377 842 372 839Z" glyph-name="caron.case" horiz-adv-x="377" /><glyph d="M367 37C377 44 378 52 372 63L359 85C352 96 345 98 334 90C299 67 262 54 225 54C148 54 114 112 114 195C114 303 172 426 291 426C328 426 359 415 384 395C395 386 401 387 410 397L431 422C439 431 436 439 428 447C399 473 350 490 297 490C119 490 37 332 37 193C37 78 93 -10 216 -10C268 -10 324 5 367 37ZM317 619 235 678C230 682 226 684 222 684C217 684 213 681 208 676L200 667C196 663 194 658 194 654C194 650 196 645 201 641L294 558C299 553 304 551 309 551C315 551 320 553 325 556L450 639C456 643 459 648 459 653C459 657 457 662 454 667L449 675C445 681 441 684 435 684C432 684 429 683 424 680Z" glyph-name="ccaron" horiz-adv-x="438" unicode="&#269;" /><glyph d="M284 -107C284 -72 262 -49 225 -49C219 -49 213 -50 207 -51L235 -9C281 -6 329 9 367 37C377 44 378 52 372 63L359 85C352 96 345 98 334 90C299 67 262 54 225 54C148 54 114 112 114 195C114 303 172 426 291 426C328 426 359 415 384 395C395 386 401 387 410 397L431 422C439 431 436 439 428 447C399 473 350 490 297 490C119 490 37 332 37 193C37 86 85 2 191 -9L154 -65C150 -71 150 -75 155 -80L156 -81C161 -87 164 -87 173 -86C180 -85 189 -84 197 -84C226 -84 235 -95 235 -110C235 -131 216 -145 185 -145C171 -145 158 -142 148 -136C137 -130 129 -130 122 -141L119 -146C113 -156 114 -164 123 -170C139 -181 164 -187 188 -187C249 -187 284 -152 284 -107Z" glyph-name="ccedilla" horiz-adv-x="438" unicode="&#231;" /><glyph d="M367 37C377 44 378 52 372 63L359 85C352 96 345 98 334 90C299 67 262 54 225 54C148 54 114 112 114 195C114 303 172 426 291 426C328 426 359 415 384 395C395 386 401 387 410 397L431 422C439 431 436 439 428 447C399 473 350 490 297 490C119 490 37 332 37 193C37 78 93 -10 216 -10C268 -10 324 5 367 37ZM322 615 404 556C409 552 413 550 417 550C422 550 426 553 431 558L439 567C443 571 445 576 445 580C445 584 443 589 438 593L345 676C340 681 335 683 330 683C324 683 319 681 314 678L189 595C183 591 180 586 180 581C180 577 182 572 185 567L190 559C194 553 198 550 204 550C207 550 210 551 215 554Z" glyph-name="ccircumflex" horiz-adv-x="438" unicode="&#265;" /><glyph d="M367 37C377 44 378 52 372 63L359 85C352 96 345 98 334 90C299 67 262 54 225 54C148 54 114 112 114 195C114 303 172 426 291 426C328 426 359 415 384 395C395 386 401 387 410 397L431 422C439 431 436 439 428 447C399 473 350 490 297 490C119 490 37 332 37 193C37 78 93 -10 216 -10C268 -10 324 5 367 37ZM368 622C368 647 353 667 324 667C293 667 271 643 271 612C271 587 286 567 315 567C346 567 368 591 368 622Z" glyph-name="cdotaccent" horiz-adv-x="438" unicode="&#267;" /><glyph d="M169 -107C169 -72 147 -49 110 -49C104 -49 98 -50 92 -51L126 0H82L39 -65C35 -71 35 -75 40 -80L41 -81C46 -87 49 -87 58 -86C65 -85 74 -84 82 -84C111 -84 120 -95 120 -110C120 -131 101 -145 70 -145C56 -145 43 -142 33 -136C22 -130 14 -130 7 -141L4 -146C-2 -156 -1 -164 8 -170C24 -181 49 -187 73 -187C134 -187 169 -152 169 -107Z" glyph-name="cedilla" horiz-adv-x="274" unicode="&#184;" /><glyph d="M286 -2 300 80C353 83 406 99 449 127C459 134 460 141 454 152L441 175C435 186 428 187 416 180C384 162 347 149 311 145L373 515C408 513 441 502 466 484C477 476 484 476 492 486L513 512C520 521 519 529 510 536C480 559 433 575 383 578L397 661C399 673 394 679 382 679H362C349 679 343 674 341 661L327 577C161 556 84 411 84 282C84 178 135 98 244 83L230 -2C228 -14 233 -20 245 -20H265C278 -20 284 -15 286 -2ZM161 284C161 379 212 486 316 510L255 147C190 161 161 213 161 284Z" glyph-name="cent" horiz-adv-x="532" unicode="&#162;" /><glyph d="M253 615 335 556C340 552 344 550 348 550C353 550 357 553 362 558L370 567C374 571 376 576 376 580C376 584 374 589 369 593L276 676C271 681 266 683 261 683C255 683 250 681 245 678L120 595C114 591 111 586 111 581C111 577 113 572 116 567L121 559C125 553 129 550 135 550C138 550 141 551 146 554Z" glyph-name="circumflex" horiz-adv-x="377" unicode="&#710;" /><glyph d="M284 780 366 721C371 717 375 715 379 715C384 715 388 718 393 723L401 732C405 736 407 741 407 745C407 749 405 754 400 758L307 841C302 846 297 848 292 848C286 848 281 846 276 843L151 760C145 756 142 751 142 746C142 742 144 737 147 732L152 724C156 718 160 715 166 715C169 715 172 716 177 719Z" glyph-name="circumflex.case" horiz-adv-x="377" /><glyph d="M193 435C193 465 175 487 142 487C105 487 79 458 79 421C79 391 97 369 130 369C167 369 193 398 193 435ZM133 58C133 88 115 110 82 110C45 110 19 81 19 44C19 14 37 -8 70 -8C107 -8 133 21 133 58Z" glyph-name="colon" horiz-adv-x="212" unicode=":" /><glyph d="M127 57C127 91 106 110 76 110C38 110 13 80 13 47C13 16 35 0 35 -29C35 -49 25 -73 -4 -111C-7 -115 -9 -119 -9 -122C-9 -127 -6 -131 0 -135L3 -137C8 -140 12 -141 16 -141C20 -141 24 -140 29 -135C89 -72 127 12 127 57Z" glyph-name="comma" horiz-adv-x="200" unicode="," /><glyph d="M753 376C753 566 621 672 448 672C223 672 66 499 66 286C66 96 198 -10 371 -10C596 -10 753 163 753 376ZM122 287C122 470 257 622 446 622C586 622 697 536 697 375C697 192 562 40 373 40C233 40 122 126 122 287ZM503 178C513 185 516 193 509 203L497 220C490 230 483 231 474 225C447 208 423 198 398 198C345 198 317 237 317 302C317 387 362 466 450 466C474 466 497 457 516 445C527 438 534 439 541 448L554 466C561 476 560 483 551 490C524 510 487 522 448 522C314 522 249 412 249 300C249 204 302 142 394 142C433 142 474 157 503 178Z" glyph-name="copyright" horiz-adv-x="792" unicode="&#169;" /><glyph d="M447 92 471 112C481 121 481 128 473 138L420 200C459 240 482 296 482 356C482 390 473 421 458 447L534 512C543 520 544 528 536 538L517 560C509 569 502 570 492 562L414 495C384 517 346 529 304 529C264 529 227 520 196 503L140 568C131 578 124 578 114 570L90 550C80 541 80 534 88 524L141 462C102 422 79 366 79 306C79 272 88 241 103 215L27 150C18 142 17 134 25 124L44 102C52 93 59 92 69 100L147 167C177 145 215 133 257 133C297 133 334 142 365 159L421 94C430 84 437 84 447 92ZM301 467C366 467 410 424 410 358C410 264 344 195 260 195C195 195 151 238 151 304C151 398 217 467 301 467Z" glyph-name="currency" horiz-adv-x="532" unicode="&#164;" /><glyph d="M336 18C334 6 339 0 351 0H388C401 0 407 5 409 18L517 700C519 712 514 718 502 718H462C449 718 443 713 441 700L399 437C371 472 331 490 278 490C135 490 36 339 36 176C36 66 83 -10 185 -10C252 -10 305 23 348 94ZM113 175C113 312 182 426 287 426C329 426 364 410 390 378L373 270C351 130 279 51 203 51C142 51 113 100 113 175Z" glyph-name="d" horiz-adv-x="521" unicode="d" /><glyph d="M325 687C327 699 327 703 327 704C327 713 322 718 312 718H290C277 718 271 713 269 700L249 577H125C112 577 106 573 104 560L102 549C101 543 101 541 101 539C101 530 106 525 117 525H241L196 243C194 231 194 227 194 226C194 217 199 212 209 212H231C244 212 250 217 252 230L299 525H423C436 525 442 529 444 542L446 553C447 559 447 561 447 563C447 572 442 577 431 577H307Z" glyph-name="dagger" horiz-adv-x="450" unicode="&#8224;" /><glyph d="M241 525 217 380H93C80 380 74 376 72 363L70 352C69 346 69 344 69 342C69 333 74 328 85 328H209L182 161C180 149 180 145 180 144C180 135 185 130 195 130H217C230 130 236 135 238 148L267 328H391C404 328 410 332 412 345L414 356C415 362 415 364 415 366C415 375 410 380 399 380H275L299 525H423C436 525 442 529 444 542L446 553C447 559 447 561 447 563C447 572 442 577 431 577H307L325 687C327 699 327 703 327 704C327 713 322 718 312 718H290C277 718 271 713 269 700L249 577H125C112 577 106 573 104 560L102 549C101 543 101 541 101 539C101 530 106 525 117 525Z" glyph-name="daggerdbl" horiz-adv-x="450" unicode="&#8225;" /><glyph d="M336 18C334 6 339 0 351 0H388C401 0 407 5 409 18L517 700C519 712 514 718 502 718H462C449 718 443 713 441 700L399 437C371 472 331 490 278 490C135 490 36 339 36 176C36 66 83 -10 185 -10C252 -10 305 23 348 94ZM113 175C113 312 182 426 287 426C329 426 364 410 390 378L373 270C351 130 279 51 203 51C142 51 113 100 113 175ZM578 545C585 545 589 548 593 556L659 684C662 690 663 694 663 697C663 703 659 707 651 710L620 720C617 721 611 722 608 722C601 722 596 717 594 708L559 571C558 568 557 562 557 560C557 549 571 545 578 545Z" glyph-name="dcaron" horiz-adv-x="521" unicode="&#271;" /><glyph d="M348 94 336 18C334 6 339 0 351 0H388C401 0 407 5 409 18L495 563H545C558 563 564 568 566 581L568 596C570 608 565 614 553 614H503L517 700C519 712 514 718 502 718H462C449 718 443 713 441 700L427 614H320C307 614 301 609 299 596L297 581C295 569 300 563 312 563H419L399 437C371 472 331 490 278 490C135 490 36 339 36 176C36 66 83 -10 185 -10C252 -10 305 23 348 94ZM113 175C113 312 182 426 287 426C329 426 364 410 390 378L373 270C351 130 279 51 203 51C142 51 113 100 113 175Z" glyph-name="dcroat" horiz-adv-x="521" unicode="&#273;" /><glyph d="M386 533C386 614 332 672 249 672C149 672 82 593 82 501C82 420 136 362 219 362C319 362 386 441 386 533ZM141 503C141 568 185 619 247 619C296 619 327 584 327 531C327 466 283 415 221 415C172 415 141 450 141 503Z" glyph-name="degree" horiz-adv-x="380" unicode="&#176;" /><glyph d="M202 622C202 647 187 667 158 667C127 667 105 643 105 612C105 587 120 567 149 567C180 567 202 591 202 622ZM372 622C372 647 357 667 328 667C297 667 275 643 275 612C275 587 290 567 319 567C350 567 372 591 372 622Z" glyph-name="dieresis" horiz-adv-x="367" unicode="&#168;" /><glyph d="M233 787C233 812 218 832 189 832C158 832 136 808 136 777C136 752 151 732 180 732C211 732 233 756 233 787ZM403 787C403 812 388 832 359 832C328 832 306 808 306 777C306 752 321 732 350 732C381 732 403 756 403 787Z" glyph-name="dieresis.case" horiz-adv-x="367" /><glyph d="M367 527C367 557 349 579 316 579C279 579 253 550 253 513C253 483 271 461 304 461C341 461 367 490 367 527ZM476 302C489 302 495 307 497 320L501 342C503 354 498 360 486 360H86C73 360 67 355 65 342L61 320C59 308 64 302 76 302ZM309 149C309 179 291 201 258 201C221 201 195 172 195 135C195 105 213 83 246 83C283 83 309 112 309 149Z" glyph-name="divide" horiz-adv-x="532" unicode="&#247;" /><glyph d="M242 -61 254 10C377 10 475 91 475 196C475 273 434 321 315 363L354 585C398 580 438 567 469 546C479 539 487 541 493 549L513 578C519 587 520 596 510 603C472 628 423 645 365 650L375 708C377 720 372 726 360 726H340C327 726 321 721 319 708L309 652C183 646 94 568 94 470C94 395 134 348 250 306L210 78C156 85 111 106 74 136C64 145 56 144 48 135L24 106C17 97 17 90 25 83C68 46 129 21 199 13L186 -61C184 -73 189 -79 201 -79H221C234 -79 240 -74 242 -61ZM172 473C172 530 224 576 298 584L262 380C192 408 172 433 172 473ZM397 193C397 131 338 83 266 77L303 289C376 260 397 235 397 193Z" glyph-name="dollar" horiz-adv-x="532" unicode="$" /><glyph d="M202 622C202 647 187 667 158 667C127 667 105 643 105 612C105 587 120 567 149 567C180 567 202 591 202 622Z" glyph-name="dotaccent" horiz-adv-x="197" unicode="&#729;" /><glyph d="M233 787C233 812 218 832 189 832C158 832 136 808 136 777C136 752 151 732 180 732C211 732 233 756 233 787Z" glyph-name="dotaccent.case" horiz-adv-x="197" /><glyph d="M97 0C110 0 116 5 118 18L188 462C190 474 185 480 173 480H133C120 480 114 475 112 462L42 18C40 6 45 0 57 0Z" glyph-name="dotlessi" horiz-adv-x="230" unicode="&#305;" /><glyph d="M382 35C393 42 394 50 388 61L375 83C368 94 361 95 351 88C317 65 273 53 231 53C143 53 112 108 112 199V202H147C363 202 436 261 436 355C436 437 377 490 282 490C120 490 37 336 37 193C37 77 92 -10 227 -10C282 -10 336 5 382 35ZM280 431C331 431 366 405 366 354C366 298 323 257 152 257H117C137 367 203 431 280 431Z" glyph-name="e" horiz-adv-x="459" unicode="e" /><glyph d="M382 35C393 42 394 50 388 61L375 83C368 94 361 95 351 88C317 65 273 53 231 53C143 53 112 108 112 199V202H147C363 202 436 261 436 355C436 437 377 490 282 490C120 490 37 336 37 193C37 77 92 -10 227 -10C282 -10 336 5 382 35ZM280 431C331 431 366 405 366 354C366 298 323 257 152 257H117C137 367 203 431 280 431ZM373 688C369 694 365 696 360 696C355 696 351 694 346 690L222 589C217 585 214 580 214 575C214 571 216 567 219 563L225 555C229 550 234 546 240 546C243 546 247 547 251 550L385 642C391 646 393 650 393 655C393 658 392 662 388 667Z" glyph-name="eacute" horiz-adv-x="459" unicode="&#233;" /><glyph d="M382 35C393 42 394 50 388 61L375 83C368 94 361 95 351 88C317 65 273 53 231 53C143 53 112 108 112 199V202H147C363 202 436 261 436 355C436 437 377 490 282 490C120 490 37 336 37 193C37 77 92 -10 227 -10C282 -10 336 5 382 35ZM280 431C331 431 366 405 366 354C366 298 323 257 152 257H117C137 367 203 431 280 431ZM227 656C224 664 221 668 215 668C212 668 208 667 203 665L190 660C181 656 179 652 179 645C179 641 181 632 183 627C198 585 236 548 299 548C359 548 408 582 432 625C436 632 441 641 441 648C441 654 437 658 429 661L416 666C411 668 408 669 405 669C398 669 394 664 390 657C370 624 341 605 301 605C262 605 239 623 227 656Z" glyph-name="ebreve" horiz-adv-x="459" unicode="&#277;" /><glyph d="M382 35C393 42 394 50 388 61L375 83C368 94 361 95 351 88C317 65 273 53 231 53C143 53 112 108 112 199V202H147C363 202 436 261 436 355C436 437 377 490 282 490C120 490 37 336 37 193C37 77 92 -10 227 -10C282 -10 336 5 382 35ZM280 431C331 431 366 405 366 354C366 298 323 257 152 257H117C137 367 203 431 280 431ZM301 619 219 678C214 682 210 684 206 684C201 684 197 681 192 676L184 667C180 663 178 658 178 654C178 650 180 645 185 641L278 558C283 553 288 551 293 551C299 551 304 553 309 556L434 639C440 643 443 648 443 653C443 657 441 662 438 667L433 675C429 681 425 684 419 684C416 684 413 683 408 680Z" glyph-name="ecaron" horiz-adv-x="459" unicode="&#283;" /><glyph d="M382 35C393 42 394 50 388 61L375 83C368 94 361 95 351 88C317 65 273 53 231 53C143 53 112 108 112 199V202H147C363 202 436 261 436 355C436 437 377 490 282 490C120 490 37 336 37 193C37 77 92 -10 227 -10C282 -10 336 5 382 35ZM280 431C331 431 366 405 366 354C366 298 323 257 152 257H117C137 367 203 431 280 431ZM306 615 388 556C393 552 397 550 401 550C406 550 410 553 415 558L423 567C427 571 429 576 429 580C429 584 427 589 422 593L329 676C324 681 319 683 314 683C308 683 303 681 298 678L173 595C167 591 164 586 164 581C164 577 166 572 169 567L174 559C178 553 182 550 188 550C191 550 194 551 199 554Z" glyph-name="ecircumflex" horiz-adv-x="459" unicode="&#234;" /><glyph d="M382 35C393 42 394 50 388 61L375 83C368 94 361 95 351 88C317 65 273 53 231 53C143 53 112 108 112 199V202H147C363 202 436 261 436 355C436 437 377 490 282 490C120 490 37 336 37 193C37 77 92 -10 227 -10C282 -10 336 5 382 35ZM280 431C331 431 366 405 366 354C366 298 323 257 152 257H117C137 367 203 431 280 431ZM267 622C267 647 252 667 223 667C192 667 170 643 170 612C170 587 185 567 214 567C245 567 267 591 267 622ZM437 622C437 647 422 667 393 667C362 667 340 643 340 612C340 587 355 567 384 567C415 567 437 591 437 622Z" glyph-name="edieresis" horiz-adv-x="459" unicode="&#235;" /><glyph d="M382 35C393 42 394 50 388 61L375 83C368 94 361 95 351 88C317 65 273 53 231 53C143 53 112 108 112 199V202H147C363 202 436 261 436 355C436 437 377 490 282 490C120 490 37 336 37 193C37 77 92 -10 227 -10C282 -10 336 5 382 35ZM280 431C331 431 366 405 366 354C366 298 323 257 152 257H117C137 367 203 431 280 431ZM352 622C352 647 337 667 308 667C277 667 255 643 255 612C255 587 270 567 299 567C330 567 352 591 352 622Z" glyph-name="edotaccent" horiz-adv-x="459" unicode="&#279;" /><glyph d="M382 35C393 42 394 50 388 61L375 83C368 94 361 95 351 88C317 65 273 53 231 53C143 53 112 108 112 199V202H147C363 202 436 261 436 355C436 437 377 490 282 490C120 490 37 336 37 193C37 77 92 -10 227 -10C282 -10 336 5 382 35ZM280 431C331 431 366 405 366 354C366 298 323 257 152 257H117C137 367 203 431 280 431ZM186 666C182 661 181 657 181 654C181 649 183 645 189 641L322 549C326 546 330 545 333 545C339 545 344 549 348 554L355 563C358 567 360 571 360 575C360 580 357 585 352 589L230 690C225 694 221 696 216 696C211 696 207 694 203 688Z" glyph-name="egrave" horiz-adv-x="459" unicode="&#232;" /><glyph d="M475 165C475 234 437 289 350 336C459 382 510 437 510 514C510 612 434 671 321 671C188 671 108 591 108 501C108 443 138 386 211 343C94 294 35 236 35 152C35 54 113 -9 244 -9C378 -9 475 63 475 165ZM183 497C183 564 246 608 317 608C388 608 435 571 435 513C435 455 390 411 287 370C216 406 183 449 183 497ZM112 154C112 213 152 261 277 309C364 268 398 223 398 169C398 98 334 54 247 54C160 54 112 98 112 154Z" glyph-name="eight" horiz-adv-x="532" unicode="8" /><glyph d="M125 58C125 88 107 110 74 110C37 110 11 81 11 44C11 14 29 -8 62 -8C99 -8 125 21 125 58ZM310 58C310 88 292 110 259 110C222 110 196 81 196 44C196 14 214 -8 247 -8C284 -8 310 21 310 58ZM495 58C495 88 477 110 444 110C407 110 381 81 381 44C381 14 399 -8 432 -8C469 -8 495 21 495 58Z" glyph-name="ellipsis" horiz-adv-x="563" unicode="&#8230;" /><glyph d="M382 35C393 42 394 50 388 61L375 83C368 94 361 95 351 88C317 65 273 53 231 53C143 53 112 108 112 199V202H147C363 202 436 261 436 355C436 437 377 490 282 490C120 490 37 336 37 193C37 77 92 -10 227 -10C282 -10 336 5 382 35ZM280 431C331 431 366 405 366 354C366 298 323 257 152 257H117C137 367 203 431 280 431ZM401 631H210C197 631 191 627 189 613L188 604C187 595 187 594 187 592C187 581 192 577 203 577H394C407 577 413 581 415 595L416 604C417 613 417 614 417 616C417 627 412 631 401 631Z" glyph-name="emacron" horiz-adv-x="459" unicode="&#275;" /><glyph d="M82 314C69 314 63 309 61 296L59 283C58 274 58 273 58 271C58 260 63 256 74 256H732C745 256 751 261 753 274L755 287C756 296 756 297 756 299C756 310 751 314 740 314Z" glyph-name="emdash" horiz-adv-x="800" unicode="&#8212;" /><glyph d="M82 314C69 314 63 309 61 296L59 283C58 274 58 273 58 271C58 260 63 256 74 256H432C445 256 451 261 453 274L455 287C456 296 456 297 456 299C456 310 451 314 440 314Z" glyph-name="endash" horiz-adv-x="500" unicode="&#8211;" /><glyph d="M350 -167C359 -161 361 -152 356 -142L354 -138C348 -126 341 -125 329 -131C317 -137 304 -139 293 -139C272 -139 256 -130 256 -105C256 -72 283 -35 332 0L382 35C393 42 394 50 388 61L375 83C368 94 361 95 351 88C317 65 273 53 231 53C143 53 112 108 112 199V202H147C363 202 436 261 436 355C436 437 377 490 282 490C120 490 37 336 37 193C37 77 92 -10 227 -10C244 -10 261 -8 278 -5C224 -51 199 -85 199 -125C199 -163 228 -187 276 -187C303 -187 329 -179 350 -167ZM280 431C331 431 366 405 366 354C366 298 323 257 152 257H117C137 367 203 431 280 431Z" glyph-name="eogonek" horiz-adv-x="459" unicode="&#281;" /><glyph d="M482 392C495 392 501 397 503 410L507 432C509 444 504 450 492 450H108C95 450 89 445 87 432L83 410C81 398 86 392 98 392ZM453 212C466 212 472 217 474 230L478 252C480 264 475 270 463 270H79C66 270 60 265 58 252L54 230C52 218 57 212 69 212Z" glyph-name="equal" horiz-adv-x="532" unicode="=" /><glyph d="M473 312C473 440 432 547 356 623L432 670C442 676 444 684 438 695L429 710C425 717 420 719 416 719C412 719 409 718 401 713L314 659C281 683 243 703 201 717C194 719 185 721 179 721C173 721 167 717 164 708L159 694C155 682 158 675 170 671C202 659 232 644 260 625L188 581C178 575 176 567 182 556L191 541C195 534 200 532 204 532C208 532 211 533 219 538L303 590C344 551 376 500 393 436C368 474 335 490 282 490C120 490 38 332 38 192C38 78 92 -10 223 -10C398 -10 473 145 473 312ZM115 191C115 305 173 429 287 429C363 429 396 374 396 289C396 175 338 51 224 51C148 51 115 106 115 191Z" glyph-name="eth" horiz-adv-x="509" unicode="&#240;" /><glyph d="M146 178C158 178 164 183 167 195L271 644C274 656 269 662 257 662H186C173 662 168 657 166 644L128 195C126 183 131 178 144 178ZM182 58C182 88 164 110 131 110C94 110 68 81 68 44C68 14 86 -8 119 -8C156 -8 182 21 182 58Z" glyph-name="exclam" horiz-adv-x="302" unicode="!" /><glyph d="M223 438C223 468 205 490 172 490C135 490 109 461 109 424C109 394 127 372 160 372C197 372 223 401 223 438ZM105 -180C118 -180 123 -175 125 -162L163 287C165 299 160 304 148 304H146C133 304 127 299 124 287L20 -162C17 -174 22 -180 34 -180Z" glyph-name="exclamdown" horiz-adv-x="262" unicode="&#161;" /><glyph d="M103 -182 198 421H299C312 421 318 426 320 439L322 453C323 462 323 463 323 465C323 476 318 480 307 480H207L216 535C230 623 264 663 320 663C338 663 354 659 363 655C375 650 379 649 382 649C387 649 390 651 394 658L410 685C412 689 413 692 413 695C413 701 409 706 403 709C383 720 354 728 319 728C237 728 164 686 139 529L131 480H68C55 480 49 475 47 462L45 448C44 439 44 438 44 436C44 425 49 421 60 421H122L28 -176C27 -182 27 -184 27 -186C27 -196 32 -200 42 -200H82C95 -200 101 -195 103 -182Z" glyph-name="f" horiz-adv-x="290" unicode="f" /><glyph d="M351 728C246 728 163 677 138 523L131 480H68C55 480 49 475 47 462L45 448C44 439 44 438 44 436C44 425 49 421 60 421H122L28 -176C27 -182 27 -184 27 -186C27 -196 32 -200 42 -200H82C95 -200 101 -195 103 -182L198 421H291C304 421 310 426 312 439L314 453C315 462 315 463 315 465C315 476 310 480 299 480H207L215 529C231 629 281 665 352 665C376 665 396 662 415 654L314 18C312 6 317 0 329 0H369C382 0 388 5 390 18L394 43C422 8 462 -10 515 -10C658 -10 757 141 757 304C757 414 710 490 608 490C543 490 491 459 449 392L498 700C500 712 495 718 483 718H425C401 725 376 728 351 728ZM420 210C442 350 514 429 590 429C651 429 680 380 680 305C680 168 611 54 506 54C464 54 429 70 403 102Z" glyph-name="f_b" horiz-adv-x="793" /><glyph d="M283 -176C282 -182 282 -184 282 -186C282 -196 287 -200 297 -200H337C350 -200 356 -195 358 -182L453 421H554C567 421 573 426 575 439L577 453C578 462 578 463 578 465C578 476 573 480 562 480H462L471 535C485 623 519 663 575 663C593 663 609 659 618 655C630 650 634 649 637 649C642 649 645 651 649 658L665 685C667 689 668 692 668 695C668 701 664 706 658 709C638 720 609 728 574 728C537 728 502 719 472 695C438 717 396 728 349 728C247 728 162 676 138 523L131 480H68C55 480 49 475 47 462L45 448C44 439 44 438 44 436C44 425 49 421 60 421H122L28 -176C27 -182 27 -184 27 -186C27 -196 32 -200 42 -200H82C95 -200 101 -195 103 -182L198 421H377ZM215 529C232 633 284 666 352 666C380 666 407 660 432 647C415 618 402 580 394 529L386 480H207Z" glyph-name="f_f" horiz-adv-x="545" unicode="&#64256;" /><glyph d="M283 -176C282 -182 282 -184 282 -186C282 -196 287 -200 297 -200H337C350 -200 356 -195 358 -182L453 421H546C559 421 565 426 567 439L569 453C570 462 570 463 570 465C570 476 565 480 554 480H462L470 529C486 629 536 665 607 665C631 665 651 662 670 654L569 18C567 6 572 0 584 0H624C637 0 643 5 645 18L649 43C677 8 717 -10 770 -10C913 -10 1012 141 1012 304C1012 414 965 490 863 490C798 490 746 459 704 392L753 700C755 712 750 718 738 718H680C656 725 631 728 606 728C558 728 514 717 479 691C444 715 399 728 349 728C247 728 162 676 138 523L131 480H68C55 480 49 475 47 462L45 448C44 439 44 438 44 436C44 425 49 421 60 421H122L28 -176C27 -182 27 -184 27 -186C27 -196 32 -200 42 -200H82C95 -200 101 -195 103 -182L198 421H377ZM215 529C232 633 284 666 352 666C382 666 411 659 436 645C416 615 401 575 393 523L386 480H207ZM675 210C697 350 769 429 845 429C906 429 935 380 935 305C935 168 866 54 761 54C719 54 684 70 658 102Z" glyph-name="f_f_b" horiz-adv-x="1048" /><glyph d="M283 -176C282 -182 282 -184 282 -186C282 -196 287 -200 297 -200H337C350 -200 356 -195 358 -182L453 421H546C559 421 565 426 567 439L569 453C570 462 570 463 570 465C570 476 565 480 554 480H462L470 529C486 629 536 665 607 665C631 665 651 662 670 654L569 18C567 6 572 0 584 0H624C637 0 643 5 645 18L681 247C697 349 759 428 844 428C905 428 924 387 924 338C924 327 923 311 919 284L877 18C875 6 880 0 892 0H932C945 0 951 5 953 18L995 284C998 302 1000 331 1000 349C1000 434 956 490 865 490C799 490 742 458 705 401L753 700C755 712 750 718 738 718H680C656 725 631 728 606 728C558 728 514 717 479 691C444 715 399 728 349 728C247 728 162 676 138 523L131 480H68C55 480 49 475 47 462L45 448C44 439 44 438 44 436C44 425 49 421 60 421H122L28 -176C27 -182 27 -184 27 -186C27 -196 32 -200 42 -200H82C95 -200 101 -195 103 -182L198 421H377ZM215 529C232 633 284 666 352 666C382 666 411 659 436 645C416 615 401 575 393 523L386 480H207Z" glyph-name="f_f_h" horiz-adv-x="1062" /><glyph d="M283 -176C282 -182 282 -184 282 -186C282 -196 287 -200 297 -200H337C350 -200 356 -195 358 -182L453 421H633L569 18C567 6 572 0 584 0H624C637 0 643 5 645 18L715 462C717 474 712 480 700 480H462L470 529C486 628 534 663 599 663C630 663 654 655 674 642C679 639 683 638 686 638C691 638 695 642 698 647L715 674C717 677 719 682 719 686C719 691 716 695 710 699C685 717 650 728 601 728C555 728 513 717 478 691C443 716 399 728 349 728C247 728 162 676 138 523L131 480H68C55 480 49 475 47 462L45 448C44 439 44 438 44 436C44 425 49 421 60 421H122L28 -176C27 -182 27 -184 27 -186C27 -196 32 -200 42 -200H82C95 -200 101 -195 103 -182L198 421H377ZM215 529C232 633 284 666 352 666C382 666 410 659 436 645C416 615 401 575 393 523L386 480H207Z" glyph-name="f_f_i" horiz-adv-x="757" unicode="&#64259;" /><glyph d="M283 -176C282 -182 282 -184 282 -186C282 -196 287 -200 297 -200H337C350 -200 356 -195 358 -182L453 421H633L558 -53C547 -121 530 -143 502 -143C493 -143 484 -141 477 -139C466 -136 460 -140 456 -149L444 -179C440 -190 443 -197 453 -201C467 -207 485 -210 506 -210C573 -210 615 -169 632 -64L715 462C717 474 712 480 700 480H462L470 529C486 628 534 663 599 663C630 663 654 655 674 642C679 639 683 638 686 638C691 638 695 642 698 647L715 674C717 677 719 682 719 686C719 691 716 695 710 699C685 717 650 728 601 728C555 728 513 717 478 691C443 716 399 728 349 728C247 728 162 676 138 523L131 480H68C55 480 49 475 47 462L45 448C44 439 44 438 44 436C44 425 49 421 60 421H122L28 -176C27 -182 27 -184 27 -186C27 -196 32 -200 42 -200H82C95 -200 101 -195 103 -182L198 421H377ZM215 529C232 633 284 666 352 666C382 666 410 659 436 645C416 615 401 575 393 523L386 480H207Z" glyph-name="f_f_j" horiz-adv-x="757" /><glyph d="M283 -176C282 -182 282 -184 282 -186C282 -196 287 -200 297 -200H337C350 -200 356 -195 358 -182L453 421H546C559 421 565 426 567 439L569 453C570 462 570 463 570 465C570 476 565 480 554 480H462L470 529C486 629 536 665 607 665C631 665 651 662 670 654L569 18C567 6 572 0 584 0H624C637 0 643 5 645 18L672 186C693 202 714 218 735 235C787 165 829 89 864 18C870 5 875 0 888 0H931C941 0 945 4 945 10C945 13 944 17 942 22C899 110 847 200 788 280C850 335 910 396 965 459C970 465 972 469 972 472C972 476 969 480 962 480H911C898 480 890 476 882 466C836 409 756 330 685 270L753 700C755 712 750 718 738 718H680C656 725 631 728 606 728C558 728 514 717 479 691C444 715 399 728 349 728C247 728 162 676 138 523L131 480H68C55 480 49 475 47 462L45 448C44 439 44 438 44 436C44 425 49 421 60 421H122L28 -176C27 -182 27 -184 27 -186C27 -196 32 -200 42 -200H82C95 -200 101 -195 103 -182L198 421H377ZM215 529C232 633 284 666 352 666C382 666 411 659 436 645C416 615 401 575 393 523L386 480H207Z" glyph-name="f_f_k" horiz-adv-x="990" /><glyph d="M283 -176C282 -182 282 -184 282 -186C282 -196 287 -200 297 -200H337C350 -200 356 -195 358 -182L453 421H546C559 421 565 426 567 439L569 453C570 462 570 463 570 465C570 476 565 480 554 480H462L470 529C486 629 536 665 607 665C631 665 651 662 670 654L569 18C567 6 572 0 584 0H624C637 0 643 5 645 18L753 700C755 712 750 718 738 718H680C656 725 631 728 606 728C558 728 514 717 479 691C444 715 399 728 349 728C247 728 162 676 138 523L131 480H68C55 480 49 475 47 462L45 448C44 439 44 438 44 436C44 425 49 421 60 421H122L28 -176C27 -182 27 -184 27 -186C27 -196 32 -200 42 -200H82C95 -200 101 -195 103 -182L198 421H377ZM215 529C232 633 284 666 352 666C382 666 411 659 436 645C416 615 401 575 393 523L386 480H207Z" glyph-name="f_f_l" horiz-adv-x="757" unicode="&#64260;" /><glyph d="M351 728C246 728 163 677 138 523L131 480H68C55 480 49 475 47 462L45 448C44 439 44 438 44 436C44 425 49 421 60 421H122L28 -176C27 -182 27 -184 27 -186C27 -196 32 -200 42 -200H82C95 -200 101 -195 103 -182L198 421H291C304 421 310 426 312 439L314 453C315 462 315 463 315 465C315 476 310 480 299 480H207L215 529C231 629 281 665 352 665C376 665 396 662 415 654L314 18C312 6 317 0 329 0H369C382 0 388 5 390 18L426 247C442 349 504 428 589 428C650 428 669 387 669 338C669 327 668 311 664 284L622 18C620 6 625 0 637 0H677C690 0 696 5 698 18L740 284C743 302 745 331 745 349C745 434 701 490 610 490C544 490 487 458 450 401L498 700C500 712 495 718 483 718H425C401 725 376 728 351 728Z" glyph-name="f_h" horiz-adv-x="807" /><glyph d="M215 529C231 628 279 663 344 663C375 663 399 655 419 642C424 639 428 638 431 638C436 638 440 642 443 647L460 674C462 677 464 682 464 686C464 691 461 695 455 699C430 717 395 728 346 728C245 728 163 677 138 523L131 480H68C55 480 49 475 47 462L45 448C44 439 44 438 44 436C44 425 49 421 60 421H122L28 -176C27 -182 27 -184 27 -186C27 -196 32 -200 42 -200H82C95 -200 101 -195 103 -182L198 421H378L314 18C312 6 317 0 329 0H369C382 0 388 5 390 18L460 462C462 474 457 480 445 480H207Z" glyph-name="f_i" horiz-adv-x="502" /><glyph d="M215 529C231 628 279 663 344 663C375 663 399 655 419 642C424 639 428 638 431 638C436 638 440 642 443 647L460 674C462 677 464 682 464 686C464 691 461 695 455 699C430 717 395 728 346 728C245 728 163 677 138 523L131 480H68C55 480 49 475 47 462L45 448C44 439 44 438 44 436C44 425 49 421 60 421H122L28 -176C27 -182 27 -184 27 -186C27 -196 32 -200 42 -200H82C95 -200 101 -195 103 -182L198 421H378L303 -53C292 -121 275 -143 247 -143C238 -143 229 -141 222 -139C211 -136 205 -140 201 -149L189 -179C185 -190 188 -197 198 -201C212 -207 230 -210 251 -210C318 -210 360 -169 377 -64L460 462C462 474 457 480 445 480H207Z" glyph-name="f_j" horiz-adv-x="502" /><glyph d="M351 728C246 728 163 677 138 523L131 480H68C55 480 49 475 47 462L45 448C44 439 44 438 44 436C44 425 49 421 60 421H122L28 -176C27 -182 27 -184 27 -186C27 -196 32 -200 42 -200H82C95 -200 101 -195 103 -182L198 421H291C304 421 310 426 312 439L314 453C315 462 315 463 315 465C315 476 310 480 299 480H207L215 529C231 629 281 665 352 665C376 665 396 662 415 654L314 18C312 6 317 0 329 0H369C382 0 388 5 390 18L417 186C438 202 459 218 480 235C532 165 574 89 609 18C615 5 620 0 633 0H676C686 0 690 4 690 10C690 13 689 17 687 22C644 110 592 200 533 280C595 335 655 396 710 459C715 465 717 469 717 472C717 476 714 480 707 480H656C643 480 635 476 627 466C581 409 501 330 430 270L498 700C500 712 495 718 483 718H425C401 725 376 728 351 728Z" glyph-name="f_k" horiz-adv-x="735" /><glyph d="M351 728C246 728 163 677 138 523L131 480H68C55 480 49 475 47 462L45 448C44 439 44 438 44 436C44 425 49 421 60 421H122L28 -176C27 -182 27 -184 27 -186C27 -196 32 -200 42 -200H82C95 -200 101 -195 103 -182L198 421H291C304 421 310 426 312 439L314 453C315 462 315 463 315 465C315 476 310 480 299 480H207L215 529C231 629 281 665 352 665C376 665 396 662 415 654L314 18C312 6 317 0 329 0H369C382 0 388 5 390 18L498 700C500 712 495 718 483 718H425C401 725 376 728 351 728Z" glyph-name="f_l" horiz-adv-x="502" /><glyph d="M215 529C231 628 279 663 344 663C375 663 399 655 419 642C424 639 428 638 431 638C436 638 440 642 443 647L460 674C462 677 464 682 464 686C464 691 461 695 455 699C430 717 395 728 346 728C245 728 163 677 138 523L131 480H68C55 480 49 475 47 462L45 448C44 439 44 438 44 436C44 425 49 421 60 421H122L28 -176C27 -182 27 -184 27 -186C27 -196 32 -200 42 -200H82C95 -200 101 -195 103 -182L198 421H378L314 18C312 6 317 0 329 0H369C382 0 388 5 390 18L460 462C462 474 457 480 445 480H207Z" glyph-name="fi" horiz-adv-x="502" unicode="&#64257;" /><glyph d="M464 231C464 342 395 405 287 405C250 405 213 398 180 385L235 596H477C490 596 496 601 498 614L503 644C505 656 500 662 488 662H198C185 662 179 657 176 645L101 354C98 342 101 334 112 327L123 320C135 312 142 312 155 318C188 334 223 343 260 343C343 343 385 303 385 228C385 137 319 56 215 56C162 56 115 77 83 105C73 113 66 113 58 104L35 79C26 70 27 61 35 53C70 18 132 -10 218 -10C372 -10 464 103 464 231Z" glyph-name="five" horiz-adv-x="532" unicode="5" /><glyph d="M351 728C246 728 163 677 138 523L131 480H68C55 480 49 475 47 462L45 448C44 439 44 438 44 436C44 425 49 421 60 421H122L28 -176C27 -182 27 -184 27 -186C27 -196 32 -200 42 -200H82C95 -200 101 -195 103 -182L198 421H291C304 421 310 426 312 439L314 453C315 462 315 463 315 465C315 476 310 480 299 480H207L215 529C231 629 281 665 352 665C376 665 396 662 415 654L314 18C312 6 317 0 329 0H369C382 0 388 5 390 18L498 700C500 712 495 718 483 718H425C401 725 376 728 351 728Z" glyph-name="fl" horiz-adv-x="502" unicode="&#64258;" /><glyph d="M384 18 405 148H479C492 148 498 153 500 166L503 186C504 193 504 196 504 198C504 208 499 212 489 212H415L482 638C483 644 483 646 483 648C483 658 478 662 468 662H413C400 662 394 658 385 647L45 237C37 227 33 216 31 203L26 172C25 165 25 163 25 161C25 152 30 148 40 148H329L309 24C308 18 308 16 308 14C308 4 313 0 323 0H363C376 0 382 5 384 18ZM108 212 396 561 341 212Z" glyph-name="four" horiz-adv-x="532" unicode="4" /><glyph d="M384 643C388 648 389 651 389 654C389 659 385 662 376 662H345C332 662 324 658 315 648L66 348L-217 19C-221 14 -222 11 -222 8C-222 3 -218 0 -209 0H-178C-165 0 -157 4 -148 14L101 314Z" glyph-name="fraction" horiz-adv-x="138" unicode="&#8260;" /><glyph d="M407 7 479 462C481 474 476 480 464 480H424C411 480 405 475 403 462L399 437C371 472 331 490 278 490C135 490 36 339 36 176C36 66 83 -10 185 -10C250 -10 302 21 344 88L334 22C320 -67 294 -144 179 -144C123 -144 89 -126 68 -109C58 -101 52 -102 44 -112L24 -141C17 -151 18 -160 28 -167C53 -186 100 -210 181 -210C310 -210 382 -149 407 7ZM113 175C113 312 182 426 287 426C329 426 364 410 390 378L373 270C351 130 279 51 203 51C142 51 113 100 113 175Z" glyph-name="g" horiz-adv-x="521" unicode="g" /><glyph d="M407 7 479 462C481 474 476 480 464 480H424C411 480 405 475 403 462L399 437C371 472 331 490 278 490C135 490 36 339 36 176C36 66 83 -10 185 -10C250 -10 302 21 344 88L334 22C320 -67 294 -144 179 -144C123 -144 89 -126 68 -109C58 -101 52 -102 44 -112L24 -141C17 -151 18 -160 28 -167C53 -186 100 -210 181 -210C310 -210 382 -149 407 7ZM113 175C113 312 182 426 287 426C329 426 364 410 390 378L373 270C351 130 279 51 203 51C142 51 113 100 113 175ZM238 656C235 664 232 668 226 668C223 668 219 667 214 665L201 660C192 656 190 652 190 645C190 641 192 632 194 627C209 585 247 548 310 548C370 548 419 582 443 625C447 632 452 641 452 648C452 654 448 658 440 661L427 666C422 668 419 669 416 669C409 669 405 664 401 657C381 624 352 605 312 605C273 605 250 623 238 656Z" glyph-name="gbreve" horiz-adv-x="521" unicode="&#287;" /><glyph d="M407 7 479 462C481 474 476 480 464 480H424C411 480 405 475 403 462L399 437C371 472 331 490 278 490C135 490 36 339 36 176C36 66 83 -10 185 -10C250 -10 302 21 344 88L334 22C320 -67 294 -144 179 -144C123 -144 89 -126 68 -109C58 -101 52 -102 44 -112L24 -141C17 -151 18 -160 28 -167C53 -186 100 -210 181 -210C310 -210 382 -149 407 7ZM113 175C113 312 182 426 287 426C329 426 364 410 390 378L373 270C351 130 279 51 203 51C142 51 113 100 113 175ZM317 615 399 556C404 552 408 550 412 550C417 550 421 553 426 558L434 567C438 571 440 576 440 580C440 584 438 589 433 593L340 676C335 681 330 683 325 683C319 683 314 681 309 678L184 595C178 591 175 586 175 581C175 577 177 572 180 567L185 559C189 553 193 550 199 550C202 550 205 551 210 554Z" glyph-name="gcircumflex" horiz-adv-x="521" unicode="&#285;" /><glyph d="M407 7 479 462C481 474 476 480 464 480H424C411 480 405 475 403 462L399 437C371 472 331 490 278 490C135 490 36 339 36 176C36 66 83 -10 185 -10C250 -10 302 21 344 88L334 22C320 -67 294 -144 179 -144C123 -144 89 -126 68 -109C58 -101 52 -102 44 -112L24 -141C17 -151 18 -160 28 -167C53 -186 100 -210 181 -210C310 -210 382 -149 407 7ZM113 175C113 312 182 426 287 426C329 426 364 410 390 378L373 270C351 130 279 51 203 51C142 51 113 100 113 175ZM363 622C363 647 348 667 319 667C288 667 266 643 266 612C266 587 281 567 310 567C341 567 363 591 363 622Z" glyph-name="gdotaccent" horiz-adv-x="521" unicode="&#289;" /><glyph d="M196 514C213 622 264 668 341 668C408 668 448 635 448 585C448 540 416 505 347 459C279 413 255 376 255 334C255 284 285 253 374 214C434 188 451 166 451 130C451 86 415 52 356 52C315 52 274 66 245 88C235 96 225 96 217 86L201 65C194 56 194 47 202 40C240 9 295 -10 356 -10C459 -10 526 52 526 135C526 193 494 236 411 272C350 298 327 315 327 339C327 360 340 377 409 424C489 478 522 527 522 590C522 670 452 728 343 728C225 728 144 665 120 512L42 18C40 6 45 0 57 0H97C110 0 116 5 118 18Z" glyph-name="germandbls" horiz-adv-x="566" unicode="&#223;" /><glyph d="M116 666C112 661 111 657 111 654C111 649 113 645 119 641L252 549C256 546 260 545 263 545C269 545 274 549 278 554L285 563C288 567 290 571 290 575C290 580 287 585 282 589L160 690C155 694 151 696 146 696C141 696 137 694 133 688Z" glyph-name="grave" horiz-adv-x="291" unicode="`" /><glyph d="M147 831C143 826 142 822 142 819C142 814 144 810 150 806L283 714C287 711 291 710 294 710C300 710 305 714 309 719L316 728C319 732 321 736 321 740C321 745 318 750 313 754L191 855C186 859 182 861 177 861C172 861 168 859 164 853Z" glyph-name="grave.case" horiz-adv-x="291" /><glyph d="M99 118 453 294C466 301 470 308 472 320L474 334C475 341 475 347 475 349C475 359 471 366 463 371L163 545C158 548 155 549 151 549C146 549 143 546 139 540L126 522C122 517 121 513 121 510C121 504 124 501 130 497L411 335L76 170C68 166 65 161 65 155C65 152 66 149 68 144L76 126C79 119 83 115 89 115C92 115 95 116 99 118Z" glyph-name="greater" horiz-adv-x="532" unicode="&gt;" /><glyph d="M99 126 453 292C465 298 470 306 472 318L474 332C475 339 475 345 475 347C475 357 471 365 463 369L160 533C155 536 152 537 148 537C143 537 140 534 136 528L123 510C119 505 118 501 118 498C118 492 121 488 127 485L408 333L76 178C68 174 65 169 65 163C65 160 66 157 68 152L76 134C79 127 83 123 89 123C92 123 95 124 99 126ZM403 0C416 0 422 5 424 18L428 40C430 52 425 58 413 58H68C55 58 49 53 47 40L43 18C41 6 46 0 58 0Z" glyph-name="greaterequal" horiz-adv-x="532" unicode="&#8805;" /><glyph d="M186 84C193 88 197 93 197 99C197 102 196 106 194 110L126 257L245 407C248 411 250 415 250 419C250 425 246 430 242 433L230 444C225 448 221 449 217 449C213 449 208 447 204 443L53 275C48 269 45 265 45 259C45 254 47 249 50 244L146 81C150 74 154 72 159 72C163 72 167 73 174 77ZM371 84C378 88 382 93 382 99C382 102 381 106 379 110L311 257L430 407C433 411 435 415 435 419C435 425 431 430 427 433L415 444C410 448 406 449 402 449C398 449 393 447 389 443L238 275C233 269 230 265 230 259C230 254 232 249 235 244L331 81C335 74 339 72 344 72C348 72 352 73 359 77Z" glyph-name="guillemotleft" horiz-adv-x="453" unicode="&#171;" /><glyph d="M88 437C81 433 77 428 77 422C77 419 78 415 80 411L148 264L29 114C26 110 24 106 24 102C24 96 28 91 32 88L44 77C49 73 53 72 57 72C61 72 66 74 70 78L221 246C226 252 229 256 229 262C229 267 227 272 224 277L128 440C124 447 120 449 115 449C111 449 107 448 100 444ZM273 437C266 433 262 428 262 422C262 419 263 415 265 411L333 264L214 114C211 110 209 106 209 102C209 96 213 91 217 88L229 77C234 73 238 72 242 72C246 72 251 74 255 78L406 246C411 252 414 256 414 262C414 267 412 272 409 277L313 440C309 447 305 449 300 449C296 449 292 448 285 444Z" glyph-name="guillemotright" horiz-adv-x="453" unicode="&#187;" /><glyph d="M186 84C193 88 197 93 197 99C197 102 196 106 194 110L126 257L245 407C248 411 250 415 250 419C250 425 246 430 242 433L230 444C225 448 221 449 217 449C213 449 208 447 204 443L53 275C48 269 45 265 45 259C45 254 47 249 50 244L146 81C150 74 154 72 159 72C163 72 167 73 174 77Z" glyph-name="guilsinglleft" horiz-adv-x="268" unicode="&#8249;" /><glyph d="M88 437C81 433 77 428 77 422C77 419 78 415 80 411L148 264L29 114C26 110 24 106 24 102C24 96 28 91 32 88L44 77C49 73 53 72 57 72C61 72 66 74 70 78L221 246C226 252 229 256 229 262C229 267 227 272 224 277L128 440C124 447 120 449 115 449C111 449 107 448 100 444Z" glyph-name="guilsinglright" horiz-adv-x="268" unicode="&#8250;" /><glyph d="M118 18 154 247C170 349 232 428 317 428C378 428 397 387 397 338C397 327 396 311 392 284L350 18C348 6 353 0 365 0H405C418 0 424 5 426 18L468 284C471 302 473 331 473 349C473 434 429 490 338 490C272 490 215 458 178 401L226 700C228 712 223 718 211 718H171C158 718 152 713 150 700L42 18C40 6 45 0 57 0H97C110 0 116 5 118 18Z" glyph-name="h" horiz-adv-x="535" unicode="h" /><glyph d="M118 18 154 247C170 349 232 428 317 428C378 428 397 387 397 338C397 327 396 311 392 284L350 18C348 6 353 0 365 0H405C418 0 424 5 426 18L468 284C471 302 473 331 473 349C473 434 429 490 338 490C272 490 215 458 178 401L204 563H317C330 563 336 568 338 581L340 596C342 608 337 614 325 614H212L226 700C228 712 223 718 211 718H171C158 718 152 713 150 700L136 614H92C79 614 73 609 71 596L69 581C67 569 72 563 84 563H128L42 18C40 6 45 0 57 0H97C110 0 116 5 118 18Z" glyph-name="hbar" horiz-adv-x="535" unicode="&#295;" /><glyph d="M118 18 154 247C170 349 232 428 317 428C378 428 397 387 397 338C397 327 396 311 392 284L350 18C348 6 353 0 365 0H405C418 0 424 5 426 18L468 284C471 302 473 331 473 349C473 434 429 490 338 490C272 490 215 458 178 401L226 700C228 712 223 718 211 718H171C158 718 152 713 150 700L42 18C40 6 45 0 57 0H97C110 0 116 5 118 18ZM210 814 292 755C297 751 301 749 305 749C310 749 314 752 319 757L327 766C331 770 333 775 333 779C333 783 331 788 326 792L233 875C228 880 223 882 218 882C212 882 207 880 202 877L77 794C71 790 68 785 68 780C68 776 70 771 73 766L78 758C82 752 86 749 92 749C95 749 98 750 103 753Z" glyph-name="hcircumflex" horiz-adv-x="535" unicode="&#293;" /><glyph d="M264 645C269 649 272 654 272 658C272 662 270 666 266 671L249 690C246 694 240 697 236 697C231 697 227 695 222 690L117 581C113 577 111 573 111 569C111 565 113 560 117 556L126 547C130 543 134 541 139 541C143 541 147 542 152 546ZM421 645C426 649 429 654 429 658C429 662 427 666 423 671L406 690C403 694 397 697 393 697C388 697 384 695 379 690L274 581C270 577 268 573 268 569C268 565 270 560 274 556L283 547C287 543 291 541 296 541C300 541 304 542 309 546Z" glyph-name="hungarumlaut" horiz-adv-x="430" unicode="&#733;" /><glyph d="M295 810C300 814 303 819 303 823C303 827 301 831 297 836L280 855C277 859 271 862 267 862C262 862 258 860 253 855L148 746C144 742 142 738 142 734C142 730 144 725 148 721L157 712C161 708 165 706 170 706C174 706 178 707 183 711ZM452 810C457 814 460 819 460 823C460 827 458 831 454 836L437 855C434 859 428 862 424 862C419 862 415 860 410 855L305 746C301 742 299 738 299 734C299 730 301 725 305 721L314 712C318 708 322 706 327 706C331 706 335 707 340 711Z" glyph-name="hungarumlaut.case" horiz-adv-x="430" /><glyph d="M83 318C70 318 64 313 62 300L59 279C58 270 58 269 58 267C58 256 63 252 74 252H271C284 252 290 257 292 270L295 291C296 300 296 301 296 303C296 314 291 318 280 318Z" glyph-name="hyphen" horiz-adv-x="340" unicode="-" /><glyph d="M234 660C234 687 216 707 187 707C154 707 127 681 127 646C127 619 145 599 174 599C207 599 234 625 234 660ZM97 0C110 0 116 5 118 18L188 462C190 474 185 480 173 480H133C120 480 114 475 112 462L42 18C40 6 45 0 57 0Z" glyph-name="i" horiz-adv-x="230" unicode="i" /><glyph d="M234 660C234 687 216 707 187 707C154 707 127 681 127 646C127 619 145 599 174 599C207 599 234 625 234 660ZM97 0C110 0 116 5 118 18L188 462C190 474 185 480 173 480H133C120 480 114 475 112 462L42 18C40 6 45 0 57 0Z" glyph-name="i.trk" horiz-adv-x="230" /><glyph d="M97 0C110 0 116 5 118 18L188 462C190 474 185 480 173 480H133C120 480 114 475 112 462L42 18C40 6 45 0 57 0ZM246 688C242 694 238 696 233 696C228 696 224 694 219 690L95 589C90 585 87 580 87 575C87 571 89 567 92 563L98 555C102 550 107 546 113 546C116 546 120 547 124 550L258 642C264 646 266 650 266 655C266 658 265 662 261 667Z" glyph-name="iacute" horiz-adv-x="230" unicode="&#237;" /><glyph d="M97 0C110 0 116 5 118 18L188 462C190 474 185 480 173 480H133C120 480 114 475 112 462L42 18C40 6 45 0 57 0ZM100 656C97 664 94 668 88 668C85 668 81 667 76 665L63 660C54 656 52 652 52 645C52 641 54 632 56 627C71 585 109 548 172 548C232 548 281 582 305 625C309 632 314 641 314 648C314 654 310 658 302 661L289 666C284 668 281 669 278 669C271 669 267 664 263 657C243 624 214 605 174 605C135 605 112 623 100 656Z" glyph-name="ibreve" horiz-adv-x="230" unicode="&#301;" /><glyph d="M97 0C110 0 116 5 118 18L188 462C190 474 185 480 173 480H133C120 480 114 475 112 462L42 18C40 6 45 0 57 0ZM179 615 261 556C266 552 270 550 274 550C279 550 283 553 288 558L296 567C300 571 302 576 302 580C302 584 300 589 295 593L202 676C197 681 192 683 187 683C181 683 176 681 171 678L46 595C40 591 37 586 37 581C37 577 39 572 42 567L47 559C51 553 55 550 61 550C64 550 67 551 72 554Z" glyph-name="icircumflex" horiz-adv-x="230" unicode="&#238;" /><glyph d="M97 0C110 0 116 5 118 18L188 462C190 474 185 480 173 480H133C120 480 114 475 112 462L42 18C40 6 45 0 57 0ZM140 622C140 647 125 667 96 667C65 667 43 643 43 612C43 587 58 567 87 567C118 567 140 591 140 622ZM310 622C310 647 295 667 266 667C235 667 213 643 213 612C213 587 228 567 257 567C288 567 310 591 310 622Z" glyph-name="idieresis" horiz-adv-x="230" unicode="&#239;" /><glyph d="M97 0C110 0 116 5 118 18L188 462C190 474 185 480 173 480H133C120 480 114 475 112 462L42 18C40 6 45 0 57 0ZM59 666C55 661 54 657 54 654C54 649 56 645 62 641L195 549C199 546 203 545 206 545C212 545 217 549 221 554L228 563C231 567 233 571 233 575C233 580 230 585 225 589L103 690C98 694 94 696 89 696C84 696 80 694 76 688Z" glyph-name="igrave" horiz-adv-x="230" unicode="&#236;" /><glyph d="M234 660C234 687 216 707 187 707C154 707 127 681 127 646C127 619 145 599 174 599C207 599 234 625 234 660ZM97 0C110 0 116 5 118 18L188 462C190 474 185 480 173 480H133C120 480 114 475 112 462L42 18C40 6 45 0 57 0ZM464 660C464 687 446 707 417 707C384 707 357 681 357 646C357 619 375 599 404 599C437 599 464 625 464 660ZM336 -57 418 462C420 474 415 480 403 480H363C350 480 344 475 342 462L263 -41C253 -103 231 -145 181 -145C169 -145 157 -142 148 -138C135 -133 129 -135 124 -147L113 -170C108 -181 111 -189 121 -195C140 -205 163 -210 189 -210C267 -210 319 -166 336 -57Z" glyph-name="ij" horiz-adv-x="460" unicode="&#307;" /><glyph d="M97 0C110 0 116 5 118 18L188 462C190 474 185 480 173 480H133C120 480 114 475 112 462L42 18C40 6 45 0 57 0ZM274 631H83C70 631 64 627 62 613L61 604C60 595 60 594 60 592C60 581 65 577 76 577H267C280 577 286 581 288 595L289 604C290 613 290 614 290 616C290 627 285 631 274 631Z" glyph-name="imacron" horiz-adv-x="230" unicode="&#299;" /><glyph d="M735 350C735 433 684 482 595 482C510 482 453 440 400 376C359 446 311 482 235 482C133 482 57 414 57 312C57 229 108 180 197 180C282 180 339 222 392 286C433 216 481 180 557 180C659 180 735 248 735 350ZM590 431C646 431 677 402 677 348C677 283 632 231 559 231C501 231 463 265 428 328C478 390 523 431 590 431ZM115 314C115 379 160 431 233 431C291 431 329 397 364 334C314 272 269 231 202 231C146 231 115 260 115 314Z" glyph-name="infinity" horiz-adv-x="764" unicode="&#8734;" /><glyph d="M19 -210C101 -210 174 -168 199 -11L286 535C300 623 334 663 390 663C408 663 424 659 433 655C445 650 449 649 452 649C457 649 460 651 464 658L480 685C482 689 483 692 483 695C483 701 479 706 473 709C453 720 424 728 389 728C307 728 234 686 209 529L122 -17C108 -105 74 -145 18 -145C0 -145 -16 -141 -25 -137C-37 -132 -41 -131 -44 -131C-49 -131 -52 -133 -56 -140L-72 -167C-74 -171 -75 -174 -75 -177C-75 -183 -71 -188 -65 -191C-45 -202 -16 -210 19 -210Z" glyph-name="integral" horiz-adv-x="430" unicode="&#8747;" /><glyph d="M234 660C234 687 216 707 187 707C154 707 127 681 127 646C127 619 145 599 174 599C207 599 234 625 234 660ZM-23 -124C-23 -163 6 -187 54 -187C81 -187 107 -179 128 -167C137 -161 139 -152 134 -142L132 -138C126 -126 119 -125 107 -131C95 -137 82 -139 71 -139C50 -139 34 -130 34 -105C34 -70 63 -41 100 0H97C110 0 116 5 118 18L188 462C190 474 185 480 173 480H133C120 480 114 475 112 462L42 18C40 6 45 0 57 0H56C17 -33 -23 -78 -23 -124Z" glyph-name="iogonek" horiz-adv-x="230" unicode="&#303;" /><glyph d="M97 0C110 0 116 5 118 18L188 462C190 474 185 480 173 480H133C120 480 114 475 112 462L42 18C40 6 45 0 57 0ZM231 623C198 623 170 657 126 657C89 657 57 633 38 608C35 604 33 599 33 595C33 591 35 587 40 582L44 578C49 573 53 571 57 571C62 571 66 573 71 577C84 589 102 599 120 599C153 599 181 565 225 565C262 565 294 589 313 614C316 618 318 623 318 627C318 631 316 635 311 640L307 644C302 649 298 651 294 651C289 651 285 649 280 645C267 633 249 623 231 623Z" glyph-name="itilde" horiz-adv-x="230" unicode="&#297;" /><glyph d="M234 660C234 687 216 707 187 707C154 707 127 681 127 646C127 619 145 599 174 599C207 599 234 625 234 660ZM106 -57 188 462C190 474 185 480 173 480H133C120 480 114 475 112 462L33 -41C23 -103 1 -145 -49 -145C-61 -145 -73 -142 -82 -138C-95 -133 -101 -135 -106 -147L-117 -170C-122 -181 -119 -189 -109 -195C-90 -205 -67 -210 -41 -210C37 -210 89 -166 106 -57Z" glyph-name="j" horiz-adv-x="230" unicode="j" /><glyph d="M106 -57 188 462C190 474 185 480 173 480H133C120 480 114 475 112 462L33 -41C23 -103 1 -145 -49 -145C-61 -145 -73 -142 -82 -138C-95 -133 -101 -135 -106 -147L-117 -170C-122 -181 -119 -189 -109 -195C-90 -205 -67 -210 -41 -210C37 -210 89 -166 106 -57ZM179 615 261 556C266 552 270 550 274 550C279 550 283 553 288 558L296 567C300 571 302 576 302 580C302 584 300 589 295 593L202 676C197 681 192 683 187 683C181 683 176 681 171 678L46 595C40 591 37 586 37 581C37 577 39 572 42 567L47 559C51 553 55 550 61 550C64 550 67 551 72 554Z" glyph-name="jcircumflex" horiz-adv-x="230" unicode="&#309;" /><glyph d="M118 18 145 186C166 202 187 218 208 235C260 165 302 89 337 18C343 5 348 0 361 0H404C414 0 418 4 418 10C418 13 417 17 415 22C372 110 320 200 261 280C323 335 383 396 438 459C443 465 445 469 445 472C445 476 442 480 435 480H384C371 480 363 476 355 466C309 409 229 330 158 270L226 700C228 712 223 718 211 718H171C158 718 152 713 150 700L42 18C40 6 45 0 57 0H97C110 0 116 5 118 18Z" glyph-name="k" horiz-adv-x="463" unicode="k" /><glyph d="M97 0C110 0 116 5 118 18L226 700C228 712 223 718 211 718H171C158 718 152 713 150 700L42 18C40 6 45 0 57 0Z" glyph-name="l" horiz-adv-x="230" unicode="l" /><glyph d="M97 0C110 0 116 5 118 18L226 700C228 712 223 718 211 718H171C158 718 152 713 150 700L42 18C40 6 45 0 57 0ZM284 887C280 893 276 895 271 895C266 895 262 893 257 889L133 788C128 784 125 779 125 774C125 770 127 766 130 762L136 754C140 749 145 745 151 745C154 745 158 746 162 749L296 841C302 845 304 849 304 854C304 857 303 861 299 866Z" glyph-name="lacute" horiz-adv-x="230" unicode="&#314;" /><glyph d="M97 0C110 0 116 5 118 18L226 700C228 712 223 718 211 718H171C158 718 152 713 150 700L42 18C40 6 45 0 57 0ZM287 545C294 545 298 548 302 556L368 684C371 690 372 694 372 697C372 703 368 707 360 710L329 720C326 721 320 722 317 722C310 722 305 717 303 708L268 571C267 568 266 562 266 560C266 549 280 545 287 545Z" glyph-name="lcaron" horiz-adv-x="230" unicode="&#318;" /><glyph d="M97 0C110 0 116 5 118 18L226 700C228 712 223 718 211 718H171C158 718 152 713 150 700L42 18C40 6 45 0 57 0ZM358 294C358 324 340 346 307 346C270 346 244 317 244 280C244 250 262 228 295 228C332 228 358 257 358 294Z" glyph-name="ldot" horiz-adv-x="353" unicode="&#320;" /><glyph d="M422 124 435 142C439 147 440 151 440 154C440 160 437 163 431 167L150 329L485 494C493 498 496 503 496 509C496 512 495 515 493 520L485 538C482 545 478 549 472 549C469 549 466 548 462 546L108 370C95 363 91 356 89 344L87 330C86 323 86 317 86 315C86 305 90 298 98 293L398 119C403 116 406 115 410 115C415 115 418 118 422 124Z" glyph-name="less" horiz-adv-x="532" unicode="&lt;" /><glyph d="M424 132 437 150C441 155 442 159 442 162C442 168 439 172 433 175L152 327L484 482C492 486 495 491 495 497C495 500 494 503 492 508L484 526C481 533 477 537 471 537C468 537 465 536 461 534L107 368C95 362 90 354 88 342L86 328C85 321 85 315 85 313C85 303 89 295 97 291L400 127C405 124 408 123 412 123C417 123 420 126 424 132ZM397 0C410 0 416 5 418 18L422 40C424 52 419 58 407 58H62C49 58 43 53 41 40L37 18C35 6 40 0 52 0Z" glyph-name="lessequal" horiz-adv-x="532" unicode="&#8804;" /><glyph d="M465 360H86C73 360 67 355 65 342L61 320C59 308 64 302 76 302H408L378 109C376 97 381 91 393 91H422C435 91 441 96 443 109L480 342C482 354 477 360 465 360Z" glyph-name="logicalnot" horiz-adv-x="532" unicode="&#172;" /><glyph d="M563 183C570 192 575 203 577 215L581 239C582 246 583 255 583 259C583 267 581 274 578 281L411 646C406 658 399 662 386 662H359C346 662 338 658 330 648L44 279C37 270 32 259 30 247L26 223C25 216 24 207 24 203C24 195 26 188 29 181L196 -184C201 -196 208 -200 221 -200H248C261 -200 269 -196 277 -186ZM520 240 240 -121 87 222 367 583Z" glyph-name="lozenge" horiz-adv-x="606" unicode="&#9674;" /><glyph d="M123 18 177 356 244 391C256 397 261 404 263 417L268 448C269 455 269 456 269 457C269 463 266 466 261 466C259 466 256 465 250 462L188 430L231 700C233 712 228 718 216 718H176C163 718 157 713 155 700L105 387L38 352C26 346 21 339 19 326L14 295C13 288 13 287 13 286C13 280 16 277 21 277C23 277 26 278 32 281L94 313L47 18C45 6 50 0 62 0H102C115 0 121 5 123 18Z" glyph-name="lslash" horiz-adv-x="240" unicode="&#322;" /><glyph d="M118 18 154 247C170 349 227 428 312 428C373 428 387 386 387 339C387 326 386 311 382 284L340 18C338 6 343 0 355 0H395C408 0 414 5 416 18L452 247C468 349 525 428 610 428C671 428 685 386 685 339C685 326 684 311 680 284L638 18C636 6 641 0 653 0H693C706 0 712 5 714 18L756 284C759 302 761 331 761 350C761 434 722 490 631 490C558 490 497 453 455 390C441 458 399 490 332 490C264 490 210 457 174 398L184 462C186 474 181 480 169 480H133C120 480 114 475 112 462L42 18C40 6 45 0 57 0H97C110 0 116 5 118 18Z" glyph-name="m" horiz-adv-x="823" unicode="m" /><glyph d="M322 631H131C118 631 112 627 110 613L109 604C108 595 108 594 108 592C108 581 113 577 124 577H315C328 577 334 581 336 595L337 604C338 613 338 614 338 616C338 627 333 631 322 631Z" glyph-name="macron" horiz-adv-x="336" unicode="&#175;" /><glyph d="M353 796H162C149 796 143 792 141 778L140 769C139 760 139 759 139 757C139 746 144 742 155 742H346C359 742 365 746 367 760L368 769C369 778 369 779 369 781C369 792 364 796 353 796Z" glyph-name="macron.case" horiz-adv-x="336" /><glyph d="M476 302C489 302 495 307 497 320L501 342C503 354 498 360 486 360H86C73 360 67 355 65 342L61 320C59 308 64 302 76 302Z" glyph-name="minus" horiz-adv-x="532" unicode="&#8722;" /><glyph d="M426 140 445 156C450 160 453 164 453 169C453 173 451 177 447 182L323 328L499 477C505 482 507 486 507 490C507 494 506 497 502 502L486 521C482 526 478 528 474 528C470 528 466 527 461 523L285 373L161 520C157 525 153 528 148 528C144 528 140 526 135 522L116 506C111 502 108 498 108 493C108 489 110 485 114 480L238 334L62 185C56 180 54 176 54 172C54 168 55 165 59 160L75 141C79 136 83 134 87 134C91 134 95 135 100 139L276 289L400 142C404 137 408 134 413 134C417 134 421 136 426 140Z" glyph-name="multiply" horiz-adv-x="532" unicode="&#215;" /><glyph d="M118 18 154 247C170 349 232 428 317 428C378 428 397 387 397 338C397 327 396 311 392 284L350 18C348 6 353 0 365 0H405C418 0 424 5 426 18L468 284C471 302 473 331 473 349C473 434 429 490 338 490C269 490 212 457 174 399L184 462C186 474 181 480 169 480H133C120 480 114 475 112 462L42 18C40 6 45 0 57 0H97C110 0 116 5 118 18Z" glyph-name="n" horiz-adv-x="535" unicode="n" /><glyph d="M118 18 154 247C170 349 232 428 317 428C378 428 397 387 397 338C397 327 396 311 392 284L350 18C348 6 353 0 365 0H405C418 0 424 5 426 18L468 284C471 302 473 331 473 349C473 434 429 490 338 490C269 490 212 457 174 399L184 462C186 474 181 480 169 480H133C120 480 114 475 112 462L42 18C40 6 45 0 57 0H97C110 0 116 5 118 18ZM406 688C402 694 398 696 393 696C388 696 384 694 379 690L255 589C250 585 247 580 247 575C247 571 249 567 252 563L258 555C262 550 267 546 273 546C276 546 280 547 284 550L418 642C424 646 426 650 426 655C426 658 425 662 421 667Z" glyph-name="nacute" horiz-adv-x="535" unicode="&#324;" /><glyph d="M247 18 283 247C299 349 361 428 446 428C507 428 526 387 526 338C526 327 525 311 521 284L479 18C477 6 482 0 494 0H534C547 0 553 5 555 18L597 284C600 302 602 331 602 349C602 434 558 490 467 490C398 490 341 457 303 399L313 462C315 474 310 480 298 480H262C249 480 243 475 241 462L171 18C169 6 174 0 186 0H226C239 0 245 5 247 18ZM214 673C214 705 194 723 166 723C131 723 107 695 107 664C107 635 128 621 128 591C128 574 121 555 95 521C92 517 90 513 90 509C90 505 93 501 98 497L101 495C105 492 109 491 112 491C117 491 121 493 126 498C182 555 214 631 214 673Z" glyph-name="napostrophe" horiz-adv-x="664" unicode="&#329;" /><glyph d="M118 18 154 247C170 349 232 428 317 428C378 428 397 387 397 338C397 327 396 311 392 284L350 18C348 6 353 0 365 0H405C418 0 424 5 426 18L468 284C471 302 473 331 473 349C473 434 429 490 338 490C269 490 212 457 174 399L184 462C186 474 181 480 169 480H133C120 480 114 475 112 462L42 18C40 6 45 0 57 0H97C110 0 116 5 118 18ZM334 619 252 678C247 682 243 684 239 684C234 684 230 681 225 676L217 667C213 663 211 658 211 654C211 650 213 645 218 641L311 558C316 553 321 551 326 551C332 551 337 553 342 556L467 639C473 643 476 648 476 653C476 657 474 662 471 667L466 675C462 681 458 684 452 684C449 684 446 683 441 680Z" glyph-name="ncaron" horiz-adv-x="535" unicode="&#328;" /><glyph d="M492 328C498 364 501 398 501 431C501 601 424 672 308 672C152 672 73 544 73 424C73 308 136 241 241 241C302 241 359 262 409 305C374 148 282 56 158 56C129 56 104 61 79 71C67 76 60 74 55 62L41 34C35 24 38 15 49 11C74 0 113 -10 161 -10C357 -10 463 154 492 328ZM151 425C151 508 200 609 305 609C380 609 425 557 425 449C425 424 423 397 419 364C372 323 315 304 263 304C189 304 151 347 151 425Z" glyph-name="nine" horiz-adv-x="532" unicode="9" /><glyph d="M144 104 224 212H453C466 212 472 217 474 230L478 252C480 264 475 270 463 270H267L358 392H482C495 392 501 397 503 410L507 432C509 444 504 450 492 450H401L477 553C480 557 481 560 481 563C481 568 478 571 470 571H445C432 571 425 568 417 558L337 450H108C95 450 89 445 87 432L83 410C81 398 86 392 98 392H294L203 270H79C66 270 60 265 58 252L54 230C52 218 57 212 69 212H160L84 109C81 105 80 102 80 99C80 94 83 91 91 91H116C129 91 136 94 144 104Z" glyph-name="notequal" horiz-adv-x="532" unicode="&#8800;" /><glyph d="M118 18 154 247C170 349 232 428 317 428C378 428 397 387 397 338C397 327 396 311 392 284L350 18C348 6 353 0 365 0H405C418 0 424 5 426 18L468 284C471 302 473 331 473 349C473 434 429 490 338 490C269 490 212 457 174 399L184 462C186 474 181 480 169 480H133C120 480 114 475 112 462L42 18C40 6 45 0 57 0H97C110 0 116 5 118 18ZM391 623C358 623 330 657 286 657C249 657 217 633 198 608C195 604 193 599 193 595C193 591 195 587 200 582L204 578C209 573 213 571 217 571C222 571 226 573 231 577C244 589 262 599 280 599C313 599 341 565 385 565C422 565 454 589 473 614C476 618 478 623 478 627C478 631 476 635 471 640L467 644C462 649 458 651 454 651C449 651 445 649 440 645C427 633 409 623 391 623Z" glyph-name="ntilde" horiz-adv-x="535" unicode="&#241;" /><glyph d="M185 480H106C93 480 87 475 85 462L83 449C82 442 82 441 82 439C82 428 87 424 98 424H168L109 238H30C17 238 11 233 9 220L7 207C6 200 6 199 6 197C6 186 11 182 22 182H91L38 17C35 6 39 0 51 0H82C95 0 101 5 105 17L158 182H295L243 17C240 6 243 0 255 0H286C299 0 305 5 309 17L362 182H442C455 182 461 187 463 200L465 213C466 220 466 221 466 223C466 234 461 238 450 238H380L439 424H518C531 424 537 429 539 442L541 455C542 462 542 463 542 465C542 476 537 480 526 480H456L509 645C512 656 508 662 496 662H465C452 662 446 657 442 645L389 480H252L305 645C308 656 304 662 292 662H261C248 662 242 657 238 645ZM313 238H176L235 424H372Z" glyph-name="numbersign" horiz-adv-x="518" unicode="#" /><glyph d="M472 287C472 402 417 490 288 490C115 490 37 331 37 193C37 78 92 -10 221 -10C394 -10 472 149 472 287ZM114 191C114 305 172 429 286 429C362 429 395 374 395 289C395 175 337 51 223 51C147 51 114 106 114 191Z" glyph-name="o" horiz-adv-x="509" unicode="o" /><glyph d="M472 287C472 402 417 490 288 490C115 490 37 331 37 193C37 78 92 -10 221 -10C394 -10 472 149 472 287ZM114 191C114 305 172 429 286 429C362 429 395 374 395 289C395 175 337 51 223 51C147 51 114 106 114 191ZM385 688C381 694 377 696 372 696C367 696 363 694 358 690L234 589C229 585 226 580 226 575C226 571 228 567 231 563L237 555C241 550 246 546 252 546C255 546 259 547 263 550L397 642C403 646 405 650 405 655C405 658 404 662 400 667Z" glyph-name="oacute" horiz-adv-x="509" unicode="&#243;" /><glyph d="M472 287C472 402 417 490 288 490C115 490 37 331 37 193C37 78 92 -10 221 -10C394 -10 472 149 472 287ZM114 191C114 305 172 429 286 429C362 429 395 374 395 289C395 175 337 51 223 51C147 51 114 106 114 191ZM239 656C236 664 233 668 227 668C224 668 220 667 215 665L202 660C193 656 191 652 191 645C191 641 193 632 195 627C210 585 248 548 311 548C371 548 420 582 444 625C448 632 453 641 453 648C453 654 449 658 441 661L428 666C423 668 420 669 417 669C410 669 406 664 402 657C382 624 353 605 313 605C274 605 251 623 239 656Z" glyph-name="obreve" horiz-adv-x="509" unicode="&#335;" /><glyph d="M472 287C472 402 417 490 288 490C115 490 37 331 37 193C37 78 92 -10 221 -10C394 -10 472 149 472 287ZM114 191C114 305 172 429 286 429C362 429 395 374 395 289C395 175 337 51 223 51C147 51 114 106 114 191ZM318 615 400 556C405 552 409 550 413 550C418 550 422 553 427 558L435 567C439 571 441 576 441 580C441 584 439 589 434 593L341 676C336 681 331 683 326 683C320 683 315 681 310 678L185 595C179 591 176 586 176 581C176 577 178 572 181 567L186 559C190 553 194 550 200 550C203 550 206 551 211 554Z" glyph-name="ocircumflex" horiz-adv-x="509" unicode="&#244;" /><glyph d="M472 287C472 402 417 490 288 490C115 490 37 331 37 193C37 78 92 -10 221 -10C394 -10 472 149 472 287ZM114 191C114 305 172 429 286 429C362 429 395 374 395 289C395 175 337 51 223 51C147 51 114 106 114 191ZM279 622C279 647 264 667 235 667C204 667 182 643 182 612C182 587 197 567 226 567C257 567 279 591 279 622ZM449 622C449 647 434 667 405 667C374 667 352 643 352 612C352 587 367 567 396 567C427 567 449 591 449 622Z" glyph-name="odieresis" horiz-adv-x="509" unicode="&#246;" /><glyph d="M733 35C744 42 745 50 739 61L726 83C719 94 712 95 702 88C668 65 624 53 582 53C494 53 463 108 463 199V202H498C714 202 787 261 787 355C787 437 728 490 633 490C554 490 489 447 447 382C422 453 366 490 288 490C115 490 37 331 37 193C37 78 92 -10 221 -10C305 -10 369 32 410 96C436 28 493 -10 578 -10C633 -10 687 5 733 35ZM631 431C682 431 717 405 717 354C717 298 674 257 503 257H468C488 367 554 431 631 431ZM114 191C114 305 172 429 286 429C362 429 395 374 395 289C395 175 337 51 223 51C147 51 114 106 114 191Z" glyph-name="oe" horiz-adv-x="810" unicode="&#339;" /><glyph d="M52 -105C52 -70 81 -41 118 0H74C35 -33 -5 -78 -5 -124C-5 -163 24 -187 72 -187C99 -187 125 -179 146 -167C155 -161 157 -152 152 -142L150 -138C144 -126 137 -125 125 -131C113 -137 100 -139 89 -139C68 -139 52 -130 52 -105Z" glyph-name="ogonek" horiz-adv-x="265" unicode="&#731;" /><glyph d="M472 287C472 402 417 490 288 490C115 490 37 331 37 193C37 78 92 -10 221 -10C394 -10 472 149 472 287ZM114 191C114 305 172 429 286 429C362 429 395 374 395 289C395 175 337 51 223 51C147 51 114 106 114 191ZM198 666C194 661 193 657 193 654C193 649 195 645 201 641L334 549C338 546 342 545 345 545C351 545 356 549 360 554L367 563C370 567 372 571 372 575C372 580 369 585 364 589L242 690C237 694 233 696 228 696C223 696 219 694 215 688Z" glyph-name="ograve" horiz-adv-x="509" unicode="&#242;" /><glyph d="M472 287C472 402 417 490 288 490C115 490 37 331 37 193C37 78 92 -10 221 -10C394 -10 472 149 472 287ZM114 191C114 305 172 429 286 429C362 429 395 374 395 289C395 175 337 51 223 51C147 51 114 106 114 191ZM337 645C342 649 345 654 345 658C345 662 343 666 339 671L322 690C319 694 313 697 309 697C304 697 300 695 295 690L190 581C186 577 184 573 184 569C184 565 186 560 190 556L199 547C203 543 207 541 212 541C216 541 220 542 225 546ZM494 645C499 649 502 654 502 658C502 662 500 666 496 671L479 690C476 694 470 697 466 697C461 697 457 695 452 690L347 581C343 577 341 573 341 569C341 565 343 560 347 556L356 547C360 543 364 541 369 541C373 541 377 542 382 546Z" glyph-name="ohungarumlaut" horiz-adv-x="509" unicode="&#337;" /><glyph d="M472 287C472 402 417 490 288 490C115 490 37 331 37 193C37 78 92 -10 221 -10C394 -10 472 149 472 287ZM114 191C114 305 172 429 286 429C362 429 395 374 395 289C395 175 337 51 223 51C147 51 114 106 114 191ZM413 631H222C209 631 203 627 201 613L200 604C199 595 199 594 199 592C199 581 204 577 215 577H406C419 577 425 581 427 595L428 604C429 613 429 614 429 616C429 627 424 631 413 631Z" glyph-name="omacron" horiz-adv-x="509" unicode="&#333;" /><glyph d="M437 18 440 39C441 48 441 49 441 51C441 62 436 66 425 66H306L396 637C397 644 397 647 397 649C397 658 392 662 382 662H350C338 662 327 658 317 652L150 548C143 544 141 539 141 534C141 530 142 526 144 522L153 502C156 496 161 492 167 492C170 492 174 493 179 496L310 574L229 66H99C86 66 80 61 78 48L75 27C74 18 74 17 74 15C74 4 79 0 90 0H416C429 0 435 5 437 18Z" glyph-name="one" horiz-adv-x="532" unicode="1" /><glyph d="M312 296 313 303C314 310 314 313 314 315C314 324 309 328 299 328H239L288 637C289 644 289 647 289 649C289 658 284 662 274 662H261C249 662 238 659 227 653L137 603C129 599 125 593 125 586C125 583 126 580 127 577L131 567C134 560 139 557 145 557C148 557 152 558 159 562L219 596L176 328H111C98 328 92 323 90 310L89 303C88 296 88 293 88 291C88 282 93 278 103 278H291C304 278 310 283 312 296ZM743 642C747 647 748 650 748 653C748 658 744 661 735 661H704C691 661 683 657 674 647L425 347L142 18C138 13 137 10 137 7C137 2 141 -1 150 -1H181C194 -1 202 3 211 13L460 313ZM747 18 749 32C751 44 746 50 734 50H571C581 87 607 113 668 151C754 203 786 242 786 293C786 350 740 390 675 390C631 390 591 371 564 343C555 334 555 326 562 317L574 303C582 294 591 294 601 304C622 325 647 338 671 338C704 338 724 320 724 291C724 257 704 234 641 196C572 154 520 109 507 34L506 28C505 22 505 17 505 15C505 4 510 0 521 0H726C739 0 745 5 747 18Z" glyph-name="onehalf" horiz-adv-x="838" unicode="&#189;" /><glyph d="M312 296 313 303C314 310 314 313 314 315C314 324 309 328 299 328H239L288 637C289 644 289 647 289 649C289 658 284 662 274 662H261C249 662 238 659 227 653L137 603C129 599 125 593 125 586C125 583 126 580 127 577L131 567C134 560 139 557 145 557C148 557 152 558 159 562L219 596L176 328H111C98 328 92 323 90 310L89 303C88 296 88 293 88 291C88 282 93 278 103 278H291C304 278 310 283 312 296ZM764 643C768 648 769 651 769 654C769 659 765 662 756 662H725C712 662 704 658 695 648L446 348L163 19C159 14 158 11 158 8C158 3 162 0 171 0H202C215 0 223 4 232 14L481 314ZM726 18 736 82H770C783 82 789 87 791 100L792 107C793 113 793 115 793 117C793 127 788 131 778 131H744L780 360C781 366 781 368 781 370C781 380 776 384 766 384H720C707 384 701 380 692 369L515 146C509 138 505 129 503 119L501 106C500 100 500 98 500 96C500 86 505 82 515 82H677L668 24C667 18 667 16 667 14C667 4 672 0 682 0H705C718 0 724 5 726 18ZM717 321 687 129H566Z" glyph-name="onequarter" horiz-adv-x="838" unicode="&#188;" /><glyph d="M312 296 313 303C314 310 314 313 314 315C314 324 309 328 299 328H239L288 637C289 644 289 647 289 649C289 658 284 662 274 662H261C249 662 238 659 227 653L137 603C129 599 125 593 125 586C125 583 126 580 127 577L131 567C134 560 139 557 145 557C148 557 152 558 159 562L219 596L176 328H111C98 328 92 323 90 310L89 303C88 296 88 293 88 291C88 282 93 278 103 278H291C304 278 310 283 312 296Z" glyph-name="onesuperior" horiz-adv-x="350" unicode="&#185;" /><glyph d="M278 396C276 384 281 378 293 378H315C328 378 334 383 336 396L384 703C386 715 381 721 369 721H345C332 721 326 716 324 703L322 691C304 714 277 728 239 728C146 728 68 633 68 507C68 430 102 370 176 370C219 370 260 394 285 441ZM131 508C131 598 176 678 242 678C270 678 295 666 315 645L301 555C290 482 248 416 194 416C151 416 131 454 131 508Z" glyph-name="ordfeminine" horiz-adv-x="355" unicode="&#170;" /><glyph d="M379 583C379 665 341 728 249 728C126 728 69 614 69 515C69 433 107 370 199 370C322 370 379 484 379 583ZM132 514C132 592 169 678 246 678C296 678 316 642 316 584C316 506 279 420 202 420C152 420 132 456 132 514Z" glyph-name="ordmasculine" horiz-adv-x="350" unicode="&#186;" /><glyph d="M66 -26 108 24C137 2 175 -10 223 -10C396 -10 474 149 474 287C474 338 463 383 440 418L515 506C522 514 519 520 509 520H477C464 520 456 516 447 506L405 456C376 478 338 490 290 490C117 490 39 331 39 193C39 142 50 97 73 62L-2 -26C-9 -34 -6 -40 4 -40H36C49 -40 57 -36 66 -26ZM116 191C116 305 174 429 288 429C319 429 343 420 360 403L125 124C119 143 116 166 116 191ZM397 289C397 175 339 51 225 51C194 51 170 60 153 77L388 356C394 337 397 314 397 289Z" glyph-name="oslash" horiz-adv-x="513" unicode="&#248;" /><glyph d="M472 287C472 402 417 490 288 490C115 490 37 331 37 193C37 78 92 -10 221 -10C394 -10 472 149 472 287ZM114 191C114 305 172 429 286 429C362 429 395 374 395 289C395 175 337 51 223 51C147 51 114 106 114 191ZM370 623C337 623 309 657 265 657C228 657 196 633 177 608C174 604 172 599 172 595C172 591 174 587 179 582L183 578C188 573 192 571 196 571C201 571 205 573 210 577C223 589 241 599 259 599C292 599 320 565 364 565C401 565 433 589 452 614C455 618 457 623 457 627C457 631 455 635 450 640L446 644C441 649 437 651 433 651C428 651 424 649 419 645C406 633 388 623 370 623Z" glyph-name="otilde" horiz-adv-x="509" unicode="&#245;" /><glyph d="M86 -182 122 43C150 8 190 -10 243 -10C386 -10 485 141 485 304C485 414 438 490 336 490C269 490 216 457 173 386L185 462C187 474 182 480 170 480H133C120 480 114 475 112 462L10 -182C8 -194 13 -200 25 -200H65C78 -200 84 -195 86 -182ZM148 210C170 350 242 429 318 429C379 429 408 380 408 305C408 168 339 54 234 54C192 54 157 70 131 102Z" glyph-name="p" horiz-adv-x="521" unicode="p" /><glyph d="M345 -120C358 -120 364 -115 366 -102L477 607H536C549 607 555 612 557 625L559 637C560 646 560 647 560 649C560 657 555 662 545 662H309C145 662 75 581 75 471C75 403 113 349 210 337L141 -102C139 -114 144 -120 156 -120H188C201 -120 207 -115 209 -102L320 607H409L298 -102C296 -114 301 -120 313 -120Z" glyph-name="paragraph" horiz-adv-x="540" unicode="&#182;" /><glyph d="M194 -91C202 -85 206 -81 206 -73C206 -69 205 -66 202 -61C162 15 140 100 140 202C140 382 212 566 326 701C329 705 330 707 330 711C330 715 329 718 323 724L312 735C307 740 304 742 300 742C295 742 292 740 287 735C158 600 74 401 74 216C74 100 103 -5 158 -91C163 -98 167 -101 173 -101C177 -101 182 -99 188 -95Z" glyph-name="parenleft" horiz-adv-x="306" unicode="(" /><glyph d="M137 732C129 726 125 722 125 714C125 710 126 707 129 702C169 626 191 541 191 439C191 259 119 75 5 -60C2 -64 1 -66 1 -70C1 -74 2 -77 8 -83L19 -94C24 -99 27 -101 31 -101C36 -101 39 -99 44 -94C173 41 257 240 257 425C257 541 228 646 173 732C168 739 164 742 158 742C154 742 149 740 143 736Z" glyph-name="parenright" horiz-adv-x="306" unicode=")" /><glyph d="M478 333C478 510 404 660 184 668C171 668 165 663 164 651L160 623C158 611 162 605 175 605C309 599 389 533 404 404C376 438 334 450 287 450C121 450 41 301 41 173C41 68 96 -10 225 -10C433 -10 478 195 478 333ZM118 173C118 274 175 389 292 389C366 389 399 344 399 267C399 166 342 51 225 51C151 51 118 96 118 173Z" glyph-name="partialdiff" horiz-adv-x="516" unicode="&#8706;" /><glyph d="M381 524C381 610 336 672 247 672C127 672 66 557 66 463C66 377 111 315 200 315C320 315 381 430 381 524ZM701 643C705 648 706 651 706 654C706 659 702 662 693 662H662C649 662 641 658 632 648L383 348L100 19C96 14 95 11 95 8C95 3 99 0 108 0H139C152 0 160 4 169 14L418 314ZM129 464C129 540 172 620 244 620C296 620 318 580 318 523C318 447 275 367 203 367C151 367 129 407 129 464ZM735 199C735 285 690 347 601 347C481 347 420 232 420 138C420 52 465 -10 554 -10C674 -10 735 105 735 199ZM483 139C483 215 526 295 598 295C650 295 672 255 672 198C672 122 629 42 557 42C505 42 483 82 483 139Z" glyph-name="percent" horiz-adv-x="772" unicode="%" /><glyph d="M127 58C127 88 109 110 76 110C39 110 13 81 13 44C13 14 31 -8 64 -8C101 -8 127 21 127 58Z" glyph-name="period" horiz-adv-x="200" unicode="." /><glyph d="M165 294C165 324 147 346 114 346C77 346 51 317 51 280C51 250 69 228 102 228C139 228 165 257 165 294Z" glyph-name="periodcentered" horiz-adv-x="200" unicode="&#183;" /><glyph d="M381 524C381 610 336 672 247 672C127 672 66 557 66 463C66 377 111 315 200 315C320 315 381 430 381 524ZM701 643C705 648 706 651 706 654C706 659 702 662 693 662H662C649 662 641 658 632 648L383 348L100 19C96 14 95 11 95 8C95 3 99 0 108 0H139C152 0 160 4 169 14L418 314ZM129 464C129 540 172 620 244 620C296 620 318 580 318 523C318 447 275 367 203 367C151 367 129 407 129 464ZM735 199C735 285 690 347 601 347C481 347 420 232 420 138C420 52 465 -10 554 -10C674 -10 735 105 735 199ZM1096 199C1096 285 1051 347 962 347C842 347 781 232 781 138C781 52 826 -10 915 -10C1035 -10 1096 105 1096 199ZM483 139C483 215 526 295 598 295C650 295 672 255 672 198C672 122 629 42 557 42C505 42 483 82 483 139ZM844 139C844 215 887 295 959 295C1011 295 1033 255 1033 198C1033 122 990 42 918 42C866 42 844 82 844 139Z" glyph-name="perthousand" horiz-adv-x="1133" unicode="&#8240;" /><glyph d="M69 480C56 480 50 475 48 462L45 439C43 427 48 421 60 421H120L56 18C54 6 59 0 71 0H111C124 0 130 5 132 18L196 421H362L318 146C315 129 314 108 314 97C314 25 354 -10 421 -10C447 -10 469 -5 486 3C497 8 501 16 497 28L491 48C487 61 481 64 469 59C459 55 449 53 437 53C403 53 391 71 391 105C391 119 393 135 395 149L438 421H497C510 421 516 426 518 439L521 462C523 474 518 480 506 480Z" glyph-name="pi" horiz-adv-x="528" unicode="&#960;" /><glyph d="M282 131 309 302H476C489 302 495 307 497 320L501 342C503 354 498 360 486 360H318L343 518C345 530 345 534 345 535C345 544 340 549 330 549H301C288 549 282 544 280 531L253 360H86C73 360 67 355 65 342L61 320C59 308 64 302 76 302H244L219 144C217 132 217 128 217 127C217 118 222 113 232 113H261C274 113 280 118 282 131Z" glyph-name="plus" horiz-adv-x="532" unicode="+" /><glyph d="M285 150 309 301H476C489 301 495 306 497 319L501 341C503 353 498 359 486 359H318L340 497C342 509 342 513 342 514C342 523 337 528 327 528H298C285 528 279 523 277 510L253 359H86C73 359 67 354 65 341L61 319C59 307 64 301 76 301H244L222 163C220 151 220 147 220 146C220 137 225 132 235 132H264C277 132 283 137 285 150ZM428 0C441 0 447 5 449 18L453 40C455 52 450 58 438 58H38C25 58 19 53 17 40L13 18C11 6 16 0 28 0Z" glyph-name="plusminus" horiz-adv-x="532" unicode="&#177;" /><glyph d="M173 662C160 662 154 657 152 644L54 24C53 18 53 16 53 14C53 4 58 0 68 0H111C124 0 130 5 132 18L223 596H532L441 24C440 18 440 16 440 14C440 4 445 0 455 0H498C511 0 517 5 519 18L617 638C618 644 618 646 618 648C618 658 613 662 603 662Z" glyph-name="product" horiz-adv-x="633" unicode="&#8719;" /><glyph d="M377 -182 479 462C481 474 476 480 464 480H424C411 480 405 475 403 462L399 437C371 472 331 490 278 490C135 490 36 339 36 176C36 66 83 -10 185 -10C250 -10 302 21 344 88L301 -182C299 -194 304 -200 316 -200H356C369 -200 375 -195 377 -182ZM113 175C113 312 182 426 287 426C329 426 364 410 390 378L373 270C351 130 279 51 203 51C142 51 113 100 113 175Z" glyph-name="q" horiz-adv-x="521" unicode="q" /><glyph d="M183 179C196 179 202 184 205 196C224 264 253 297 311 338C381 387 456 439 456 531C456 607 406 672 290 672C212 672 149 643 106 607C97 599 96 591 103 581L117 559C124 549 131 548 141 556C180 587 226 607 281 607C349 607 376 575 376 527C376 464 330 430 281 395C208 343 160 303 160 213C160 207 160 201 161 195C163 183 167 179 179 179ZM224 58C224 88 206 110 173 110C136 110 110 81 110 44C110 14 128 -8 161 -8C198 -8 224 21 224 58Z" glyph-name="question" horiz-adv-x="426" unicode="?" /><glyph d="M325 438C325 468 307 490 274 490C237 490 211 461 211 424C211 394 229 372 262 372C299 372 325 401 325 438ZM145 -190C223 -190 286 -161 329 -125C338 -117 339 -109 332 -99L318 -77C311 -67 304 -66 294 -74C255 -105 209 -125 154 -125C86 -125 59 -93 59 -45C59 18 105 52 154 87C227 139 275 179 275 269C275 275 275 281 274 287C272 299 268 303 256 303H252C239 303 233 298 230 286C211 218 182 185 124 144C54 95 -21 43 -21 -49C-21 -125 29 -190 145 -190Z" glyph-name="questiondown" horiz-adv-x="376" unicode="&#191;" /><glyph d="M123 490C134 490 139 494 142 504L196 696C198 703 198 706 198 708C198 714 194 718 184 718H136C123 718 118 713 117 700L107 505C106 495 111 490 121 490ZM263 490C274 490 279 494 282 504L336 696C338 703 338 706 338 708C338 714 334 718 324 718H276C263 718 258 713 257 700L247 505C246 495 251 490 261 490Z" glyph-name="quotedbl" horiz-adv-x="316" unicode="&quot;" /><glyph d="M114 60C114 92 94 110 66 110C31 110 7 82 7 51C7 22 28 8 28 -22C28 -39 21 -58 -5 -92C-8 -96 -10 -100 -10 -104C-10 -108 -7 -112 -2 -116L1 -118C5 -121 9 -122 12 -122C17 -122 21 -120 26 -115C82 -58 114 18 114 60ZM262 60C262 92 242 110 214 110C179 110 155 82 155 51C155 22 176 8 176 -22C176 -39 169 -58 143 -92C140 -96 138 -100 138 -104C138 -108 141 -112 146 -116L149 -118C153 -121 157 -122 160 -122C165 -122 169 -120 174 -115C230 -58 262 18 262 60Z" glyph-name="quotedblbase" horiz-adv-x="331" unicode="&#8222;" /><glyph d="M87 536C87 504 107 486 135 486C170 486 194 514 194 545C194 574 173 588 173 618C173 635 180 654 206 688C209 692 211 696 211 700C211 704 208 708 203 712L200 714C196 717 192 718 189 718C184 718 180 716 175 711C119 654 87 578 87 536ZM235 536C235 504 255 486 283 486C318 486 342 514 342 545C342 574 321 588 321 618C321 635 328 654 354 688C357 692 359 696 359 700C359 704 356 708 351 712L348 714C344 717 340 718 337 718C332 718 328 716 323 711C267 654 235 578 235 536Z" glyph-name="quotedblleft" horiz-adv-x="331" unicode="&#8220;" /><glyph d="M214 673C214 705 194 723 166 723C131 723 107 695 107 664C107 635 128 621 128 591C128 574 121 555 95 521C92 517 90 513 90 509C90 505 93 501 98 497L101 495C105 492 109 491 112 491C117 491 121 493 126 498C182 555 214 631 214 673ZM362 673C362 705 342 723 314 723C279 723 255 695 255 664C255 635 276 621 276 591C276 574 269 555 243 521C240 517 238 513 238 509C238 505 241 501 246 497L249 495C253 492 257 491 260 491C265 491 269 493 274 498C330 555 362 631 362 673Z" glyph-name="quotedblright" horiz-adv-x="331" unicode="&#8221;" /><glyph d="M87 536C87 504 107 486 135 486C170 486 194 514 194 545C194 574 173 588 173 618C173 635 180 654 206 688C209 692 211 696 211 700C211 704 208 708 203 712L200 714C196 717 192 718 189 718C184 718 180 716 175 711C119 654 87 578 87 536Z" glyph-name="quoteleft" horiz-adv-x="183" unicode="&#8216;" /><glyph d="M214 673C214 705 194 723 166 723C131 723 107 695 107 664C107 635 128 621 128 591C128 574 121 555 95 521C92 517 90 513 90 509C90 505 93 501 98 497L101 495C105 492 109 491 112 491C117 491 121 493 126 498C182 555 214 631 214 673Z" glyph-name="quoteright" horiz-adv-x="183" unicode="&#8217;" /><glyph d="M114 60C114 92 94 110 66 110C31 110 7 82 7 51C7 22 28 8 28 -22C28 -39 21 -58 -5 -92C-8 -96 -10 -100 -10 -104C-10 -108 -7 -112 -2 -116L1 -118C5 -121 9 -122 12 -122C17 -122 21 -120 26 -115C82 -58 114 18 114 60Z" glyph-name="quotesinglbase" horiz-adv-x="183" unicode="&#8218;" /><glyph d="M123 490C134 490 139 494 142 504L196 696C198 703 198 706 198 708C198 714 194 718 184 718H136C123 718 118 713 117 700L107 505C106 495 111 490 121 490Z" glyph-name="quotesingle" horiz-adv-x="176" unicode="'" /><glyph d="M118 18 153 241C168 337 215 419 294 419C308 419 319 416 322 415C330 412 335 411 338 411C343 411 348 414 351 422L367 461C368 464 369 467 369 470C369 476 364 480 357 483C345 488 327 490 314 490C257 490 205 456 174 396L184 462C186 474 181 480 169 480H133C120 480 114 475 112 462L42 18C40 6 45 0 57 0H97C110 0 116 5 118 18Z" glyph-name="r" horiz-adv-x="345" unicode="r" /><glyph d="M118 18 153 241C168 337 215 419 294 419C308 419 319 416 322 415C330 412 335 411 338 411C343 411 348 414 351 422L367 461C368 464 369 467 369 470C369 476 364 480 357 483C345 488 327 490 314 490C257 490 205 456 174 396L184 462C186 474 181 480 169 480H133C120 480 114 475 112 462L42 18C40 6 45 0 57 0H97C110 0 116 5 118 18ZM335 688C331 694 327 696 322 696C317 696 313 694 308 690L184 589C179 585 176 580 176 575C176 571 178 567 181 563L187 555C191 550 196 546 202 546C205 546 209 547 213 550L347 642C353 646 355 650 355 655C355 658 354 662 350 667Z" glyph-name="racute" horiz-adv-x="345" unicode="&#341;" /><glyph d="M177 421 231 18C232 5 238 0 251 0H290C303 0 310 4 316 16L638 692C642 700 644 705 644 709C644 715 640 718 632 718H593C580 718 573 714 567 702L289 114L247 462C246 475 240 480 227 480H74C61 480 55 475 53 462L50 445C49 438 49 435 49 434C49 425 54 421 64 421Z" glyph-name="radical" horiz-adv-x="646" unicode="&#8730;" /><glyph d="M118 18 153 241C168 337 215 419 294 419C308 419 319 416 322 415C330 412 335 411 338 411C343 411 348 414 351 422L367 461C368 464 369 467 369 470C369 476 364 480 357 483C345 488 327 490 314 490C257 490 205 456 174 396L184 462C186 474 181 480 169 480H133C120 480 114 475 112 462L42 18C40 6 45 0 57 0H97C110 0 116 5 118 18ZM263 619 181 678C176 682 172 684 168 684C163 684 159 681 154 676L146 667C142 663 140 658 140 654C140 650 142 645 147 641L240 558C245 553 250 551 255 551C261 551 266 553 271 556L396 639C402 643 405 648 405 653C405 657 403 662 400 667L395 675C391 681 387 684 381 684C378 684 375 683 370 680Z" glyph-name="rcaron" horiz-adv-x="345" unicode="&#345;" /><glyph d="M611 490C611 643 506 728 366 728C186 728 61 587 61 418C61 265 166 180 306 180C486 180 611 321 611 490ZM106 419C106 564 210 688 363 688C479 688 566 620 566 489C566 344 462 220 309 220C193 220 106 288 106 419ZM269 322 285 419H324C351 385 371 351 383 322C389 308 393 304 406 304H425C437 304 443 310 438 322C423 357 400 395 373 430C426 441 461 476 461 526C461 574 433 611 357 611H279C266 611 260 606 258 593L215 322C213 310 218 304 230 304H248C261 304 267 309 269 322ZM308 569H352C391 569 405 551 405 523C405 485 376 460 333 460H291Z" glyph-name="registered" horiz-adv-x="604" unicode="&#174;" /><glyph d="M319 654C319 710 281 746 224 746C157 746 108 695 108 632C108 576 146 540 203 540C270 540 319 591 319 654ZM154 633C154 674 182 706 222 706C251 706 273 688 273 653C273 612 245 580 205 580C176 580 154 598 154 633Z" glyph-name="ring" horiz-adv-x="311" unicode="&#730;" /><glyph d="M347 799C347 855 309 891 252 891C185 891 136 840 136 777C136 721 174 685 231 685C298 685 347 736 347 799ZM182 778C182 819 210 851 250 851C279 851 301 833 301 798C301 757 273 725 233 725C204 725 182 743 182 778Z" glyph-name="ring.case" horiz-adv-x="311" /><glyph d="M301 132C301 88 263 52 192 52C142 52 93 72 52 105C42 113 35 112 27 103L7 79C0 70 -1 62 7 55C51 16 118 -10 192 -10C302 -10 376 50 376 138C376 201 336 243 246 270C156 297 139 316 139 353C139 397 177 428 235 428C281 428 322 414 356 392C367 385 374 386 382 397L398 421C404 431 403 439 393 446C351 474 294 490 235 490C134 490 64 430 64 347C64 284 104 242 194 215C284 188 301 169 301 132Z" glyph-name="s" horiz-adv-x="432" unicode="s" /><glyph d="M301 132C301 88 263 52 192 52C142 52 93 72 52 105C42 113 35 112 27 103L7 79C0 70 -1 62 7 55C51 16 118 -10 192 -10C302 -10 376 50 376 138C376 201 336 243 246 270C156 297 139 316 139 353C139 397 177 428 235 428C281 428 322 414 356 392C367 385 374 386 382 397L398 421C404 431 403 439 393 446C351 474 294 490 235 490C134 490 64 430 64 347C64 284 104 242 194 215C284 188 301 169 301 132ZM349 688C345 694 341 696 336 696C331 696 327 694 322 690L198 589C193 585 190 580 190 575C190 571 192 567 195 563L201 555C205 550 210 546 216 546C219 546 223 547 227 550L361 642C367 646 369 650 369 655C369 658 368 662 364 667Z" glyph-name="sacute" horiz-adv-x="432" unicode="&#347;" /><glyph d="M301 132C301 88 263 52 192 52C142 52 93 72 52 105C42 113 35 112 27 103L7 79C0 70 -1 62 7 55C51 16 118 -10 192 -10C302 -10 376 50 376 138C376 201 336 243 246 270C156 297 139 316 139 353C139 397 177 428 235 428C281 428 322 414 356 392C367 385 374 386 382 397L398 421C404 431 403 439 393 446C351 474 294 490 235 490C134 490 64 430 64 347C64 284 104 242 194 215C284 188 301 169 301 132ZM277 619 195 678C190 682 186 684 182 684C177 684 173 681 168 676L160 667C156 663 154 658 154 654C154 650 156 645 161 641L254 558C259 553 264 551 269 551C275 551 280 553 285 556L410 639C416 643 419 648 419 653C419 657 417 662 414 667L409 675C405 681 401 684 395 684C392 684 389 683 384 680Z" glyph-name="scaron" horiz-adv-x="432" unicode="&#353;" /><glyph d="M301 132C301 88 263 52 192 52C142 52 93 72 52 105C42 113 35 112 27 103L7 79C0 70 -1 62 7 55C51 16 118 -10 192 -10C302 -10 376 50 376 138C376 201 336 243 246 270C156 297 139 316 139 353C139 397 177 428 235 428C281 428 322 414 356 392C367 385 374 386 382 397L398 421C404 431 403 439 393 446C351 474 294 490 235 490C134 490 64 430 64 347C64 284 104 242 194 215C284 188 301 169 301 132ZM282 615 364 556C369 552 373 550 377 550C382 550 386 553 391 558L399 567C403 571 405 576 405 580C405 584 403 589 398 593L305 676C300 681 295 683 290 683C284 683 279 681 274 678L149 595C143 591 140 586 140 581C140 577 142 572 145 567L150 559C154 553 158 550 164 550C167 550 170 551 175 554Z" glyph-name="scircumflex" horiz-adv-x="432" unicode="&#349;" /><glyph d="M370 0C370 47 352 78 325 101C395 129 441 187 441 257C441 352 358 387 294 412C234 435 185 455 185 512C185 564 225 607 312 607C360 607 400 594 427 576C438 569 445 570 453 580L472 604C479 613 478 622 468 629C438 651 384 672 315 672C195 672 111 608 111 507C111 459 129 428 156 405C86 377 40 319 40 249C40 154 123 119 187 94C249 70 296 50 296 -6C296 -58 254 -101 165 -101C117 -101 73 -88 44 -70C33 -62 26 -63 18 -74L-1 -98C-8 -107 -7 -116 3 -122C35 -145 94 -166 163 -166C284 -166 370 -102 370 0ZM368 245C368 195 329 147 278 129C259 138 239 146 219 154C150 180 113 212 113 261C113 310 152 359 202 376C221 367 242 359 262 352C332 326 368 293 368 245Z" glyph-name="section" horiz-adv-x="492" unicode="&#167;" /><glyph d="M193 435C193 465 175 487 142 487C105 487 79 458 79 421C79 391 97 369 130 369C167 369 193 398 193 435ZM133 57C133 91 112 110 82 110C44 110 19 80 19 47C19 16 41 0 41 -29C41 -49 31 -73 2 -111C-1 -115 -3 -119 -3 -122C-3 -127 0 -131 6 -135L9 -137C14 -140 18 -141 22 -141C26 -141 30 -140 35 -135C95 -72 133 12 133 57Z" glyph-name="semicolon" horiz-adv-x="212" unicode=";" /><glyph d="M206 17C277 248 397 457 523 592C531 601 536 611 538 623L540 637C541 644 541 647 541 649C541 658 536 662 526 662H157C144 662 138 657 136 644L133 622C132 615 132 610 132 609C132 600 137 596 147 596H438C313 459 196 243 124 26C122 20 121 15 121 11C121 4 124 0 134 0H183C196 0 202 4 206 17Z" glyph-name="seven" horiz-adv-x="532" unicode="7" /><glyph d="M487 238C487 354 424 421 319 421C258 421 201 400 151 357C186 514 278 606 402 606C431 606 456 601 481 591C493 586 500 588 505 600L519 628C525 638 522 647 511 651C486 662 447 672 399 672C203 672 97 508 68 334C62 298 59 264 59 231C59 61 136 -10 252 -10C408 -10 487 118 487 238ZM135 213C135 238 137 265 141 298C188 339 245 358 297 358C371 358 409 315 409 237C409 154 360 53 255 53C180 53 135 105 135 213Z" glyph-name="six" horiz-adv-x="532" unicode="6" /><glyph d="M-36 -69C-38 -73 -39 -76 -39 -79C-39 -86 -34 -90 -25 -90H2C14 -90 20 -86 26 -74L415 731C417 735 418 738 418 741C418 748 413 752 404 752H377C365 752 359 748 353 736Z" glyph-name="slash" horiz-adv-x="350" unicode="/" /><glyph glyph-name="space" horiz-adv-x="230" unicode=" " /><glyph d="M173 300C176 284 177 268 177 257C177 183 130 114 64 76C52 69 47 63 45 49L41 24C40 17 40 15 40 13C40 4 45 0 55 0H419C432 0 438 5 440 18L445 46C447 58 442 64 430 64H138C218 114 248 188 248 268C248 278 248 289 247 300H398C411 300 417 305 419 318L423 344C425 356 420 362 408 362H237C231 398 224 432 224 465C224 547 265 605 359 605C413 605 458 586 488 565C499 558 505 558 512 569L530 596C533 600 534 604 534 608C534 613 532 618 526 622C493 647 433 672 359 672C215 672 150 577 150 472C150 437 157 398 163 362H99C86 362 80 357 78 344L74 318C72 306 77 300 89 300Z" glyph-name="sterling" horiz-adv-x="532" unicode="&#163;" /><glyph d="M377 0C390 0 396 5 398 18L402 42C403 50 403 51 403 53C403 62 398 66 388 66H115L353 291C362 299 367 308 369 321L371 332C372 338 373 344 373 347C373 356 370 362 364 370L193 596H471C484 596 490 601 492 614L496 638C497 646 497 647 497 649C497 658 492 662 482 662H134C121 662 115 657 113 644L109 619C108 612 107 606 107 603C107 594 110 588 116 580L301 334L35 80C26 72 21 63 19 50L15 24C14 16 14 15 14 13C14 4 19 0 29 0Z" glyph-name="summation" horiz-adv-x="486" unicode="&#8721;" /><glyph d="M279 12C289 18 292 26 287 37L276 61C271 72 264 74 253 68C235 59 218 55 199 55C160 55 147 74 147 104C147 116 149 131 151 144L195 421H322C335 421 341 426 343 439L346 462C348 474 343 480 331 480H204L222 592C224 604 219 610 207 610H167C154 610 148 605 146 592L128 480H65C52 480 46 475 44 462L41 439C39 427 44 421 56 421H119L75 146C72 128 71 112 71 100C71 22 115 -10 186 -10C218 -10 252 -4 279 12Z" glyph-name="t" horiz-adv-x="333" unicode="t" /><glyph d="M284 12C294 18 297 26 292 37L281 61C276 72 269 74 258 68C240 59 223 55 204 55C165 55 152 74 152 104C152 116 154 131 156 144L173 250H279C292 250 298 255 300 268L303 285C305 297 300 303 288 303H181L200 421H327C340 421 346 426 348 439L351 462C353 474 348 480 336 480H209L227 592C229 604 224 610 212 610H172C159 610 153 605 151 592L133 480H70C57 480 51 475 49 462L46 439C44 427 49 421 61 421H124L105 303H65C52 303 46 298 44 285L41 268C39 256 44 250 56 250H97L80 146C77 128 76 112 76 100C76 22 120 -10 191 -10C223 -10 257 -4 284 12Z" glyph-name="tbar" horiz-adv-x="343" unicode="&#359;" /><glyph d="M279 12C289 18 292 26 287 37L276 61C271 72 264 74 253 68C235 59 218 55 199 55C160 55 147 74 147 104C147 116 149 131 151 144L195 421H322C335 421 341 426 343 439L346 462C348 474 343 480 331 480H204L222 592C224 604 219 610 207 610H167C154 610 148 605 146 592L128 480H65C52 480 46 475 44 462L41 439C39 427 44 421 56 421H119L75 146C72 128 71 112 71 100C71 22 115 -10 186 -10C218 -10 252 -4 279 12ZM303 545C310 545 314 548 318 556L384 684C387 690 388 694 388 697C388 703 384 707 376 710L345 720C342 721 336 722 333 722C326 722 321 717 319 708L284 571C283 568 282 562 282 560C282 549 296 545 303 545Z" glyph-name="tcaron" horiz-adv-x="333" unicode="&#357;" /><glyph d="M279 12C289 18 292 26 287 37L276 61C271 72 264 74 253 68C235 59 218 55 199 55C160 55 147 74 147 104C147 116 149 131 151 144L195 421H322C335 421 341 426 343 439L346 462C348 474 343 480 331 480H204L222 592C224 604 219 610 207 610H167C154 610 148 605 146 592L128 480H65C52 480 46 475 44 462L41 439C39 427 44 421 56 421H119L75 146C72 128 71 112 71 100C71 22 115 -10 186 -10C218 -10 252 -4 279 12ZM203 -88C203 -61 188 -47 162 -47C134 -47 113 -64 113 -91C113 -116 130 -120 130 -144C130 -158 126 -171 104 -194C101 -197 100 -200 100 -203C100 -206 102 -209 106 -212L109 -214C112 -216 115 -217 118 -217C124 -217 130 -212 133 -209C166 -177 203 -131 203 -88Z" glyph-name="tcommaaccent" horiz-adv-x="333" unicode="&#355;" /><glyph d="M86 -182 122 43C150 8 190 -10 243 -10C386 -10 485 141 485 304C485 414 438 490 336 490C271 490 219 459 177 392L226 700C228 712 223 718 211 718H171C158 718 152 713 150 700L10 -182C8 -194 13 -200 25 -200H65C78 -200 84 -195 86 -182ZM148 210C170 350 242 429 318 429C379 429 408 380 408 305C408 168 339 54 234 54C192 54 157 70 131 102Z" glyph-name="thorn" horiz-adv-x="521" unicode="&#254;" /><glyph d="M464 213C464 314 398 378 289 383C321 409 345 432 368 455L501 596C509 605 514 614 516 627L518 644C519 656 515 662 502 662H175C162 662 156 657 154 644L149 614C147 602 152 596 164 596H410L205 378C197 369 196 361 203 350L210 340C217 331 223 327 235 327H256C337 327 386 285 386 214C386 125 317 56 229 56C177 56 131 77 97 108C86 118 79 119 69 109L48 88C39 79 38 71 46 62C85 21 155 -10 228 -10C363 -10 464 87 464 213Z" glyph-name="three" horiz-adv-x="532" unicode="3" /><glyph d="M321 402C321 462 284 498 223 502C243 517 257 529 273 545L339 610C348 619 352 626 354 638L355 644C357 656 352 662 340 662H146C133 662 127 657 125 644L123 630C121 618 126 612 138 612H271L157 501C148 492 147 483 154 474L161 466C166 461 170 459 176 459H186C234 459 259 438 259 402C259 357 224 324 174 324C148 324 124 332 102 346C92 353 83 353 76 343L66 328C60 318 60 310 70 303C96 284 134 272 175 272C258 272 321 330 321 402ZM754 643C758 648 759 651 759 654C759 659 755 662 746 662H715C702 662 694 658 685 648L436 348L153 19C149 14 148 11 148 8C148 3 152 0 161 0H192C205 0 213 4 222 14L471 314ZM726 18 736 82H770C783 82 789 87 791 100L792 107C793 113 793 115 793 117C793 127 788 131 778 131H744L780 360C781 366 781 368 781 370C781 380 776 384 766 384H720C707 384 701 380 692 369L515 146C509 138 505 129 503 119L501 106C500 100 500 98 500 96C500 86 505 82 515 82H677L668 24C667 18 667 16 667 14C667 4 672 0 682 0H705C718 0 724 5 726 18ZM717 321 687 129H566Z" glyph-name="threequarters" horiz-adv-x="838" unicode="&#190;" /><glyph d="M321 402C321 462 284 498 223 502C243 517 257 529 273 545L339 610C348 619 352 626 354 638L355 644C357 656 352 662 340 662H146C133 662 127 657 125 644L123 630C121 618 126 612 138 612H271L157 501C148 492 147 483 154 474L161 466C166 461 170 459 176 459H186C234 459 259 438 259 402C259 357 224 324 174 324C148 324 124 332 102 346C92 353 83 353 76 343L66 328C60 318 60 310 70 303C96 284 134 272 175 272C258 272 321 330 321 402Z" glyph-name="threesuperior" horiz-adv-x="350" unicode="&#179;" /><glyph d="M308 623C275 623 247 657 203 657C166 657 134 633 115 608C112 604 110 599 110 595C110 591 112 587 117 582L121 578C126 573 130 571 134 571C139 571 143 573 148 577C161 589 179 599 197 599C230 599 258 565 302 565C339 565 371 589 390 614C393 618 395 623 395 627C395 631 393 635 388 640L384 644C379 649 375 651 371 651C366 651 362 649 357 645C344 633 326 623 308 623Z" glyph-name="tilde" horiz-adv-x="395" unicode="&#732;" /><glyph d="M339 788C306 788 278 822 234 822C197 822 165 798 146 773C143 769 141 764 141 760C141 756 143 752 148 747L152 743C157 738 161 736 165 736C170 736 174 738 179 742C192 754 210 764 228 764C261 764 289 730 333 730C370 730 402 754 421 779C424 783 426 788 426 792C426 796 424 800 419 805L415 809C410 814 406 816 402 816C397 816 393 814 388 810C375 798 357 788 339 788Z" glyph-name="tilde.case" horiz-adv-x="395" /><glyph d="M103 618H172L132 373C130 361 135 355 147 355H164C177 355 183 360 185 373L224 618H294C307 618 313 623 315 636L316 644C318 656 313 662 301 662H110C97 662 91 657 89 644L88 636C86 624 91 618 103 618ZM372 373 408 596 459 466C464 454 471 449 484 449H486C499 449 507 453 515 464L610 596L575 373C573 361 578 355 590 355H603C616 355 622 360 624 373L665 637C666 643 666 647 666 649C666 658 661 662 651 662H623C610 662 602 658 594 647L492 505L438 645C433 657 426 662 413 662H386C373 662 367 657 365 644L323 373C321 361 326 355 338 355H351C364 355 370 360 372 373Z" glyph-name="trademark" horiz-adv-x="674" unicode="&#8482;" /><glyph d="M424 18 429 48C431 60 426 66 414 66H125C148 165 214 219 312 279C450 364 499 430 499 519C499 612 430 672 322 672C251 672 183 640 140 595C132 587 131 579 138 570L159 548C168 539 175 537 185 546C222 580 269 606 321 606C380 606 420 570 420 515C420 448 382 407 273 337C153 260 66 188 46 49L43 27C42 18 42 17 42 15C42 4 47 0 58 0H403C416 0 422 5 424 18Z" glyph-name="two" horiz-adv-x="532" unicode="2" /><glyph d="M307 296 309 310C311 322 306 328 294 328H131C141 365 167 391 228 429C314 481 346 520 346 571C346 628 300 668 235 668C191 668 151 649 124 621C115 612 115 604 122 595L134 581C142 572 151 572 161 582C182 603 207 616 231 616C264 616 284 598 284 569C284 535 264 512 201 474C132 432 80 387 67 312L66 306C65 300 65 295 65 293C65 282 70 278 81 278H286C299 278 305 283 307 296Z" glyph-name="twosuperior" horiz-adv-x="350" unicode="&#178;" /><glyph d="M343 18C341 6 346 0 358 0H394C407 0 413 5 415 18L485 462C487 474 482 480 470 480H430C417 480 411 475 409 462L373 233C357 131 299 52 214 52C153 52 138 93 138 142C138 153 139 169 143 196L185 462C187 474 182 480 170 480H130C117 480 111 475 109 462L67 196C64 178 62 149 62 131C62 46 102 -10 193 -10C256 -10 313 17 353 82Z" glyph-name="u" horiz-adv-x="527" unicode="u" /><glyph d="M343 18C341 6 346 0 358 0H394C407 0 413 5 415 18L485 462C487 474 482 480 470 480H430C417 480 411 475 409 462L373 233C357 131 299 52 214 52C153 52 138 93 138 142C138 153 139 169 143 196L185 462C187 474 182 480 170 480H130C117 480 111 475 109 462L67 196C64 178 62 149 62 131C62 46 102 -10 193 -10C256 -10 313 17 353 82ZM393 688C389 694 385 696 380 696C375 696 371 694 366 690L242 589C237 585 234 580 234 575C234 571 236 567 239 563L245 555C249 550 254 546 260 546C263 546 267 547 271 550L405 642C411 646 413 650 413 655C413 658 412 662 408 667Z" glyph-name="uacute" horiz-adv-x="527" unicode="&#250;" /><glyph d="M343 18C341 6 346 0 358 0H394C407 0 413 5 415 18L485 462C487 474 482 480 470 480H430C417 480 411 475 409 462L373 233C357 131 299 52 214 52C153 52 138 93 138 142C138 153 139 169 143 196L185 462C187 474 182 480 170 480H130C117 480 111 475 109 462L67 196C64 178 62 149 62 131C62 46 102 -10 193 -10C256 -10 313 17 353 82ZM247 656C244 664 241 668 235 668C232 668 228 667 223 665L210 660C201 656 199 652 199 645C199 641 201 632 203 627C218 585 256 548 319 548C379 548 428 582 452 625C456 632 461 641 461 648C461 654 457 658 449 661L436 666C431 668 428 669 425 669C418 669 414 664 410 657C390 624 361 605 321 605C282 605 259 623 247 656Z" glyph-name="ubreve" horiz-adv-x="527" unicode="&#365;" /><glyph d="M343 18C341 6 346 0 358 0H394C407 0 413 5 415 18L485 462C487 474 482 480 470 480H430C417 480 411 475 409 462L373 233C357 131 299 52 214 52C153 52 138 93 138 142C138 153 139 169 143 196L185 462C187 474 182 480 170 480H130C117 480 111 475 109 462L67 196C64 178 62 149 62 131C62 46 102 -10 193 -10C256 -10 313 17 353 82ZM326 615 408 556C413 552 417 550 421 550C426 550 430 553 435 558L443 567C447 571 449 576 449 580C449 584 447 589 442 593L349 676C344 681 339 683 334 683C328 683 323 681 318 678L193 595C187 591 184 586 184 581C184 577 186 572 189 567L194 559C198 553 202 550 208 550C211 550 214 551 219 554Z" glyph-name="ucircumflex" horiz-adv-x="527" unicode="&#251;" /><glyph d="M343 18C341 6 346 0 358 0H394C407 0 413 5 415 18L485 462C487 474 482 480 470 480H430C417 480 411 475 409 462L373 233C357 131 299 52 214 52C153 52 138 93 138 142C138 153 139 169 143 196L185 462C187 474 182 480 170 480H130C117 480 111 475 109 462L67 196C64 178 62 149 62 131C62 46 102 -10 193 -10C256 -10 313 17 353 82ZM287 622C287 647 272 667 243 667C212 667 190 643 190 612C190 587 205 567 234 567C265 567 287 591 287 622ZM457 622C457 647 442 667 413 667C382 667 360 643 360 612C360 587 375 567 404 567C435 567 457 591 457 622Z" glyph-name="udieresis" horiz-adv-x="527" unicode="&#252;" /><glyph d="M343 18C341 6 346 0 358 0H394C407 0 413 5 415 18L485 462C487 474 482 480 470 480H430C417 480 411 475 409 462L373 233C357 131 299 52 214 52C153 52 138 93 138 142C138 153 139 169 143 196L185 462C187 474 182 480 170 480H130C117 480 111 475 109 462L67 196C64 178 62 149 62 131C62 46 102 -10 193 -10C256 -10 313 17 353 82ZM206 666C202 661 201 657 201 654C201 649 203 645 209 641L342 549C346 546 350 545 353 545C359 545 364 549 368 554L375 563C378 567 380 571 380 575C380 580 377 585 372 589L250 690C245 694 241 696 236 696C231 696 227 694 223 688Z" glyph-name="ugrave" horiz-adv-x="527" unicode="&#249;" /><glyph d="M343 18C341 6 346 0 358 0H394C407 0 413 5 415 18L485 462C487 474 482 480 470 480H430C417 480 411 475 409 462L373 233C357 131 299 52 214 52C153 52 138 93 138 142C138 153 139 169 143 196L185 462C187 474 182 480 170 480H130C117 480 111 475 109 462L67 196C64 178 62 149 62 131C62 46 102 -10 193 -10C256 -10 313 17 353 82ZM345 645C350 649 353 654 353 658C353 662 351 666 347 671L330 690C327 694 321 697 317 697C312 697 308 695 303 690L198 581C194 577 192 573 192 569C192 565 194 560 198 556L207 547C211 543 215 541 220 541C224 541 228 542 233 546ZM502 645C507 649 510 654 510 658C510 662 508 666 504 671L487 690C484 694 478 697 474 697C469 697 465 695 460 690L355 581C351 577 349 573 349 569C349 565 351 560 355 556L364 547C368 543 372 541 377 541C381 541 385 542 390 546Z" glyph-name="uhungarumlaut" horiz-adv-x="527" unicode="&#369;" /><glyph d="M343 18C341 6 346 0 358 0H394C407 0 413 5 415 18L485 462C487 474 482 480 470 480H430C417 480 411 475 409 462L373 233C357 131 299 52 214 52C153 52 138 93 138 142C138 153 139 169 143 196L185 462C187 474 182 480 170 480H130C117 480 111 475 109 462L67 196C64 178 62 149 62 131C62 46 102 -10 193 -10C256 -10 313 17 353 82ZM421 631H230C217 631 211 627 209 613L208 604C207 595 207 594 207 592C207 581 212 577 223 577H414C427 577 433 581 435 595L436 604C437 613 437 614 437 616C437 627 432 631 421 631Z" glyph-name="umacron" horiz-adv-x="527" unicode="&#363;" /><glyph d="M19 0C6 0 0 -5 -2 -18L-4 -31C-5 -40 -5 -41 -5 -43C-5 -54 0 -58 11 -58H309C322 -58 328 -53 330 -40L332 -27C333 -18 333 -17 333 -15C333 -4 328 0 317 0Z" glyph-name="underscore" horiz-adv-x="409" unicode="_" /><glyph glyph-name="uni00A0" horiz-adv-x="230" unicode="&#160;" /><glyph d="M83 318C70 318 64 313 62 300L59 279C58 270 58 269 58 267C58 256 63 252 74 252H271C284 252 290 257 292 270L295 291C296 300 296 301 296 303C296 314 291 318 280 318Z" glyph-name="uni00AD" horiz-adv-x="340" unicode="&#173;" /><glyph d="M18 -176C17 -182 17 -184 17 -186C17 -196 22 -200 32 -200H72C85 -200 91 -195 93 -182L110 -73C118 -24 120 9 118 30C136 0 170 -10 203 -10C279 -10 331 30 363 82L353 18C351 6 356 0 368 0H404C417 0 423 5 425 18L494 456C495 462 495 464 495 466C495 476 490 480 480 480H440C427 480 421 475 419 462L383 233C367 131 309 52 224 52C163 52 148 93 148 142C148 153 149 169 153 196L195 462C197 474 192 480 180 480H140C127 480 121 475 119 462Z" glyph-name="uni00B5" horiz-adv-x="544" unicode="&#181;" /><glyph d="M542 44C553 50 559 58 561 70L602 334C604 346 599 352 587 352H386C373 352 367 347 365 334L361 304C359 292 364 286 376 286H516L485 92C442 69 389 56 333 56C201 56 139 141 139 284C139 427 219 603 398 603C466 603 522 579 558 546C567 537 574 537 583 547L608 574C616 583 616 592 607 601C558 651 482 672 406 672C167 672 57 457 57 281C57 97 157 -10 328 -10C404 -10 476 8 542 44ZM336 -88C336 -61 321 -47 295 -47C267 -47 246 -64 246 -91C246 -116 263 -120 263 -144C263 -158 259 -171 237 -194C234 -197 233 -200 233 -203C233 -206 235 -209 239 -212L242 -214C245 -216 248 -217 251 -217C257 -217 263 -212 266 -209C299 -177 336 -131 336 -88Z" glyph-name="uni0122" horiz-adv-x="640" unicode="&#290;" /><glyph d="M407 7 479 462C481 474 476 480 464 480H424C411 480 405 475 403 462L399 437C371 472 331 490 278 490C135 490 36 339 36 176C36 66 83 -10 185 -10C250 -10 302 21 344 88L334 22C320 -67 294 -144 179 -144C123 -144 89 -126 68 -109C58 -101 52 -102 44 -112L24 -141C17 -151 18 -160 28 -167C53 -186 100 -210 181 -210C310 -210 382 -149 407 7ZM113 175C113 312 182 426 287 426C329 426 364 410 390 378L373 270C351 130 279 51 203 51C142 51 113 100 113 175ZM264 597C264 570 279 556 305 556C333 556 354 573 354 600C354 625 337 629 337 653C337 667 341 680 363 703C366 706 367 709 367 712C367 715 365 718 361 721L358 723C355 725 352 726 349 726C343 726 337 721 334 718C301 686 264 640 264 597Z" glyph-name="uni0123" horiz-adv-x="521" unicode="&#291;" /><glyph d="M127 18 161 233C200 263 238 292 274 322C338 221 393 114 434 17C439 5 444 0 457 0H506C515 0 520 4 520 10C520 12 521 14 518 21C470 136 404 263 333 371C425 451 509 538 591 643C595 648 596 651 596 654C596 659 593 662 585 662H529C516 662 510 659 503 649C428 547 299 427 175 323L225 638C226 644 226 646 226 648C226 658 221 662 211 662H168C155 662 149 657 147 644L49 24C48 18 48 16 48 14C48 4 53 0 63 0H106C119 0 125 5 127 18ZM316 -88C316 -61 301 -47 275 -47C247 -47 226 -64 226 -91C226 -116 243 -120 243 -144C243 -158 239 -171 217 -194C214 -197 213 -200 213 -203C213 -206 215 -209 219 -212L222 -214C225 -216 228 -217 231 -217C237 -217 243 -212 246 -209C279 -177 316 -131 316 -88Z" glyph-name="uni0136" horiz-adv-x="577" unicode="&#310;" /><glyph d="M118 18 145 186C166 202 187 218 208 235C260 165 302 89 337 18C343 5 348 0 361 0H404C414 0 418 4 418 10C418 13 417 17 415 22C372 110 320 200 261 280C323 335 383 396 438 459C443 465 445 469 445 472C445 476 442 480 435 480H384C371 480 363 476 355 466C309 409 229 330 158 270L226 700C228 712 223 718 211 718H171C158 718 152 713 150 700L42 18C40 6 45 0 57 0H97C110 0 116 5 118 18ZM259 -88C259 -61 244 -47 218 -47C190 -47 169 -64 169 -91C169 -116 186 -120 186 -144C186 -158 182 -171 160 -194C157 -197 156 -200 156 -203C156 -206 158 -209 162 -212L165 -214C168 -216 171 -217 174 -217C180 -217 186 -212 189 -209C222 -177 259 -131 259 -88Z" glyph-name="uni0137" horiz-adv-x="463" unicode="&#311;" /><glyph d="M397 0C410 0 416 5 418 18L422 42C423 50 423 51 423 53C423 62 418 66 408 66H134L225 638C226 644 226 646 226 648C226 658 221 662 211 662H168C155 662 149 657 147 644L49 24C48 18 48 16 48 14C48 4 53 0 63 0ZM275 -88C275 -61 260 -47 234 -47C206 -47 185 -64 185 -91C185 -116 202 -120 202 -144C202 -158 198 -171 176 -194C173 -197 172 -200 172 -203C172 -206 174 -209 178 -212L181 -214C184 -216 187 -217 190 -217C196 -217 202 -212 205 -209C238 -177 275 -131 275 -88Z" glyph-name="uni013B" horiz-adv-x="468" unicode="&#315;" /><glyph d="M97 0C110 0 116 5 118 18L226 700C228 712 223 718 211 718H171C158 718 152 713 150 700L42 18C40 6 45 0 57 0ZM109 -88C109 -61 94 -47 68 -47C40 -47 19 -64 19 -91C19 -116 36 -120 36 -144C36 -158 32 -171 10 -194C7 -197 6 -200 6 -203C6 -206 8 -209 12 -212L15 -214C18 -216 21 -217 24 -217C30 -217 36 -212 39 -209C72 -177 109 -131 109 -88Z" glyph-name="uni013C" horiz-adv-x="230" unicode="&#316;" /><glyph d="M124 18 211 570 457 16C462 4 469 0 482 0H530C543 0 549 5 551 18L649 638C650 644 650 646 650 648C650 658 645 662 635 662H595C582 662 576 657 574 644L489 109L251 646C246 658 239 662 226 662H168C155 662 149 657 147 644L49 24C48 18 48 16 48 14C48 4 53 0 63 0H103C116 0 122 5 124 18ZM332 -88C332 -61 317 -47 291 -47C263 -47 242 -64 242 -91C242 -116 259 -120 259 -144C259 -158 255 -171 233 -194C230 -197 229 -200 229 -203C229 -206 231 -209 235 -212L238 -214C241 -216 244 -217 247 -217C253 -217 259 -212 262 -209C295 -177 332 -131 332 -88Z" glyph-name="uni0145" horiz-adv-x="669" unicode="&#325;" /><glyph d="M118 18 154 247C170 349 232 428 317 428C378 428 397 387 397 338C397 327 396 311 392 284L350 18C348 6 353 0 365 0H405C418 0 424 5 426 18L468 284C471 302 473 331 473 349C473 434 429 490 338 490C269 490 212 457 174 399L184 462C186 474 181 480 169 480H133C120 480 114 475 112 462L42 18C40 6 45 0 57 0H97C110 0 116 5 118 18ZM263 -88C263 -61 248 -47 222 -47C194 -47 173 -64 173 -91C173 -116 190 -120 190 -144C190 -158 186 -171 164 -194C161 -197 160 -200 160 -203C160 -206 162 -209 166 -212L169 -214C172 -216 175 -217 178 -217C184 -217 190 -212 193 -209C226 -177 263 -131 263 -88Z" glyph-name="uni0146" horiz-adv-x="535" unicode="&#326;" /><glyph d="M127 18 167 272H261C327 189 382 99 421 17C427 5 433 0 444 0H495C507 0 511 7 506 19C462 113 402 213 345 281C456 294 546 369 546 493C546 584 492 662 343 662H168C155 662 149 657 147 644L49 24C48 18 48 16 48 14C48 4 53 0 63 0H106C119 0 125 5 127 18ZM218 596H335C421 596 464 557 464 491C464 394 398 338 290 338H178ZM318 -88C318 -61 303 -47 277 -47C249 -47 228 -64 228 -91C228 -116 245 -120 245 -144C245 -158 241 -171 219 -194C216 -197 215 -200 215 -203C215 -206 217 -209 221 -212L224 -214C227 -216 230 -217 233 -217C239 -217 245 -212 248 -209C281 -177 318 -131 318 -88Z" glyph-name="uni0156" horiz-adv-x="562" unicode="&#342;" /><glyph d="M118 18 153 241C168 337 215 419 294 419C308 419 319 416 322 415C330 412 335 411 338 411C343 411 348 414 351 422L367 461C368 464 369 467 369 470C369 476 364 480 357 483C345 488 327 490 314 490C257 490 205 456 174 396L184 462C186 474 181 480 169 480H133C120 480 114 475 112 462L42 18C40 6 45 0 57 0H97C110 0 116 5 118 18ZM109 -88C109 -61 94 -47 68 -47C40 -47 19 -64 19 -91C19 -116 36 -120 36 -144C36 -158 32 -171 10 -194C7 -197 6 -200 6 -203C6 -206 8 -209 12 -212L15 -214C18 -216 21 -217 24 -217C30 -217 36 -212 39 -209C72 -177 109 -131 109 -88Z" glyph-name="uni0157" horiz-adv-x="345" unicode="&#343;" /><glyph d="M278 -107C278 -72 256 -49 219 -49C213 -49 207 -50 201 -51L228 -10H237C373 -10 471 72 471 185C471 270 424 317 298 370C197 412 179 444 179 493C179 557 237 603 320 603C384 603 430 584 467 556C477 549 487 548 494 558L516 587C523 596 524 605 514 612C470 648 409 672 323 672C194 672 98 593 98 488C98 402 135 355 259 301C361 257 390 228 390 178C390 112 323 59 238 59C170 59 117 84 74 125C64 134 56 133 48 124L21 95C13 86 14 78 22 70C64 31 120 3 187 -6L148 -65C144 -71 144 -75 149 -80L150 -81C155 -87 158 -87 167 -86C174 -85 183 -84 191 -84C220 -84 229 -95 229 -110C229 -131 210 -145 179 -145C165 -145 152 -142 142 -136C131 -130 123 -130 116 -141L113 -146C107 -156 108 -164 117 -170C133 -181 158 -187 182 -187C243 -187 278 -152 278 -107Z" glyph-name="uni015E" horiz-adv-x="522" unicode="&#350;" /><glyph d="M248 -107C248 -72 226 -49 189 -49C183 -49 177 -50 171 -51L198 -10C302 -10 376 50 376 138C376 201 336 243 246 270C156 297 139 316 139 353C139 397 177 428 235 428C281 428 322 414 356 392C367 385 374 386 382 397L398 421C404 431 403 439 393 446C351 474 294 490 235 490C134 490 64 430 64 347C64 284 104 242 194 215C284 188 301 169 301 132C301 88 263 52 192 52C142 52 93 72 52 105C42 113 35 112 27 103L7 79C0 70 -1 62 7 55C44 22 96 -1 156 -8L118 -65C114 -71 114 -75 119 -80L120 -81C125 -87 128 -87 137 -86C144 -85 153 -84 161 -84C190 -84 199 -95 199 -110C199 -131 180 -145 149 -145C135 -145 122 -142 112 -136C101 -130 93 -130 86 -141L83 -146C77 -156 78 -164 87 -170C103 -181 128 -187 152 -187C213 -187 248 -152 248 -107Z" glyph-name="uni015F" horiz-adv-x="432" unicode="&#351;" /><glyph d="M186 -20 289 305H430C443 305 450 311 454 323L461 346C464 357 461 364 449 364H308L343 473C372 564 410 608 467 608C493 608 514 601 530 592C544 584 550 586 557 598L570 622C573 628 575 632 575 636C575 641 573 644 567 648C548 661 514 672 472 672C380 672 314 628 268 482L230 364H131C118 364 111 358 107 346L100 323C97 312 100 305 112 305H212L109 -17C81 -105 42 -146 -13 -146C-31 -146 -44 -144 -53 -142C-68 -139 -73 -142 -77 -153L-84 -173C-87 -181 -88 -185 -88 -189C-88 -194 -85 -198 -77 -201C-58 -208 -45 -210 -15 -210C62 -210 136 -178 186 -20Z" glyph-name="uni0192" horiz-adv-x="532" unicode="&#402;" /><glyph d="M471 185C471 270 424 317 298 370C197 412 179 444 179 493C179 557 237 603 320 603C384 603 430 584 467 556C477 549 487 548 494 558L516 587C523 596 524 605 514 612C470 648 409 672 323 672C194 672 98 593 98 488C98 402 135 355 259 301C361 257 390 228 390 178C390 112 323 59 238 59C170 59 117 84 74 125C64 134 56 133 48 124L21 95C13 86 14 78 22 70C74 22 149 -10 237 -10C373 -10 471 72 471 185ZM265 -88C265 -61 250 -47 224 -47C196 -47 175 -64 175 -91C175 -116 192 -120 192 -144C192 -158 188 -171 166 -194C163 -197 162 -200 162 -203C162 -206 164 -209 168 -212L171 -214C174 -216 177 -217 180 -217C186 -217 192 -212 195 -209C228 -177 265 -131 265 -88Z" glyph-name="uni0218" horiz-adv-x="522" unicode="&#536;" /><glyph d="M301 132C301 88 263 52 192 52C142 52 93 72 52 105C42 113 35 112 27 103L7 79C0 70 -1 62 7 55C51 16 118 -10 192 -10C302 -10 376 50 376 138C376 201 336 243 246 270C156 297 139 316 139 353C139 397 177 428 235 428C281 428 322 414 356 392C367 385 374 386 382 397L398 421C404 431 403 439 393 446C351 474 294 490 235 490C134 490 64 430 64 347C64 284 104 242 194 215C284 188 301 169 301 132ZM215 -88C215 -61 200 -47 174 -47C146 -47 125 -64 125 -91C125 -116 142 -120 142 -144C142 -158 138 -171 116 -194C113 -197 112 -200 112 -203C112 -206 114 -209 118 -212L121 -214C124 -216 127 -217 130 -217C136 -217 142 -212 145 -209C178 -177 215 -131 215 -88Z" glyph-name="uni0219" horiz-adv-x="432" unicode="&#537;" /><glyph d="M261 596 170 24C169 18 169 16 169 14C169 4 174 0 184 0H227C240 0 246 5 248 18L340 596H517C530 596 536 601 538 614L542 638C543 646 543 647 543 649C543 658 538 662 528 662H95C82 662 76 657 74 644L70 620C69 612 69 611 69 609C69 600 74 596 84 596ZM240 -88C240 -61 225 -47 199 -47C171 -47 150 -64 150 -91C150 -116 167 -120 167 -144C167 -158 163 -171 141 -194C138 -197 137 -200 137 -203C137 -206 139 -209 143 -212L146 -214C149 -216 152 -217 155 -217C161 -217 167 -212 170 -209C203 -177 240 -131 240 -88Z" glyph-name="uni021A" horiz-adv-x="488" unicode="&#538;" /><glyph d="M279 12C289 18 292 26 287 37L276 61C271 72 264 74 253 68C235 59 218 55 199 55C160 55 147 74 147 104C147 116 149 131 151 144L195 421H322C335 421 341 426 343 439L346 462C348 474 343 480 331 480H204L222 592C224 604 219 610 207 610H167C154 610 148 605 146 592L128 480H65C52 480 46 475 44 462L41 439C39 427 44 421 56 421H119L75 146C72 128 71 112 71 100C71 22 115 -10 186 -10C218 -10 252 -4 279 12ZM203 -88C203 -61 188 -47 162 -47C134 -47 113 -64 113 -91C113 -116 130 -120 130 -144C130 -158 126 -171 104 -194C101 -197 100 -200 100 -203C100 -206 102 -209 106 -212L109 -214C112 -216 115 -217 118 -217C124 -217 130 -212 133 -209C166 -177 203 -131 203 -88Z" glyph-name="uni021B" horiz-adv-x="333" unicode="&#539;" /><glyph d="M106 -57 188 462C190 474 185 480 173 480H133C120 480 114 475 112 462L33 -41C23 -103 1 -145 -49 -145C-61 -145 -73 -142 -82 -138C-95 -133 -101 -135 -106 -147L-117 -170C-122 -181 -119 -189 -109 -195C-90 -205 -67 -210 -41 -210C37 -210 89 -166 106 -57Z" glyph-name="uni0237" horiz-adv-x="230" unicode="&#567;" /><glyph d="M105 597C105 570 120 556 146 556C174 556 195 573 195 600C195 625 178 629 178 653C178 667 182 680 204 703C207 706 208 709 208 712C208 715 206 718 202 721L199 723C196 725 193 726 190 726C184 726 178 721 175 718C142 686 105 640 105 597Z" glyph-name="uni0312" horiz-adv-x="208" unicode="&#786;" /><glyph d="M129 545C136 545 140 548 144 556L210 684C213 690 214 694 214 697C214 703 210 707 202 710L171 720C168 721 162 722 159 722C152 722 147 717 145 708L110 571C109 568 108 562 108 560C108 549 122 545 129 545Z" glyph-name="uni0315" horiz-adv-x="215" unicode="&#789;" /><glyph d="M103 -88C103 -61 88 -47 62 -47C34 -47 13 -64 13 -91C13 -116 30 -120 30 -144C30 -158 26 -171 4 -194C1 -197 0 -200 0 -203C0 -206 2 -209 6 -212L9 -214C12 -216 15 -217 18 -217C24 -217 30 -212 33 -209C66 -177 103 -131 103 -88Z" glyph-name="uni0326" horiz-adv-x="208" unicode="&#806;" /><glyph d="M263 18 265 32C267 44 262 50 250 50H87C97 87 123 113 184 151C270 203 302 242 302 293C302 350 256 390 191 390C147 390 107 371 80 343C71 334 71 326 78 317L90 303C98 294 107 294 117 304C138 325 163 338 187 338C220 338 240 320 240 291C240 257 220 234 157 196C88 154 36 109 23 34L22 28C21 22 21 17 21 15C21 4 26 0 37 0H242C255 0 261 5 263 18Z" glyph-name="uni2082" horiz-adv-x="350" unicode="&#8322;" /><glyph d="M238 18 248 82H282C295 82 301 87 303 100L304 107C305 113 305 115 305 117C305 127 300 131 290 131H256L292 360C293 366 293 368 293 370C293 380 288 384 278 384H232C219 384 213 380 204 369L27 146C21 138 17 129 15 119L13 106C12 100 12 98 12 96C12 86 17 82 27 82H189L180 24C179 18 179 16 179 14C179 4 184 0 194 0H217C230 0 236 5 238 18ZM229 321 199 129H78Z" glyph-name="uni2084" horiz-adv-x="350" unicode="&#8324;" /><glyph d="M155 16C202 117 246 233 287 367C286 233 292 123 305 16C306 4 311 0 320 0H362C372 0 376 5 380 16C398 68 419 136 441 211H507C520 211 526 216 528 229L532 252C534 264 529 270 517 270H458C466 299 474 329 482 359H531C544 359 550 364 552 377L556 400C558 412 553 418 541 418H498C518 494 535 567 548 628C550 636 551 643 551 648C551 657 546 662 535 662H499C485 662 480 656 476 637C464 573 447 496 429 418H342C342 453 343 488 344 523C344 532 341 536 333 536H290C282 536 279 533 277 524C267 489 257 453 246 418H159C165 497 173 575 181 642C182 653 178 662 166 662H128C116 662 110 656 109 645C102 577 96 499 91 418H48C35 418 29 413 27 400L23 377C21 365 26 359 38 359H88C86 329 85 300 84 270H24C11 270 5 265 3 252L-1 229C-3 217 2 211 14 211H82C80 141 79 75 80 16C80 5 84 0 93 0H135C145 0 150 4 155 16ZM155 369H231C204 284 173 198 139 112C142 189 147 279 155 369ZM342 369H418C395 276 372 185 351 112C345 195 342 282 342 369Z" glyph-name="uni20A9" horiz-adv-x="532" unicode="&#8361;" /><glyph d="M447 17C363 122 265 215 176 280C318 288 406 351 427 438H496C509 438 515 443 517 456L521 479C523 491 518 497 506 497H431C426 541 403 577 363 603H522C535 603 541 608 543 621L547 644C549 656 544 662 532 662H142C129 662 123 657 121 644L116 617C114 605 119 599 131 599H193C291 599 347 559 354 497H116C103 497 97 492 95 479L91 456C89 444 94 438 106 438H347C325 378 257 338 151 338H91C78 338 72 333 70 321L66 296C65 287 67 281 73 277C182 202 276 114 355 16C365 4 371 0 385 0H437C451 0 455 6 447 17Z" glyph-name="uni20B9" horiz-adv-x="532" unicode="&#8377;" /><glyph d="M495 158C501 168 502 177 493 184L468 202C458 209 450 208 443 198C381 108 303 66 194 66H162L191 246L341 324C354 331 360 338 362 351L368 387C370 398 364 402 353 396L202 315L215 398L365 476C378 483 384 490 386 503L392 539C394 550 388 554 377 548L226 467L253 638C254 644 254 646 254 648C254 658 249 662 239 662H196C183 662 177 657 175 644L141 428L70 392C57 385 52 380 50 367L44 331C42 318 48 314 59 320L130 358L117 276L46 240C33 233 28 228 26 215L20 179C18 166 24 162 35 168L106 206L77 24C76 18 76 16 76 14C76 4 81 0 91 0H186C324 0 430 54 495 158Z" glyph-name="uni20BA" horiz-adv-x="532" unicode="&#8378;" /><glyph d="M154 18 170 121H349C362 121 368 126 370 139L374 162C376 174 371 180 359 180H180L191 252H269C446 252 535 346 535 480C535 580 480 662 334 662H195C182 662 176 657 174 644L121 311H50C37 311 31 306 29 293L25 270C23 258 28 252 40 252H112L101 180H30C17 180 11 175 9 162L5 139C3 127 8 121 20 121H91L76 24C75 18 75 16 75 14C75 4 80 0 90 0H133C146 0 152 5 154 18ZM245 596H319C421 596 453 548 453 481C453 394 401 311 272 311H200Z" glyph-name="uni20BD" horiz-adv-x="532" unicode="&#8381;" /><glyph d="M416 672C193 672 63 485 63 299C63 208 94 112 164 65H32C19 65 13 60 11 47L6 18C4 6 9 0 21 0H255C268 0 274 5 275 18L278 40C280 54 277 60 264 65C184 100 145 185 145 287C145 445 241 606 409 606C533 606 593 519 593 396C593 251 508 109 373 64C360 60 355 54 353 40L350 18C348 6 353 0 365 0H619C632 0 638 5 640 18L645 47C647 59 642 65 630 65H488C605 125 675 243 675 394C675 567 583 672 416 672Z" glyph-name="uni2126" horiz-adv-x="706" unicode="&#8486;" /><glyph d="M533 0C546 0 552 5 554 18L559 49C560 55 561 62 561 68C561 74 560 80 559 86C526 292 470 483 418 645C414 657 407 662 394 662H358C345 662 337 658 330 647C225 486 109 293 15 84C11 74 6 61 4 44L1 24C0 16 0 15 0 13C0 4 5 0 15 0ZM484 68H88C174 260 268 426 366 578C414 404 462 233 484 68Z" glyph-name="uni2206" horiz-adv-x="616" unicode="&#8710;" /><glyph d="M261 -124C261 -163 290 -187 338 -187C365 -187 391 -179 412 -167C421 -161 423 -152 418 -142L416 -138C410 -126 403 -125 391 -131C379 -137 366 -139 355 -139C334 -139 318 -130 318 -105C318 -70 347 -41 384 0H394C407 0 413 5 415 18L485 462C487 474 482 480 470 480H430C417 480 411 475 409 462L373 233C357 131 299 52 214 52C153 52 138 93 138 142C138 153 139 169 143 196L185 462C187 474 182 480 170 480H130C117 480 111 475 109 462L67 196C64 178 62 149 62 131C62 46 102 -10 193 -10C256 -10 313 17 353 82L340 0C301 -33 261 -78 261 -124Z" glyph-name="uogonek" horiz-adv-x="527" unicode="&#371;" /><glyph d="M343 18C341 6 346 0 358 0H394C407 0 413 5 415 18L485 462C487 474 482 480 470 480H430C417 480 411 475 409 462L373 233C357 131 299 52 214 52C153 52 138 93 138 142C138 153 139 169 143 196L185 462C187 474 182 480 170 480H130C117 480 111 475 109 462L67 196C64 178 62 149 62 131C62 46 102 -10 193 -10C256 -10 313 17 353 82ZM433 654C433 710 395 746 338 746C271 746 222 695 222 632C222 576 260 540 317 540C384 540 433 591 433 654ZM268 633C268 674 296 706 336 706C365 706 387 688 387 653C387 612 359 580 319 580C290 580 268 598 268 633Z" glyph-name="uring" horiz-adv-x="527" unicode="&#367;" /><glyph d="M343 18C341 6 346 0 358 0H394C407 0 413 5 415 18L485 462C487 474 482 480 470 480H430C417 480 411 475 409 462L373 233C357 131 299 52 214 52C153 52 138 93 138 142C138 153 139 169 143 196L185 462C187 474 182 480 170 480H130C117 480 111 475 109 462L67 196C64 178 62 149 62 131C62 46 102 -10 193 -10C256 -10 313 17 353 82ZM378 623C345 623 317 657 273 657C236 657 204 633 185 608C182 604 180 599 180 595C180 591 182 587 187 582L191 578C196 573 200 571 204 571C209 571 213 573 218 577C231 589 249 599 267 599C300 599 328 565 372 565C409 565 441 589 460 614C463 618 465 623 465 627C465 631 463 635 458 640L454 644C449 649 445 651 441 651C436 651 432 649 427 645C414 633 396 623 378 623Z" glyph-name="utilde" horiz-adv-x="527" unicode="&#361;" /><glyph d="M232 14C313 128 404 307 454 456C457 465 457 468 457 470C457 476 453 480 444 480H403C390 480 383 474 379 462C341 340 272 190 197 69C159 197 137 337 133 462C133 475 128 480 115 480H78C65 480 60 474 60 462C65 308 98 144 147 16C151 5 160 0 172 0H203C215 0 225 4 232 14Z" glyph-name="v" horiz-adv-x="444" unicode="v" /><glyph d="M219 15C286 125 343 242 386 361C392 247 411 128 439 17C442 5 449 0 462 0H500C513 0 521 4 528 15C602 132 681 298 731 448C734 457 737 465 737 470C737 477 732 480 723 480H683C670 480 664 475 660 463C622 340 557 191 491 73C466 192 448 333 442 462C441 475 437 480 424 480H382C369 480 363 475 359 463C315 333 249 188 181 70C155 194 139 338 138 462C138 475 133 480 120 480H82C69 480 64 475 64 462C67 310 91 144 128 17C131 5 139 0 152 0H191C204 0 212 4 219 15Z" glyph-name="w" horiz-adv-x="728" unicode="w" /><glyph d="M219 15C286 125 343 242 386 361C392 247 411 128 439 17C442 5 449 0 462 0H500C513 0 521 4 528 15C602 132 681 298 731 448C734 457 737 465 737 470C737 477 732 480 723 480H683C670 480 664 475 660 463C622 340 557 191 491 73C466 192 448 333 442 462C441 475 437 480 424 480H382C369 480 363 475 359 463C315 333 249 188 181 70C155 194 139 338 138 462C138 475 133 480 120 480H82C69 480 64 475 64 462C67 310 91 144 128 17C131 5 139 0 152 0H191C204 0 212 4 219 15ZM500 688C496 694 492 696 487 696C482 696 478 694 473 690L349 589C344 585 341 580 341 575C341 571 343 567 346 563L352 555C356 550 361 546 367 546C370 546 374 547 378 550L512 642C518 646 520 650 520 655C520 658 519 662 515 667Z" glyph-name="wacute" horiz-adv-x="728" unicode="&#7811;" /></font>
</defs>
</svg>
