<?xml version="1.0" standalone="no"?><!DOCTYPE svg PUBLIC "-//W3C//DTD SVG 1.1//EN" "http://www.w3.org/Graphics/SVG/1.1/DTD/svg11.dtd" ><svg version="1.1" xmlns="http://www.w3.org/2000/svg"><defs><font horiz-adv-x="0" id="font"><font-face ascent="728" bbox="-186.0381 -234 1120 953" cap-height="662" descent="-210" font-family="GE Inspira Sans" font-stretch="normal" font-style="normal" font-weight="400" units-per-em="1000" x-height="480" /><missing-glyph d="M147 -190C160 -190 165 -185 165 -172V712C165 725 160 730 147 730H68C55 730 50 725 50 712V-172C50 -185 55 -190 68 -190Z" horiz-adv-x="215" /><glyph glyph-name=".null" horiz-adv-x="0" /><glyph d="M108 15C124 69 141 124 159 180H446C464 125 481 70 497 17C501 5 507 0 520 0H567C578 0 583 4 583 12C583 15 582 18 580 25C510 252 429 468 352 646C347 658 339 662 326 662H282C269 662 261 658 256 646C175 462 102 254 28 21C27 18 26 14 26 10C26 4 31 0 41 0H86C99 0 104 3 108 15ZM180 246C218 359 258 471 302 575C346 471 387 358 425 246Z" glyph-name="A" horiz-adv-x="609" unicode="A" /><glyph d="M83 16C113 71 143 126 173 180H439V18C439 5 444 0 457 0H811C824 0 829 5 829 18V50C829 63 824 68 811 68H521V310H779C792 310 797 315 797 328V360C797 373 792 378 779 378H521V594H811C824 594 829 599 829 612V644C829 657 824 662 811 662H420C407 662 399 658 391 648C258 469 125 250 -4 16C-10 6 -6 0 5 0H57C70 0 76 4 83 16ZM211 246C278 361 351 477 439 600V246Z" glyph-name="AE" horiz-adv-x="885" unicode="&#198;" /><glyph d="M108 15C124 69 141 124 159 180H446C464 125 481 70 497 17C501 5 507 0 520 0H567C578 0 583 4 583 12C583 15 582 18 580 25C510 252 429 468 352 646C347 658 339 662 326 662H282C269 662 261 658 256 646C175 462 102 254 28 21C27 18 26 14 26 10C26 4 31 0 41 0H86C99 0 104 3 108 15ZM180 246C218 359 258 471 302 575C346 471 387 358 425 246ZM244 754C239 749 236 745 236 740C236 737 238 733 241 729L252 715C256 710 261 707 265 707C269 707 273 709 278 713L408 811C413 815 415 819 415 823C415 827 414 831 410 836L393 857C389 862 384 864 380 864C376 864 372 863 367 859Z" glyph-name="Aacute" horiz-adv-x="609" unicode="&#193;" /><glyph d="M108 15C124 69 141 124 159 180H446C464 125 481 70 497 17C501 5 507 0 520 0H567C578 0 583 4 583 12C583 15 582 18 580 25C510 252 429 468 352 646C347 658 339 662 326 662H282C269 662 261 658 256 646C175 462 102 254 28 21C27 18 26 14 26 10C26 4 31 0 41 0H86C99 0 104 3 108 15ZM180 246C218 359 258 471 302 575C346 471 387 358 425 246ZM302 711C370 711 422 757 437 802C438 805 439 809 439 812C439 817 436 822 429 825L412 831C407 833 403 834 400 834C394 834 391 830 387 822C370 791 344 770 302 770C260 770 234 791 217 822C213 830 210 834 204 834C201 834 197 833 192 831L175 825C168 822 165 817 165 812C165 809 166 805 167 802C182 757 234 711 302 711Z" glyph-name="Abreve" horiz-adv-x="609" unicode="&#258;" /><glyph d="M108 15C124 69 141 124 159 180H446C464 125 481 70 497 17C501 5 507 0 520 0H567C578 0 583 4 583 12C583 15 582 18 580 25C510 252 429 468 352 646C347 658 339 662 326 662H282C269 662 261 658 256 646C175 462 102 254 28 21C27 18 26 14 26 10C26 4 31 0 41 0H86C99 0 104 3 108 15ZM180 246C218 359 258 471 302 575C346 471 387 358 425 246ZM302 780 396 722C404 717 408 716 412 716C417 716 422 718 427 724L435 734C439 739 440 742 440 746C440 750 438 755 432 759L318 842C313 846 307 848 302 848C297 848 291 846 286 842L172 759C166 755 164 750 164 746C164 742 165 739 169 734L177 724C182 718 187 716 192 716C196 716 200 717 208 722Z" glyph-name="Acircumflex" horiz-adv-x="609" unicode="&#194;" /><glyph d="M108 15C124 69 141 124 159 180H446C464 125 481 70 497 17C501 5 507 0 520 0H567C578 0 583 4 583 12C583 15 582 18 580 25C510 252 429 468 352 646C347 658 339 662 326 662H282C269 662 261 658 256 646C175 462 102 254 28 21C27 18 26 14 26 10C26 4 31 0 41 0H86C99 0 104 3 108 15ZM180 246C218 359 258 471 302 575C346 471 387 358 425 246ZM262 782C262 810 244 832 213 832C182 832 164 810 164 782C164 754 182 732 213 732C244 732 262 754 262 782ZM440 782C440 810 422 832 391 832C360 832 342 810 342 782C342 754 360 732 391 732C422 732 440 754 440 782Z" glyph-name="Adieresis" horiz-adv-x="609" unicode="&#196;" /><glyph d="M108 15C124 69 141 124 159 180H446C464 125 481 70 497 17C501 5 507 0 520 0H567C578 0 583 4 583 12C583 15 582 18 580 25C510 252 429 468 352 646C347 658 339 662 326 662H282C269 662 261 658 256 646C175 462 102 254 28 21C27 18 26 14 26 10C26 4 31 0 41 0H86C99 0 104 3 108 15ZM180 246C218 359 258 471 302 575C346 471 387 358 425 246ZM237 859C232 863 228 864 224 864C220 864 215 862 211 857L194 836C190 831 189 827 189 823C189 819 191 815 196 811L326 713C331 709 335 707 339 707C343 707 348 710 352 715L363 729C366 733 368 737 368 740C368 745 365 749 360 754Z" glyph-name="Agrave" horiz-adv-x="609" unicode="&#192;" /><glyph d="M108 15C124 69 141 124 159 180H446C464 125 481 70 497 17C501 5 507 0 520 0H567C578 0 583 4 583 12C583 15 582 18 580 25C510 252 429 468 352 646C347 658 339 662 326 662H282C269 662 261 658 256 646C175 462 102 254 28 21C27 18 26 14 26 10C26 4 31 0 41 0H86C99 0 104 3 108 15ZM180 246C218 359 258 471 302 575C346 471 387 358 425 246ZM201 796C188 796 183 791 183 778V758C183 745 188 740 201 740H403C416 740 421 745 421 758V778C421 791 416 796 403 796Z" glyph-name="Amacron" horiz-adv-x="609" unicode="&#256;" /><glyph d="M596 -167C606 -161 607 -152 601 -143L598 -138C590 -126 585 -125 572 -131C561 -136 549 -139 538 -139C514 -139 495 -126 495 -96C495 -68 512 -42 544 0H567C578 0 583 4 583 12C583 15 582 18 580 25C510 252 429 468 352 646C347 658 339 662 326 662H282C269 662 261 658 256 646C175 462 102 254 28 21C27 18 26 14 26 10C26 4 31 0 41 0H86C99 0 104 3 108 15C124 69 141 124 159 180H446C466 119 485 60 502 2C462 -39 435 -75 435 -112C435 -157 472 -187 526 -187C553 -187 577 -180 596 -167ZM180 246C218 359 258 471 302 575C346 472 387 359 425 246Z" glyph-name="Aogonek" horiz-adv-x="609" unicode="&#260;" /><glyph d="M108 15C124 69 141 124 159 180H446C464 125 481 70 497 17C501 5 507 0 520 0H567C578 0 583 4 583 12C583 15 582 18 580 25C511 247 432 459 357 635C387 652 407 683 407 723C407 784 359 826 302 826C245 826 197 784 197 723C197 682 219 650 250 633C172 452 100 248 28 21C27 18 26 14 26 10C26 4 31 0 41 0H86C99 0 104 3 108 15ZM243 723C243 760 268 784 302 784C336 784 361 760 361 723C361 686 336 662 302 662C268 662 243 686 243 723ZM180 246C218 359 258 471 302 575C346 471 387 358 425 246Z" glyph-name="Aring" horiz-adv-x="609" unicode="&#197;" /><glyph d="M108 15C124 69 141 124 159 180H446C464 125 481 70 497 17C501 5 507 0 520 0H567C578 0 583 4 583 12C583 15 582 18 580 25C510 252 429 468 352 646C347 658 339 662 326 662H282C269 662 261 658 256 646C175 462 102 254 28 21C27 18 26 14 26 10C26 4 31 0 41 0H86C99 0 104 3 108 15ZM180 246C218 359 258 471 302 575C346 471 387 358 425 246ZM361 729C398 729 431 753 444 777C447 782 448 787 448 790C448 795 446 799 441 803L434 809C429 814 424 816 419 816C414 816 410 814 405 809C391 796 375 788 358 788C324 788 288 822 243 822C206 822 173 798 160 774C157 769 156 764 156 761C156 756 158 752 163 748L170 742C175 737 180 735 185 735C190 735 194 737 199 742C213 755 229 763 246 763C280 763 316 729 361 729Z" glyph-name="Atilde" horiz-adv-x="609" unicode="&#195;" /><glyph d="M531 180C531 253 497 316 407 342C469 370 500 422 500 489C500 583 437 662 276 662H99C86 662 81 657 81 644V18C81 5 86 0 99 0H305C467 0 531 86 531 180ZM163 594H281C381 594 416 544 416 483C416 421 381 369 280 369H163ZM163 303H310C412 303 447 248 447 184C447 121 410 68 308 68H163Z" glyph-name="B" horiz-adv-x="573" unicode="B" /><glyph d="M548 64C557 72 558 80 550 90L527 119C519 129 512 130 503 122C462 87 409 61 340 61C189 61 130 178 130 333C130 485 197 601 340 601C405 601 455 578 494 547C504 539 512 539 520 550L543 579C551 589 550 597 541 605C487 650 423 672 342 672C140 672 46 514 46 331C46 145 135 -10 341 -10C421 -10 492 14 548 64Z" glyph-name="C" horiz-adv-x="597" unicode="C" /><glyph d="M548 64C557 72 558 80 550 90L527 119C519 129 512 130 503 122C462 87 409 61 340 61C189 61 130 178 130 333C130 485 197 601 340 601C405 601 455 578 494 547C504 539 512 539 520 550L543 579C551 589 550 597 541 605C487 650 423 672 342 672C140 672 46 514 46 331C46 145 135 -10 341 -10C421 -10 492 14 548 64ZM268 754C263 749 260 745 260 740C260 737 262 733 265 729L276 715C280 710 285 707 289 707C293 707 297 709 302 713L432 811C437 815 439 819 439 823C439 827 438 831 434 836L417 857C413 862 408 864 404 864C400 864 396 863 391 859Z" glyph-name="Cacute" horiz-adv-x="597" unicode="&#262;" /><glyph d="M548 64C557 72 558 80 550 90L527 119C519 129 512 130 503 122C462 87 409 61 340 61C189 61 130 178 130 333C130 485 197 601 340 601C405 601 455 578 494 547C504 539 512 539 520 550L543 579C551 589 550 597 541 605C487 650 423 672 342 672C140 672 46 514 46 331C46 145 135 -10 341 -10C421 -10 492 14 548 64ZM326 778 232 836C224 841 220 842 216 842C211 842 206 840 201 834L193 824C189 819 188 816 188 812C188 808 190 803 196 799L310 716C315 712 321 710 326 710C331 710 337 712 342 716L456 799C462 803 464 808 464 812C464 816 463 819 459 824L451 834C446 840 441 842 436 842C432 842 428 841 420 836Z" glyph-name="Ccaron" horiz-adv-x="597" unicode="&#268;" /><glyph d="M432 -111C432 -74 409 -48 365 -48C357 -48 349 -48 339 -51L361 -9C433 -6 497 18 548 64C557 72 558 80 550 90L527 119C519 129 512 130 503 122C462 87 409 61 340 61C189 61 130 178 130 333C130 485 197 601 340 601C405 601 455 578 494 547C504 539 512 539 520 550L543 579C551 589 550 597 541 605C487 650 423 672 342 672C140 672 46 514 46 331C46 151 129 1 320 -9L291 -63C287 -70 287 -75 295 -81C301 -86 304 -87 308 -87C313 -87 324 -84 339 -84C373 -84 382 -98 382 -113C382 -133 367 -145 339 -145C322 -145 307 -140 295 -133C290 -130 286 -128 283 -128C278 -128 275 -132 271 -139L267 -146C261 -156 264 -164 273 -170C293 -183 319 -187 341 -187C403 -187 432 -152 432 -111Z" glyph-name="Ccedilla" horiz-adv-x="597" unicode="&#199;" /><glyph d="M548 64C557 72 558 80 550 90L527 119C519 129 512 130 503 122C462 87 409 61 340 61C189 61 130 178 130 333C130 485 197 601 340 601C405 601 455 578 494 547C504 539 512 539 520 550L543 579C551 589 550 597 541 605C487 650 423 672 342 672C140 672 46 514 46 331C46 145 135 -10 341 -10C421 -10 492 14 548 64ZM326 780 420 722C428 717 432 716 436 716C441 716 446 718 451 724L459 734C463 739 464 742 464 746C464 750 462 755 456 759L342 842C337 846 331 848 326 848C321 848 315 846 310 842L196 759C190 755 188 750 188 746C188 742 189 739 193 734L201 724C206 718 211 716 216 716C220 716 224 717 232 722Z" glyph-name="Ccircumflex" horiz-adv-x="597" unicode="&#264;" /><glyph d="M548 64C557 72 558 80 550 90L527 119C519 129 512 130 503 122C462 87 409 61 340 61C189 61 130 178 130 333C130 485 197 601 340 601C405 601 455 578 494 547C504 539 512 539 520 550L543 579C551 589 550 597 541 605C487 650 423 672 342 672C140 672 46 514 46 331C46 145 135 -10 341 -10C421 -10 492 14 548 64ZM375 782C375 810 357 832 326 832C295 832 277 810 277 782C277 754 295 732 326 732C357 732 375 754 375 782Z" glyph-name="Cdotaccent" horiz-adv-x="597" unicode="&#266;" /><glyph d="M281 0C512 0 599 163 599 331C599 499 512 662 281 662H99C86 662 81 657 81 644V18C81 5 86 0 99 0ZM277 594C445 594 515 485 515 331C515 177 445 68 277 68H163V594Z" glyph-name="D" horiz-adv-x="645" unicode="D" /><glyph d="M281 0C512 0 599 163 599 331C599 499 512 662 281 662H99C86 662 81 657 81 644V18C81 5 86 0 99 0ZM277 594C445 594 515 485 515 331C515 177 445 68 277 68H163V594ZM296 778 202 836C194 841 190 842 186 842C181 842 176 840 171 834L163 824C159 819 158 816 158 812C158 808 160 803 166 799L280 716C285 712 291 710 296 710C301 710 307 712 312 716L426 799C432 803 434 808 434 812C434 816 433 819 429 824L421 834C416 840 411 842 406 842C402 842 398 841 390 836Z" glyph-name="Dcaron" horiz-adv-x="645" unicode="&#270;" /><glyph d="M605 331C605 499 518 662 287 662H105C92 662 87 657 87 644V363H35C22 363 17 358 17 345V317C17 304 22 299 35 299H87V18C87 5 92 0 105 0H287C518 0 605 163 605 331ZM169 68V299H322C335 299 340 304 340 317V345C340 358 335 363 322 363H169V594H283C451 594 521 485 521 331C521 177 451 68 283 68Z" glyph-name="Dcroat" horiz-adv-x="651" unicode="&#272;" /><glyph d="M453 0C466 0 471 5 471 18V50C471 63 466 68 453 68H163V310H421C434 310 439 315 439 328V360C439 373 434 378 421 378H163V594H453C466 594 471 599 471 612V644C471 657 466 662 453 662H99C86 662 81 657 81 644V18C81 5 86 0 99 0Z" glyph-name="E" horiz-adv-x="527" unicode="E" /><glyph d="M453 0C466 0 471 5 471 18V50C471 63 466 68 453 68H163V310H421C434 310 439 315 439 328V360C439 373 434 378 421 378H163V594H453C466 594 471 599 471 612V644C471 657 466 662 453 662H99C86 662 81 657 81 644V18C81 5 86 0 99 0ZM218 754C213 749 210 745 210 740C210 737 212 733 215 729L226 715C230 710 235 707 239 707C243 707 247 709 252 713L382 811C387 815 389 819 389 823C389 827 388 831 384 836L367 857C363 862 358 864 354 864C350 864 346 863 341 859Z" glyph-name="Eacute" horiz-adv-x="527" unicode="&#201;" /><glyph d="M453 0C466 0 471 5 471 18V50C471 63 466 68 453 68H163V310H421C434 310 439 315 439 328V360C439 373 434 378 421 378H163V594H453C466 594 471 599 471 612V644C471 657 466 662 453 662H99C86 662 81 657 81 644V18C81 5 86 0 99 0ZM276 711C344 711 396 757 411 802C412 805 413 809 413 812C413 817 410 822 403 825L386 831C381 833 377 834 374 834C368 834 365 830 361 822C344 791 318 770 276 770C234 770 208 791 191 822C187 830 184 834 178 834C175 834 171 833 166 831L149 825C142 822 139 817 139 812C139 809 140 805 141 802C156 757 208 711 276 711Z" glyph-name="Ebreve" horiz-adv-x="527" unicode="&#276;" /><glyph d="M453 0C466 0 471 5 471 18V50C471 63 466 68 453 68H163V310H421C434 310 439 315 439 328V360C439 373 434 378 421 378H163V594H453C466 594 471 599 471 612V644C471 657 466 662 453 662H99C86 662 81 657 81 644V18C81 5 86 0 99 0ZM276 778 182 836C174 841 170 842 166 842C161 842 156 840 151 834L143 824C139 819 138 816 138 812C138 808 140 803 146 799L260 716C265 712 271 710 276 710C281 710 287 712 292 716L406 799C412 803 414 808 414 812C414 816 413 819 409 824L401 834C396 840 391 842 386 842C382 842 378 841 370 836Z" glyph-name="Ecaron" horiz-adv-x="527" unicode="&#282;" /><glyph d="M453 0C466 0 471 5 471 18V50C471 63 466 68 453 68H163V310H421C434 310 439 315 439 328V360C439 373 434 378 421 378H163V594H453C466 594 471 599 471 612V644C471 657 466 662 453 662H99C86 662 81 657 81 644V18C81 5 86 0 99 0ZM276 780 370 722C378 717 382 716 386 716C391 716 396 718 401 724L409 734C413 739 414 742 414 746C414 750 412 755 406 759L292 842C287 846 281 848 276 848C271 848 265 846 260 842L146 759C140 755 138 750 138 746C138 742 139 739 143 734L151 724C156 718 161 716 166 716C170 716 174 717 182 722Z" glyph-name="Ecircumflex" horiz-adv-x="527" unicode="&#202;" /><glyph d="M453 0C466 0 471 5 471 18V50C471 63 466 68 453 68H163V310H421C434 310 439 315 439 328V360C439 373 434 378 421 378H163V594H453C466 594 471 599 471 612V644C471 657 466 662 453 662H99C86 662 81 657 81 644V18C81 5 86 0 99 0ZM236 782C236 810 218 832 187 832C156 832 138 810 138 782C138 754 156 732 187 732C218 732 236 754 236 782ZM414 782C414 810 396 832 365 832C334 832 316 810 316 782C316 754 334 732 365 732C396 732 414 754 414 782Z" glyph-name="Edieresis" horiz-adv-x="527" unicode="&#203;" /><glyph d="M453 0C466 0 471 5 471 18V50C471 63 466 68 453 68H163V310H421C434 310 439 315 439 328V360C439 373 434 378 421 378H163V594H453C466 594 471 599 471 612V644C471 657 466 662 453 662H99C86 662 81 657 81 644V18C81 5 86 0 99 0ZM325 782C325 810 307 832 276 832C245 832 227 810 227 782C227 754 245 732 276 732C307 732 325 754 325 782Z" glyph-name="Edotaccent" horiz-adv-x="527" unicode="&#278;" /><glyph d="M453 0C466 0 471 5 471 18V50C471 63 466 68 453 68H163V310H421C434 310 439 315 439 328V360C439 373 434 378 421 378H163V594H453C466 594 471 599 471 612V644C471 657 466 662 453 662H99C86 662 81 657 81 644V18C81 5 86 0 99 0ZM211 859C206 863 202 864 198 864C194 864 189 862 185 857L168 836C164 831 163 827 163 823C163 819 165 815 170 811L300 713C305 709 309 707 313 707C317 707 322 710 326 715L337 729C340 733 342 737 342 740C342 745 339 749 334 754Z" glyph-name="Egrave" horiz-adv-x="527" unicode="&#200;" /><glyph d="M453 0C466 0 471 5 471 18V50C471 63 466 68 453 68H163V310H421C434 310 439 315 439 328V360C439 373 434 378 421 378H163V594H453C466 594 471 599 471 612V644C471 657 466 662 453 662H99C86 662 81 657 81 644V18C81 5 86 0 99 0ZM175 796C162 796 157 791 157 778V758C157 745 162 740 175 740H377C390 740 395 745 395 758V778C395 791 390 796 377 796Z" glyph-name="Emacron" horiz-adv-x="527" unicode="&#274;" /><glyph d="M296 -112C296 -157 333 -187 387 -187C414 -187 438 -180 457 -167C467 -161 468 -152 462 -143L459 -138C451 -126 446 -125 433 -131C422 -136 410 -139 399 -139C375 -139 356 -126 356 -96C356 -68 373 -42 405 0H453C466 0 471 5 471 18V50C471 63 466 68 453 68H163V310H421C434 310 439 315 439 328V360C439 373 434 378 421 378H163V594H453C466 594 471 599 471 612V644C471 657 466 662 453 662H99C86 662 81 657 81 644V18C81 5 86 0 99 0H361C321 -41 296 -75 296 -112Z" glyph-name="Eogonek" horiz-adv-x="527" unicode="&#280;" /><glyph d="M605 331C605 499 518 662 287 662H105C92 662 87 657 87 644V363H35C22 363 17 358 17 345V317C17 304 22 299 35 299H87V18C87 5 92 0 105 0H287C518 0 605 163 605 331ZM169 68V299H322C335 299 340 304 340 317V345C340 358 335 363 322 363H169V594H283C451 594 521 485 521 331C521 177 451 68 283 68Z" glyph-name="Eth" horiz-adv-x="651" unicode="&#208;" /><glyph d="M499 27C509 33 511 41 505 52L489 80C483 91 476 93 465 86C434 68 392 57 352 57C271 57 209 103 188 228H395C408 228 413 233 413 246V270C413 283 408 288 395 288H181C180 302 180 316 180 331C180 346 180 360 181 374H395C408 374 413 379 413 392V416C413 429 408 434 395 434H188C209 559 271 605 352 605C392 605 434 594 465 576C476 569 483 571 489 582L505 610C511 621 509 629 499 635C456 660 407 672 355 672C220 672 136 588 111 434H50C37 434 32 429 32 416V392C32 379 37 374 50 374H104C103 360 103 346 103 331C103 316 103 302 104 288H50C37 288 32 283 32 270V246C32 233 37 228 50 228H110C135 71 222 -10 355 -10C407 -10 456 2 499 27Z" glyph-name="Euro" horiz-adv-x="532" unicode="&#8364;" /><glyph d="M145 0C158 0 163 5 163 18V293H408C421 293 426 298 426 311V343C426 356 421 361 408 361H163V594H446C459 594 464 599 464 612V644C464 657 459 662 446 662H99C86 662 81 657 81 644V18C81 5 86 0 99 0Z" glyph-name="F" horiz-adv-x="502" unicode="F" /><glyph d="M571 46C581 53 586 61 586 73V335C586 348 581 353 568 353H366C353 353 348 348 348 335V303C348 290 353 285 366 285H505V94C458 67 401 58 353 58C192 58 130 169 130 327C130 477 193 601 341 601C409 601 467 576 507 542C517 534 524 535 531 545L554 574C562 584 561 592 552 600C497 650 421 672 344 672C137 672 46 507 46 325C46 144 134 -10 353 -10C429 -10 508 9 571 46Z" glyph-name="G" horiz-adv-x="660" unicode="G" /><glyph d="M571 46C581 53 586 61 586 73V335C586 348 581 353 568 353H366C353 353 348 348 348 335V303C348 290 353 285 366 285H505V94C458 67 401 58 353 58C192 58 130 169 130 327C130 477 193 601 341 601C409 601 467 576 507 542C517 534 524 535 531 545L554 574C562 584 561 592 552 600C497 650 421 672 344 672C137 672 46 507 46 325C46 144 134 -10 353 -10C429 -10 508 9 571 46ZM331 711C399 711 451 757 466 802C467 805 468 809 468 812C468 817 465 822 458 825L441 831C436 833 432 834 429 834C423 834 420 830 416 822C399 791 373 770 331 770C289 770 263 791 246 822C242 830 239 834 233 834C230 834 226 833 221 831L204 825C197 822 194 817 194 812C194 809 195 805 196 802C211 757 263 711 331 711Z" glyph-name="Gbreve" horiz-adv-x="660" unicode="&#286;" /><glyph d="M571 46C581 53 586 61 586 73V335C586 348 581 353 568 353H366C353 353 348 348 348 335V303C348 290 353 285 366 285H505V94C458 67 401 58 353 58C192 58 130 169 130 327C130 477 193 601 341 601C409 601 467 576 507 542C517 534 524 535 531 545L554 574C562 584 561 592 552 600C497 650 421 672 344 672C137 672 46 507 46 325C46 144 134 -10 353 -10C429 -10 508 9 571 46ZM331 780 425 722C433 717 437 716 441 716C446 716 451 718 456 724L464 734C468 739 469 742 469 746C469 750 467 755 461 759L347 842C342 846 336 848 331 848C326 848 320 846 315 842L201 759C195 755 193 750 193 746C193 742 194 739 198 734L206 724C211 718 216 716 221 716C225 716 229 717 237 722Z" glyph-name="Gcircumflex" horiz-adv-x="660" unicode="&#284;" /><glyph d="M571 46C581 53 586 61 586 73V335C586 348 581 353 568 353H366C353 353 348 348 348 335V303C348 290 353 285 366 285H505V94C458 67 401 58 353 58C192 58 130 169 130 327C130 477 193 601 341 601C409 601 467 576 507 542C517 534 524 535 531 545L554 574C562 584 561 592 552 600C497 650 421 672 344 672C137 672 46 507 46 325C46 144 134 -10 353 -10C429 -10 508 9 571 46ZM380 782C380 810 362 832 331 832C300 832 282 810 282 782C282 754 300 732 331 732C362 732 380 754 380 782Z" glyph-name="Gdotaccent" horiz-adv-x="660" unicode="&#288;" /><glyph d="M145 0C158 0 163 5 163 18V300H505V18C505 5 510 0 523 0H569C582 0 587 5 587 18V644C587 657 582 662 569 662H523C510 662 505 657 505 644V368H163V644C163 657 158 662 145 662H99C86 662 81 657 81 644V18C81 5 86 0 99 0Z" glyph-name="H" horiz-adv-x="668" unicode="H" /><glyph d="M169 18V300H511V18C511 5 516 0 529 0H575C588 0 593 5 593 18V483H656C669 483 674 488 674 501V521C674 534 669 539 656 539H593V644C593 657 588 662 575 662H529C516 662 511 657 511 644V539H169V644C169 657 164 662 151 662H105C92 662 87 657 87 644V539H24C11 539 6 534 6 521V501C6 488 11 483 24 483H87V18C87 5 92 0 105 0H151C164 0 169 5 169 18ZM169 368V483H511V368Z" glyph-name="Hbar" horiz-adv-x="680" unicode="&#294;" /><glyph d="M145 0C158 0 163 5 163 18V300H505V18C505 5 510 0 523 0H569C582 0 587 5 587 18V644C587 657 582 662 569 662H523C510 662 505 657 505 644V368H163V644C163 657 158 662 145 662H99C86 662 81 657 81 644V18C81 5 86 0 99 0ZM334 780 428 722C436 717 440 716 444 716C449 716 454 718 459 724L467 734C471 739 472 742 472 746C472 750 470 755 464 759L350 842C345 846 339 848 334 848C329 848 323 846 318 842L204 759C198 755 196 750 196 746C196 742 197 739 201 734L209 724C214 718 219 716 224 716C228 716 232 717 240 722Z" glyph-name="Hcircumflex" horiz-adv-x="668" unicode="&#292;" /><glyph d="M145 0C158 0 163 5 163 18V644C163 657 158 662 145 662H99C86 662 81 657 81 644V18C81 5 86 0 99 0Z" glyph-name="I" horiz-adv-x="244" unicode="I" /><glyph d="M127 270C140 270 145 275 145 288V644C145 657 140 662 127 662H81C68 662 63 657 63 644V288C63 275 68 270 81 270ZM523 239V644C523 657 518 662 505 662H459C446 662 441 657 441 644V243C441 131 386 60 269 60C210 60 171 78 142 103C132 111 125 110 118 100L95 69C88 59 89 50 98 42C134 11 191 -10 269 -10C438 -10 523 89 523 239Z" glyph-name="IJ" horiz-adv-x="596" unicode="&#306;" /><glyph d="M145 0C158 0 163 5 163 18V644C163 657 158 662 145 662H99C86 662 81 657 81 644V18C81 5 86 0 99 0ZM64 754C59 749 56 745 56 740C56 737 58 733 61 729L72 715C76 710 81 707 85 707C89 707 93 709 98 713L228 811C233 815 235 819 235 823C235 827 234 831 230 836L213 857C209 862 204 864 200 864C196 864 192 863 187 859Z" glyph-name="Iacute" horiz-adv-x="244" unicode="&#205;" /><glyph d="M145 0C158 0 163 5 163 18V644C163 657 158 662 145 662H99C86 662 81 657 81 644V18C81 5 86 0 99 0ZM122 711C190 711 242 757 257 802C258 805 259 809 259 812C259 817 256 822 249 825L232 831C227 833 223 834 220 834C214 834 211 830 207 822C190 791 164 770 122 770C80 770 54 791 37 822C33 830 30 834 24 834C21 834 17 833 12 831L-5 825C-12 822 -15 817 -15 812C-15 809 -14 805 -13 802C2 757 54 711 122 711Z" glyph-name="Ibreve" horiz-adv-x="244" unicode="&#300;" /><glyph d="M145 0C158 0 163 5 163 18V644C163 657 158 662 145 662H99C86 662 81 657 81 644V18C81 5 86 0 99 0ZM122 780 216 722C224 717 228 716 232 716C237 716 242 718 247 724L255 734C259 739 260 742 260 746C260 750 258 755 252 759L138 842C133 846 127 848 122 848C117 848 111 846 106 842L-8 759C-14 755 -16 750 -16 746C-16 742 -15 739 -11 734L-3 724C2 718 7 716 12 716C16 716 20 717 28 722Z" glyph-name="Icircumflex" horiz-adv-x="244" unicode="&#206;" /><glyph d="M145 0C158 0 163 5 163 18V644C163 657 158 662 145 662H99C86 662 81 657 81 644V18C81 5 86 0 99 0ZM82 782C82 810 64 832 33 832C2 832 -16 810 -16 782C-16 754 2 732 33 732C64 732 82 754 82 782ZM260 782C260 810 242 832 211 832C180 832 162 810 162 782C162 754 180 732 211 732C242 732 260 754 260 782Z" glyph-name="Idieresis" horiz-adv-x="244" unicode="&#207;" /><glyph d="M145 0C158 0 163 5 163 18V644C163 657 158 662 145 662H99C86 662 81 657 81 644V18C81 5 86 0 99 0ZM171 782C171 810 153 832 122 832C91 832 73 810 73 782C73 754 91 732 122 732C153 732 171 754 171 782Z" glyph-name="Idotaccent" horiz-adv-x="244" unicode="&#304;" /><glyph d="M145 0C158 0 163 5 163 18V644C163 657 158 662 145 662H99C86 662 81 657 81 644V18C81 5 86 0 99 0ZM57 859C52 863 48 864 44 864C40 864 35 862 31 857L14 836C10 831 9 827 9 823C9 819 11 815 16 811L146 713C151 709 155 707 159 707C163 707 168 710 172 715L183 729C186 733 188 737 188 740C188 745 185 749 180 754Z" glyph-name="Igrave" horiz-adv-x="244" unicode="&#204;" /><glyph d="M145 0C158 0 163 5 163 18V644C163 657 158 662 145 662H99C86 662 81 657 81 644V18C81 5 86 0 99 0ZM21 796C8 796 3 791 3 778V758C3 745 8 740 21 740H223C236 740 241 745 241 758V778C241 791 236 796 223 796Z" glyph-name="Imacron" horiz-adv-x="244" unicode="&#298;" /><glyph d="M36 -112C36 -157 73 -187 127 -187C154 -187 178 -180 197 -167C207 -161 208 -152 202 -143L199 -138C191 -126 186 -125 173 -131C162 -136 150 -139 139 -139C115 -139 96 -126 96 -96C96 -68 113 -42 145 0C158 0 163 5 163 18V644C163 657 158 662 145 662H99C86 662 81 657 81 644V18C81 5 86 0 99 0H101C61 -41 36 -75 36 -112Z" glyph-name="Iogonek" horiz-adv-x="244" unicode="&#302;" /><glyph d="M145 0C158 0 163 5 163 18V644C163 657 158 662 145 662H99C86 662 81 657 81 644V18C81 5 86 0 99 0ZM181 729C218 729 251 753 264 777C267 782 268 787 268 790C268 795 266 799 261 803L254 809C249 814 244 816 239 816C234 816 230 814 225 809C211 796 195 788 178 788C144 788 108 822 63 822C26 822 -7 798 -20 774C-23 769 -24 764 -24 761C-24 756 -22 752 -17 748L-10 742C-5 737 0 735 5 735C10 735 14 737 19 742C33 755 49 763 66 763C100 763 136 729 181 729Z" glyph-name="Itilde" horiz-adv-x="244" unicode="&#296;" /><glyph d="M377 219V644C377 657 372 662 359 662H313C300 662 295 657 295 644V223C295 117 252 60 174 60C133 60 98 75 73 96C63 104 57 103 49 92L29 63C23 53 24 44 33 37C65 9 115 -10 176 -10C304 -10 377 75 377 219Z" glyph-name="J" horiz-adv-x="452" unicode="J" /><glyph d="M377 219V644C377 657 372 662 359 662H313C300 662 295 657 295 644V223C295 117 252 60 174 60C133 60 98 75 73 96C63 104 57 103 49 92L29 63C23 53 24 44 33 37C65 9 115 -10 176 -10C304 -10 377 75 377 219ZM336 780 430 722C438 717 442 716 446 716C451 716 456 718 461 724L469 734C473 739 474 742 474 746C474 750 472 755 466 759L352 842C347 846 341 848 336 848C331 848 325 846 320 842L206 759C200 755 198 750 198 746C198 742 199 739 203 734L211 724C216 718 221 716 226 716C230 716 234 717 242 722Z" glyph-name="Jcircumflex" horiz-adv-x="452" unicode="&#308;" /><glyph d="M163 18V234C196 262 228 290 259 320C341 225 408 123 467 16C473 4 480 0 493 0H547C559 0 566 6 560 17C482 158 404 275 314 374C388 452 459 539 530 646C537 656 530 662 519 662H464C451 662 444 658 437 647C350 518 257 409 163 321V644C163 657 158 662 145 662H99C86 662 81 657 81 644V18C81 5 86 0 99 0H145C158 0 163 5 163 18Z" glyph-name="K" horiz-adv-x="580" unicode="K" /><glyph d="M435 0C448 0 453 5 453 18V50C453 63 448 68 435 68H163V644C163 657 158 662 145 662H99C86 662 81 657 81 644V18C81 5 86 0 99 0Z" glyph-name="L" horiz-adv-x="470" unicode="L" /><glyph d="M435 0C448 0 453 5 453 18V50C453 63 448 68 435 68H163V644C163 657 158 662 145 662H99C86 662 81 657 81 644V18C81 5 86 0 99 0ZM64 754C59 749 56 745 56 740C56 737 58 733 61 729L72 715C76 710 81 707 85 707C89 707 93 709 98 713L228 811C233 815 235 819 235 823C235 827 234 831 230 836L213 857C209 862 204 864 200 864C196 864 192 863 187 859Z" glyph-name="Lacute" horiz-adv-x="470" unicode="&#313;" /><glyph d="M435 0C448 0 453 5 453 18V50C453 63 448 68 435 68H163V644C163 657 158 662 145 662H99C86 662 81 657 81 644V18C81 5 86 0 99 0ZM245 489C256 487 263 489 267 500L315 632C317 638 318 643 318 646C318 652 314 656 305 658L272 665C267 666 262 667 259 667C252 667 247 662 246 652L230 508C229 497 233 491 245 489Z" glyph-name="Lcaron" horiz-adv-x="470" unicode="&#317;" /><glyph d="M435 0C448 0 453 5 453 18V50C453 63 448 68 435 68H163V644C163 657 158 662 145 662H99C86 662 81 657 81 644V18C81 5 86 0 99 0ZM405 339C405 372 382 398 347 398C312 398 289 372 289 339C289 306 312 280 347 280C382 280 405 306 405 339Z" glyph-name="Ldot" horiz-adv-x="470" unicode="&#319;" /><glyph d="M459 18V50C459 63 454 68 441 68H169V314L308 394C320 401 324 408 324 421V456C324 467 318 471 308 465L169 385V644C169 657 164 662 151 662H105C92 662 87 657 87 644V344L26 309C14 302 10 295 10 282V247C10 236 16 232 26 238L87 273V18C87 5 92 0 105 0H441C454 0 459 5 459 18Z" glyph-name="Lslash" horiz-adv-x="476" unicode="&#321;" /><glyph d="M160 18V556L355 210C362 198 369 194 382 194H395C408 194 415 198 422 210L617 556V18C617 5 622 0 635 0H678C691 0 696 5 696 18V644C696 657 691 662 678 662H614C601 662 594 658 587 646L390 296L194 646C187 658 180 662 167 662H99C86 662 81 657 81 644V18C81 5 86 0 99 0H142C155 0 160 5 160 18Z" glyph-name="M" horiz-adv-x="777" unicode="M" /><glyph d="M160 18V561L487 15C494 4 501 0 514 0H571C584 0 589 5 589 18V644C589 657 584 662 571 662H528C515 662 510 657 510 644V118L193 647C186 658 179 662 166 662H99C86 662 81 657 81 644V18C81 5 86 0 99 0H142C155 0 160 5 160 18Z" glyph-name="N" horiz-adv-x="670" unicode="N" /><glyph d="M160 18V561L487 15C494 4 501 0 514 0H571C584 0 589 5 589 18V644C589 657 584 662 571 662H528C515 662 510 657 510 644V118L193 647C186 658 179 662 166 662H99C86 662 81 657 81 644V18C81 5 86 0 99 0H142C155 0 160 5 160 18ZM277 754C272 749 269 745 269 740C269 737 271 733 274 729L285 715C289 710 294 707 298 707C302 707 306 709 311 713L441 811C446 815 448 819 448 823C448 827 447 831 443 836L426 857C422 862 417 864 413 864C409 864 405 863 400 859Z" glyph-name="Nacute" horiz-adv-x="670" unicode="&#323;" /><glyph d="M160 18V561L487 15C494 4 501 0 514 0H571C584 0 589 5 589 18V644C589 657 584 662 571 662H528C515 662 510 657 510 644V118L193 647C186 658 179 662 166 662H99C86 662 81 657 81 644V18C81 5 86 0 99 0H142C155 0 160 5 160 18ZM335 778 241 836C233 841 229 842 225 842C220 842 215 840 210 834L202 824C198 819 197 816 197 812C197 808 199 803 205 799L319 716C324 712 330 710 335 710C340 710 346 712 351 716L465 799C471 803 473 808 473 812C473 816 472 819 468 824L460 834C455 840 450 842 445 842C441 842 437 841 429 836Z" glyph-name="Ncaron" horiz-adv-x="670" unicode="&#327;" /><glyph d="M160 18V561L487 15C494 4 501 0 514 0H571C584 0 589 5 589 18V644C589 657 584 662 571 662H528C515 662 510 657 510 644V118L193 647C186 658 179 662 166 662H99C86 662 81 657 81 644V18C81 5 86 0 99 0H142C155 0 160 5 160 18ZM394 729C431 729 464 753 477 777C480 782 481 787 481 790C481 795 479 799 474 803L467 809C462 814 457 816 452 816C447 816 443 814 438 809C424 796 408 788 391 788C357 788 321 822 276 822C239 822 206 798 193 774C190 769 189 764 189 761C189 756 191 752 196 748L203 742C208 737 213 735 218 735C223 735 227 737 232 742C246 755 262 763 279 763C313 763 349 729 394 729Z" glyph-name="Ntilde" horiz-adv-x="670" unicode="&#209;" /><glyph d="M648 331C648 529 541 672 347 672C156 672 46 527 46 331C46 133 153 -10 347 -10C538 -10 648 135 648 331ZM130 331C130 484 202 604 347 604C492 604 564 484 564 331C564 178 492 58 347 58C202 58 130 178 130 331Z" glyph-name="O" horiz-adv-x="694" unicode="O" /><glyph d="M872 50C872 63 867 68 854 68H564V310H822C835 310 840 315 840 328V360C840 373 835 378 822 378H564V594H854C867 594 872 599 872 612V644C872 657 867 662 854 662H364C133 662 46 499 46 331C46 163 133 0 364 0H854C867 0 872 5 872 18ZM368 68C200 68 130 177 130 331C130 485 200 594 368 594H482V68Z" glyph-name="OE" horiz-adv-x="928" unicode="&#338;" /><glyph d="M648 331C648 529 541 672 347 672C156 672 46 527 46 331C46 133 153 -10 347 -10C538 -10 648 135 648 331ZM130 331C130 484 202 604 347 604C492 604 564 484 564 331C564 178 492 58 347 58C202 58 130 178 130 331ZM285 754C280 749 277 745 277 740C277 737 279 733 282 729L293 715C297 710 302 707 306 707C310 707 314 709 319 713L449 811C454 815 456 819 456 823C456 827 455 831 451 836L434 857C430 862 425 864 421 864C417 864 413 863 408 859Z" glyph-name="Oacute" horiz-adv-x="694" unicode="&#211;" /><glyph d="M648 331C648 529 541 672 347 672C156 672 46 527 46 331C46 133 153 -10 347 -10C538 -10 648 135 648 331ZM130 331C130 484 202 604 347 604C492 604 564 484 564 331C564 178 492 58 347 58C202 58 130 178 130 331ZM343 711C411 711 463 757 478 802C479 805 480 809 480 812C480 817 477 822 470 825L453 831C448 833 444 834 441 834C435 834 432 830 428 822C411 791 385 770 343 770C301 770 275 791 258 822C254 830 251 834 245 834C242 834 238 833 233 831L216 825C209 822 206 817 206 812C206 809 207 805 208 802C223 757 275 711 343 711Z" glyph-name="Obreve" horiz-adv-x="694" unicode="&#334;" /><glyph d="M648 331C648 529 541 672 347 672C156 672 46 527 46 331C46 133 153 -10 347 -10C538 -10 648 135 648 331ZM130 331C130 484 202 604 347 604C492 604 564 484 564 331C564 178 492 58 347 58C202 58 130 178 130 331ZM343 780 437 722C445 717 449 716 453 716C458 716 463 718 468 724L476 734C480 739 481 742 481 746C481 750 479 755 473 759L359 842C354 846 348 848 343 848C338 848 332 846 327 842L213 759C207 755 205 750 205 746C205 742 206 739 210 734L218 724C223 718 228 716 233 716C237 716 241 717 249 722Z" glyph-name="Ocircumflex" horiz-adv-x="694" unicode="&#212;" /><glyph d="M648 331C648 529 541 672 347 672C156 672 46 527 46 331C46 133 153 -10 347 -10C538 -10 648 135 648 331ZM130 331C130 484 202 604 347 604C492 604 564 484 564 331C564 178 492 58 347 58C202 58 130 178 130 331ZM303 782C303 810 285 832 254 832C223 832 205 810 205 782C205 754 223 732 254 732C285 732 303 754 303 782ZM481 782C481 810 463 832 432 832C401 832 383 810 383 782C383 754 401 732 432 732C463 732 481 754 481 782Z" glyph-name="Odieresis" horiz-adv-x="694" unicode="&#214;" /><glyph d="M648 331C648 529 541 672 347 672C156 672 46 527 46 331C46 133 153 -10 347 -10C538 -10 648 135 648 331ZM130 331C130 484 202 604 347 604C492 604 564 484 564 331C564 178 492 58 347 58C202 58 130 178 130 331ZM278 859C273 863 269 864 265 864C261 864 256 862 252 857L235 836C231 831 230 827 230 823C230 819 232 815 237 811L367 713C372 709 376 707 380 707C384 707 389 710 393 715L404 729C407 733 409 737 409 740C409 745 406 749 401 754Z" glyph-name="Ograve" horiz-adv-x="694" unicode="&#210;" /><glyph d="M648 331C648 529 541 672 347 672C156 672 46 527 46 331C46 133 153 -10 347 -10C538 -10 648 135 648 331ZM130 331C130 484 202 604 347 604C492 604 564 484 564 331C564 178 492 58 347 58C202 58 130 178 130 331ZM364 811C368 815 370 819 370 823C370 828 367 832 363 836L344 854C340 858 336 860 332 860C327 860 323 858 319 853L225 747C221 743 219 739 219 735C219 730 222 725 227 721L241 709C246 705 250 703 254 703C259 703 263 705 269 712ZM520 811C524 815 526 819 526 823C526 828 523 832 519 836L500 854C496 858 492 860 488 860C483 860 479 858 475 853L381 747C377 743 375 739 375 735C375 730 378 725 383 721L397 709C402 705 406 703 410 703C415 703 419 705 425 712Z" glyph-name="Ohungarumlaut" horiz-adv-x="694" unicode="&#336;" /><glyph d="M648 331C648 529 541 672 347 672C156 672 46 527 46 331C46 133 153 -10 347 -10C538 -10 648 135 648 331ZM130 331C130 484 202 604 347 604C492 604 564 484 564 331C564 178 492 58 347 58C202 58 130 178 130 331ZM242 796C229 796 224 791 224 778V758C224 745 229 740 242 740H444C457 740 462 745 462 758V778C462 791 457 796 444 796Z" glyph-name="Omacron" horiz-adv-x="694" unicode="&#332;" /><glyph d="M128 -31 178 39C224 8 281 -10 349 -10C540 -10 650 135 650 331C650 434 621 523 565 584L643 693C649 702 646 708 635 708H598C585 708 578 704 570 693L520 623C474 654 417 672 349 672C158 672 48 527 48 331C48 228 77 139 133 78L55 -31C49 -40 52 -46 63 -46H100C113 -46 120 -42 128 -31ZM132 331C132 484 204 604 349 604C401 604 444 589 477 562L180 145C148 194 132 259 132 331ZM566 331C566 178 494 58 349 58C297 58 255 73 221 100L518 517C550 468 566 403 566 331Z" glyph-name="Oslash" horiz-adv-x="698" unicode="&#216;" /><glyph d="M648 331C648 529 541 672 347 672C156 672 46 527 46 331C46 133 153 -10 347 -10C538 -10 648 135 648 331ZM130 331C130 484 202 604 347 604C492 604 564 484 564 331C564 178 492 58 347 58C202 58 130 178 130 331ZM402 729C439 729 472 753 485 777C488 782 489 787 489 790C489 795 487 799 482 803L475 809C470 814 465 816 460 816C455 816 451 814 446 809C432 796 416 788 399 788C365 788 329 822 284 822C247 822 214 798 201 774C198 769 197 764 197 761C197 756 199 752 204 748L211 742C216 737 221 735 226 735C231 735 235 737 240 742C254 755 270 763 287 763C321 763 357 729 402 729Z" glyph-name="Otilde" horiz-adv-x="694" unicode="&#213;" /><glyph d="M145 0C158 0 163 5 163 18V243H280C443 243 516 345 516 456C516 564 456 662 287 662H99C86 662 81 657 81 644V18C81 5 86 0 99 0ZM163 594H281C396 594 432 530 432 453C432 376 394 311 277 311H163Z" glyph-name="P" horiz-adv-x="545" unicode="P" /><glyph d="M578 -155C590 -149 592 -142 586 -131L574 -108C568 -97 563 -95 550 -99C538 -103 525 -106 508 -106C457 -106 423 -82 401 0C559 25 648 158 648 333C648 529 541 672 347 672C156 672 46 527 46 333C46 147 143 10 319 -3C348 -125 406 -170 496 -170C532 -170 559 -164 578 -155ZM130 333C130 484 202 604 347 604C492 604 564 484 564 333C564 182 492 62 347 62C202 62 130 182 130 333Z" glyph-name="Q" horiz-adv-x="694" unicode="Q" /><glyph d="M163 18V270H256C343 193 415 92 456 17C463 5 470 0 483 0H539C551 0 554 7 548 18C498 111 420 216 344 283C442 303 509 374 509 472C509 576 447 662 282 662H99C86 662 81 657 81 644V18C81 5 86 0 99 0H145C158 0 163 5 163 18ZM163 594H278C383 594 425 545 425 469C425 393 373 338 272 338H163Z" glyph-name="R" horiz-adv-x="567" unicode="R" /><glyph d="M163 18V270H256C343 193 415 92 456 17C463 5 470 0 483 0H539C551 0 554 7 548 18C498 111 420 216 344 283C442 303 509 374 509 472C509 576 447 662 282 662H99C86 662 81 657 81 644V18C81 5 86 0 99 0H145C158 0 163 5 163 18ZM163 594H278C383 594 425 545 425 469C425 393 373 338 272 338H163ZM219 754C214 749 211 745 211 740C211 737 213 733 216 729L227 715C231 710 236 707 240 707C244 707 248 709 253 713L383 811C388 815 390 819 390 823C390 827 389 831 385 836L368 857C364 862 359 864 355 864C351 864 347 863 342 859Z" glyph-name="Racute" horiz-adv-x="567" unicode="&#340;" /><glyph d="M163 18V270H256C343 193 415 92 456 17C463 5 470 0 483 0H539C551 0 554 7 548 18C498 111 420 216 344 283C442 303 509 374 509 472C509 576 447 662 282 662H99C86 662 81 657 81 644V18C81 5 86 0 99 0H145C158 0 163 5 163 18ZM163 594H278C383 594 425 545 425 469C425 393 373 338 272 338H163ZM277 778 183 836C175 841 171 842 167 842C162 842 157 840 152 834L144 824C140 819 139 816 139 812C139 808 141 803 147 799L261 716C266 712 272 710 277 710C282 710 288 712 293 716L407 799C413 803 415 808 415 812C415 816 414 819 410 824L402 834C397 840 392 842 387 842C383 842 379 841 371 836Z" glyph-name="Rcaron" horiz-adv-x="567" unicode="&#344;" /><glyph d="M478 178C478 297 385 339 277 372C175 403 137 431 137 493C137 551 177 601 273 601C336 601 380 581 414 556C424 549 432 550 439 560L460 590C467 600 466 608 456 616C419 645 359 672 275 672C146 672 56 605 56 489C56 370 144 330 252 297C354 266 397 235 397 173C397 105 342 61 252 61C183 61 132 87 90 122C80 130 73 129 65 119L41 89C33 79 35 71 44 63C86 24 155 -10 251 -10C389 -10 478 63 478 178Z" glyph-name="S" horiz-adv-x="522" unicode="S" /><glyph d="M478 178C478 297 385 339 277 372C175 403 137 431 137 493C137 551 177 601 273 601C336 601 380 581 414 556C424 549 432 550 439 560L460 590C467 600 466 608 456 616C419 645 359 672 275 672C146 672 56 605 56 489C56 370 144 330 252 297C354 266 397 235 397 173C397 105 342 61 252 61C183 61 132 87 90 122C80 130 73 129 65 119L41 89C33 79 35 71 44 63C86 24 155 -10 251 -10C389 -10 478 63 478 178ZM210 754C205 749 202 745 202 740C202 737 204 733 207 729L218 715C222 710 227 707 231 707C235 707 239 709 244 713L374 811C379 815 381 819 381 823C381 827 380 831 376 836L359 857C355 862 350 864 346 864C342 864 338 863 333 859Z" glyph-name="Sacute" horiz-adv-x="522" unicode="&#346;" /><glyph d="M478 178C478 297 385 339 277 372C175 403 137 431 137 493C137 551 177 601 273 601C336 601 380 581 414 556C424 549 432 550 439 560L460 590C467 600 466 608 456 616C419 645 359 672 275 672C146 672 56 605 56 489C56 370 144 330 252 297C354 266 397 235 397 173C397 105 342 61 252 61C183 61 132 87 90 122C80 130 73 129 65 119L41 89C33 79 35 71 44 63C86 24 155 -10 251 -10C389 -10 478 63 478 178ZM268 778 174 836C166 841 162 842 158 842C153 842 148 840 143 834L135 824C131 819 130 816 130 812C130 808 132 803 138 799L252 716C257 712 263 710 268 710C273 710 279 712 284 716L398 799C404 803 406 808 406 812C406 816 405 819 401 824L393 834C388 840 383 842 378 842C374 842 370 841 362 836Z" glyph-name="Scaron" horiz-adv-x="522" unicode="&#352;" /><glyph d="M478 178C478 297 385 339 277 372C175 403 137 431 137 493C137 551 177 601 273 601C336 601 380 581 414 556C424 549 432 550 439 560L460 590C467 600 466 608 456 616C419 645 359 672 275 672C146 672 56 605 56 489C56 370 144 330 252 297C354 266 397 235 397 173C397 105 342 61 252 61C183 61 132 87 90 122C80 130 73 129 65 119L41 89C33 79 35 71 44 63C86 24 155 -10 251 -10C389 -10 478 63 478 178ZM268 780 362 722C370 717 374 716 378 716C383 716 388 718 393 724L401 734C405 739 406 742 406 746C406 750 404 755 398 759L284 842C279 846 273 848 268 848C263 848 257 846 252 842L138 759C132 755 130 750 130 746C130 742 131 739 135 734L143 724C148 718 153 716 158 716C162 716 166 717 174 722Z" glyph-name="Scircumflex" horiz-adv-x="522" unicode="&#348;" /><glyph d="M273 0C286 0 291 5 291 18V594H467C480 594 485 599 485 612V644C485 657 480 662 467 662H33C20 662 15 657 15 644V612C15 599 20 594 33 594H209V18C209 5 214 0 227 0Z" glyph-name="T" horiz-adv-x="500" unicode="T" /><glyph d="M291 18V303H386C399 303 404 308 404 321V349C404 362 399 367 386 367H291V594H467C480 594 485 599 485 612V644C485 657 480 662 467 662H33C20 662 15 657 15 644V612C15 599 20 594 33 594H209V367H114C101 367 96 362 96 349V321C96 308 101 303 114 303H209V18C209 5 214 0 227 0H273C286 0 291 5 291 18Z" glyph-name="Tbar" horiz-adv-x="500" unicode="&#358;" /><glyph d="M273 0C286 0 291 5 291 18V594H467C480 594 485 599 485 612V644C485 657 480 662 467 662H33C20 662 15 657 15 644V612C15 599 20 594 33 594H209V18C209 5 214 0 227 0ZM250 778 156 836C148 841 144 842 140 842C135 842 130 840 125 834L117 824C113 819 112 816 112 812C112 808 114 803 120 799L234 716C239 712 245 710 250 710C255 710 261 712 266 716L380 799C386 803 388 808 388 812C388 816 387 819 383 824L375 834C370 840 365 842 360 842C356 842 352 841 344 836Z" glyph-name="Tcaron" horiz-adv-x="500" unicode="&#356;" /><glyph d="M273 0C286 0 291 5 291 18V594H467C480 594 485 599 485 612V644C485 657 480 662 467 662H33C20 662 15 657 15 644V612C15 599 20 594 33 594H209V18C209 5 214 0 227 0ZM301 -99C301 -67 283 -47 252 -47C221 -47 206 -66 206 -88C206 -119 234 -122 234 -150C234 -159 232 -171 216 -192C213 -196 212 -199 212 -202C212 -206 215 -209 220 -212L223 -214C227 -217 230 -218 233 -218C237 -218 240 -215 244 -211C279 -174 301 -133 301 -99Z" glyph-name="Tcommaaccent" horiz-adv-x="500" unicode="&#354;" /><glyph d="M99 662C86 662 81 657 81 644V18C81 5 86 0 99 0H145C158 0 163 5 163 18V125H280C443 125 516 227 516 338C516 446 456 544 287 544H163V644C163 657 158 662 145 662ZM432 335C432 258 394 193 277 193H163V476H281C396 476 432 412 432 335Z" glyph-name="Thorn" horiz-adv-x="545" unicode="&#222;" /><glyph d="M563 256V644C563 657 558 662 545 662H499C486 662 481 657 481 644V253C481 125 420 59 318 59C216 59 155 125 155 253V644C155 657 150 662 137 662H91C78 662 73 657 73 644V256C73 84 165 -10 318 -10C471 -10 563 84 563 256Z" glyph-name="U" horiz-adv-x="636" unicode="U" /><glyph d="M563 256V644C563 657 558 662 545 662H499C486 662 481 657 481 644V253C481 125 420 59 318 59C216 59 155 125 155 253V644C155 657 150 662 137 662H91C78 662 73 657 73 644V256C73 84 165 -10 318 -10C471 -10 563 84 563 256ZM260 754C255 749 252 745 252 740C252 737 254 733 257 729L268 715C272 710 277 707 281 707C285 707 289 709 294 713L424 811C429 815 431 819 431 823C431 827 430 831 426 836L409 857C405 862 400 864 396 864C392 864 388 863 383 859Z" glyph-name="Uacute" horiz-adv-x="636" unicode="&#218;" /><glyph d="M563 256V644C563 657 558 662 545 662H499C486 662 481 657 481 644V253C481 125 420 59 318 59C216 59 155 125 155 253V644C155 657 150 662 137 662H91C78 662 73 657 73 644V256C73 84 165 -10 318 -10C471 -10 563 84 563 256ZM318 711C386 711 438 757 453 802C454 805 455 809 455 812C455 817 452 822 445 825L428 831C423 833 419 834 416 834C410 834 407 830 403 822C386 791 360 770 318 770C276 770 250 791 233 822C229 830 226 834 220 834C217 834 213 833 208 831L191 825C184 822 181 817 181 812C181 809 182 805 183 802C198 757 250 711 318 711Z" glyph-name="Ubreve" horiz-adv-x="636" unicode="&#364;" /><glyph d="M563 256V644C563 657 558 662 545 662H499C486 662 481 657 481 644V253C481 125 420 59 318 59C216 59 155 125 155 253V644C155 657 150 662 137 662H91C78 662 73 657 73 644V256C73 84 165 -10 318 -10C471 -10 563 84 563 256ZM318 780 412 722C420 717 424 716 428 716C433 716 438 718 443 724L451 734C455 739 456 742 456 746C456 750 454 755 448 759L334 842C329 846 323 848 318 848C313 848 307 846 302 842L188 759C182 755 180 750 180 746C180 742 181 739 185 734L193 724C198 718 203 716 208 716C212 716 216 717 224 722Z" glyph-name="Ucircumflex" horiz-adv-x="636" unicode="&#219;" /><glyph d="M563 256V644C563 657 558 662 545 662H499C486 662 481 657 481 644V253C481 125 420 59 318 59C216 59 155 125 155 253V644C155 657 150 662 137 662H91C78 662 73 657 73 644V256C73 84 165 -10 318 -10C471 -10 563 84 563 256ZM278 782C278 810 260 832 229 832C198 832 180 810 180 782C180 754 198 732 229 732C260 732 278 754 278 782ZM456 782C456 810 438 832 407 832C376 832 358 810 358 782C358 754 376 732 407 732C438 732 456 754 456 782Z" glyph-name="Udieresis" horiz-adv-x="636" unicode="&#220;" /><glyph d="M563 256V644C563 657 558 662 545 662H499C486 662 481 657 481 644V253C481 125 420 59 318 59C216 59 155 125 155 253V644C155 657 150 662 137 662H91C78 662 73 657 73 644V256C73 84 165 -10 318 -10C471 -10 563 84 563 256ZM253 859C248 863 244 864 240 864C236 864 231 862 227 857L210 836C206 831 205 827 205 823C205 819 207 815 212 811L342 713C347 709 351 707 355 707C359 707 364 710 368 715L379 729C382 733 384 737 384 740C384 745 381 749 376 754Z" glyph-name="Ugrave" horiz-adv-x="636" unicode="&#217;" /><glyph d="M563 256V644C563 657 558 662 545 662H499C486 662 481 657 481 644V253C481 125 420 59 318 59C216 59 155 125 155 253V644C155 657 150 662 137 662H91C78 662 73 657 73 644V256C73 84 165 -10 318 -10C471 -10 563 84 563 256ZM339 811C343 815 345 819 345 823C345 828 342 832 338 836L319 854C315 858 311 860 307 860C302 860 298 858 294 853L200 747C196 743 194 739 194 735C194 730 197 725 202 721L216 709C221 705 225 703 229 703C234 703 238 705 244 712ZM495 811C499 815 501 819 501 823C501 828 498 832 494 836L475 854C471 858 467 860 463 860C458 860 454 858 450 853L356 747C352 743 350 739 350 735C350 730 353 725 358 721L372 709C377 705 381 703 385 703C390 703 394 705 400 712Z" glyph-name="Uhungarumlaut" horiz-adv-x="636" unicode="&#368;" /><glyph d="M563 256V644C563 657 558 662 545 662H499C486 662 481 657 481 644V253C481 125 420 59 318 59C216 59 155 125 155 253V644C155 657 150 662 137 662H91C78 662 73 657 73 644V256C73 84 165 -10 318 -10C471 -10 563 84 563 256ZM217 796C204 796 199 791 199 778V758C199 745 204 740 217 740H419C432 740 437 745 437 758V778C437 791 432 796 419 796Z" glyph-name="Umacron" horiz-adv-x="636" unicode="&#362;" /><glyph d="M407 -167C417 -161 418 -152 412 -143L409 -138C401 -126 396 -125 383 -131C372 -136 360 -139 349 -139C325 -139 306 -126 306 -96C306 -70 321 -46 348 -9C483 3 563 96 563 256V644C563 657 558 662 545 662H499C486 662 481 657 481 644V253C481 125 420 59 318 59C216 59 155 125 155 253V644C155 657 150 662 137 662H91C78 662 73 657 73 644V256C73 90 159 -3 302 -10C267 -46 246 -78 246 -112C246 -157 283 -187 337 -187C364 -187 388 -180 407 -167Z" glyph-name="Uogonek" horiz-adv-x="636" unicode="&#370;" /><glyph d="M563 256V644C563 657 558 662 545 662H499C486 662 481 657 481 644V253C481 125 420 59 318 59C216 59 155 125 155 253V644C155 657 150 662 137 662H91C78 662 73 657 73 644V256C73 84 165 -10 318 -10C471 -10 563 84 563 256ZM423 788C423 849 375 891 318 891C261 891 213 849 213 788C213 727 261 685 318 685C375 685 423 727 423 788ZM259 788C259 825 284 849 318 849C352 849 377 825 377 788C377 751 352 727 318 727C284 727 259 751 259 788Z" glyph-name="Uring" horiz-adv-x="636" unicode="&#366;" /><glyph d="M563 256V644C563 657 558 662 545 662H499C486 662 481 657 481 644V253C481 125 420 59 318 59C216 59 155 125 155 253V644C155 657 150 662 137 662H91C78 662 73 657 73 644V256C73 84 165 -10 318 -10C471 -10 563 84 563 256ZM377 729C414 729 447 753 460 777C463 782 464 787 464 790C464 795 462 799 457 803L450 809C445 814 440 816 435 816C430 816 426 814 421 809C407 796 391 788 374 788C340 788 304 822 259 822C222 822 189 798 176 774C173 769 172 764 172 761C172 756 174 752 179 748L186 742C191 737 196 735 201 735C206 735 210 737 215 742C229 755 245 763 262 763C296 763 332 729 377 729Z" glyph-name="Utilde" horiz-adv-x="636" unicode="&#360;" /><glyph d="M339 16C416 192 496 405 557 636C558 640 560 647 560 651C560 659 555 662 545 662H495C482 662 476 657 473 644C425 457 368 282 294 99C220 284 163 457 116 644C113 657 107 662 94 662H42C31 662 27 658 27 652C27 647 29 641 30 637C92 405 171 192 248 16C253 4 261 0 274 0H313C326 0 334 4 339 16Z" glyph-name="V" horiz-adv-x="587" unicode="V" /><glyph d="M304 16C366 161 425 331 467 527C512 329 570 161 632 16C637 4 645 0 658 0H694C707 0 714 5 719 16C780 163 858 420 902 634C903 639 904 644 904 647C904 654 901 662 889 662H841C828 662 822 657 820 644C791 474 731 260 674 91C610 260 546 474 511 644C508 657 503 662 490 662H446C433 662 428 657 425 644C391 474 327 256 263 89C207 258 146 474 116 644C114 657 108 662 95 662H47C35 662 32 654 32 647C32 644 33 639 34 634C78 424 158 164 217 16C221 5 229 0 242 0H278C291 0 299 4 304 16Z" glyph-name="W" horiz-adv-x="936" unicode="W" /><glyph d="M304 16C366 161 425 331 467 527C512 329 570 161 632 16C637 4 645 0 658 0H694C707 0 714 5 719 16C780 163 858 420 902 634C903 639 904 644 904 647C904 654 901 662 889 662H841C828 662 822 657 820 644C791 474 731 260 674 91C610 260 546 474 511 644C508 657 503 662 490 662H446C433 662 428 657 425 644C391 474 327 256 263 89C207 258 146 474 116 644C114 657 108 662 95 662H47C35 662 32 654 32 647C32 644 33 639 34 634C78 424 158 164 217 16C221 5 229 0 242 0H278C291 0 299 4 304 16ZM410 754C405 749 402 745 402 740C402 737 404 733 407 729L418 715C422 710 427 707 431 707C435 707 439 709 444 713L574 811C579 815 581 819 581 823C581 827 580 831 576 836L559 857C555 862 550 864 546 864C542 864 538 863 533 859Z" glyph-name="Wacute" horiz-adv-x="936" unicode="&#7810;" /><glyph d="M304 16C366 161 425 331 467 527C512 329 570 161 632 16C637 4 645 0 658 0H694C707 0 714 5 719 16C780 163 858 420 902 634C903 639 904 644 904 647C904 654 901 662 889 662H841C828 662 822 657 820 644C791 474 731 260 674 91C610 260 546 474 511 644C508 657 503 662 490 662H446C433 662 428 657 425 644C391 474 327 256 263 89C207 258 146 474 116 644C114 657 108 662 95 662H47C35 662 32 654 32 647C32 644 33 639 34 634C78 424 158 164 217 16C221 5 229 0 242 0H278C291 0 299 4 304 16ZM468 780 562 722C570 717 574 716 578 716C583 716 588 718 593 724L601 734C605 739 606 742 606 746C606 750 604 755 598 759L484 842C479 846 473 848 468 848C463 848 457 846 452 842L338 759C332 755 330 750 330 746C330 742 331 739 335 734L343 724C348 718 353 716 358 716C362 716 366 717 374 722Z" glyph-name="Wcircumflex" horiz-adv-x="936" unicode="&#372;" /><glyph d="M304 16C366 161 425 331 467 527C512 329 570 161 632 16C637 4 645 0 658 0H694C707 0 714 5 719 16C780 163 858 420 902 634C903 639 904 644 904 647C904 654 901 662 889 662H841C828 662 822 657 820 644C791 474 731 260 674 91C610 260 546 474 511 644C508 657 503 662 490 662H446C433 662 428 657 425 644C391 474 327 256 263 89C207 258 146 474 116 644C114 657 108 662 95 662H47C35 662 32 654 32 647C32 644 33 639 34 634C78 424 158 164 217 16C221 5 229 0 242 0H278C291 0 299 4 304 16ZM428 782C428 810 410 832 379 832C348 832 330 810 330 782C330 754 348 732 379 732C410 732 428 754 428 782ZM606 782C606 810 588 832 557 832C526 832 508 810 508 782C508 754 526 732 557 732C588 732 606 754 606 782Z" glyph-name="Wdieresis" horiz-adv-x="936" unicode="&#7812;" /><glyph d="M304 16C366 161 425 331 467 527C512 329 570 161 632 16C637 4 645 0 658 0H694C707 0 714 5 719 16C780 163 858 420 902 634C903 639 904 644 904 647C904 654 901 662 889 662H841C828 662 822 657 820 644C791 474 731 260 674 91C610 260 546 474 511 644C508 657 503 662 490 662H446C433 662 428 657 425 644C391 474 327 256 263 89C207 258 146 474 116 644C114 657 108 662 95 662H47C35 662 32 654 32 647C32 644 33 639 34 634C78 424 158 164 217 16C221 5 229 0 242 0H278C291 0 299 4 304 16ZM403 859C398 863 394 864 390 864C386 864 381 862 377 857L360 836C356 831 355 827 355 823C355 819 357 815 362 811L492 713C497 709 501 707 505 707C509 707 514 710 518 715L529 729C532 733 534 737 534 740C534 745 531 749 526 754Z" glyph-name="Wgrave" horiz-adv-x="936" unicode="&#7808;" /><glyph d="M107 16C141 83 187 163 282 291C370 171 426 82 458 16C464 4 466 0 480 0H528C537 0 542 5 542 12C542 18 540 24 536 32C499 106 435 210 332 344C422 467 482 563 513 633C517 642 518 648 518 652C518 658 515 662 504 662H459C445 662 442 658 436 646C405 585 365 509 285 394C211 503 165 584 136 645C130 657 127 662 113 662H63C54 662 49 658 49 651C49 645 51 640 54 633C88 565 144 471 235 343C133 211 61 102 29 27C26 20 25 16 25 12C25 4 30 0 39 0H85C99 0 101 4 107 16Z" glyph-name="X" horiz-adv-x="567" unicode="X" /><glyph d="M309 18V236C378 346 465 502 519 645C523 656 519 662 507 662H456C443 662 437 657 432 645C389 537 337 421 271 309C203 419 149 537 107 645C102 657 96 662 83 662H29C17 662 13 656 17 645C71 502 159 345 227 235V18C227 5 232 0 245 0H291C304 0 309 5 309 18Z" glyph-name="Y" horiz-adv-x="536" unicode="Y" /><glyph d="M309 18V236C378 346 465 502 519 645C523 656 519 662 507 662H456C443 662 437 657 432 645C389 537 337 421 271 309C203 419 149 537 107 645C102 657 96 662 83 662H29C17 662 13 656 17 645C71 502 159 345 227 235V18C227 5 232 0 245 0H291C304 0 309 5 309 18ZM210 754C205 749 202 745 202 740C202 737 204 733 207 729L218 715C222 710 227 707 231 707C235 707 239 709 244 713L374 811C379 815 381 819 381 823C381 827 380 831 376 836L359 857C355 862 350 864 346 864C342 864 338 863 333 859Z" glyph-name="Yacute" horiz-adv-x="536" unicode="&#221;" /><glyph d="M309 18V236C378 346 465 502 519 645C523 656 519 662 507 662H456C443 662 437 657 432 645C389 537 337 421 271 309C203 419 149 537 107 645C102 657 96 662 83 662H29C17 662 13 656 17 645C71 502 159 345 227 235V18C227 5 232 0 245 0H291C304 0 309 5 309 18ZM268 780 362 722C370 717 374 716 378 716C383 716 388 718 393 724L401 734C405 739 406 742 406 746C406 750 404 755 398 759L284 842C279 846 273 848 268 848C263 848 257 846 252 842L138 759C132 755 130 750 130 746C130 742 131 739 135 734L143 724C148 718 153 716 158 716C162 716 166 717 174 722Z" glyph-name="Ycircumflex" horiz-adv-x="536" unicode="&#374;" /><glyph d="M309 18V236C378 346 465 502 519 645C523 656 519 662 507 662H456C443 662 437 657 432 645C389 537 337 421 271 309C203 419 149 537 107 645C102 657 96 662 83 662H29C17 662 13 656 17 645C71 502 159 345 227 235V18C227 5 232 0 245 0H291C304 0 309 5 309 18ZM228 782C228 810 210 832 179 832C148 832 130 810 130 782C130 754 148 732 179 732C210 732 228 754 228 782ZM406 782C406 810 388 832 357 832C326 832 308 810 308 782C308 754 326 732 357 732C388 732 406 754 406 782Z" glyph-name="Ydieresis" horiz-adv-x="536" unicode="&#376;" /><glyph d="M309 18V236C378 346 465 502 519 645C523 656 519 662 507 662H456C443 662 437 657 432 645C389 537 337 421 271 309C203 419 149 537 107 645C102 657 96 662 83 662H29C17 662 13 656 17 645C71 502 159 345 227 235V18C227 5 232 0 245 0H291C304 0 309 5 309 18ZM203 859C198 863 194 864 190 864C186 864 181 862 177 857L160 836C156 831 155 827 155 823C155 819 157 815 162 811L292 713C297 709 301 707 305 707C309 707 314 710 318 715L329 729C332 733 334 737 334 740C334 745 331 749 326 754Z" glyph-name="Ygrave" horiz-adv-x="536" unicode="&#7922;" /><glyph d="M493 18V51C493 64 488 69 475 69H135L451 552C469 580 476 596 476 624V644C476 657 471 662 458 662H79C66 662 61 657 61 644V611C61 598 66 593 79 593H385L69 110C51 82 44 66 44 38V18C44 5 49 0 62 0H475C488 0 493 5 493 18Z" glyph-name="Z" horiz-adv-x="531" unicode="Z" /><glyph d="M493 18V51C493 64 488 69 475 69H135L451 552C469 580 476 596 476 624V644C476 657 471 662 458 662H79C66 662 61 657 61 644V611C61 598 66 593 79 593H385L69 110C51 82 44 66 44 38V18C44 5 49 0 62 0H475C488 0 493 5 493 18ZM210 754C205 749 202 745 202 740C202 737 204 733 207 729L218 715C222 710 227 707 231 707C235 707 239 709 244 713L374 811C379 815 381 819 381 823C381 827 380 831 376 836L359 857C355 862 350 864 346 864C342 864 338 863 333 859Z" glyph-name="Zacute" horiz-adv-x="531" unicode="&#377;" /><glyph d="M493 18V51C493 64 488 69 475 69H135L451 552C469 580 476 596 476 624V644C476 657 471 662 458 662H79C66 662 61 657 61 644V611C61 598 66 593 79 593H385L69 110C51 82 44 66 44 38V18C44 5 49 0 62 0H475C488 0 493 5 493 18ZM268 778 174 836C166 841 162 842 158 842C153 842 148 840 143 834L135 824C131 819 130 816 130 812C130 808 132 803 138 799L252 716C257 712 263 710 268 710C273 710 279 712 284 716L398 799C404 803 406 808 406 812C406 816 405 819 401 824L393 834C388 840 383 842 378 842C374 842 370 841 362 836Z" glyph-name="Zcaron" horiz-adv-x="531" unicode="&#381;" /><glyph d="M493 18V51C493 64 488 69 475 69H135L451 552C469 580 476 596 476 624V644C476 657 471 662 458 662H79C66 662 61 657 61 644V611C61 598 66 593 79 593H385L69 110C51 82 44 66 44 38V18C44 5 49 0 62 0H475C488 0 493 5 493 18ZM317 782C317 810 299 832 268 832C237 832 219 810 219 782C219 754 237 732 268 732C299 732 317 754 317 782Z" glyph-name="Zdotaccent" horiz-adv-x="531" unicode="&#379;" /><glyph d="M356 18C356 5 361 0 374 0H411C424 0 429 5 429 18V316C429 419 375 490 245 490C178 490 117 471 76 437C67 430 66 421 72 411L88 388C96 377 102 376 113 384C147 411 194 424 238 424C333 424 351 363 351 304V264C313 278 279 283 238 283C106 283 47 219 47 135C47 52 103 -10 207 -10C276 -10 320 16 356 60ZM126 137C126 187 158 223 248 223C286 223 320 219 351 208V122C313 70 268 53 220 53C146 53 126 97 126 137Z" glyph-name="a" horiz-adv-x="505" unicode="a" /><glyph d="M356 18C356 5 361 0 374 0H411C424 0 429 5 429 18V316C429 419 375 490 245 490C178 490 117 471 76 437C67 430 66 421 72 411L88 388C96 377 102 376 113 384C147 411 194 424 238 424C333 424 351 363 351 304V264C313 278 279 283 238 283C106 283 47 219 47 135C47 52 103 -10 207 -10C276 -10 320 16 356 60ZM126 137C126 187 158 223 248 223C286 223 320 219 351 208V122C313 70 268 53 220 53C146 53 126 97 126 137ZM187 589C182 584 179 580 179 575C179 572 181 568 184 564L195 550C199 545 204 542 208 542C212 542 216 544 221 548L351 646C356 650 358 654 358 658C358 662 357 666 353 671L336 692C332 697 327 699 323 699C319 699 315 698 310 694Z" glyph-name="aacute" horiz-adv-x="505" unicode="&#225;" /><glyph d="M356 18C356 5 361 0 374 0H411C424 0 429 5 429 18V316C429 419 375 490 245 490C178 490 117 471 76 437C67 430 66 421 72 411L88 388C96 377 102 376 113 384C147 411 194 424 238 424C333 424 351 363 351 304V264C313 278 279 283 238 283C106 283 47 219 47 135C47 52 103 -10 207 -10C276 -10 320 16 356 60ZM126 137C126 187 158 223 248 223C286 223 320 219 351 208V122C313 70 268 53 220 53C146 53 126 97 126 137ZM245 546C313 546 365 592 380 637C381 640 382 644 382 647C382 652 379 657 372 660L355 666C350 668 346 669 343 669C337 669 334 665 330 657C313 626 287 605 245 605C203 605 177 626 160 657C156 665 153 669 147 669C144 669 140 668 135 666L118 660C111 657 108 652 108 647C108 644 109 640 110 637C125 592 177 546 245 546Z" glyph-name="abreve" horiz-adv-x="505" unicode="&#259;" /><glyph d="M356 18C356 5 361 0 374 0H411C424 0 429 5 429 18V316C429 419 375 490 245 490C178 490 117 471 76 437C67 430 66 421 72 411L88 388C96 377 102 376 113 384C147 411 194 424 238 424C333 424 351 363 351 304V264C313 278 279 283 238 283C106 283 47 219 47 135C47 52 103 -10 207 -10C276 -10 320 16 356 60ZM126 137C126 187 158 223 248 223C286 223 320 219 351 208V122C313 70 268 53 220 53C146 53 126 97 126 137ZM245 615 339 557C347 552 351 551 355 551C360 551 365 553 370 559L378 569C382 574 383 577 383 581C383 585 381 590 375 594L261 677C256 681 250 683 245 683C240 683 234 681 229 677L115 594C109 590 107 585 107 581C107 577 108 574 112 569L120 559C125 553 130 551 135 551C139 551 143 552 151 557Z" glyph-name="acircumflex" horiz-adv-x="505" unicode="&#226;" /><glyph d="M64 589C59 584 56 580 56 575C56 572 58 568 61 564L72 550C76 545 81 542 85 542C89 542 93 544 98 548L228 646C233 650 235 654 235 658C235 662 234 666 230 671L213 692C209 697 204 699 200 699C196 699 192 698 187 694Z" glyph-name="acute" horiz-adv-x="292" unicode="&#180;" /><glyph d="M64 754C59 749 56 745 56 740C56 737 58 733 61 729L72 715C76 710 81 707 85 707C89 707 93 709 98 713L228 811C233 815 235 819 235 823C235 827 234 831 230 836L213 857C209 862 204 864 200 864C196 864 192 863 187 859Z" glyph-name="acute.case" horiz-adv-x="292" /><glyph d="M356 18C356 5 361 0 374 0H411C424 0 429 5 429 18V316C429 419 375 490 245 490C178 490 117 471 76 437C67 430 66 421 72 411L88 388C96 377 102 376 113 384C147 411 194 424 238 424C333 424 351 363 351 304V264C313 278 279 283 238 283C106 283 47 219 47 135C47 52 103 -10 207 -10C276 -10 320 16 356 60ZM126 137C126 187 158 223 248 223C286 223 320 219 351 208V122C313 70 268 53 220 53C146 53 126 97 126 137ZM205 617C205 645 187 667 156 667C125 667 107 645 107 617C107 589 125 567 156 567C187 567 205 589 205 617ZM383 617C383 645 365 667 334 667C303 667 285 645 285 617C285 589 303 567 334 567C365 567 383 589 383 617Z" glyph-name="adieresis" horiz-adv-x="505" unicode="&#228;" /><glyph d="M730 36C740 44 741 52 735 62L719 86C711 97 705 98 694 90C662 67 620 56 579 56C485 56 436 117 429 214H756C766 214 771 219 771 229V246C771 359 716 490 563 490C487 490 434 455 402 401C379 455 330 490 245 490C178 490 117 471 76 437C67 430 66 421 72 411L88 388C96 377 102 376 113 384C147 411 194 424 238 424C333 424 351 363 351 304V272H258C112 272 47 213 47 129C47 50 106 -10 207 -10C287 -10 348 21 397 74C433 23 492 -10 578 -10C636 -10 690 4 730 36ZM562 428C647 428 687 357 694 272H429C438 373 487 428 562 428ZM215 53C149 53 126 95 126 133C126 181 164 214 268 214H351C353 185 358 157 367 131C325 82 271 53 215 53Z" glyph-name="ae" horiz-adv-x="813" unicode="&#230;" /><glyph d="M356 18C356 5 361 0 374 0H411C424 0 429 5 429 18V316C429 419 375 490 245 490C178 490 117 471 76 437C67 430 66 421 72 411L88 388C96 377 102 376 113 384C147 411 194 424 238 424C333 424 351 363 351 304V264C313 278 279 283 238 283C106 283 47 219 47 135C47 52 103 -10 207 -10C276 -10 320 16 356 60ZM126 137C126 187 158 223 248 223C286 223 320 219 351 208V122C313 70 268 53 220 53C146 53 126 97 126 137ZM180 694C175 698 171 699 167 699C163 699 158 697 154 692L137 671C133 666 132 662 132 658C132 654 134 650 139 646L269 548C274 544 278 542 282 542C286 542 291 545 295 550L306 564C309 568 311 572 311 575C311 580 308 584 303 589Z" glyph-name="agrave" horiz-adv-x="505" unicode="&#224;" /><glyph d="M356 18C356 5 361 0 374 0H411C424 0 429 5 429 18V316C429 419 375 490 245 490C178 490 117 471 76 437C67 430 66 421 72 411L88 388C96 377 102 376 113 384C147 411 194 424 238 424C333 424 351 363 351 304V264C313 278 279 283 238 283C106 283 47 219 47 135C47 52 103 -10 207 -10C276 -10 320 16 356 60ZM126 137C126 187 158 223 248 223C286 223 320 219 351 208V122C313 70 268 53 220 53C146 53 126 97 126 137ZM144 631C131 631 126 626 126 613V593C126 580 131 575 144 575H346C359 575 364 580 364 593V613C364 626 359 631 346 631Z" glyph-name="amacron" horiz-adv-x="505" unicode="&#257;" /><glyph d="M595 2C600 -2 603 -4 608 -4C613 -4 617 -1 621 4L644 31C652 41 652 48 642 56L532 148C567 215 582 293 582 360C582 372 578 378 565 378H528C515 378 510 373 510 360C510 298 498 241 477 193L271 364C213 412 176 450 176 504C176 562 218 605 299 605C350 605 391 590 424 566C428 563 432 561 436 561C442 561 447 565 451 571L468 596C474 604 474 613 463 622C429 649 369 672 296 672C170 672 96 600 96 502C96 445 124 402 170 359C83 315 50 240 50 176C50 68 137 -10 273 -10C372 -10 443 30 492 88ZM132 183C132 232 158 281 218 317L439 132C400 83 345 54 282 54C194 54 132 108 132 183Z" glyph-name="ampersand" horiz-adv-x="661" unicode="&amp;" /><glyph d="M429 18V316C429 419 375 490 245 490C178 490 117 471 76 437C67 430 66 421 72 411L88 388C96 377 102 376 113 384C147 411 194 424 238 424C333 424 351 363 351 304V264C313 278 279 283 238 283C106 283 47 219 47 135C47 52 103 -10 207 -10C276 -10 320 16 356 60V0C316 -41 291 -75 291 -112C291 -157 328 -187 382 -187C409 -187 433 -180 452 -167C462 -161 463 -152 457 -143L454 -138C446 -126 441 -125 428 -131C417 -136 405 -139 394 -139C370 -139 351 -126 351 -96C351 -68 368 -42 400 0H411C424 0 429 5 429 18ZM126 137C126 187 158 223 248 223C286 223 320 219 351 208V122C313 70 268 53 220 53C146 53 126 97 126 137Z" glyph-name="aogonek" horiz-adv-x="505" unicode="&#261;" /><glyph d="M355 349C407 349 457 382 480 439C482 444 484 449 484 454C484 459 482 462 475 466L457 475C451 478 448 479 444 479C438 479 435 474 432 468C414 433 390 413 360 413C300 413 258 494 177 494C125 494 75 461 52 404C50 399 48 394 48 389C48 384 50 381 57 377L75 368C81 365 84 364 88 364C94 364 97 369 100 375C118 410 142 430 172 430C232 430 274 349 355 349ZM355 169C407 169 457 202 480 259C482 264 484 269 484 274C484 279 482 282 475 286L457 295C451 298 448 299 444 299C438 299 435 294 432 288C414 253 390 233 360 233C300 233 258 314 177 314C125 314 75 281 52 224C50 219 48 214 48 209C48 204 50 201 57 197L75 188C81 185 84 184 88 184C94 184 97 189 100 195C118 230 142 250 172 250C232 250 274 169 355 169Z" glyph-name="approxequal" horiz-adv-x="532" unicode="&#8776;" /><glyph d="M356 18C356 5 361 0 374 0H411C424 0 429 5 429 18V316C429 419 375 490 245 490C178 490 117 471 76 437C67 430 66 421 72 411L88 388C96 377 102 376 113 384C147 411 194 424 238 424C333 424 351 363 351 304V264C313 278 279 283 238 283C106 283 47 219 47 135C47 52 103 -10 207 -10C276 -10 320 16 356 60ZM126 137C126 187 158 223 248 223C286 223 320 219 351 208V122C313 70 268 53 220 53C146 53 126 97 126 137ZM350 643C350 704 302 746 245 746C188 746 140 704 140 643C140 582 188 540 245 540C302 540 350 582 350 643ZM186 643C186 680 211 704 245 704C279 704 304 680 304 643C304 606 279 582 245 582C211 582 186 606 186 643Z" glyph-name="aring" horiz-adv-x="505" unicode="&#229;" /><glyph d="M458 355 478 370C484 374 486 378 486 383C486 386 485 390 481 395L303 647C296 658 289 662 275 662H255C241 662 234 658 227 647L49 395C45 390 44 386 44 383C44 378 46 374 52 370L72 355C77 351 81 349 86 349C90 349 94 351 98 357L265 593L432 357C436 351 440 349 444 349C449 349 453 351 458 355Z" glyph-name="asciicircum" horiz-adv-x="530" unicode="^" /><glyph d="M355 259C407 259 457 292 480 349C482 354 484 359 484 364C484 369 482 372 475 376L457 385C451 388 448 389 444 389C438 389 435 384 432 378C414 343 390 323 360 323C300 323 258 404 177 404C125 404 75 371 52 314C50 309 48 304 48 299C48 294 50 291 57 287L75 278C81 275 84 274 88 274C94 274 97 279 100 285C118 320 142 340 172 340C232 340 274 259 355 259Z" glyph-name="asciitilde" horiz-adv-x="532" unicode="~" /><glyph d="M192 718C179 718 175 710 175 697L179 573L65 614C56 617 52 617 50 617C43 617 39 613 36 604L29 582C28 579 27 576 27 572C27 566 31 561 40 559L163 524L84 423C81 419 79 415 79 411C79 407 81 403 87 399L108 384C113 381 116 380 120 380C125 380 130 382 134 388L205 494L276 388C280 382 285 380 290 380C294 380 297 381 302 384L323 399C329 403 331 407 331 411C331 415 329 419 326 423L247 524L370 559C379 561 383 566 383 572C383 576 382 579 381 582L374 604C371 613 367 617 360 617C358 617 354 617 345 614L231 573L235 697C235 710 231 718 218 718Z" glyph-name="asterisk" horiz-adv-x="410" unicode="*" /><glyph d="M643 -112C654 -107 657 -100 652 -89L646 -77C641 -66 634 -64 623 -69C579 -89 519 -106 450 -106C268 -106 115 18 115 246C115 464 262 598 448 598C631 598 766 479 766 282C766 174 712 106 646 106C607 106 587 131 587 179V413C587 426 582 431 569 431H538C525 431 520 425 520 413V391C489 420 455 438 414 438C331 438 259 365 259 245C259 125 319 57 404 57C454 57 490 80 526 120C544 76 586 57 636 57C743 57 820 142 820 284C820 499 665 646 448 646C221 646 58 479 58 246C58 1 228 -154 448 -154C530 -154 590 -136 643 -112ZM333 246C333 332 374 380 428 380C462 380 488 363 516 333V172C486 137 454 116 419 116C372 116 333 155 333 246Z" glyph-name="at" horiz-adv-x="879" unicode="@" /><glyph d="M356 18C356 5 361 0 374 0H411C424 0 429 5 429 18V316C429 419 375 490 245 490C178 490 117 471 76 437C67 430 66 421 72 411L88 388C96 377 102 376 113 384C147 411 194 424 238 424C333 424 351 363 351 304V264C313 278 279 283 238 283C106 283 47 219 47 135C47 52 103 -10 207 -10C276 -10 320 16 356 60ZM126 137C126 187 158 223 248 223C286 223 320 219 351 208V122C313 70 268 53 220 53C146 53 126 97 126 137ZM304 564C341 564 374 588 387 612C390 617 391 622 391 625C391 630 389 634 384 638L377 644C372 649 367 651 362 651C357 651 353 649 348 644C334 631 318 623 301 623C267 623 231 657 186 657C149 657 116 633 103 609C100 604 99 599 99 596C99 591 101 587 106 583L113 577C118 572 123 570 128 570C133 570 137 572 142 577C156 590 172 598 189 598C223 598 259 564 304 564Z" glyph-name="atilde" horiz-adv-x="505" unicode="&#227;" /><glyph d="M491 245C491 400 416 490 295 490C231 490 189 463 155 429V700C155 713 150 718 137 718H95C82 718 77 713 77 700V18C77 5 82 0 95 0H132C145 0 150 5 150 18V49C182 16 223 -10 287 -10C407 -10 491 88 491 245ZM283 427C359 427 410 367 410 243C410 116 353 53 277 53C226 53 188 77 155 116V362C190 403 230 427 283 427Z" glyph-name="b" horiz-adv-x="535" unicode="b" /><glyph d="M339 -78C339 -75 338 -71 336 -65L76 735C72 747 66 752 54 752H26C16 752 11 748 11 740C11 737 12 733 14 727L274 -73C278 -85 284 -90 296 -90H324C334 -90 339 -86 339 -78Z" glyph-name="backslash" horiz-adv-x="350" unicode="\" /><glyph d="M170 -90C183 -90 188 -85 188 -72V734C188 747 183 752 170 752H138C125 752 120 747 120 734V-72C120 -85 125 -90 138 -90Z" glyph-name="bar" horiz-adv-x="308" unicode="|" /><glyph d="M25 -234H55V953H25Z" glyph-name="bbox" horiz-adv-x="80" /><glyph d="M121 321C162 351 181 393 181 498V601C181 665 211 690 267 690H287C300 690 305 695 305 708V722C305 735 300 740 287 740H260C170 740 113 696 113 596V488C113 397 99 345 46 345C34 345 29 340 29 327V315C29 302 34 297 46 297C99 297 113 245 113 154V46C113 -54 170 -98 260 -98H287C300 -98 305 -93 305 -80V-66C305 -53 300 -48 287 -48H267C211 -48 181 -23 181 41V144C181 249 162 291 121 321Z" glyph-name="braceleft" horiz-adv-x="331" unicode="{" /><glyph d="M210 321C169 291 150 249 150 144V41C150 -23 120 -48 64 -48H44C31 -48 26 -53 26 -66V-80C26 -93 31 -98 44 -98H71C161 -98 218 -54 218 46V154C218 245 232 297 285 297C297 297 302 302 302 315V327C302 340 297 345 285 345C232 345 218 397 218 488V596C218 696 161 740 71 740H44C31 740 26 735 26 722V708C26 695 31 690 44 690H64C120 690 150 665 150 601V498C150 393 169 351 210 321Z" glyph-name="braceright" horiz-adv-x="331" unicode="}" /><glyph d="M263 -98C276 -98 281 -93 281 -80V-65C281 -52 276 -47 263 -47H151V689H263C276 689 281 694 281 707V722C281 735 276 740 263 740H101C88 740 83 735 83 722V-80C83 -93 88 -98 101 -98Z" glyph-name="bracketleft" horiz-adv-x="306" unicode="[" /><glyph d="M43 740C30 740 25 735 25 722V707C25 694 30 689 43 689H155V-47H43C30 -47 25 -52 25 -65V-80C25 -93 30 -98 43 -98H205C218 -98 223 -93 223 -80V722C223 735 218 740 205 740Z" glyph-name="bracketright" horiz-adv-x="306" unicode="]" /><glyph d="M190 546C258 546 310 592 325 637C326 640 327 644 327 647C327 652 324 657 317 660L300 666C295 668 291 669 288 669C282 669 279 665 275 657C258 626 232 605 190 605C148 605 122 626 105 657C101 665 98 669 92 669C89 669 85 668 80 666L63 660C56 657 53 652 53 647C53 644 54 640 55 637C70 592 122 546 190 546Z" glyph-name="breve" horiz-adv-x="380" unicode="&#728;" /><glyph d="M190 711C258 711 310 757 325 802C326 805 327 809 327 812C327 817 324 822 317 825L300 831C295 833 291 834 288 834C282 834 279 830 275 822C258 791 232 770 190 770C148 770 122 791 105 822C101 830 98 834 92 834C89 834 85 833 80 831L63 825C56 822 53 817 53 812C53 809 54 805 55 802C70 757 122 711 190 711Z" glyph-name="breve.case" horiz-adv-x="380" /><glyph d="M170 437C183 437 188 442 188 455V734C188 747 183 752 170 752H138C125 752 120 747 120 734V455C120 442 125 437 138 437ZM170 -90C183 -90 188 -85 188 -72V207C188 220 183 225 170 225H138C125 225 120 220 120 207V-72C120 -85 125 -90 138 -90Z" glyph-name="brokenbar" horiz-adv-x="308" unicode="&#166;" /><glyph d="M277 288C277 349 228 397 167 397C107 397 58 349 58 288C58 227 107 179 167 179C228 179 277 227 277 288Z" glyph-name="bullet" horiz-adv-x="335" unicode="&#8226;" /><glyph d="M399 38C408 45 410 54 403 64L388 87C381 98 374 99 364 91C332 67 298 56 264 56C170 56 125 129 125 239C125 344 172 424 264 424C303 424 332 412 360 392C374 382 378 383 386 394L405 422C412 432 411 441 401 448C364 476 327 490 265 490C119 490 44 373 44 237C44 93 118 -10 258 -10C311 -10 360 6 399 38Z" glyph-name="c" horiz-adv-x="452" unicode="c" /><glyph d="M399 38C408 45 410 54 403 64L388 87C381 98 374 99 364 91C332 67 298 56 264 56C170 56 125 129 125 239C125 344 172 424 264 424C303 424 332 412 360 392C374 382 378 383 386 394L405 422C412 432 411 441 401 448C364 476 327 490 265 490C119 490 44 373 44 237C44 93 118 -10 258 -10C311 -10 360 6 399 38ZM207 589C202 584 199 580 199 575C199 572 201 568 204 564L215 550C219 545 224 542 228 542C232 542 236 544 241 548L371 646C376 650 378 654 378 658C378 662 377 666 373 671L356 692C352 697 347 699 343 699C339 699 335 698 330 694Z" glyph-name="cacute" horiz-adv-x="452" unicode="&#263;" /><glyph d="M195 613 101 671C93 676 89 677 85 677C80 677 75 675 70 669L62 659C58 654 57 651 57 647C57 643 59 638 65 634L179 551C184 547 190 545 195 545C200 545 206 547 211 551L325 634C331 638 333 643 333 647C333 651 332 654 328 659L320 669C315 675 310 677 305 677C301 677 297 676 289 671Z" glyph-name="caron" horiz-adv-x="390" unicode="&#711;" /><glyph d="M195 778 101 836C93 841 89 842 85 842C80 842 75 840 70 834L62 824C58 819 57 816 57 812C57 808 59 803 65 799L179 716C184 712 190 710 195 710C200 710 206 712 211 716L325 799C331 803 333 808 333 812C333 816 332 819 328 824L320 834C315 840 310 842 305 842C301 842 297 841 289 836Z" glyph-name="caron.case" horiz-adv-x="390" /><glyph d="M399 38C408 45 410 54 403 64L388 87C381 98 374 99 364 91C332 67 298 56 264 56C170 56 125 129 125 239C125 344 172 424 264 424C303 424 332 412 360 392C374 382 378 383 386 394L405 422C412 432 411 441 401 448C364 476 327 490 265 490C119 490 44 373 44 237C44 93 118 -10 258 -10C311 -10 360 6 399 38ZM265 613 171 671C163 676 159 677 155 677C150 677 145 675 140 669L132 659C128 654 127 651 127 647C127 643 129 638 135 634L249 551C254 547 260 545 265 545C270 545 276 547 281 551L395 634C401 638 403 643 403 647C403 651 402 654 398 659L390 669C385 675 380 677 375 677C371 677 367 676 359 671Z" glyph-name="ccaron" horiz-adv-x="452" unicode="&#269;" /><glyph d="M346 -111C346 -74 323 -48 279 -48C271 -48 263 -48 253 -51L275 -9C321 -6 364 9 399 38C408 45 410 54 403 64L388 87C381 98 374 99 364 91C332 67 298 56 264 56C170 56 125 129 125 239C125 344 172 424 264 424C303 424 332 412 360 392C374 382 378 383 386 394L405 422C412 432 411 441 401 448C364 476 327 490 265 490C119 490 44 373 44 237C44 101 110 2 234 -9L205 -63C201 -70 201 -75 209 -81C215 -86 218 -87 222 -87C227 -87 238 -84 253 -84C287 -84 296 -98 296 -113C296 -133 281 -145 253 -145C236 -145 221 -140 209 -133C204 -130 200 -128 197 -128C192 -128 189 -132 185 -139L181 -146C175 -156 178 -164 187 -170C207 -183 233 -187 255 -187C317 -187 346 -152 346 -111Z" glyph-name="ccedilla" horiz-adv-x="452" unicode="&#231;" /><glyph d="M399 38C408 45 410 54 403 64L388 87C381 98 374 99 364 91C332 67 298 56 264 56C170 56 125 129 125 239C125 344 172 424 264 424C303 424 332 412 360 392C374 382 378 383 386 394L405 422C412 432 411 441 401 448C364 476 327 490 265 490C119 490 44 373 44 237C44 93 118 -10 258 -10C311 -10 360 6 399 38ZM265 615 359 557C367 552 371 551 375 551C380 551 385 553 390 559L398 569C402 574 403 577 403 581C403 585 401 590 395 594L281 677C276 681 270 683 265 683C260 683 254 681 249 677L135 594C129 590 127 585 127 581C127 577 128 574 132 569L140 559C145 553 150 551 155 551C159 551 163 552 171 557Z" glyph-name="ccircumflex" horiz-adv-x="452" unicode="&#265;" /><glyph d="M399 38C408 45 410 54 403 64L388 87C381 98 374 99 364 91C332 67 298 56 264 56C170 56 125 129 125 239C125 344 172 424 264 424C303 424 332 412 360 392C374 382 378 383 386 394L405 422C412 432 411 441 401 448C364 476 327 490 265 490C119 490 44 373 44 237C44 93 118 -10 258 -10C311 -10 360 6 399 38ZM314 617C314 645 296 667 265 667C234 667 216 645 216 617C216 589 234 567 265 567C296 567 314 589 314 617Z" glyph-name="cdotaccent" horiz-adv-x="452" unicode="&#267;" /><glyph d="M223 -111C223 -74 200 -48 156 -48C148 -48 140 -48 130 -51L157 0H116L82 -63C78 -70 78 -75 86 -81C92 -86 95 -87 99 -87C104 -87 115 -84 130 -84C164 -84 173 -98 173 -113C173 -133 158 -145 130 -145C113 -145 98 -140 86 -133C81 -130 77 -128 74 -128C69 -128 66 -132 62 -139L58 -146C52 -156 55 -164 64 -170C84 -183 110 -187 132 -187C194 -187 223 -152 223 -111Z" glyph-name="cedilla" horiz-adv-x="273" unicode="&#184;" /><glyph d="M320 -2V81C377 85 426 109 464 139C474 147 476 154 469 164L454 185C446 196 439 199 428 190C399 169 361 149 320 145V514C364 511 390 493 420 471C433 461 438 464 446 475L465 501C472 511 469 517 459 525C423 553 377 575 320 579V661C320 674 315 679 302 679H280C267 679 262 674 262 661V576C146 557 73 465 73 327C73 185 149 98 262 83V-2C262 -15 267 -20 280 -20H302C315 -20 320 -15 320 -2ZM151 329C151 425 190 492 262 510V149C195 167 151 228 151 329Z" glyph-name="cent" horiz-adv-x="532" unicode="&#162;" /><glyph d="M195 615 289 557C297 552 301 551 305 551C310 551 315 553 320 559L328 569C332 574 333 577 333 581C333 585 331 590 325 594L211 677C206 681 200 683 195 683C190 683 184 681 179 677L65 594C59 590 57 585 57 581C57 577 58 574 62 569L70 559C75 553 80 551 85 551C89 551 93 552 101 557Z" glyph-name="circumflex" horiz-adv-x="390" unicode="&#710;" /><glyph d="M195 780 289 722C297 717 301 716 305 716C310 716 315 718 320 724L328 734C332 739 333 742 333 746C333 750 331 755 325 759L211 842C206 846 200 848 195 848C190 848 184 846 179 842L65 759C59 755 57 750 57 746C57 742 58 739 62 734L70 724C75 718 80 716 85 716C89 716 93 717 101 722Z" glyph-name="circumflex.case" horiz-adv-x="390" /><glyph d="M164 429C164 462 141 488 106 488C71 488 48 462 48 429C48 396 71 370 106 370C141 370 164 396 164 429ZM164 51C164 84 141 110 106 110C71 110 48 84 48 51C48 18 71 -8 106 -8C141 -8 164 18 164 51Z" glyph-name="colon" horiz-adv-x="212" unicode=":" /><glyph d="M156 42C156 84 137 110 101 110C65 110 44 83 44 53C44 15 79 2 79 -37C79 -54 70 -82 53 -113C50 -118 49 -121 49 -124C49 -129 53 -133 60 -137L64 -139C68 -141 73 -142 76 -142C81 -142 86 -139 90 -133C131 -78 156 -5 156 42Z" glyph-name="comma" horiz-adv-x="200" unicode="," /><glyph d="M396 -10C589 -10 738 138 738 331C738 524 589 672 396 672C203 672 54 524 54 331C54 138 203 -10 396 -10ZM396 620C560 620 680 494 680 331C680 168 560 42 396 42C232 42 112 168 112 331C112 494 232 620 396 620ZM515 179C523 185 524 193 518 203L502 222C495 232 489 233 480 225C459 210 437 200 403 200C335 200 303 258 303 332C303 408 335 464 403 464C434 464 454 455 474 442C484 436 489 437 497 445L513 466C519 474 519 483 510 489C480 511 444 522 404 522C282 522 233 428 233 332C233 237 282 142 403 142C445 142 484 153 515 179Z" glyph-name="copyright" horiz-adv-x="792" unicode="&#169;" /><glyph d="M459 91 490 122C499 131 499 139 490 148L425 213C448 245 462 285 462 331C462 377 448 417 425 449L490 514C499 523 499 531 490 540L459 571C450 580 442 580 433 571L365 503C335 520 301 529 266 529C231 529 197 520 167 503L99 571C90 580 82 580 73 571L42 540C33 531 33 523 42 514L107 449C84 417 70 377 70 331C70 285 84 245 107 213L42 148C33 139 33 131 42 122L73 91C82 82 90 82 99 91L167 159C197 142 231 133 266 133C301 133 335 142 365 159L433 91C442 82 450 82 459 91ZM145 331C145 402 192 463 266 463C340 463 387 402 387 331C387 260 340 199 266 199C192 199 145 260 145 331Z" glyph-name="currency" horiz-adv-x="532" unicode="&#164;" /><glyph d="M385 18C385 5 390 0 403 0H440C453 0 458 5 458 18V700C458 713 453 718 440 718H398C385 718 380 713 380 700V436C349 467 309 490 248 490C128 490 44 392 44 235C44 80 119 -10 240 -10C308 -10 350 20 385 56ZM125 237C125 364 182 427 258 427C309 427 347 403 380 364V118C345 77 305 53 252 53C176 53 125 113 125 237Z" glyph-name="d" horiz-adv-x="535" unicode="d" /><glyph d="M201 523V230C201 217 206 212 219 212H241C254 212 259 217 259 230V523H382C395 523 400 528 400 541V559C400 572 395 577 382 577H259V700C259 713 254 718 241 718H219C206 718 201 713 201 700V577H78C65 577 60 572 60 559V541C60 528 65 523 78 523Z" glyph-name="dagger" horiz-adv-x="460" unicode="&#8224;" /><glyph d="M259 328H382C395 328 400 333 400 346V364C400 377 395 382 382 382H259V523H382C395 523 400 528 400 541V559C400 572 395 577 382 577H259V700C259 713 254 718 241 718H219C206 718 201 713 201 700V577H78C65 577 60 572 60 559V541C60 528 65 523 78 523H201V382H78C65 382 60 377 60 364V346C60 333 65 328 78 328H201V148C201 135 206 130 219 130H241C254 130 259 135 259 148Z" glyph-name="daggerdbl" horiz-adv-x="460" unicode="&#8225;" /><glyph d="M385 18C385 5 390 0 403 0H440C453 0 458 5 458 18V700C458 713 453 718 440 718H398C385 718 380 713 380 700V436C349 467 309 490 248 490C128 490 44 392 44 235C44 80 119 -10 240 -10C308 -10 350 20 385 56ZM125 237C125 364 182 427 258 427C309 427 347 403 380 364V118C345 77 305 53 252 53C176 53 125 113 125 237ZM540 545C551 543 558 545 562 556L610 688C612 694 613 699 613 702C613 708 609 712 600 714L567 721C562 722 557 723 554 723C547 723 542 718 541 708L525 564C524 553 528 547 540 545Z" glyph-name="dcaron" horiz-adv-x="534" unicode="&#271;" /><glyph d="M385 56V18C385 5 390 0 403 0H440C453 0 458 5 458 18V561H506C519 561 524 566 524 579V598C524 611 519 616 506 616H458V700C458 713 453 718 440 718H398C385 718 380 713 380 700V616H273C260 616 255 611 255 598V579C255 566 260 561 273 561H380V436C349 467 309 490 248 490C128 490 44 392 44 235C44 80 119 -10 240 -10C308 -10 350 20 385 56ZM125 237C125 364 182 427 258 427C309 427 347 403 380 364V118C345 77 305 53 252 53C176 53 125 113 125 237Z" glyph-name="dcroat" horiz-adv-x="534" unicode="&#273;" /><glyph d="M353 517C353 604 287 672 198 672C109 672 43 604 43 517C43 430 109 362 198 362C287 362 353 430 353 517ZM103 517C103 574 142 616 198 616C254 616 293 574 293 517C293 460 254 418 198 418C142 418 103 460 103 517Z" glyph-name="degree" horiz-adv-x="396" unicode="&#176;" /><glyph d="M148 617C148 645 130 667 99 667C68 667 50 645 50 617C50 589 68 567 99 567C130 567 148 589 148 617ZM326 617C326 645 308 667 277 667C246 667 228 645 228 617C228 589 246 567 277 567C308 567 326 589 326 617Z" glyph-name="dieresis" horiz-adv-x="376" unicode="&#168;" /><glyph d="M148 782C148 810 130 832 99 832C68 832 50 810 50 782C50 754 68 732 99 732C130 732 148 754 148 782ZM326 782C326 810 308 832 277 832C246 832 228 810 228 782C228 754 246 732 277 732C308 732 326 754 326 782Z" glyph-name="dieresis.case" horiz-adv-x="376" /><glyph d="M324 520C324 553 301 579 266 579C231 579 208 553 208 520C208 487 231 461 266 461C301 461 324 487 324 520ZM466 299C479 299 484 304 484 317V345C484 358 479 363 466 363H66C53 363 48 358 48 345V317C48 304 53 299 66 299ZM324 142C324 175 301 201 266 201C231 201 208 175 208 142C208 109 231 83 266 83C301 83 324 109 324 142Z" glyph-name="divide" horiz-adv-x="532" unicode="&#247;" /><glyph d="M296 -61V11C404 22 483 94 483 186C483 291 399 336 296 367V586C347 581 383 562 417 537C428 529 435 531 443 541L463 567C470 577 469 584 459 592C418 623 367 647 296 651V708C296 721 291 726 278 726H256C243 726 238 721 238 708V650C126 638 61 567 61 484C61 390 129 339 238 306V77C177 83 132 108 93 138C83 146 76 145 67 134L47 108C39 98 40 90 49 83C96 47 154 17 238 11V-61C238 -74 243 -79 256 -79H278C291 -79 296 -74 296 -61ZM138 487C138 534 171 575 238 585V382C169 406 138 436 138 487ZM406 183C406 128 363 85 296 77V292C370 267 406 237 406 183Z" glyph-name="dollar" horiz-adv-x="532" unicode="$" /><glyph d="M148 617C148 645 130 667 99 667C68 667 50 645 50 617C50 589 68 567 99 567C130 567 148 589 148 617Z" glyph-name="dotaccent" horiz-adv-x="198" unicode="&#729;" /><glyph d="M148 782C148 810 130 832 99 832C68 832 50 810 50 782C50 754 68 732 99 732C130 732 148 754 148 782Z" glyph-name="dotaccent.case" horiz-adv-x="198" /><glyph d="M137 0C150 0 155 5 155 18V462C155 475 150 480 137 480H95C82 480 77 475 77 462V18C77 5 82 0 95 0Z" glyph-name="dotlessi" horiz-adv-x="232" unicode="&#305;" /><glyph d="M425 36C435 44 436 52 430 62L414 86C406 97 400 98 389 90C357 67 315 56 274 56C180 56 131 117 124 214H451C461 214 466 219 466 229V246C466 359 411 490 258 490C113 490 44 372 44 239C44 110 109 -10 273 -10C331 -10 385 4 425 36ZM257 428C342 428 382 357 389 272H124C133 373 182 428 257 428Z" glyph-name="e" horiz-adv-x="508" unicode="e" /><glyph d="M425 36C435 44 436 52 430 62L414 86C406 97 400 98 389 90C357 67 315 56 274 56C180 56 131 117 124 214H451C461 214 466 219 466 229V246C466 359 411 490 258 490C113 490 44 372 44 239C44 110 109 -10 273 -10C331 -10 385 4 425 36ZM257 428C342 428 382 357 389 272H124C133 373 182 428 257 428ZM200 589C195 584 192 580 192 575C192 572 194 568 197 564L208 550C212 545 217 542 221 542C225 542 229 544 234 548L364 646C369 650 371 654 371 658C371 662 370 666 366 671L349 692C345 697 340 699 336 699C332 699 328 698 323 694Z" glyph-name="eacute" horiz-adv-x="508" unicode="&#233;" /><glyph d="M425 36C435 44 436 52 430 62L414 86C406 97 400 98 389 90C357 67 315 56 274 56C180 56 131 117 124 214H451C461 214 466 219 466 229V246C466 359 411 490 258 490C113 490 44 372 44 239C44 110 109 -10 273 -10C331 -10 385 4 425 36ZM257 428C342 428 382 357 389 272H124C133 373 182 428 257 428ZM258 546C326 546 378 592 393 637C394 640 395 644 395 647C395 652 392 657 385 660L368 666C363 668 359 669 356 669C350 669 347 665 343 657C326 626 300 605 258 605C216 605 190 626 173 657C169 665 166 669 160 669C157 669 153 668 148 666L131 660C124 657 121 652 121 647C121 644 122 640 123 637C138 592 190 546 258 546Z" glyph-name="ebreve" horiz-adv-x="508" unicode="&#277;" /><glyph d="M425 36C435 44 436 52 430 62L414 86C406 97 400 98 389 90C357 67 315 56 274 56C180 56 131 117 124 214H451C461 214 466 219 466 229V246C466 359 411 490 258 490C113 490 44 372 44 239C44 110 109 -10 273 -10C331 -10 385 4 425 36ZM257 428C342 428 382 357 389 272H124C133 373 182 428 257 428ZM258 613 164 671C156 676 152 677 148 677C143 677 138 675 133 669L125 659C121 654 120 651 120 647C120 643 122 638 128 634L242 551C247 547 253 545 258 545C263 545 269 547 274 551L388 634C394 638 396 643 396 647C396 651 395 654 391 659L383 669C378 675 373 677 368 677C364 677 360 676 352 671Z" glyph-name="ecaron" horiz-adv-x="508" unicode="&#283;" /><glyph d="M425 36C435 44 436 52 430 62L414 86C406 97 400 98 389 90C357 67 315 56 274 56C180 56 131 117 124 214H451C461 214 466 219 466 229V246C466 359 411 490 258 490C113 490 44 372 44 239C44 110 109 -10 273 -10C331 -10 385 4 425 36ZM257 428C342 428 382 357 389 272H124C133 373 182 428 257 428ZM258 615 352 557C360 552 364 551 368 551C373 551 378 553 383 559L391 569C395 574 396 577 396 581C396 585 394 590 388 594L274 677C269 681 263 683 258 683C253 683 247 681 242 677L128 594C122 590 120 585 120 581C120 577 121 574 125 569L133 559C138 553 143 551 148 551C152 551 156 552 164 557Z" glyph-name="ecircumflex" horiz-adv-x="508" unicode="&#234;" /><glyph d="M425 36C435 44 436 52 430 62L414 86C406 97 400 98 389 90C357 67 315 56 274 56C180 56 131 117 124 214H451C461 214 466 219 466 229V246C466 359 411 490 258 490C113 490 44 372 44 239C44 110 109 -10 273 -10C331 -10 385 4 425 36ZM257 428C342 428 382 357 389 272H124C133 373 182 428 257 428ZM218 617C218 645 200 667 169 667C138 667 120 645 120 617C120 589 138 567 169 567C200 567 218 589 218 617ZM396 617C396 645 378 667 347 667C316 667 298 645 298 617C298 589 316 567 347 567C378 567 396 589 396 617Z" glyph-name="edieresis" horiz-adv-x="508" unicode="&#235;" /><glyph d="M425 36C435 44 436 52 430 62L414 86C406 97 400 98 389 90C357 67 315 56 274 56C180 56 131 117 124 214H451C461 214 466 219 466 229V246C466 359 411 490 258 490C113 490 44 372 44 239C44 110 109 -10 273 -10C331 -10 385 4 425 36ZM257 428C342 428 382 357 389 272H124C133 373 182 428 257 428ZM307 617C307 645 289 667 258 667C227 667 209 645 209 617C209 589 227 567 258 567C289 567 307 589 307 617Z" glyph-name="edotaccent" horiz-adv-x="508" unicode="&#279;" /><glyph d="M425 36C435 44 436 52 430 62L414 86C406 97 400 98 389 90C357 67 315 56 274 56C180 56 131 117 124 214H451C461 214 466 219 466 229V246C466 359 411 490 258 490C113 490 44 372 44 239C44 110 109 -10 273 -10C331 -10 385 4 425 36ZM257 428C342 428 382 357 389 272H124C133 373 182 428 257 428ZM193 694C188 698 184 699 180 699C176 699 171 697 167 692L150 671C146 666 145 662 145 658C145 654 147 650 152 646L282 548C287 544 291 542 295 542C299 542 304 545 308 550L319 564C322 568 324 572 324 575C324 580 321 584 316 589Z" glyph-name="egrave" horiz-adv-x="508" unicode="&#232;" /><glyph d="M487 157C487 238 429 294 333 339C416 378 467 429 467 507C467 609 381 672 266 672C151 672 65 609 65 507C65 424 120 378 198 339C108 296 45 239 45 157C45 51 147 -10 266 -10C385 -10 487 51 487 157ZM142 509C142 576 199 607 266 607C333 607 390 576 390 509C390 452 348 405 265 371C182 408 142 452 142 509ZM124 161C124 221 178 270 267 305C361 265 408 219 408 161C408 100 353 55 266 55C179 55 124 100 124 161Z" glyph-name="eight" horiz-adv-x="532" unicode="8" /><glyph d="M158 51C158 84 135 110 100 110C65 110 42 84 42 51C42 18 65 -8 100 -8C135 -8 158 18 158 51ZM346 51C346 84 323 110 288 110C253 110 230 84 230 51C230 18 253 -8 288 -8C323 -8 346 18 346 51ZM534 51C534 84 511 110 476 110C441 110 418 84 418 51C418 18 441 -8 476 -8C511 -8 534 18 534 51Z" glyph-name="ellipsis" horiz-adv-x="576" unicode="&#8230;" /><glyph d="M425 36C435 44 436 52 430 62L414 86C406 97 400 98 389 90C357 67 315 56 274 56C180 56 131 117 124 214H451C461 214 466 219 466 229V246C466 359 411 490 258 490C113 490 44 372 44 239C44 110 109 -10 273 -10C331 -10 385 4 425 36ZM257 428C342 428 382 357 389 272H124C133 373 182 428 257 428ZM157 631C144 631 139 626 139 613V593C139 580 144 575 157 575H359C372 575 377 580 377 593V613C377 626 372 631 359 631Z" glyph-name="emacron" horiz-adv-x="508" unicode="&#275;" /><glyph d="M730 255C743 255 748 260 748 273V297C748 310 743 315 730 315H70C57 315 52 310 52 297V273C52 260 57 255 70 255Z" glyph-name="emdash" horiz-adv-x="800" unicode="&#8212;" /><glyph d="M430 255C443 255 448 260 448 273V297C448 310 443 315 430 315H70C57 315 52 310 52 297V273C52 260 57 255 70 255Z" glyph-name="endash" horiz-adv-x="500" unicode="&#8211;" /><glyph d="M425 -167C435 -161 436 -152 430 -143L427 -138C419 -126 414 -125 401 -131C390 -136 378 -139 367 -139C342 -139 324 -125 324 -97C324 -69 342 -21 404 21L425 36C435 44 436 52 429 63L414 86C406 97 400 98 389 90C357 67 314 56 274 56C180 56 131 117 124 214H451C461 214 466 219 466 229V246C466 359 411 490 258 490C113 490 44 372 44 239C44 110 111 -10 267 -10C291 -10 310 -7 326 -3C280 -45 264 -83 264 -112C264 -157 301 -187 355 -187C382 -187 406 -180 425 -167ZM257 428C342 428 382 357 389 272H124C133 373 182 428 257 428Z" glyph-name="eogonek" horiz-adv-x="508" unicode="&#281;" /><glyph d="M458 389C471 389 476 394 476 407V435C476 448 471 453 458 453H74C61 453 56 448 56 435V407C56 394 61 389 74 389ZM458 209C471 209 476 214 476 227V255C476 268 471 273 458 273H74C61 273 56 268 56 255V227C56 214 61 209 74 209Z" glyph-name="equal" horiz-adv-x="532" unicode="=" /><glyph d="M486 266C486 407 427 542 313 631L370 671C377 676 380 680 380 685C380 688 379 692 376 696L363 714C359 720 355 722 351 722C346 722 341 720 337 717L262 665C224 688 180 706 131 719C124 721 122 721 120 721C112 721 106 716 103 707L99 696C97 690 96 686 96 684C96 678 100 674 109 671C146 658 179 644 208 628L142 582C135 577 132 573 132 568C132 565 133 561 136 557L149 539C153 533 157 531 161 531C166 531 171 533 175 536L260 595C317 552 360 497 396 422C360 468 323 490 260 490C112 490 44 368 44 239C44 112 109 -10 264 -10C421 -10 486 115 486 266ZM125 240C125 339 165 428 265 428C365 428 405 339 405 240C405 141 365 52 265 52C165 52 125 141 125 240Z" glyph-name="eth" horiz-adv-x="530" unicode="&#240;" /><glyph d="M152 180C165 180 170 185 171 198L205 644C206 656 200 662 188 662H114C102 662 96 656 97 644L131 198C132 185 137 180 150 180ZM209 51C209 84 186 110 151 110C116 110 93 84 93 51C93 18 116 -8 151 -8C186 -8 209 18 209 51Z" glyph-name="exclam" horiz-adv-x="302" unicode="!" /><glyph d="M189 431C189 464 166 490 131 490C96 490 73 464 73 431C73 398 96 372 131 372C166 372 189 398 189 431ZM151 284C150 297 145 302 132 302H130C117 302 112 297 111 284L77 -162C76 -174 82 -180 94 -180H168C180 -180 186 -174 185 -162Z" glyph-name="exclamdown" horiz-adv-x="262" unicode="&#161;" /><glyph d="M177 18V419H285C298 419 303 424 303 437V462C303 475 298 480 285 480H177V538C177 632 209 662 260 662C279 662 297 658 313 650C324 644 331 647 336 659L347 686C352 697 349 705 339 711C317 722 290 728 257 728C163 728 99 676 99 529V480H35C22 480 17 475 17 462V437C17 424 22 419 35 419H99V18C99 5 104 0 117 0H159C172 0 177 5 177 18Z" glyph-name="f" horiz-adv-x="295" unicode="f" /><glyph d="M282 728C175 728 99 673 99 519V480H35C22 480 17 475 17 462V437C17 424 22 419 35 419H99V18C99 5 104 0 117 0H159C172 0 177 5 177 18V419H265C278 419 283 424 283 437V462C283 475 278 480 265 480H177V528C177 635 221 664 286 664C314 664 337 659 357 651V18C357 5 362 0 375 0H412C425 0 430 5 430 18V49C462 16 503 -10 567 -10C687 -10 771 88 771 245C771 400 696 490 575 490C511 490 469 463 435 429V700C435 713 430 718 417 718H357C335 724 311 728 282 728ZM563 427C639 427 690 367 690 243C690 116 633 53 557 53C506 53 468 77 435 116V362C470 403 510 427 563 427Z" glyph-name="f_b" horiz-adv-x="815" /><glyph d="M177 18V419H357V18C357 5 362 0 375 0H417C430 0 435 5 435 18V419H543C556 419 561 424 561 437V462C561 475 556 480 543 480H435V538C435 632 467 662 518 662C537 662 555 658 571 650C582 644 589 647 594 659L605 686C610 697 607 705 597 711C575 722 548 728 515 728C475 728 441 719 414 697C375 719 336 728 288 728C178 728 99 673 99 519V480H35C22 480 17 475 17 462V437C17 424 22 419 35 419H99V18C99 5 104 0 117 0H159C172 0 177 5 177 18ZM177 528C177 630 223 664 293 664C323 664 350 659 378 647C364 617 357 579 357 529V480H177Z" glyph-name="f_f" horiz-adv-x="553" unicode="&#64256;" /><glyph d="M540 728C493 728 453 718 421 693C380 717 339 728 288 728C178 728 99 673 99 519V480H35C22 480 17 475 17 462V437C17 424 22 419 35 419H99V18C99 5 104 0 117 0H159C172 0 177 5 177 18V419H357V18C357 5 362 0 375 0H417C430 0 435 5 435 18V419H523C536 419 541 424 541 437V462C541 475 536 480 523 480H435V528C435 635 479 664 544 664C572 664 595 659 615 651V18C615 5 620 0 633 0H670C683 0 688 5 688 18V49C720 16 761 -10 825 -10C945 -10 1029 88 1029 245C1029 400 954 490 833 490C769 490 727 463 693 429V700C693 713 688 718 675 718H615C593 724 569 728 540 728ZM177 528C177 630 223 664 293 664C324 664 353 659 382 645C366 613 357 572 357 519V480H177ZM821 427C897 427 948 367 948 243C948 116 891 53 815 53C764 53 726 77 693 116V362C728 403 768 427 821 427Z" glyph-name="f_f_b" horiz-adv-x="1073" /><glyph d="M540 728C493 728 453 718 421 693C380 717 339 728 288 728C178 728 99 673 99 519V480H35C22 480 17 475 17 462V437C17 424 22 419 35 419H99V18C99 5 104 0 117 0H159C172 0 177 5 177 18V419H357V18C357 5 362 0 375 0H417C430 0 435 5 435 18V419H523C536 419 541 424 541 437V462C541 475 536 480 523 480H435V528C435 635 479 664 544 664C572 664 595 659 615 651V18C615 5 620 0 633 0H675C688 0 693 5 693 18V360C735 405 772 425 821 425C895 425 924 367 924 304V18C924 5 929 0 942 0H984C997 0 1002 5 1002 18V307C1002 408 952 490 838 490C776 490 731 465 693 428V700C693 713 688 718 675 718H615C593 724 569 728 540 728ZM177 528C177 630 223 664 293 664C324 664 353 659 382 645C366 613 357 572 357 519V480H177Z" glyph-name="f_f_h" horiz-adv-x="1077" /><glyph d="M435 528C435 628 479 662 543 662C574 662 600 654 621 641C632 635 639 636 645 648L659 675C665 686 662 694 652 700C624 718 588 728 541 728C493 728 452 718 421 693C380 717 339 728 288 728C178 728 99 673 99 519V480H35C22 480 17 475 17 462V437C17 424 22 419 35 419H99V18C99 5 104 0 117 0H159C172 0 177 5 177 18V419H357V18C357 5 362 0 375 0H417C430 0 435 5 435 18V419H615V18C615 5 620 0 633 0H675C688 0 693 5 693 18V462C693 475 688 480 675 480H435ZM177 528C177 630 223 664 293 664C324 664 353 659 382 645C366 613 357 572 357 519V480H177Z" glyph-name="f_f_i" horiz-adv-x="770" unicode="&#64259;" /><glyph d="M435 528C435 628 479 662 543 662C574 662 600 654 621 641C632 635 639 636 645 648L659 675C665 686 662 694 652 700C624 718 588 728 541 728C493 728 452 718 421 693C380 717 339 728 288 728C178 728 99 673 99 519V480H35C22 480 17 475 17 462V437C17 424 22 419 35 419H99V18C99 5 104 0 117 0H159C172 0 177 5 177 18V419H357V18C357 5 362 0 375 0H417C430 0 435 5 435 18V419H615V-40C615 -106 597 -144 549 -144C535 -144 522 -141 511 -136C498 -130 493 -133 487 -145L476 -171C472 -182 475 -190 486 -195C507 -206 533 -210 558 -210C645 -210 693 -155 693 -45V462C693 475 688 480 675 480H435ZM177 528C177 630 223 664 293 664C324 664 353 659 382 645C366 613 357 572 357 519V480H177Z" glyph-name="f_f_j" horiz-adv-x="770" /><glyph d="M540 728C493 728 453 718 421 693C380 717 339 728 288 728C178 728 99 673 99 519V480H35C22 480 17 475 17 462V437C17 424 22 419 35 419H99V18C99 5 104 0 117 0H159C172 0 177 5 177 18V419H357V18C357 5 362 0 375 0H417C430 0 435 5 435 18V419H523C536 419 541 424 541 437V462C541 475 536 480 523 480H435V528C435 635 479 664 544 664C572 664 595 659 615 651V18C615 5 620 0 633 0H675C688 0 693 5 693 18V184C714 199 734 214 755 231C811 177 859 103 912 16C919 5 925 0 938 0H986C998 0 1002 6 996 16C931 130 872 215 806 276C863 329 918 392 972 465C979 474 975 480 964 480H913C899 480 891 475 884 465C825 385 761 315 693 260V700C693 713 688 718 675 718H615C593 724 569 728 540 728ZM177 528C177 630 223 664 293 664C324 664 353 659 382 645C366 613 357 572 357 519V480H177Z" glyph-name="f_f_k" horiz-adv-x="1017" /><glyph d="M540 728C493 728 453 718 421 693C380 717 339 728 288 728C178 728 99 673 99 519V480H35C22 480 17 475 17 462V437C17 424 22 419 35 419H99V18C99 5 104 0 117 0H159C172 0 177 5 177 18V419H357V18C357 5 362 0 375 0H417C430 0 435 5 435 18V419H523C536 419 541 424 541 437V462C541 475 536 480 523 480H435V528C435 635 479 664 544 664C572 664 595 659 615 651V18C615 5 620 0 633 0H675C688 0 693 5 693 18V700C693 713 688 718 675 718H615C593 724 569 728 540 728ZM177 528C177 630 223 664 293 664C324 664 353 659 382 645C366 613 357 572 357 519V480H177Z" glyph-name="f_f_l" horiz-adv-x="770" unicode="&#64260;" /><glyph d="M282 728C175 728 99 673 99 519V480H35C22 480 17 475 17 462V437C17 424 22 419 35 419H99V18C99 5 104 0 117 0H159C172 0 177 5 177 18V419H265C278 419 283 424 283 437V462C283 475 278 480 265 480H177V528C177 635 221 664 286 664C314 664 337 659 357 651V18C357 5 362 0 375 0H417C430 0 435 5 435 18V360C477 405 514 425 563 425C637 425 666 367 666 304V18C666 5 671 0 684 0H726C739 0 744 5 744 18V307C744 408 694 490 580 490C518 490 473 465 435 428V700C435 713 430 718 417 718H357C335 724 311 728 282 728Z" glyph-name="f_h" horiz-adv-x="819" /><glyph d="M177 528C177 628 221 662 285 662C316 662 342 654 363 641C374 635 381 636 387 648L401 675C407 686 404 694 394 700C366 718 330 728 283 728C174 728 99 673 99 519V480H35C22 480 17 475 17 462V437C17 424 22 419 35 419H99V18C99 5 104 0 117 0H159C172 0 177 5 177 18V419H357V18C357 5 362 0 375 0H417C430 0 435 5 435 18V462C435 475 430 480 417 480H177Z" glyph-name="f_i" horiz-adv-x="512" /><glyph d="M177 528C177 628 221 662 285 662C316 662 342 654 363 641C374 635 381 636 387 648L401 675C407 686 404 694 394 700C366 718 330 728 283 728C174 728 99 673 99 519V480H35C22 480 17 475 17 462V437C17 424 22 419 35 419H99V18C99 5 104 0 117 0H159C172 0 177 5 177 18V419H357V-40C357 -106 339 -144 291 -144C277 -144 264 -141 253 -136C240 -130 235 -133 229 -145L218 -171C214 -182 217 -190 228 -195C249 -206 275 -210 300 -210C387 -210 435 -155 435 -45V462C435 475 430 480 417 480H177Z" glyph-name="f_j" horiz-adv-x="512" /><glyph d="M282 728C175 728 99 673 99 519V480H35C22 480 17 475 17 462V437C17 424 22 419 35 419H99V18C99 5 104 0 117 0H159C172 0 177 5 177 18V419H265C278 419 283 424 283 437V462C283 475 278 480 265 480H177V528C177 635 221 664 286 664C314 664 337 659 357 651V18C357 5 362 0 375 0H417C430 0 435 5 435 18V184C456 199 476 214 497 231C553 177 601 103 654 16C661 5 667 0 680 0H728C740 0 744 6 738 16C673 130 614 215 548 276C605 329 660 392 714 465C721 474 717 480 706 480H655C641 480 633 475 626 465C567 385 503 315 435 260V700C435 713 430 718 417 718H357C335 724 311 728 282 728Z" glyph-name="f_k" horiz-adv-x="759" /><glyph d="M282 728C175 728 99 673 99 519V480H35C22 480 17 475 17 462V437C17 424 22 419 35 419H99V18C99 5 104 0 117 0H159C172 0 177 5 177 18V419H265C278 419 283 424 283 437V462C283 475 278 480 265 480H177V528C177 635 221 664 286 664C314 664 337 659 357 651V18C357 5 362 0 375 0H417C430 0 435 5 435 18V700C435 713 430 718 417 718H357C335 724 311 728 282 728Z" glyph-name="f_l" horiz-adv-x="512" /><glyph d="M177 528C177 628 221 662 285 662C316 662 342 654 363 641C374 635 381 636 387 648L401 675C407 686 404 694 394 700C366 718 330 728 283 728C174 728 99 673 99 519V480H35C22 480 17 475 17 462V437C17 424 22 419 35 419H99V18C99 5 104 0 117 0H159C172 0 177 5 177 18V419H357V18C357 5 362 0 375 0H417C430 0 435 5 435 18V462C435 475 430 480 417 480H177Z" glyph-name="fi" horiz-adv-x="512" unicode="&#64257;" /><glyph d="M470 206C470 314 407 407 264 407C228 407 196 402 160 387L180 594H422C435 594 440 599 440 612V644C440 657 435 662 422 662H132C119 662 113 657 112 644L84 358C82 345 86 337 97 330L109 321C121 313 128 312 141 318C171 333 207 342 247 342C348 342 389 282 389 204C389 117 339 58 245 58C191 58 145 78 111 102C101 109 94 108 87 98L69 71C62 61 63 53 72 45C110 14 169 -10 244 -10C395 -10 470 88 470 206Z" glyph-name="five" horiz-adv-x="532" unicode="5" /><glyph d="M282 728C175 728 99 673 99 519V480H35C22 480 17 475 17 462V437C17 424 22 419 35 419H99V18C99 5 104 0 117 0H159C172 0 177 5 177 18V419H265C278 419 283 424 283 437V462C283 475 278 480 265 480H177V528C177 635 221 664 286 664C314 664 337 659 357 651V18C357 5 362 0 375 0H417C430 0 435 5 435 18V700C435 713 430 718 417 718H357C335 724 311 728 282 728Z" glyph-name="fl" horiz-adv-x="512" unicode="&#64258;" /><glyph d="M324 646 49 239C41 228 36 217 36 205V165C36 152 41 147 54 147H341V18C341 5 346 0 359 0H401C414 0 419 5 419 18V147H493C506 147 511 152 511 165V195C511 208 506 213 493 213H419V644C419 657 414 662 401 662H353C340 662 332 658 324 646ZM111 213 343 558V213Z" glyph-name="four" horiz-adv-x="532" unicode="4" /><glyph d="M-140 0C-127 0 -119 4 -112 15L90 317L321 647C327 656 324 662 313 662H278C265 662 257 658 250 647L48 345L-183 15C-189 6 -186 0 -175 0Z" glyph-name="fraction" horiz-adv-x="138" unicode="&#8260;" /><glyph d="M466 -48C466 36 397 74 310 74H189C131 74 125 91 125 106C125 121 131 138 155 163C177 155 202 150 232 150C364 150 413 235 413 321C413 366 399 399 367 428C398 421 421 419 442 419C454 419 460 424 460 437V462C460 475 455 480 442 480H295C278 486 257 490 230 490C105 490 54 405 54 319C54 266 74 213 120 181C78 156 57 129 57 93C57 62 74 38 101 27C47 4 22 -32 22 -78C22 -162 105 -210 231 -210C384 -210 466 -140 466 -48ZM131 320C131 385 167 434 234 434C301 434 337 385 337 320C337 254 301 206 234 206C167 206 131 254 131 320ZM98 -68C98 -40 107 -14 152 10H294C365 10 388 -19 388 -56C388 -110 340 -154 232 -154C127 -154 98 -113 98 -68Z" glyph-name="g" horiz-adv-x="483" unicode="g" /><glyph d="M466 -48C466 36 397 74 310 74H189C131 74 125 91 125 106C125 121 131 138 155 163C177 155 202 150 232 150C364 150 413 235 413 321C413 366 399 399 367 428C398 421 421 419 442 419C454 419 460 424 460 437V462C460 475 455 480 442 480H295C278 486 257 490 230 490C105 490 54 405 54 319C54 266 74 213 120 181C78 156 57 129 57 93C57 62 74 38 101 27C47 4 22 -32 22 -78C22 -162 105 -210 231 -210C384 -210 466 -140 466 -48ZM131 320C131 385 167 434 234 434C301 434 337 385 337 320C337 254 301 206 234 206C167 206 131 254 131 320ZM98 -68C98 -40 107 -14 152 10H294C365 10 388 -19 388 -56C388 -110 340 -154 232 -154C127 -154 98 -113 98 -68ZM234 546C302 546 354 592 369 637C370 640 371 644 371 647C371 652 368 657 361 660L344 666C339 668 335 669 332 669C326 669 323 665 319 657C302 626 276 605 234 605C192 605 166 626 149 657C145 665 142 669 136 669C133 669 129 668 124 666L107 660C100 657 97 652 97 647C97 644 98 640 99 637C114 592 166 546 234 546Z" glyph-name="gbreve" horiz-adv-x="483" unicode="&#287;" /><glyph d="M466 -48C466 36 397 74 310 74H189C131 74 125 91 125 106C125 121 131 138 155 163C177 155 202 150 232 150C364 150 413 235 413 321C413 366 399 399 367 428C398 421 421 419 442 419C454 419 460 424 460 437V462C460 475 455 480 442 480H295C278 486 257 490 230 490C105 490 54 405 54 319C54 266 74 213 120 181C78 156 57 129 57 93C57 62 74 38 101 27C47 4 22 -32 22 -78C22 -162 105 -210 231 -210C384 -210 466 -140 466 -48ZM131 320C131 385 167 434 234 434C301 434 337 385 337 320C337 254 301 206 234 206C167 206 131 254 131 320ZM98 -68C98 -40 107 -14 152 10H294C365 10 388 -19 388 -56C388 -110 340 -154 232 -154C127 -154 98 -113 98 -68ZM234 615 328 557C336 552 340 551 344 551C349 551 354 553 359 559L367 569C371 574 372 577 372 581C372 585 370 590 364 594L250 677C245 681 239 683 234 683C229 683 223 681 218 677L104 594C98 590 96 585 96 581C96 577 97 574 101 569L109 559C114 553 119 551 124 551C128 551 132 552 140 557Z" glyph-name="gcircumflex" horiz-adv-x="483" unicode="&#285;" /><glyph d="M466 -48C466 36 397 74 310 74H189C131 74 125 91 125 106C125 121 131 138 155 163C177 155 202 150 232 150C364 150 413 235 413 321C413 366 399 399 367 428C398 421 421 419 442 419C454 419 460 424 460 437V462C460 475 455 480 442 480H295C278 486 257 490 230 490C105 490 54 405 54 319C54 266 74 213 120 181C78 156 57 129 57 93C57 62 74 38 101 27C47 4 22 -32 22 -78C22 -162 105 -210 231 -210C384 -210 466 -140 466 -48ZM131 320C131 385 167 434 234 434C301 434 337 385 337 320C337 254 301 206 234 206C167 206 131 254 131 320ZM98 -68C98 -40 107 -14 152 10H294C365 10 388 -19 388 -56C388 -110 340 -154 232 -154C127 -154 98 -113 98 -68ZM283 617C283 645 265 667 234 667C203 667 185 645 185 617C185 589 203 567 234 567C265 567 283 589 283 617Z" glyph-name="gdotaccent" horiz-adv-x="483" unicode="&#289;" /><glyph d="M155 505C155 606 196 666 277 666C360 666 396 620 396 574C396 534 373 503 327 467C264 418 240 393 240 341C240 285 280 254 370 215C442 184 468 165 468 124C468 91 440 54 386 54C342 54 306 70 275 95C265 103 258 102 250 92L231 68C223 58 225 49 234 42C266 14 314 -10 384 -10C478 -10 546 51 546 129C546 203 494 236 399 277C330 307 314 320 314 345C314 372 327 385 389 433C443 475 472 514 472 578C472 672 395 728 280 728C165 728 77 659 77 500V18C77 5 82 0 95 0H137C150 0 155 5 155 18Z" glyph-name="germandbls" horiz-adv-x="573" unicode="&#223;" /><glyph d="M105 694C100 698 96 699 92 699C88 699 83 697 79 692L62 671C58 666 57 662 57 658C57 654 59 650 64 646L194 548C199 544 203 542 207 542C211 542 216 545 220 550L231 564C234 568 236 572 236 575C236 580 233 584 228 589Z" glyph-name="grave" horiz-adv-x="292" unicode="`" /><glyph d="M105 859C100 863 96 864 92 864C88 864 83 862 79 857L62 836C58 831 57 827 57 823C57 819 59 815 64 811L194 713C199 709 203 707 207 707C211 707 216 710 220 715L231 729C234 733 236 737 236 740C236 745 233 749 228 754Z" glyph-name="grave.case" horiz-adv-x="292" /><glyph d="M119 118 443 292C455 299 459 306 459 319V345C459 358 455 365 443 372L119 546C115 548 112 549 109 549C103 549 98 546 94 539L82 517C80 513 78 508 78 505C78 500 81 497 88 493L389 332L88 171C81 167 78 164 78 159C78 156 80 151 82 147L94 125C98 118 103 115 109 115C112 115 115 116 119 118Z" glyph-name="greater" horiz-adv-x="532" unicode="&gt;" /><glyph d="M119 126 443 292C455 298 459 305 459 318V344C459 357 455 364 443 370L119 536C115 538 112 539 109 539C102 539 98 535 94 528L82 506C80 502 79 498 79 495C79 490 82 486 89 482L390 331L89 180C82 176 79 172 79 167C79 164 80 160 82 156L94 134C98 127 102 123 109 123C112 123 115 124 119 126ZM442 0C455 0 460 5 460 18V41C460 54 455 59 442 59H90C77 59 72 54 72 41V18C72 5 77 0 90 0Z" glyph-name="greaterequal" horiz-adv-x="532" unicode="&#8805;" /><glyph d="M128 261 226 410C229 414 230 418 230 421C230 426 227 431 221 435L203 446C199 449 195 450 191 450C186 450 182 447 177 441L53 276C49 271 47 266 47 261C47 256 49 251 53 246L177 81C182 75 186 72 191 72C195 72 199 73 203 76L221 87C227 91 230 96 230 101C230 104 229 108 226 112ZM323 261 421 410C424 414 425 418 425 421C425 426 422 431 416 435L398 446C394 449 390 450 386 450C381 450 377 447 372 441L248 276C244 271 242 266 242 261C242 256 244 251 248 246L372 81C377 75 381 72 386 72C390 72 394 73 398 76L416 87C422 91 425 96 425 101C425 104 424 108 421 112Z" glyph-name="guillemotleft" horiz-adv-x="473" unicode="&#171;" /><glyph d="M150 261 52 112C49 108 48 104 48 101C48 96 51 91 57 87L75 76C79 73 83 72 87 72C92 72 96 75 101 81L225 246C229 251 231 256 231 261C231 266 229 271 225 276L101 441C96 447 92 450 87 450C83 450 79 449 75 446L57 435C51 431 48 426 48 421C48 418 49 414 52 410ZM345 261 247 112C244 108 243 104 243 101C243 96 246 91 252 87L270 76C274 73 278 72 282 72C287 72 291 75 296 81L420 246C424 251 426 256 426 261C426 266 424 271 420 276L296 441C291 447 287 450 282 450C278 450 274 449 270 446L252 435C246 431 243 426 243 421C243 418 244 414 247 410Z" glyph-name="guillemotright" horiz-adv-x="473" unicode="&#187;" /><glyph d="M128 261 226 410C229 414 230 418 230 421C230 426 227 431 221 435L203 446C199 449 195 450 191 450C186 450 182 447 177 441L53 276C49 271 47 266 47 261C47 256 49 251 53 246L177 81C182 75 186 72 191 72C195 72 199 73 203 76L221 87C227 91 230 96 230 101C230 104 229 108 226 112Z" glyph-name="guilsinglleft" horiz-adv-x="278" unicode="&#8249;" /><glyph d="M150 261 52 112C49 108 48 104 48 101C48 96 51 91 57 87L75 76C79 73 83 72 87 72C92 72 96 75 101 81L225 246C229 251 231 256 231 261C231 266 229 271 225 276L101 441C96 447 92 450 87 450C83 450 79 449 75 446L57 435C51 431 48 426 48 421C48 418 49 414 52 410Z" glyph-name="guilsinglright" horiz-adv-x="278" unicode="&#8250;" /><glyph d="M155 18V360C197 405 234 425 283 425C357 425 386 367 386 304V18C386 5 391 0 404 0H446C459 0 464 5 464 18V307C464 408 414 490 300 490C238 490 193 465 155 428V700C155 713 150 718 137 718H95C82 718 77 713 77 700V18C77 5 82 0 95 0H137C150 0 155 5 155 18Z" glyph-name="h" horiz-adv-x="539" unicode="h" /><glyph d="M155 18V360C197 405 234 425 283 425C357 425 386 367 386 304V18C386 5 391 0 404 0H446C459 0 464 5 464 18V307C464 408 414 490 300 490C238 490 193 465 155 428V561H261C274 561 279 566 279 579V598C279 611 274 616 261 616H155V700C155 713 150 718 137 718H95C82 718 77 713 77 700V616H28C15 616 10 611 10 598V579C10 566 15 561 28 561H77V18C77 5 82 0 95 0H137C150 0 155 5 155 18Z" glyph-name="hbar" horiz-adv-x="539" unicode="&#295;" /><glyph d="M155 18V360C197 405 234 425 283 425C357 425 386 367 386 304V18C386 5 391 0 404 0H446C459 0 464 5 464 18V307C464 408 414 490 300 490C238 490 193 465 155 428V700C155 713 150 718 137 718H95C82 718 77 713 77 700V18C77 5 82 0 95 0H137C150 0 155 5 155 18ZM116 814 210 756C218 751 222 750 226 750C231 750 236 752 241 758L249 768C253 773 254 776 254 780C254 784 252 789 246 793L132 876C127 880 121 882 116 882C111 882 105 880 100 876L-14 793C-20 789 -22 784 -22 780C-22 776 -21 773 -17 768L-9 758C-4 752 1 750 6 750C10 750 14 751 22 756Z" glyph-name="hcircumflex" horiz-adv-x="539" unicode="&#293;" /><glyph d="M201 646C205 650 207 654 207 658C207 663 204 667 200 671L181 689C177 693 173 695 169 695C164 695 160 693 156 688L62 582C58 578 56 574 56 570C56 565 59 560 64 556L78 544C83 540 87 538 91 538C96 538 100 540 106 547ZM357 646C361 650 363 654 363 658C363 663 360 667 356 671L337 689C333 693 329 695 325 695C320 695 316 693 312 688L218 582C214 578 212 574 212 570C212 565 215 560 220 556L234 544C239 540 243 538 247 538C252 538 256 540 262 547Z" glyph-name="hungarumlaut" horiz-adv-x="419" unicode="&#733;" /><glyph d="M201 811C205 815 207 819 207 823C207 828 204 832 200 836L181 854C177 858 173 860 169 860C164 860 160 858 156 853L62 747C58 743 56 739 56 735C56 730 59 725 64 721L78 709C83 705 87 703 91 703C96 703 100 705 106 712ZM357 811C361 815 363 819 363 823C363 828 360 832 356 836L337 854C333 858 329 860 325 860C320 860 316 858 312 853L218 747C214 743 212 739 212 735C212 730 215 725 220 721L234 709C239 705 243 703 247 703C252 703 256 705 262 712Z" glyph-name="hungarumlaut.case" horiz-adv-x="419" /><glyph d="M269 248C282 248 287 253 287 266V304C287 317 282 322 269 322H71C58 322 53 317 53 304V266C53 253 58 248 71 248Z" glyph-name="hyphen" horiz-adv-x="340" unicode="-" /><glyph d="M169 653C169 683 149 707 116 707C83 707 63 683 63 653C63 623 83 599 116 599C149 599 169 623 169 653ZM137 0C150 0 155 5 155 18V462C155 475 150 480 137 480H95C82 480 77 475 77 462V18C77 5 82 0 95 0Z" glyph-name="i" horiz-adv-x="232" unicode="i" /><glyph d="M169 653C169 683 149 707 116 707C83 707 63 683 63 653C63 623 83 599 116 599C149 599 169 623 169 653ZM137 0C150 0 155 5 155 18V462C155 475 150 480 137 480H95C82 480 77 475 77 462V18C77 5 82 0 95 0Z" glyph-name="i.trk" horiz-adv-x="232" /><glyph d="M137 0C150 0 155 5 155 18V462C155 475 150 480 137 480H95C82 480 77 475 77 462V18C77 5 82 0 95 0ZM58 589C53 584 50 580 50 575C50 572 52 568 55 564L66 550C70 545 75 542 79 542C83 542 87 544 92 548L222 646C227 650 229 654 229 658C229 662 228 666 224 671L207 692C203 697 198 699 194 699C190 699 186 698 181 694Z" glyph-name="iacute" horiz-adv-x="232" unicode="&#237;" /><glyph d="M137 0C150 0 155 5 155 18V462C155 475 150 480 137 480H95C82 480 77 475 77 462V18C77 5 82 0 95 0ZM116 546C184 546 236 592 251 637C252 640 253 644 253 647C253 652 250 657 243 660L226 666C221 668 217 669 214 669C208 669 205 665 201 657C184 626 158 605 116 605C74 605 48 626 31 657C27 665 24 669 18 669C15 669 11 668 6 666L-11 660C-18 657 -21 652 -21 647C-21 644 -20 640 -19 637C-4 592 48 546 116 546Z" glyph-name="ibreve" horiz-adv-x="232" unicode="&#301;" /><glyph d="M137 0C150 0 155 5 155 18V462C155 475 150 480 137 480H95C82 480 77 475 77 462V18C77 5 82 0 95 0ZM116 615 210 557C218 552 222 551 226 551C231 551 236 553 241 559L249 569C253 574 254 577 254 581C254 585 252 590 246 594L132 677C127 681 121 683 116 683C111 683 105 681 100 677L-14 594C-20 590 -22 585 -22 581C-22 577 -21 574 -17 569L-9 559C-4 553 1 551 6 551C10 551 14 552 22 557Z" glyph-name="icircumflex" horiz-adv-x="232" unicode="&#238;" /><glyph d="M137 0C150 0 155 5 155 18V462C155 475 150 480 137 480H95C82 480 77 475 77 462V18C77 5 82 0 95 0ZM76 617C76 645 58 667 27 667C-4 667 -22 645 -22 617C-22 589 -4 567 27 567C58 567 76 589 76 617ZM254 617C254 645 236 667 205 667C174 667 156 645 156 617C156 589 174 567 205 567C236 567 254 589 254 617Z" glyph-name="idieresis" horiz-adv-x="232" unicode="&#239;" /><glyph d="M137 0C150 0 155 5 155 18V462C155 475 150 480 137 480H95C82 480 77 475 77 462V18C77 5 82 0 95 0ZM51 694C46 698 42 699 38 699C34 699 29 697 25 692L8 671C4 666 3 662 3 658C3 654 5 650 10 646L140 548C145 544 149 542 153 542C157 542 162 545 166 550L177 564C180 568 182 572 182 575C182 580 179 584 174 589Z" glyph-name="igrave" horiz-adv-x="232" unicode="&#236;" /><glyph d="M169 653C169 683 149 707 116 707C83 707 63 683 63 653C63 623 83 599 116 599C149 599 169 623 169 653ZM137 0C150 0 155 5 155 18V462C155 475 150 480 137 480H95C82 480 77 475 77 462V18C77 5 82 0 95 0ZM401 653C401 683 381 707 348 707C315 707 295 683 295 653C295 623 315 599 348 599C381 599 401 623 401 653ZM387 -45V462C387 475 382 480 369 480H327C314 480 309 475 309 462V-40C309 -106 291 -144 243 -144C229 -144 216 -141 205 -136C192 -130 187 -133 181 -145L170 -171C166 -182 169 -190 180 -195C201 -206 227 -210 252 -210C339 -210 387 -155 387 -45Z" glyph-name="ij" horiz-adv-x="464" unicode="&#307;" /><glyph d="M137 0C150 0 155 5 155 18V462C155 475 150 480 137 480H95C82 480 77 475 77 462V18C77 5 82 0 95 0ZM15 631C2 631 -3 626 -3 613V593C-3 580 2 575 15 575H217C230 575 235 580 235 593V613C235 626 230 631 217 631Z" glyph-name="imacron" horiz-adv-x="232" unicode="&#299;" /><glyph d="M719 331C719 422 661 482 561 482C482 482 431 446 382 378C337 441 284 482 203 482C103 482 45 422 45 331C45 240 103 180 203 180C285 180 335 220 382 284C429 218 480 180 561 180C661 180 719 240 719 331ZM106 331C106 390 140 429 204 429C268 429 305 392 348 331C301 262 261 233 204 233C140 233 106 272 106 331ZM560 429C624 429 658 390 658 331C658 272 624 233 560 233C497 233 458 268 415 331C461 396 498 429 560 429Z" glyph-name="infinity" horiz-adv-x="764" unicode="&#8734;" /><glyph d="M91 -144C72 -144 54 -140 38 -132C27 -126 21 -129 15 -141L4 -168C-1 -179 2 -187 12 -193C34 -204 61 -210 94 -210C188 -210 252 -158 252 -11V538C252 632 284 662 335 662C354 662 372 658 388 650C399 644 405 647 411 659L422 686C427 697 424 705 414 711C392 722 365 728 332 728C238 728 174 676 174 529V-20C174 -114 142 -144 91 -144Z" glyph-name="integral" horiz-adv-x="442" unicode="&#8747;" /><glyph d="M169 653C169 683 149 707 116 707C83 707 63 683 63 653C63 623 83 599 116 599C149 599 169 623 169 653ZM29 -112C29 -157 66 -187 120 -187C147 -187 171 -180 190 -167C200 -161 201 -152 195 -143L192 -138C184 -126 179 -125 166 -131C155 -136 143 -139 132 -139C108 -139 89 -126 89 -96C89 -68 106 -42 138 0H137C150 0 155 5 155 18V462C155 475 150 480 137 480H95C82 480 77 475 77 462V18C77 5 82 0 95 0H94C54 -41 29 -75 29 -112Z" glyph-name="iogonek" horiz-adv-x="232" unicode="&#303;" /><glyph d="M137 0C150 0 155 5 155 18V462C155 475 150 480 137 480H95C82 480 77 475 77 462V18C77 5 82 0 95 0ZM175 564C212 564 245 588 258 612C261 617 262 622 262 625C262 630 260 634 255 638L248 644C243 649 238 651 233 651C228 651 224 649 219 644C205 631 189 623 172 623C138 623 102 657 57 657C20 657 -13 633 -26 609C-29 604 -30 599 -30 596C-30 591 -28 587 -23 583L-16 577C-11 572 -6 570 -1 570C4 570 8 572 13 577C27 590 43 598 60 598C94 598 130 564 175 564Z" glyph-name="itilde" horiz-adv-x="232" unicode="&#297;" /><glyph d="M169 653C169 683 149 707 116 707C83 707 63 683 63 653C63 623 83 599 116 599C149 599 169 623 169 653ZM155 -45V462C155 475 150 480 137 480H95C82 480 77 475 77 462V-40C77 -106 59 -144 11 -144C-3 -144 -16 -141 -27 -136C-40 -130 -45 -133 -51 -145L-62 -171C-66 -182 -63 -190 -52 -195C-31 -206 -5 -210 20 -210C107 -210 155 -155 155 -45Z" glyph-name="j" horiz-adv-x="232" unicode="j" /><glyph d="M155 -45V462C155 475 150 480 137 480H95C82 480 77 475 77 462V-40C77 -106 59 -144 11 -144C-3 -144 -16 -141 -27 -136C-40 -130 -45 -133 -51 -145L-62 -171C-66 -182 -63 -190 -52 -195C-31 -206 -5 -210 20 -210C107 -210 155 -155 155 -45ZM116 615 210 557C218 552 222 551 226 551C231 551 236 553 241 559L249 569C253 574 254 577 254 581C254 585 252 590 246 594L132 677C127 681 121 683 116 683C111 683 105 681 100 677L-14 594C-20 590 -22 585 -22 581C-22 577 -21 574 -17 569L-9 559C-4 553 1 551 6 551C10 551 14 552 22 557Z" glyph-name="jcircumflex" horiz-adv-x="232" unicode="&#309;" /><glyph d="M155 18V184C176 199 196 214 217 231C273 177 321 103 374 16C381 5 387 0 400 0H448C460 0 464 6 458 16C393 130 334 215 268 276C325 329 380 392 434 465C441 474 437 480 426 480H375C361 480 353 475 346 465C287 385 223 315 155 260V700C155 713 150 718 137 718H95C82 718 77 713 77 700V18C77 5 82 0 95 0H137C150 0 155 5 155 18Z" glyph-name="k" horiz-adv-x="479" unicode="k" /><glyph d="M137 0C150 0 155 5 155 18V700C155 713 150 718 137 718H95C82 718 77 713 77 700V18C77 5 82 0 95 0Z" glyph-name="l" horiz-adv-x="232" unicode="l" /><glyph d="M137 0C150 0 155 5 155 18V700C155 713 150 718 137 718H95C82 718 77 713 77 700V18C77 5 82 0 95 0ZM48 794C43 789 40 785 40 780C40 777 42 773 45 769L56 755C60 750 65 747 69 747C73 747 77 749 82 753L212 851C217 855 219 859 219 863C219 867 218 871 214 876L197 897C193 902 188 904 184 904C180 904 176 903 171 899Z" glyph-name="lacute" horiz-adv-x="232" unicode="&#314;" /><glyph d="M137 0C150 0 155 5 155 18V700C155 713 150 718 137 718H95C82 718 77 713 77 700V18C77 5 82 0 95 0ZM238 545C249 543 256 545 260 556L308 688C310 694 311 699 311 702C311 708 307 712 298 714L265 721C260 722 255 723 252 723C245 723 240 718 239 708L223 564C222 553 226 547 238 545Z" glyph-name="lcaron" horiz-adv-x="232" unicode="&#318;" /><glyph d="M137 0C150 0 155 5 155 18V700C155 713 150 718 137 718H95C82 718 77 713 77 700V18C77 5 82 0 95 0ZM355 287C355 320 332 346 297 346C262 346 239 320 239 287C239 254 262 228 297 228C332 228 355 254 355 287Z" glyph-name="ldot" horiz-adv-x="364" unicode="&#320;" /><glyph d="M438 125 450 147C452 151 454 156 454 159C454 164 451 167 444 171L143 332L444 493C451 497 454 500 454 505C454 508 452 513 450 517L438 539C434 546 429 549 423 549C420 549 417 548 413 546L89 372C77 365 73 358 73 345V319C73 306 77 299 89 292L413 118C417 116 420 115 423 115C429 115 434 118 438 125Z" glyph-name="less" horiz-adv-x="532" unicode="&lt;" /><glyph d="M438 134 450 156C452 160 453 164 453 167C453 172 450 176 443 180L142 331L443 482C450 486 453 490 453 495C453 498 452 502 450 506L438 528C434 535 430 539 423 539C420 539 417 538 413 536L89 370C77 364 73 357 73 344V318C73 305 77 298 89 292L413 126C417 124 420 123 423 123C430 123 434 127 438 134ZM442 0C455 0 460 5 460 18V41C460 54 455 59 442 59H90C77 59 72 54 72 41V18C72 5 77 0 90 0Z" glyph-name="lessequal" horiz-adv-x="532" unicode="&#8804;" /><glyph d="M464 345C464 358 459 363 446 363H66C53 363 48 358 48 345V317C48 304 53 299 66 299H395V109C395 96 400 91 413 91H446C459 91 464 96 464 109Z" glyph-name="logicalnot" horiz-adv-x="532" unicode="&#172;" /><glyph d="M291 662C278 662 270 658 264 647L37 280C31 270 28 259 28 247V215C28 203 31 192 37 182L263 -185C269 -196 277 -200 290 -200H325C338 -200 346 -196 352 -185L579 182C585 192 588 203 588 215V247C588 259 585 270 579 280L353 647C347 658 339 662 326 662ZM94 232 307 591 522 230 309 -129Z" glyph-name="lozenge" horiz-adv-x="616" unicode="&#9674;" /><glyph d="M160 18V358L221 393C233 400 237 407 237 420V455C237 466 231 470 221 464L160 429V700C160 713 155 718 142 718H100C87 718 82 713 82 700V388L21 353C9 346 5 339 5 326V291C5 280 11 276 21 282L82 317V18C82 5 87 0 100 0H142C155 0 160 5 160 18Z" glyph-name="lslash" horiz-adv-x="242" unicode="&#322;" /><glyph d="M572 425C645 425 673 369 673 304V18C673 5 678 0 691 0H733C746 0 751 5 751 18V307C751 408 703 490 588 490C519 490 470 458 429 415C405 460 361 490 294 490C232 490 187 464 150 424V462C150 475 145 480 132 480H95C82 480 77 475 77 462V18C77 5 82 0 95 0H137C150 0 155 5 155 18V363C195 405 230 425 276 425C347 425 375 369 375 304V18C375 5 380 0 393 0H435C448 0 453 5 453 18V364C492 405 527 425 572 425Z" glyph-name="m" horiz-adv-x="826" unicode="m" /><glyph d="M68 631C55 631 50 626 50 613V593C50 580 55 575 68 575H270C283 575 288 580 288 593V613C288 626 283 631 270 631Z" glyph-name="macron" horiz-adv-x="338" unicode="&#175;" /><glyph d="M68 796C55 796 50 791 50 778V758C50 745 55 740 68 740H270C283 740 288 745 288 758V778C288 791 283 796 270 796Z" glyph-name="macron.case" horiz-adv-x="338" /><glyph d="M466 299C479 299 484 304 484 317V345C484 358 479 363 466 363H66C53 363 48 358 48 345V317C48 304 53 299 66 299Z" glyph-name="minus" horiz-adv-x="532" unicode="&#8722;" /><glyph d="M439 139 460 160C464 164 466 168 466 172C466 176 464 180 459 185L312 332L459 479C464 484 466 488 466 492C466 496 464 500 460 504L439 525C434 530 430 532 426 532C422 532 418 530 413 525L266 378L119 525C114 530 110 532 106 532C102 532 98 530 93 525L72 504C68 500 66 496 66 492C66 488 68 484 73 479L220 332L73 185C68 180 66 176 66 172C66 168 68 164 72 160L93 139C98 134 102 132 106 132C110 132 114 134 119 139L266 286L413 139C418 134 422 132 426 132C430 132 434 134 439 139Z" glyph-name="multiply" horiz-adv-x="532" unicode="&#215;" /><glyph d="M155 18V360C197 405 234 425 283 425C357 425 386 367 386 304V18C386 5 391 0 404 0H446C459 0 464 5 464 18V307C464 408 414 490 300 490C235 490 189 463 150 423V462C150 475 145 480 132 480H95C82 480 77 475 77 462V18C77 5 82 0 95 0H137C150 0 155 5 155 18Z" glyph-name="n" horiz-adv-x="539" unicode="n" /><glyph d="M155 18V360C197 405 234 425 283 425C357 425 386 367 386 304V18C386 5 391 0 404 0H446C459 0 464 5 464 18V307C464 408 414 490 300 490C235 490 189 463 150 423V462C150 475 145 480 132 480H95C82 480 77 475 77 462V18C77 5 82 0 95 0H137C150 0 155 5 155 18ZM212 589C207 584 204 580 204 575C204 572 206 568 209 564L220 550C224 545 229 542 233 542C237 542 241 544 246 548L376 646C381 650 383 654 383 658C383 662 382 666 378 671L361 692C357 697 352 699 348 699C344 699 340 698 335 694Z" glyph-name="nacute" horiz-adv-x="539" unicode="&#324;" /><glyph d="M301 18V360C343 405 380 425 429 425C503 425 532 367 532 304V18C532 5 537 0 550 0H592C605 0 610 5 610 18V307C610 408 560 490 446 490C381 490 335 463 296 423V462C296 475 291 480 278 480H241C228 480 223 475 223 462V18C223 5 228 0 241 0H283C296 0 301 5 301 18ZM48 671C48 636 78 623 78 587C78 571 74 552 54 522C51 518 50 514 50 511C50 506 54 501 60 497L63 495C66 493 71 491 75 491C81 491 86 494 90 500C127 552 150 617 150 661C150 700 132 723 100 723C67 723 48 699 48 671Z" glyph-name="napostrophe" horiz-adv-x="685" unicode="&#329;" /><glyph d="M155 18V360C197 405 234 425 283 425C357 425 386 367 386 304V18C386 5 391 0 404 0H446C459 0 464 5 464 18V307C464 408 414 490 300 490C235 490 189 463 150 423V462C150 475 145 480 132 480H95C82 480 77 475 77 462V18C77 5 82 0 95 0H137C150 0 155 5 155 18ZM270 613 176 671C168 676 164 677 160 677C155 677 150 675 145 669L137 659C133 654 132 651 132 647C132 643 134 638 140 634L254 551C259 547 265 545 270 545C275 545 281 547 286 551L400 634C406 638 408 643 408 647C408 651 407 654 403 659L395 669C390 675 385 677 380 677C376 677 372 676 364 671Z" glyph-name="ncaron" horiz-adv-x="539" unicode="&#328;" /><glyph d="M400 81C457 151 477 253 477 358C477 575 392 672 254 672C121 672 42 581 42 453C42 328 119 248 241 248C301 248 354 266 397 310C389 145 318 58 192 58C160 58 135 64 109 74C97 79 90 76 86 63L76 32C73 21 76 13 87 8C112 -1 151 -10 196 -10C286 -10 355 26 400 81ZM121 458C121 543 164 607 253 607C349 607 395 529 398 370C356 331 303 313 254 313C163 313 121 374 121 458Z" glyph-name="nine" horiz-adv-x="532" unicode="9" /><glyph d="M167 107 226 209H458C471 209 476 214 476 227V255C476 268 471 273 458 273H264L331 389H458C471 389 476 394 476 407V435C476 448 471 453 458 453H369L428 555C434 565 430 571 419 571H392C379 571 372 567 365 555L306 453H74C61 453 56 448 56 435V407C56 394 61 389 74 389H268L201 273H74C61 273 56 268 56 255V227C56 214 61 209 74 209H163L104 107C99 98 102 91 113 91H140C153 91 160 96 167 107Z" glyph-name="notequal" horiz-adv-x="532" unicode="&#8800;" /><glyph d="M155 18V360C197 405 234 425 283 425C357 425 386 367 386 304V18C386 5 391 0 404 0H446C459 0 464 5 464 18V307C464 408 414 490 300 490C235 490 189 463 150 423V462C150 475 145 480 132 480H95C82 480 77 475 77 462V18C77 5 82 0 95 0H137C150 0 155 5 155 18ZM329 564C366 564 399 588 412 612C415 617 416 622 416 625C416 630 414 634 409 638L402 644C397 649 392 651 387 651C382 651 378 649 373 644C359 631 343 623 326 623C292 623 256 657 211 657C174 657 141 633 128 609C125 604 124 599 124 596C124 591 126 587 131 583L138 577C143 572 148 570 153 570C158 570 162 572 167 577C181 590 197 598 214 598C248 598 284 564 329 564Z" glyph-name="ntilde" horiz-adv-x="539" unicode="&#241;" /><glyph d="M150 18 175 179H308L283 18C281 6 286 0 298 0H329C342 0 348 5 350 18L375 179H457C470 179 475 184 475 197V222C475 235 470 240 457 240H385L414 422H494C507 422 512 427 512 440V465C512 478 507 483 494 483H424L449 644C451 656 446 662 434 662H403C390 662 384 657 382 644L357 483H224L249 644C251 656 246 662 234 662H203C190 662 184 657 182 644L157 483H75C62 483 57 478 57 465V440C57 427 62 422 75 422H147L118 240H38C25 240 20 235 20 222V197C20 184 25 179 38 179H108L83 18C81 6 86 0 98 0H129C142 0 148 5 150 18ZM185 240 214 422H347L318 240Z" glyph-name="numbersign" horiz-adv-x="532" unicode="#" /><glyph d="M486 240C486 369 422 490 265 490C111 490 44 369 44 240C44 111 108 -10 265 -10C419 -10 486 111 486 240ZM125 240C125 339 165 428 265 428C365 428 405 339 405 240C405 141 365 52 265 52C165 52 125 141 125 240Z" glyph-name="o" horiz-adv-x="530" unicode="o" /><glyph d="M486 240C486 369 422 490 265 490C111 490 44 369 44 240C44 111 108 -10 265 -10C419 -10 486 111 486 240ZM125 240C125 339 165 428 265 428C365 428 405 339 405 240C405 141 365 52 265 52C165 52 125 141 125 240ZM207 589C202 584 199 580 199 575C199 572 201 568 204 564L215 550C219 545 224 542 228 542C232 542 236 544 241 548L371 646C376 650 378 654 378 658C378 662 377 666 373 671L356 692C352 697 347 699 343 699C339 699 335 698 330 694Z" glyph-name="oacute" horiz-adv-x="530" unicode="&#243;" /><glyph d="M486 240C486 369 422 490 265 490C111 490 44 369 44 240C44 111 108 -10 265 -10C419 -10 486 111 486 240ZM125 240C125 339 165 428 265 428C365 428 405 339 405 240C405 141 365 52 265 52C165 52 125 141 125 240ZM265 546C333 546 385 592 400 637C401 640 402 644 402 647C402 652 399 657 392 660L375 666C370 668 366 669 363 669C357 669 354 665 350 657C333 626 307 605 265 605C223 605 197 626 180 657C176 665 173 669 167 669C164 669 160 668 155 666L138 660C131 657 128 652 128 647C128 644 129 640 130 637C145 592 197 546 265 546Z" glyph-name="obreve" horiz-adv-x="530" unicode="&#335;" /><glyph d="M486 240C486 369 422 490 265 490C111 490 44 369 44 240C44 111 108 -10 265 -10C419 -10 486 111 486 240ZM125 240C125 339 165 428 265 428C365 428 405 339 405 240C405 141 365 52 265 52C165 52 125 141 125 240ZM265 615 359 557C367 552 371 551 375 551C380 551 385 553 390 559L398 569C402 574 403 577 403 581C403 585 401 590 395 594L281 677C276 681 270 683 265 683C260 683 254 681 249 677L135 594C129 590 127 585 127 581C127 577 128 574 132 569L140 559C145 553 150 551 155 551C159 551 163 552 171 557Z" glyph-name="ocircumflex" horiz-adv-x="530" unicode="&#244;" /><glyph d="M486 240C486 369 422 490 265 490C111 490 44 369 44 240C44 111 108 -10 265 -10C419 -10 486 111 486 240ZM125 240C125 339 165 428 265 428C365 428 405 339 405 240C405 141 365 52 265 52C165 52 125 141 125 240ZM225 617C225 645 207 667 176 667C145 667 127 645 127 617C127 589 145 567 176 567C207 567 225 589 225 617ZM403 617C403 645 385 667 354 667C323 667 305 645 305 617C305 589 323 567 354 567C385 567 403 589 403 617Z" glyph-name="odieresis" horiz-adv-x="530" unicode="&#246;" /><glyph d="M785 36C795 44 796 52 790 62L774 86C766 97 760 98 749 90C717 67 675 56 634 56C540 56 491 117 484 214H811C821 214 826 219 826 229V246C826 359 771 490 618 490C533 490 476 446 445 383C413 445 356 490 265 490C111 490 44 369 44 240C44 111 108 -10 265 -10C354 -10 412 34 444 97C476 34 536 -10 633 -10C691 -10 745 4 785 36ZM617 428C702 428 742 357 749 272H484C493 373 542 428 617 428ZM125 240C125 339 165 428 265 428C365 428 405 339 405 240C405 141 365 52 265 52C165 52 125 141 125 240Z" glyph-name="oe" horiz-adv-x="868" unicode="&#339;" /><glyph d="M50 -112C50 -157 87 -187 141 -187C168 -187 192 -180 211 -167C221 -161 222 -152 216 -143L213 -138C205 -126 200 -125 187 -131C176 -136 164 -139 153 -139C129 -139 110 -126 110 -96C110 -68 127 -42 159 0H115C75 -41 50 -75 50 -112Z" glyph-name="ogonek" horiz-adv-x="275" unicode="&#731;" /><glyph d="M486 240C486 369 422 490 265 490C111 490 44 369 44 240C44 111 108 -10 265 -10C419 -10 486 111 486 240ZM125 240C125 339 165 428 265 428C365 428 405 339 405 240C405 141 365 52 265 52C165 52 125 141 125 240ZM200 694C195 698 191 699 187 699C183 699 178 697 174 692L157 671C153 666 152 662 152 658C152 654 154 650 159 646L289 548C294 544 298 542 302 542C306 542 311 545 315 550L326 564C329 568 331 572 331 575C331 580 328 584 323 589Z" glyph-name="ograve" horiz-adv-x="530" unicode="&#242;" /><glyph d="M486 240C486 369 422 490 265 490C111 490 44 369 44 240C44 111 108 -10 265 -10C419 -10 486 111 486 240ZM125 240C125 339 165 428 265 428C365 428 405 339 405 240C405 141 365 52 265 52C165 52 125 141 125 240ZM286 646C290 650 292 654 292 658C292 663 289 667 285 671L266 689C262 693 258 695 254 695C249 695 245 693 241 688L147 582C143 578 141 574 141 570C141 565 144 560 149 556L163 544C168 540 172 538 176 538C181 538 185 540 191 547ZM442 646C446 650 448 654 448 658C448 663 445 667 441 671L422 689C418 693 414 695 410 695C405 695 401 693 397 688L303 582C299 578 297 574 297 570C297 565 300 560 305 556L319 544C324 540 328 538 332 538C337 538 341 540 347 547Z" glyph-name="ohungarumlaut" horiz-adv-x="530" unicode="&#337;" /><glyph d="M486 240C486 369 422 490 265 490C111 490 44 369 44 240C44 111 108 -10 265 -10C419 -10 486 111 486 240ZM125 240C125 339 165 428 265 428C365 428 405 339 405 240C405 141 365 52 265 52C165 52 125 141 125 240ZM164 631C151 631 146 626 146 613V593C146 580 151 575 164 575H366C379 575 384 580 384 593V613C384 626 379 631 366 631Z" glyph-name="omacron" horiz-adv-x="530" unicode="&#333;" /><glyph d="M473 18V50C473 63 468 68 455 68H334V644C334 657 329 662 316 662H283C270 662 261 659 250 652L100 548C89 541 88 533 94 523L109 499C115 489 123 487 133 494L255 572V68H125C112 68 107 63 107 50V18C107 5 112 0 125 0H455C468 0 473 5 473 18Z" glyph-name="one" horiz-adv-x="532" unicode="1" /><glyph d="M305 296V312C305 325 300 330 287 330H225V644C225 657 220 662 207 662H193C181 662 170 659 160 653L77 603C67 597 64 589 70 578L77 565C83 554 90 552 101 559L161 594V330H94C81 330 76 325 76 312V296C76 283 81 278 94 278H287C300 278 305 283 305 296ZM220 0C233 0 241 4 248 15L450 317L681 647C687 656 684 662 673 662H638C625 662 617 658 610 647L408 345L177 15C171 6 174 0 185 0ZM789 18V34C789 47 784 52 771 52H605C611 88 635 112 690 154C755 204 784 237 784 290C784 345 744 390 670 390C618 390 579 369 547 337C539 329 539 320 547 311L558 299C568 289 574 286 585 297C606 318 635 336 668 336C701 336 720 316 720 287C720 254 700 230 655 197C589 150 541 102 541 27V18C541 5 546 0 559 0H771C784 0 789 5 789 18Z" glyph-name="onehalf" horiz-adv-x="838" unicode="&#189;" /><glyph d="M305 296V312C305 325 300 330 287 330H225V644C225 657 220 662 207 662H193C181 662 170 659 160 653L77 603C67 597 64 589 70 578L77 565C83 554 90 552 101 559L161 594V330H94C81 330 76 325 76 312V296C76 283 81 278 94 278H287C300 278 305 283 305 296ZM230 0C243 0 251 4 258 15L460 317L691 647C697 656 694 662 683 662H648C635 662 627 658 620 647L418 345L187 15C181 6 184 0 195 0ZM680 368 532 152C524 140 520 132 520 116V100C520 87 525 82 538 82H703V18C703 5 708 0 721 0H746C759 0 764 5 764 18V82H798C811 82 816 87 816 100V113C816 126 811 131 798 131H764V366C764 379 759 384 746 384H708C695 384 688 380 680 368ZM705 312V129H580Z" glyph-name="onequarter" horiz-adv-x="838" unicode="&#188;" /><glyph d="M305 296V312C305 325 300 330 287 330H225V644C225 657 220 662 207 662H193C181 662 170 659 160 653L77 603C67 597 64 589 70 578L77 565C83 554 90 552 101 559L161 594V330H94C81 330 76 325 76 312V296C76 283 81 278 94 278H287C300 278 305 283 305 296Z" glyph-name="onesuperior" horiz-adv-x="350" unicode="&#185;" /><glyph d="M264 396C264 383 269 378 282 378H306C319 378 324 383 324 396V604C324 677 283 728 187 728C136 728 95 713 66 691C57 684 56 675 62 666L71 653C79 642 85 639 96 647C122 665 149 676 182 676C242 676 260 639 260 595V572C235 580 210 583 181 583C88 583 41 537 41 474C41 415 86 370 153 370C199 370 234 387 264 421ZM106 476C106 510 130 536 190 536C217 536 239 534 260 527V474C234 438 200 423 169 423C123 423 106 448 106 476Z" glyph-name="ordfeminine" horiz-adv-x="378" unicode="&#170;" /><glyph d="M355 549C355 641 307 728 198 728C89 728 41 641 41 549C41 457 89 370 198 370C307 370 355 457 355 549ZM107 549C107 615 131 675 198 675C265 675 289 615 289 549C289 483 265 423 198 423C131 423 107 483 107 549Z" glyph-name="ordmasculine" horiz-adv-x="396" unicode="&#186;" /><glyph d="M116 -25 148 21C179 1 219 -10 267 -10C421 -10 488 111 488 240C488 309 470 376 428 423L485 505C491 514 488 520 477 520H446C433 520 425 516 418 505L386 459C355 479 315 490 267 490C113 490 46 369 46 240C46 171 64 104 106 57L49 -25C42 -34 46 -40 57 -40H88C101 -40 108 -36 116 -25ZM127 240C127 339 167 428 267 428C300 428 326 418 347 402L152 122C135 155 127 197 127 240ZM407 240C407 141 367 52 267 52C234 52 208 61 188 78L382 358C399 325 407 283 407 240Z" glyph-name="oslash" horiz-adv-x="534" unicode="&#248;" /><glyph d="M486 240C486 369 422 490 265 490C111 490 44 369 44 240C44 111 108 -10 265 -10C419 -10 486 111 486 240ZM125 240C125 339 165 428 265 428C365 428 405 339 405 240C405 141 365 52 265 52C165 52 125 141 125 240ZM324 564C361 564 394 588 407 612C410 617 411 622 411 625C411 630 409 634 404 638L397 644C392 649 387 651 382 651C377 651 373 649 368 644C354 631 338 623 321 623C287 623 251 657 206 657C169 657 136 633 123 609C120 604 119 599 119 596C119 591 121 587 126 583L133 577C138 572 143 570 148 570C153 570 157 572 162 577C176 590 192 598 209 598C243 598 279 564 324 564Z" glyph-name="otilde" horiz-adv-x="530" unicode="&#245;" /><glyph d="M155 -182V44C186 13 226 -10 287 -10C407 -10 491 88 491 245C491 400 416 490 295 490C227 490 185 460 150 424V462C150 475 145 480 132 480H95C82 480 77 475 77 462V-182C77 -195 82 -200 95 -200H137C150 -200 155 -195 155 -182ZM283 427C359 427 410 367 410 243C410 116 353 53 277 53C226 53 188 77 155 116V362C190 403 230 427 283 427Z" glyph-name="p" horiz-adv-x="535" unicode="p" /><glyph d="M418 -120C431 -120 436 -115 436 -102V605H496C509 605 514 610 514 623V644C514 657 509 662 496 662H256C104 662 50 591 50 500C50 417 95 351 209 337V-102C209 -115 214 -120 227 -120H259C272 -120 277 -115 277 -102V605H368V-102C368 -115 373 -120 386 -120Z" glyph-name="paragraph" horiz-adv-x="554" unicode="&#182;" /><glyph d="M140 321C140 474 183 594 259 700C264 707 266 712 266 716C266 720 265 723 258 728L244 738C240 741 237 742 233 742C228 742 224 740 218 734C148 658 70 518 70 321C70 124 148 -16 218 -92C224 -98 228 -100 233 -100C237 -100 240 -99 244 -96L258 -86C265 -81 266 -78 266 -74C266 -70 264 -65 259 -58C183 48 140 168 140 321Z" glyph-name="parenleft" horiz-adv-x="316" unicode="(" /><glyph d="M176 321C176 168 133 48 57 -58C52 -65 50 -70 50 -74C50 -78 51 -81 58 -86L72 -96C76 -99 79 -100 83 -100C88 -100 92 -98 98 -92C168 -16 246 124 246 321C246 518 168 658 98 734C92 740 88 742 83 742C79 742 76 741 72 738L58 728C51 723 50 720 50 716C50 712 52 707 57 700C133 594 176 474 176 321Z" glyph-name="parenright" horiz-adv-x="316" unicode=")" /><glyph d="M486 256C486 452 376 668 119 668C108 668 105 663 103 653L98 629C97 624 96 619 96 616C96 608 100 604 111 603C265 595 353 521 399 394C357 436 314 450 259 450C113 450 44 339 44 218C44 102 108 -10 265 -10C421 -10 486 101 486 256ZM125 220C125 309 165 388 265 388C365 388 405 309 405 220C405 131 365 52 265 52C165 52 125 131 125 220Z" glyph-name="partialdiff" horiz-adv-x="530" unicode="&#8706;" /><glyph d="M350 494C350 586 302 672 193 672C84 672 36 586 36 494C36 402 84 316 193 316C302 316 350 402 350 494ZM185 0C198 0 206 4 213 15L415 317L646 647C652 656 649 662 638 662H603C590 662 582 658 575 647L373 345L142 15C136 6 139 0 150 0ZM102 494C102 560 126 619 193 619C260 619 284 560 284 494C284 428 260 369 193 369C126 369 102 428 102 494ZM438 168C438 76 486 -10 595 -10C704 -10 752 76 752 168C752 260 704 346 595 346C486 346 438 260 438 168ZM686 168C686 102 662 43 595 43C528 43 504 102 504 168C504 234 528 293 595 293C662 293 686 234 686 168Z" glyph-name="percent" horiz-adv-x="788" unicode="%" /><glyph d="M158 51C158 84 135 110 100 110C65 110 42 84 42 51C42 18 65 -8 100 -8C135 -8 158 18 158 51Z" glyph-name="period" horiz-adv-x="200" unicode="." /><glyph d="M158 287C158 320 135 346 100 346C65 346 42 320 42 287C42 254 65 228 100 228C135 228 158 254 158 287Z" glyph-name="periodcentered" horiz-adv-x="200" unicode="&#183;" /><glyph d="M350 494C350 586 302 672 193 672C84 672 36 586 36 494C36 402 84 316 193 316C302 316 350 402 350 494ZM185 0C198 0 206 4 213 15L415 317L646 647C652 656 649 662 638 662H603C590 662 582 658 575 647L373 345L142 15C136 6 139 0 150 0ZM102 494C102 560 126 619 193 619C260 619 284 560 284 494C284 428 260 369 193 369C126 369 102 428 102 494ZM438 168C438 76 486 -10 595 -10C704 -10 752 76 752 168C752 260 704 346 595 346C486 346 438 260 438 168ZM806 168C806 76 854 -10 963 -10C1072 -10 1120 76 1120 168C1120 260 1072 346 963 346C854 346 806 260 806 168ZM686 168C686 102 662 43 595 43C528 43 504 102 504 168C504 234 528 293 595 293C662 293 686 234 686 168ZM1054 168C1054 102 1030 43 963 43C896 43 872 102 872 168C872 234 896 293 963 293C1030 293 1054 234 1054 168Z" glyph-name="perthousand" horiz-adv-x="1156" unicode="&#8240;" /><glyph d="M35 480C22 480 17 475 17 462V437C17 424 22 419 35 419H98V18C98 5 103 0 116 0H158C171 0 176 5 176 18V419H351V146C351 42 393 -10 478 -10C501 -10 525 -6 545 3C556 8 559 16 555 27L544 52C538 64 533 67 520 62C510 57 498 55 486 55C441 55 429 89 429 149V419H492C505 419 510 424 510 437V462C510 475 505 480 492 480Z" glyph-name="pi" horiz-adv-x="546" unicode="&#960;" /><glyph d="M232 299V131C232 118 237 113 250 113H282C295 113 300 118 300 131V299H466C479 299 484 304 484 317V345C484 358 479 363 466 363H300V531C300 544 295 549 282 549H250C237 549 232 544 232 531V363H66C53 363 48 358 48 345V317C48 304 53 299 66 299Z" glyph-name="plus" horiz-adv-x="532" unicode="+" /><glyph d="M232 298V150C232 137 237 132 250 132H282C295 132 300 137 300 150V298H466C479 298 484 303 484 316V344C484 357 479 362 466 362H300V510C300 523 295 528 282 528H250C237 528 232 523 232 510V362H66C53 362 48 357 48 344V316C48 303 53 298 66 298ZM466 0C479 0 484 5 484 18V41C484 54 479 59 466 59H66C53 59 48 54 48 41V18C48 5 53 0 66 0Z" glyph-name="plusminus" horiz-adv-x="532" unicode="&#177;" /><glyph d="M145 0C158 0 163 5 163 18V594H485V18C485 5 490 0 503 0H549C562 0 567 5 567 18V644C567 657 562 662 549 662H99C86 662 81 657 81 644V18C81 5 86 0 99 0Z" glyph-name="product" horiz-adv-x="648" unicode="&#8719;" /><glyph d="M458 -182V462C458 475 453 480 440 480H403C390 480 385 475 385 462V431C353 464 312 490 248 490C128 490 44 392 44 235C44 80 119 -10 240 -10C304 -10 346 17 380 51V-182C380 -195 385 -200 398 -200H440C453 -200 458 -195 458 -182ZM125 237C125 364 182 427 258 427C309 427 347 403 380 364V118C345 77 305 53 252 53C176 53 125 113 125 237Z" glyph-name="q" horiz-adv-x="535" unicode="q" /><glyph d="M184 180C197 180 202 185 204 198C212 264 233 295 287 338C339 379 405 421 405 514C405 603 344 672 218 672C134 672 78 641 43 608C34 599 33 591 40 581L56 559C64 549 71 548 81 556C114 583 159 605 214 605C290 605 322 564 322 511C322 459 292 431 247 396C195 355 153 319 153 246C153 232 155 215 158 198C160 185 167 180 179 180ZM246 51C246 84 223 110 188 110C153 110 130 84 130 51C130 18 153 -8 188 -8C223 -8 246 18 246 51Z" glyph-name="question" horiz-adv-x="427" unicode="?" /><glyph d="M285 431C285 464 262 490 227 490C192 490 169 464 169 431C169 398 192 372 227 372C262 372 285 398 285 431ZM372 -126C381 -117 382 -109 375 -99L359 -77C351 -67 344 -66 334 -74C301 -101 256 -123 201 -123C125 -123 93 -82 93 -29C93 23 123 51 168 86C220 127 262 163 262 236C262 250 260 267 257 284C255 297 248 302 236 302H231C218 302 213 297 211 284C203 218 182 187 128 144C76 103 10 61 10 -32C10 -121 71 -190 197 -190C281 -190 337 -159 372 -126Z" glyph-name="questiondown" horiz-adv-x="377" unicode="&#191;" /><glyph d="M68 718C57 718 52 712 52 704C52 701 53 691 54 683L75 506C76 495 82 490 93 490H95C106 490 112 495 113 506L134 683C135 691 136 701 136 704C136 712 131 718 120 718ZM208 718C197 718 192 712 192 704C192 701 193 691 194 683L215 506C216 495 222 490 233 490H235C246 490 252 495 253 506L274 683C275 691 276 701 276 704C276 712 271 718 260 718Z" glyph-name="quotedbl" horiz-adv-x="328" unicode="&quot;" /><glyph d="M49 57C49 22 79 9 79 -27C79 -43 75 -62 55 -92C52 -96 51 -100 51 -103C51 -108 55 -113 61 -117L64 -119C67 -121 72 -123 76 -123C82 -123 87 -120 91 -114C128 -62 151 3 151 47C151 86 133 109 101 109C68 109 49 85 49 57ZM205 57C205 22 235 9 235 -27C235 -43 231 -62 211 -92C208 -96 207 -100 207 -103C207 -108 211 -113 217 -117L220 -119C223 -121 228 -123 232 -123C238 -123 243 -120 247 -114C284 -62 307 3 307 47C307 86 289 109 257 109C224 109 205 85 205 57Z" glyph-name="quotedblbase" horiz-adv-x="352" unicode="&#8222;" /><glyph d="M147 542C147 577 117 590 117 626C117 642 121 661 141 691C144 695 145 699 145 702C145 707 141 712 135 716L132 718C129 720 124 722 120 722C114 722 109 719 105 713C68 661 45 596 45 552C45 513 63 490 95 490C128 490 147 514 147 542ZM301 542C301 577 271 590 271 626C271 642 275 661 295 691C298 695 299 699 299 702C299 707 295 712 289 716L286 718C283 720 278 722 274 722C268 722 263 719 259 713C222 661 199 596 199 552C199 513 217 490 249 490C282 490 301 514 301 542Z" glyph-name="quotedblleft" horiz-adv-x="350" unicode="&#8220;" /><glyph d="M49 671C49 636 79 623 79 587C79 571 75 552 55 522C52 518 51 514 51 511C51 506 55 501 61 497L64 495C67 493 72 491 76 491C82 491 87 494 91 500C128 552 151 617 151 661C151 700 133 723 101 723C68 723 49 699 49 671ZM203 671C203 636 233 623 233 587C233 571 229 552 209 522C206 518 205 514 205 511C205 506 209 501 215 497L218 495C221 493 226 491 230 491C236 491 241 494 245 500C282 552 305 617 305 661C305 700 287 723 255 723C222 723 203 699 203 671Z" glyph-name="quotedblright" horiz-adv-x="350" unicode="&#8221;" /><glyph d="M147 542C147 577 117 590 117 626C117 642 121 661 141 691C144 695 145 699 145 702C145 707 141 712 135 716L132 718C129 720 124 722 120 722C114 722 109 719 105 713C68 661 45 596 45 552C45 513 63 490 95 490C128 490 147 514 147 542Z" glyph-name="quoteleft" horiz-adv-x="196" unicode="&#8216;" /><glyph d="M49 671C49 636 79 623 79 587C79 571 75 552 55 522C52 518 51 514 51 511C51 506 55 501 61 497L64 495C67 493 72 491 76 491C82 491 87 494 91 500C128 552 151 617 151 661C151 700 133 723 101 723C68 723 49 699 49 671Z" glyph-name="quoteright" horiz-adv-x="196" unicode="&#8217;" /><glyph d="M49 57C49 22 79 9 79 -27C79 -43 75 -62 55 -92C52 -96 51 -100 51 -103C51 -108 55 -113 61 -117L64 -119C67 -121 72 -123 76 -123C82 -123 87 -120 91 -114C128 -62 151 3 151 47C151 86 133 109 101 109C68 109 49 85 49 57Z" glyph-name="quotesinglbase" horiz-adv-x="196" unicode="&#8218;" /><glyph d="M68 718C57 718 52 712 52 704C52 701 53 691 54 683L75 506C76 495 82 490 93 490H95C106 490 112 495 113 506L134 683C135 691 136 701 136 704C136 712 131 718 120 718Z" glyph-name="quotesingle" horiz-adv-x="188" unicode="'" /><glyph d="M155 18V361C184 400 224 419 270 419C284 419 298 417 312 413C325 410 330 413 333 426L341 463C344 474 339 482 328 485C314 489 299 490 286 490C225 490 185 462 150 417V462C150 475 145 480 132 480H95C82 480 77 475 77 462V18C77 5 82 0 95 0H137C150 0 155 5 155 18Z" glyph-name="r" horiz-adv-x="354" unicode="r" /><glyph d="M155 18V361C184 400 224 419 270 419C284 419 298 417 312 413C325 410 330 413 333 426L341 463C344 474 339 482 328 485C314 489 299 490 286 490C225 490 185 462 150 417V462C150 475 145 480 132 480H95C82 480 77 475 77 462V18C77 5 82 0 95 0H137C150 0 155 5 155 18ZM151 589C146 584 143 580 143 575C143 572 145 568 148 564L159 550C163 545 168 542 172 542C176 542 180 544 185 548L315 646C320 650 322 654 322 658C322 662 321 666 317 671L300 692C296 697 291 699 287 699C283 699 279 698 274 694Z" glyph-name="racute" horiz-adv-x="354" unicode="&#341;" /><glyph d="M348 17 564 693C566 699 567 705 567 707C567 715 563 718 554 718H518C505 718 499 714 495 702L309 113L212 463C209 475 202 480 189 480H31C18 480 13 475 13 462V437C13 424 18 419 31 419H144L261 17C265 5 271 0 284 0H325C338 0 344 5 348 17Z" glyph-name="radical" horiz-adv-x="600" unicode="&#8730;" /><glyph d="M155 18V361C184 400 224 419 270 419C284 419 298 417 312 413C325 410 330 413 333 426L341 463C344 474 339 482 328 485C314 489 299 490 286 490C225 490 185 462 150 417V462C150 475 145 480 132 480H95C82 480 77 475 77 462V18C77 5 82 0 95 0H137C150 0 155 5 155 18ZM209 613 115 671C107 676 103 677 99 677C94 677 89 675 84 669L76 659C72 654 71 651 71 647C71 643 73 638 79 634L193 551C198 547 204 545 209 545C214 545 220 547 225 551L339 634C345 638 347 643 347 647C347 651 346 654 342 659L334 669C329 675 324 677 319 677C315 677 311 676 303 671Z" glyph-name="rcaron" horiz-adv-x="354" unicode="&#345;" /><glyph d="M580 454C580 608 461 728 307 728C153 728 34 608 34 454C34 300 153 180 307 180C461 180 580 300 580 454ZM534 454C534 321 438 221 307 221C176 221 80 321 80 454C80 587 176 687 307 687C438 687 534 587 534 454ZM264 322V417H304C330 392 351 359 372 321C379 308 384 304 398 304H422C434 304 438 310 432 321C406 371 382 405 356 429C391 440 424 471 424 517C424 573 386 611 307 611H228C215 611 210 606 210 593V322C210 309 215 304 228 304H246C259 304 264 309 264 322ZM264 567H305C347 567 368 547 368 515C368 484 346 460 303 460H264Z" glyph-name="registered" horiz-adv-x="614" unicode="&#174;" /><glyph d="M260 643C260 704 212 746 155 746C98 746 50 704 50 643C50 582 98 540 155 540C212 540 260 582 260 643ZM96 643C96 680 121 704 155 704C189 704 214 680 214 643C214 606 189 582 155 582C121 582 96 606 96 643Z" glyph-name="ring" horiz-adv-x="310" unicode="&#730;" /><glyph d="M260 788C260 849 212 891 155 891C98 891 50 849 50 788C50 727 98 685 155 685C212 685 260 727 260 788ZM96 788C96 825 121 849 155 849C189 849 214 825 214 788C214 751 189 727 155 727C121 727 96 751 96 788Z" glyph-name="ring.case" horiz-adv-x="310" /><glyph d="M401 128C401 220 334 250 235 275C164 292 130 307 130 355C130 396 164 426 232 426C279 426 317 411 345 392C356 385 362 385 369 396L387 422C394 432 392 440 382 447C350 471 298 490 232 490C125 490 52 439 52 353C52 255 125 233 215 209C289 190 323 170 323 124C323 76 277 54 220 54C168 54 117 77 84 103C74 110 67 110 59 100L40 75C33 66 34 57 43 50C76 21 144 -10 220 -10C323 -10 401 39 401 128Z" glyph-name="s" horiz-adv-x="445" unicode="s" /><glyph d="M401 128C401 220 334 250 235 275C164 292 130 307 130 355C130 396 164 426 232 426C279 426 317 411 345 392C356 385 362 385 369 396L387 422C394 432 392 440 382 447C350 471 298 490 232 490C125 490 52 439 52 353C52 255 125 233 215 209C289 190 323 170 323 124C323 76 277 54 220 54C168 54 117 77 84 103C74 110 67 110 59 100L40 75C33 66 34 57 43 50C76 21 144 -10 220 -10C323 -10 401 39 401 128ZM175 589C170 584 167 580 167 575C167 572 169 568 172 564L183 550C187 545 192 542 196 542C200 542 204 544 209 548L339 646C344 650 346 654 346 658C346 662 345 666 341 671L324 692C320 697 315 699 311 699C307 699 303 698 298 694Z" glyph-name="sacute" horiz-adv-x="445" unicode="&#347;" /><glyph d="M401 128C401 220 334 250 235 275C164 292 130 307 130 355C130 396 164 426 232 426C279 426 317 411 345 392C356 385 362 385 369 396L387 422C394 432 392 440 382 447C350 471 298 490 232 490C125 490 52 439 52 353C52 255 125 233 215 209C289 190 323 170 323 124C323 76 277 54 220 54C168 54 117 77 84 103C74 110 67 110 59 100L40 75C33 66 34 57 43 50C76 21 144 -10 220 -10C323 -10 401 39 401 128ZM233 613 139 671C131 676 127 677 123 677C118 677 113 675 108 669L100 659C96 654 95 651 95 647C95 643 97 638 103 634L217 551C222 547 228 545 233 545C238 545 244 547 249 551L363 634C369 638 371 643 371 647C371 651 370 654 366 659L358 669C353 675 348 677 343 677C339 677 335 676 327 671Z" glyph-name="scaron" horiz-adv-x="445" unicode="&#353;" /><glyph d="M401 128C401 220 334 250 235 275C164 292 130 307 130 355C130 396 164 426 232 426C279 426 317 411 345 392C356 385 362 385 369 396L387 422C394 432 392 440 382 447C350 471 298 490 232 490C125 490 52 439 52 353C52 255 125 233 215 209C289 190 323 170 323 124C323 76 277 54 220 54C168 54 117 77 84 103C74 110 67 110 59 100L40 75C33 66 34 57 43 50C76 21 144 -10 220 -10C323 -10 401 39 401 128ZM233 615 327 557C335 552 339 551 343 551C348 551 353 553 358 559L366 569C370 574 371 577 371 581C371 585 369 590 363 594L249 677C244 681 238 683 233 683C228 683 222 681 217 677L103 594C97 590 95 585 95 581C95 577 96 574 100 569L108 559C113 553 118 551 123 551C127 551 131 552 139 557Z" glyph-name="scircumflex" horiz-adv-x="445" unicode="&#349;" /><glyph d="M419 -10C419 44 394 79 357 104C417 132 448 179 448 244C448 354 351 389 271 416C198 441 152 459 152 520C152 569 183 609 265 609C313 609 350 595 378 577C388 569 395 571 402 582L419 607C425 617 424 625 414 632C383 654 332 672 268 672C152 672 77 612 77 517C77 461 101 427 138 402C79 374 48 327 48 262C48 152 145 117 225 90C298 65 344 46 344 -13C344 -63 310 -103 220 -103C165 -103 125 -88 94 -67C84 -59 77 -61 70 -72L53 -97C47 -107 48 -115 58 -122C92 -146 145 -166 217 -166C339 -166 419 -106 419 -10ZM247 153C178 177 123 203 123 269C123 310 145 355 189 375C208 367 228 360 249 353C318 329 373 303 373 237C373 196 351 151 307 131C288 139 268 146 247 153Z" glyph-name="section" horiz-adv-x="492" unicode="&#167;" /><glyph d="M164 429C164 462 141 488 106 488C71 488 48 462 48 429C48 396 71 370 106 370C141 370 164 396 164 429ZM162 42C162 84 143 110 107 110C71 110 50 83 50 53C50 15 85 2 85 -37C85 -54 76 -82 59 -113C56 -118 55 -121 55 -124C55 -129 59 -133 66 -137L70 -139C74 -141 79 -142 82 -142C87 -142 92 -139 96 -133C137 -78 162 -5 162 42Z" glyph-name="semicolon" horiz-adv-x="212" unicode=";" /><glyph d="M240 18C285 246 383 464 465 591C472 602 475 612 475 625V644C475 657 470 662 457 662H87C74 662 69 657 69 644V612C69 599 74 594 87 594H384C279 429 198 234 154 18C152 6 157 0 169 0H219C232 0 238 5 240 18Z" glyph-name="seven" horiz-adv-x="532" unicode="7" /><glyph d="M490 212C490 338 415 422 291 422C228 422 181 402 136 360C147 521 220 604 344 604C375 604 401 598 427 588C439 583 446 586 450 599L461 630C464 641 461 649 450 653C424 663 386 672 341 672C261 672 190 643 142 591C77 521 55 412 55 303C55 87 142 -10 278 -10C413 -10 490 85 490 212ZM277 357C369 357 411 293 411 208C411 122 369 55 280 55C186 55 136 130 134 298C176 338 225 357 277 357Z" glyph-name="six" horiz-adv-x="532" unicode="6" /><glyph d="M11 -78C11 -86 16 -90 26 -90H54C66 -90 72 -85 76 -73L336 727C338 733 339 737 339 740C339 748 334 752 324 752H296C284 752 278 747 274 735L14 -65C12 -71 11 -75 11 -78Z" glyph-name="slash" horiz-adv-x="350" unicode="/" /><glyph glyph-name="space" horiz-adv-x="215" unicode=" " /><glyph d="M487 18V48C487 61 482 66 469 66H166C222 102 248 165 248 225C248 243 247 269 239 299H398C411 299 416 304 416 317V345C416 358 411 363 398 363H214C197 409 188 451 188 487C188 561 229 605 314 605C366 605 409 588 443 565C453 557 460 559 467 569L485 596C492 606 491 614 481 622C445 649 388 672 314 672C177 672 112 590 112 483C112 444 120 409 139 363H74C61 363 56 358 56 345V317C56 304 61 299 74 299H164C173 270 175 249 175 231C175 170 149 113 87 77C75 69 71 63 71 49V18C71 5 76 0 89 0H469C482 0 487 5 487 18Z" glyph-name="sterling" horiz-adv-x="532" unicode="&#163;" /><glyph d="M444 18V50C444 63 439 68 426 68H140L345 293C354 302 357 311 357 324V338C357 351 353 360 345 369L144 594H426C439 594 444 599 444 612V644C444 657 439 662 426 662H62C49 662 44 657 44 644V612C44 599 47 590 56 581L280 329L56 81C47 72 44 63 44 50V18C44 5 49 0 62 0H426C439 0 444 5 444 18Z" glyph-name="summation" horiz-adv-x="500" unicode="&#8721;" /><glyph d="M321 16C331 23 334 31 329 41L317 64C312 74 305 77 294 71C275 61 260 55 238 55C191 55 175 84 175 137V419H311C324 419 329 424 329 437V462C329 475 324 480 311 480H175V591C175 604 170 609 157 609H115C102 609 97 604 97 591V480H33C20 480 15 475 15 462V437C15 424 20 419 33 419H97V134C97 28 144 -10 228 -10C265 -10 294 -2 321 16Z" glyph-name="t" horiz-adv-x="355" unicode="t" /><glyph d="M326 16C336 23 339 31 334 41L322 64C317 74 310 77 299 71C280 61 265 55 243 55C196 55 180 84 180 137V248H291C304 248 309 253 309 266V285C309 298 304 303 291 303H180V419H316C329 419 334 424 334 437V462C334 475 329 480 316 480H180V591C180 604 175 609 162 609H120C107 609 102 604 102 591V480H38C25 480 20 475 20 462V437C20 424 25 419 38 419H102V303H58C45 303 40 298 40 285V266C40 253 45 248 58 248H102V134C102 28 149 -10 233 -10C270 -10 299 -2 326 16Z" glyph-name="tbar" horiz-adv-x="365" unicode="&#359;" /><glyph d="M321 16C331 23 334 31 329 41L317 64C312 74 305 77 294 71C275 61 260 55 238 55C191 55 175 84 175 137V419H311C324 419 329 424 329 437V462C329 475 324 480 311 480H175V591C175 604 170 609 157 609H115C102 609 97 604 97 591V480H33C20 480 15 475 15 462V437C15 424 20 419 33 419H97V134C97 28 144 -10 228 -10C265 -10 294 -2 321 16ZM258 545C269 543 276 545 280 556L328 688C330 694 331 699 331 702C331 708 327 712 318 714L285 721C280 722 275 723 272 723C265 723 260 718 259 708L243 564C242 553 246 547 258 545Z" glyph-name="tcaron" horiz-adv-x="355" unicode="&#357;" /><glyph d="M321 16C331 23 334 31 329 41L317 64C312 74 305 77 294 71C275 61 260 55 238 55C191 55 175 84 175 137V419H311C324 419 329 424 329 437V462C329 475 324 480 311 480H175V591C175 604 170 609 157 609H115C102 609 97 604 97 591V480H33C20 480 15 475 15 462V437C15 424 20 419 33 419H97V134C97 28 144 -10 228 -10C265 -10 294 -2 321 16ZM268 -99C268 -67 250 -47 219 -47C188 -47 173 -66 173 -88C173 -119 201 -122 201 -150C201 -159 199 -171 183 -192C180 -196 179 -199 179 -202C179 -206 182 -209 187 -212L190 -214C194 -217 197 -218 200 -218C204 -218 207 -215 211 -211C246 -174 268 -133 268 -99Z" glyph-name="tcommaaccent" horiz-adv-x="355" unicode="&#355;" /><glyph d="M155 -182V48C187 15 228 -10 291 -10C411 -10 491 86 491 241C491 398 412 490 291 490C228 490 187 465 155 432V700C155 713 150 718 137 718H95C82 718 77 713 77 700V-182C77 -195 82 -200 95 -200H137C150 -200 155 -195 155 -182ZM280 427C356 427 410 365 410 240C410 115 356 53 280 53C228 53 189 78 155 118V365C189 405 228 427 280 427Z" glyph-name="thorn" horiz-adv-x="535" unicode="&#254;" /><glyph d="M463 200C463 302 401 378 260 386C284 409 304 431 328 462L434 595C442 605 445 614 445 627V644C445 657 440 662 427 662H98C85 662 80 657 80 644V612C80 599 85 594 98 594H346L172 377C164 367 164 359 173 349L183 337C191 327 199 324 211 324H233C330 324 382 277 382 198C382 118 331 58 244 58C186 58 143 81 108 110C99 118 90 119 82 108L62 83C54 74 55 66 64 57C104 19 161 -10 241 -10C386 -10 463 92 463 200Z" glyph-name="three" horiz-adv-x="532" unicode="3" /><glyph d="M298 394C298 450 262 498 182 507C205 528 220 543 233 558L276 604C288 616 292 624 292 636V644C292 657 289 662 276 662H77C64 662 59 657 59 644V628C59 615 64 610 77 610H210L112 504C102 493 103 487 110 477L117 468C123 461 126 459 136 459H146C208 459 233 432 233 392C233 353 206 326 156 326C126 326 102 335 84 347C72 354 66 352 58 341L49 327C43 317 44 308 54 301C77 284 111 272 156 272C248 272 298 327 298 394ZM220 0C233 0 241 4 248 15L450 317L681 647C687 656 684 662 673 662H638C625 662 617 658 610 647L408 345L177 15C171 6 174 0 185 0ZM680 368 532 152C524 140 520 132 520 116V100C520 87 525 82 538 82H703V18C703 5 708 0 721 0H746C759 0 764 5 764 18V82H798C811 82 816 87 816 100V113C816 126 811 131 798 131H764V366C764 379 759 384 746 384H708C695 384 688 380 680 368ZM705 312V129H580Z" glyph-name="threequarters" horiz-adv-x="838" unicode="&#190;" /><glyph d="M298 394C298 450 262 498 182 507C205 528 220 543 233 558L276 604C288 616 292 624 292 636V644C292 657 289 662 276 662H77C64 662 59 657 59 644V628C59 615 64 610 77 610H210L112 504C102 493 103 487 110 477L117 468C123 461 126 459 136 459H146C208 459 233 432 233 392C233 353 206 326 156 326C126 326 102 335 84 347C72 354 66 352 58 341L49 327C43 317 44 308 54 301C77 284 111 272 156 272C248 272 298 327 298 394Z" glyph-name="threesuperior" horiz-adv-x="350" unicode="&#179;" /><glyph d="M260 564C297 564 330 588 343 612C346 617 347 622 347 625C347 630 345 634 340 638L333 644C328 649 323 651 318 651C313 651 309 649 304 644C290 631 274 623 257 623C223 623 187 657 142 657C105 657 72 633 59 609C56 604 55 599 55 596C55 591 57 587 62 583L69 577C74 572 79 570 84 570C89 570 93 572 98 577C112 590 128 598 145 598C179 598 215 564 260 564Z" glyph-name="tilde" horiz-adv-x="402" unicode="&#732;" /><glyph d="M260 729C297 729 330 753 343 777C346 782 347 787 347 790C347 795 345 799 340 803L333 809C328 814 323 816 318 816C313 816 309 814 304 809C290 796 274 788 257 788C223 788 187 822 142 822C105 822 72 798 59 774C56 769 55 764 55 761C55 756 57 752 62 748L69 742C74 737 79 735 84 735C89 735 93 737 98 742C112 755 128 763 145 763C179 763 215 729 260 729Z" glyph-name="tilde.case" horiz-adv-x="402" /><glyph d="M152 355C165 355 170 360 170 373V618H243C256 618 261 623 261 636V644C261 657 256 662 243 662H43C30 662 25 657 25 644V636C25 623 30 618 43 618H116V373C116 360 121 355 134 355ZM369 373V596L443 455C449 444 456 440 469 440H471C483 440 490 444 496 455L570 596V373C570 360 575 355 588 355H603C616 355 621 360 621 373V644C621 657 616 662 603 662H574C561 662 554 658 548 646L471 500L394 646C388 658 381 662 368 662H336C323 662 318 657 318 644V373C318 360 323 355 336 355H351C364 355 369 360 369 373Z" glyph-name="trademark" horiz-adv-x="692" unicode="&#8482;" /><glyph d="M462 18V50C462 63 457 68 444 68H157C163 154 212 213 298 276C403 354 459 403 459 499C459 596 397 672 265 672C174 672 123 634 85 596C76 587 77 579 86 570L108 547C117 538 123 538 132 547C166 580 201 604 262 604C336 604 378 561 378 496C378 438 347 402 258 334C135 240 75 165 75 42V18C75 5 80 0 93 0H444C457 0 462 5 462 18Z" glyph-name="two" horiz-adv-x="532" unicode="2" /><glyph d="M301 296V312C301 325 296 330 283 330H117C123 366 147 390 202 432C267 482 296 515 296 568C296 623 256 668 182 668C130 668 91 647 59 615C51 607 51 598 59 589L70 577C80 567 86 564 97 575C118 596 147 614 180 614C213 614 232 594 232 565C232 532 212 508 167 475C101 428 53 380 53 305V296C53 283 58 278 71 278H283C296 278 301 283 301 296Z" glyph-name="twosuperior" horiz-adv-x="350" unicode="&#178;" /><glyph d="M383 18C383 5 388 0 401 0H438C451 0 456 5 456 18V462C456 475 451 480 438 480H396C383 480 378 475 378 462V119C337 75 301 55 254 55C181 55 153 113 153 176V462C153 475 148 480 135 480H93C80 480 75 475 75 462V173C75 72 124 -10 236 -10C300 -10 345 17 383 57Z" glyph-name="u" horiz-adv-x="533" unicode="u" /><glyph d="M383 18C383 5 388 0 401 0H438C451 0 456 5 456 18V462C456 475 451 480 438 480H396C383 480 378 475 378 462V119C337 75 301 55 254 55C181 55 153 113 153 176V462C153 475 148 480 135 480H93C80 480 75 475 75 462V173C75 72 124 -10 236 -10C300 -10 345 17 383 57ZM207 589C202 584 199 580 199 575C199 572 201 568 204 564L215 550C219 545 224 542 228 542C232 542 236 544 241 548L371 646C376 650 378 654 378 658C378 662 377 666 373 671L356 692C352 697 347 699 343 699C339 699 335 698 330 694Z" glyph-name="uacute" horiz-adv-x="533" unicode="&#250;" /><glyph d="M383 18C383 5 388 0 401 0H438C451 0 456 5 456 18V462C456 475 451 480 438 480H396C383 480 378 475 378 462V119C337 75 301 55 254 55C181 55 153 113 153 176V462C153 475 148 480 135 480H93C80 480 75 475 75 462V173C75 72 124 -10 236 -10C300 -10 345 17 383 57ZM265 546C333 546 385 592 400 637C401 640 402 644 402 647C402 652 399 657 392 660L375 666C370 668 366 669 363 669C357 669 354 665 350 657C333 626 307 605 265 605C223 605 197 626 180 657C176 665 173 669 167 669C164 669 160 668 155 666L138 660C131 657 128 652 128 647C128 644 129 640 130 637C145 592 197 546 265 546Z" glyph-name="ubreve" horiz-adv-x="533" unicode="&#365;" /><glyph d="M383 18C383 5 388 0 401 0H438C451 0 456 5 456 18V462C456 475 451 480 438 480H396C383 480 378 475 378 462V119C337 75 301 55 254 55C181 55 153 113 153 176V462C153 475 148 480 135 480H93C80 480 75 475 75 462V173C75 72 124 -10 236 -10C300 -10 345 17 383 57ZM265 615 359 557C367 552 371 551 375 551C380 551 385 553 390 559L398 569C402 574 403 577 403 581C403 585 401 590 395 594L281 677C276 681 270 683 265 683C260 683 254 681 249 677L135 594C129 590 127 585 127 581C127 577 128 574 132 569L140 559C145 553 150 551 155 551C159 551 163 552 171 557Z" glyph-name="ucircumflex" horiz-adv-x="533" unicode="&#251;" /><glyph d="M383 18C383 5 388 0 401 0H438C451 0 456 5 456 18V462C456 475 451 480 438 480H396C383 480 378 475 378 462V119C337 75 301 55 254 55C181 55 153 113 153 176V462C153 475 148 480 135 480H93C80 480 75 475 75 462V173C75 72 124 -10 236 -10C300 -10 345 17 383 57ZM225 617C225 645 207 667 176 667C145 667 127 645 127 617C127 589 145 567 176 567C207 567 225 589 225 617ZM403 617C403 645 385 667 354 667C323 667 305 645 305 617C305 589 323 567 354 567C385 567 403 589 403 617Z" glyph-name="udieresis" horiz-adv-x="533" unicode="&#252;" /><glyph d="M383 18C383 5 388 0 401 0H438C451 0 456 5 456 18V462C456 475 451 480 438 480H396C383 480 378 475 378 462V119C337 75 301 55 254 55C181 55 153 113 153 176V462C153 475 148 480 135 480H93C80 480 75 475 75 462V173C75 72 124 -10 236 -10C300 -10 345 17 383 57ZM200 694C195 698 191 699 187 699C183 699 178 697 174 692L157 671C153 666 152 662 152 658C152 654 154 650 159 646L289 548C294 544 298 542 302 542C306 542 311 545 315 550L326 564C329 568 331 572 331 575C331 580 328 584 323 589Z" glyph-name="ugrave" horiz-adv-x="533" unicode="&#249;" /><glyph d="M383 18C383 5 388 0 401 0H438C451 0 456 5 456 18V462C456 475 451 480 438 480H396C383 480 378 475 378 462V119C337 75 301 55 254 55C181 55 153 113 153 176V462C153 475 148 480 135 480H93C80 480 75 475 75 462V173C75 72 124 -10 236 -10C300 -10 345 17 383 57ZM286 646C290 650 292 654 292 658C292 663 289 667 285 671L266 689C262 693 258 695 254 695C249 695 245 693 241 688L147 582C143 578 141 574 141 570C141 565 144 560 149 556L163 544C168 540 172 538 176 538C181 538 185 540 191 547ZM442 646C446 650 448 654 448 658C448 663 445 667 441 671L422 689C418 693 414 695 410 695C405 695 401 693 397 688L303 582C299 578 297 574 297 570C297 565 300 560 305 556L319 544C324 540 328 538 332 538C337 538 341 540 347 547Z" glyph-name="uhungarumlaut" horiz-adv-x="533" unicode="&#369;" /><glyph d="M383 18C383 5 388 0 401 0H438C451 0 456 5 456 18V462C456 475 451 480 438 480H396C383 480 378 475 378 462V119C337 75 301 55 254 55C181 55 153 113 153 176V462C153 475 148 480 135 480H93C80 480 75 475 75 462V173C75 72 124 -10 236 -10C300 -10 345 17 383 57ZM164 631C151 631 146 626 146 613V593C146 580 151 575 164 575H366C379 575 384 580 384 593V613C384 626 379 631 366 631Z" glyph-name="umacron" horiz-adv-x="533" unicode="&#363;" /><glyph d="M380 -60C393 -60 398 -55 398 -42V-18C398 -5 393 0 380 0H60C47 0 42 -5 42 -18V-42C42 -55 47 -60 60 -60Z" glyph-name="underscore" horiz-adv-x="440" unicode="_" /><glyph glyph-name="uni00A0" horiz-adv-x="215" unicode="&#160;" /><glyph d="M269 248C282 248 287 253 287 266V304C287 317 282 322 269 322H71C58 322 53 317 53 304V266C53 253 58 248 71 248Z" glyph-name="uni00AD" horiz-adv-x="340" unicode="&#173;" /><glyph d="M155 -182V-71C155 -40 154 -9 150 26C175 3 205 -10 246 -10C302 -10 349 15 385 57V18C385 5 390 0 403 0H440C453 0 458 5 458 18V462C458 475 453 480 440 480H398C385 480 380 475 380 462V118C348 76 306 55 257 55C175 55 155 122 155 179V462C155 475 150 480 137 480H95C82 480 77 475 77 462V-182C77 -195 82 -200 95 -200H137C150 -200 155 -195 155 -182Z" glyph-name="uni00B5" horiz-adv-x="535" unicode="&#181;" /><glyph d="M571 46C581 53 586 61 586 73V335C586 348 581 353 568 353H366C353 353 348 348 348 335V303C348 290 353 285 366 285H505V94C458 67 401 58 353 58C192 58 130 169 130 327C130 477 193 601 341 601C409 601 467 576 507 542C517 534 524 535 531 545L554 574C562 584 561 592 552 600C497 650 421 672 344 672C137 672 46 507 46 325C46 144 134 -10 353 -10C429 -10 508 9 571 46ZM404 -99C404 -67 386 -47 355 -47C324 -47 309 -66 309 -88C309 -119 337 -122 337 -150C337 -159 335 -171 319 -192C316 -196 315 -199 315 -202C315 -206 318 -209 323 -212L326 -214C330 -217 333 -218 336 -218C340 -218 343 -215 347 -211C382 -174 404 -133 404 -99Z" glyph-name="uni0122" horiz-adv-x="660" unicode="&#290;" /><glyph d="M466 -48C466 36 397 74 310 74H189C131 74 125 91 125 106C125 121 131 138 155 163C177 155 202 150 232 150C364 150 413 235 413 321C413 366 399 399 367 428C398 421 421 419 442 419C454 419 460 424 460 437V462C460 475 455 480 442 480H295C278 486 257 490 230 490C105 490 54 405 54 319C54 266 74 213 120 181C78 156 57 129 57 93C57 62 74 38 101 27C47 4 22 -32 22 -78C22 -162 105 -210 231 -210C384 -210 466 -140 466 -48ZM131 320C131 385 167 434 234 434C301 434 337 385 337 320C337 254 301 206 234 206C167 206 131 254 131 320ZM98 -68C98 -40 107 -14 152 10H294C365 10 388 -19 388 -56C388 -110 340 -154 232 -154C127 -154 98 -113 98 -68ZM182 608C182 576 200 556 231 556C262 556 277 575 277 597C277 628 249 631 249 659C249 668 251 680 267 701C270 705 271 708 271 711C271 715 268 718 263 721L260 723C256 726 253 727 250 727C246 727 243 724 239 720C204 683 182 642 182 608Z" glyph-name="uni0123" horiz-adv-x="483" unicode="&#291;" /><glyph d="M163 18V234C196 262 228 290 259 320C341 225 408 123 467 16C473 4 480 0 493 0H547C559 0 566 6 560 17C482 158 404 275 314 374C388 452 459 539 530 646C537 656 530 662 519 662H464C451 662 444 658 437 647C350 518 257 409 163 321V644C163 657 158 662 145 662H99C86 662 81 657 81 644V18C81 5 86 0 99 0H145C158 0 163 5 163 18ZM359 -99C359 -67 341 -47 310 -47C279 -47 264 -66 264 -88C264 -119 292 -122 292 -150C292 -159 290 -171 274 -192C271 -196 270 -199 270 -202C270 -206 273 -209 278 -212L281 -214C285 -217 288 -218 291 -218C295 -218 298 -215 302 -211C337 -174 359 -133 359 -99Z" glyph-name="uni0136" horiz-adv-x="580" unicode="&#310;" /><glyph d="M155 18V184C176 199 196 214 217 231C273 177 321 103 374 16C381 5 387 0 400 0H448C460 0 464 6 458 16C393 130 334 215 268 276C325 329 380 392 434 465C441 474 437 480 426 480H375C361 480 353 475 346 465C287 385 223 315 155 260V700C155 713 150 718 137 718H95C82 718 77 713 77 700V18C77 5 82 0 95 0H137C150 0 155 5 155 18ZM315 -99C315 -67 297 -47 266 -47C235 -47 220 -66 220 -88C220 -119 248 -122 248 -150C248 -159 246 -171 230 -192C227 -196 226 -199 226 -202C226 -206 229 -209 234 -212L237 -214C241 -217 244 -218 247 -218C251 -218 254 -215 258 -211C293 -174 315 -133 315 -99Z" glyph-name="uni0137" horiz-adv-x="479" unicode="&#311;" /><glyph d="M435 0C448 0 453 5 453 18V50C453 63 448 68 435 68H163V644C163 657 158 662 145 662H99C86 662 81 657 81 644V18C81 5 86 0 99 0ZM318 -99C318 -67 300 -47 269 -47C238 -47 223 -66 223 -88C223 -119 251 -122 251 -150C251 -159 249 -171 233 -192C230 -196 229 -199 229 -202C229 -206 232 -209 237 -212L240 -214C244 -217 247 -218 250 -218C254 -218 257 -215 261 -211C296 -174 318 -133 318 -99Z" glyph-name="uni013B" horiz-adv-x="470" unicode="&#315;" /><glyph d="M137 0C150 0 155 5 155 18V700C155 713 150 718 137 718H95C82 718 77 713 77 700V18C77 5 82 0 95 0ZM167 -99C167 -67 149 -47 118 -47C87 -47 72 -66 72 -88C72 -119 100 -122 100 -150C100 -159 98 -171 82 -192C79 -196 78 -199 78 -202C78 -206 81 -209 86 -212L89 -214C93 -217 96 -218 99 -218C103 -218 106 -215 110 -211C145 -174 167 -133 167 -99Z" glyph-name="uni013C" horiz-adv-x="232" unicode="&#316;" /><glyph d="M160 18V561L487 15C494 4 501 0 514 0H571C584 0 589 5 589 18V644C589 657 584 662 571 662H528C515 662 510 657 510 644V118L193 647C186 658 179 662 166 662H99C86 662 81 657 81 644V18C81 5 86 0 99 0H142C155 0 160 5 160 18ZM386 -99C386 -67 368 -47 337 -47C306 -47 291 -66 291 -88C291 -119 319 -122 319 -150C319 -159 317 -171 301 -192C298 -196 297 -199 297 -202C297 -206 300 -209 305 -212L308 -214C312 -217 315 -218 318 -218C322 -218 325 -215 329 -211C364 -174 386 -133 386 -99Z" glyph-name="uni0145" horiz-adv-x="670" unicode="&#325;" /><glyph d="M155 18V360C197 405 234 425 283 425C357 425 386 367 386 304V18C386 5 391 0 404 0H446C459 0 464 5 464 18V307C464 408 414 490 300 490C235 490 189 463 150 423V462C150 475 145 480 132 480H95C82 480 77 475 77 462V18C77 5 82 0 95 0H137C150 0 155 5 155 18ZM321 -99C321 -67 303 -47 272 -47C241 -47 226 -66 226 -88C226 -119 254 -122 254 -150C254 -159 252 -171 236 -192C233 -196 232 -199 232 -202C232 -206 235 -209 240 -212L243 -214C247 -217 250 -218 253 -218C257 -218 260 -215 264 -211C299 -174 321 -133 321 -99Z" glyph-name="uni0146" horiz-adv-x="539" unicode="&#326;" /><glyph d="M163 18V270H256C343 193 415 92 456 17C463 5 470 0 483 0H539C551 0 554 7 548 18C498 111 420 216 344 283C442 303 509 374 509 472C509 576 447 662 282 662H99C86 662 81 657 81 644V18C81 5 86 0 99 0H145C158 0 163 5 163 18ZM163 594H278C383 594 425 545 425 469C425 393 373 338 272 338H163ZM359 -99C359 -67 341 -47 310 -47C279 -47 264 -66 264 -88C264 -119 292 -122 292 -150C292 -159 290 -171 274 -192C271 -196 270 -199 270 -202C270 -206 273 -209 278 -212L281 -214C285 -217 288 -218 291 -218C295 -218 298 -215 302 -211C337 -174 359 -133 359 -99Z" glyph-name="uni0156" horiz-adv-x="567" unicode="&#342;" /><glyph d="M155 18V361C184 400 224 419 270 419C284 419 298 417 312 413C325 410 330 413 333 426L341 463C344 474 339 482 328 485C314 489 299 490 286 490C225 490 185 462 150 417V462C150 475 145 480 132 480H95C82 480 77 475 77 462V18C77 5 82 0 95 0H137C150 0 155 5 155 18ZM167 -99C167 -67 149 -47 118 -47C87 -47 72 -66 72 -88C72 -119 100 -122 100 -150C100 -159 98 -171 82 -192C79 -196 78 -199 78 -202C78 -206 81 -209 86 -212L89 -214C93 -217 96 -218 99 -218C103 -218 106 -215 110 -211C145 -174 167 -133 167 -99Z" glyph-name="uni0157" horiz-adv-x="354" unicode="&#343;" /><glyph d="M339 -111C339 -74 316 -48 272 -48C264 -48 256 -48 246 -51L268 -10C396 -4 478 68 478 178C478 297 385 339 277 372C175 403 137 431 137 493C137 551 177 601 273 601C336 601 380 581 414 556C424 549 432 550 439 560L460 590C467 600 466 608 456 616C419 645 359 672 275 672C146 672 56 605 56 489C56 370 144 330 252 297C354 266 397 235 397 173C397 105 342 61 252 61C183 61 132 87 90 122C80 130 73 129 65 119L41 89C33 79 35 71 44 63C82 27 143 -4 227 -9L198 -63C194 -70 194 -75 202 -81C208 -86 211 -87 215 -87C220 -87 231 -84 246 -84C280 -84 289 -98 289 -113C289 -133 274 -145 246 -145C229 -145 214 -140 202 -133C197 -130 193 -128 190 -128C185 -128 182 -132 178 -139L174 -146C168 -156 171 -164 180 -170C200 -183 226 -187 248 -187C310 -187 339 -152 339 -111Z" glyph-name="uni015E" horiz-adv-x="522" unicode="&#350;" /><glyph d="M306 -111C306 -74 283 -48 239 -48C231 -48 223 -48 213 -51L235 -10C330 -5 401 43 401 128C401 220 334 250 235 275C164 292 130 307 130 355C130 396 164 426 232 426C279 426 317 411 345 392C356 385 362 385 369 396L387 422C394 432 392 440 382 447C350 471 298 490 232 490C125 490 52 439 52 353C52 255 125 233 215 209C289 190 323 170 323 124C323 76 277 54 220 54C168 54 117 77 84 103C74 110 67 110 59 100L40 75C33 66 34 57 43 50C72 24 129 -3 194 -9L165 -63C161 -70 161 -75 169 -81C175 -86 178 -87 182 -87C187 -87 198 -84 213 -84C247 -84 256 -98 256 -113C256 -133 241 -145 213 -145C196 -145 181 -140 169 -133C164 -130 160 -128 157 -128C152 -128 149 -132 145 -139L141 -146C135 -156 138 -164 147 -170C167 -183 193 -187 215 -187C277 -187 306 -152 306 -111Z" glyph-name="uni015F" horiz-adv-x="445" unicode="&#351;" /><glyph d="M228 -18 278 303H418C431 303 437 308 439 321L442 342C443 349 443 351 443 353C443 362 437 366 427 366H288L306 478C320 567 354 605 410 605C441 605 463 596 480 588C493 582 499 584 504 597L516 628C521 640 518 646 506 652C484 663 452 672 411 672C305 672 247 608 229 491L209 366H110C97 366 91 361 89 348L86 327C85 320 85 318 85 316C85 307 91 303 101 303H199L150 -10C137 -95 106 -143 46 -143C35 -143 20 -141 11 -140C2 -139 -3 -141 -5 -152L-11 -187C-13 -199 -11 -203 0 -206C9 -208 24 -210 48 -210C135 -210 206 -160 228 -18Z" glyph-name="uni0192" horiz-adv-x="532" unicode="&#402;" /><glyph d="M478 178C478 297 385 339 277 372C175 403 137 431 137 493C137 551 177 601 273 601C336 601 380 581 414 556C424 549 432 550 439 560L460 590C467 600 466 608 456 616C419 645 359 672 275 672C146 672 56 605 56 489C56 370 144 330 252 297C354 266 397 235 397 173C397 105 342 61 252 61C183 61 132 87 90 122C80 130 73 129 65 119L41 89C33 79 35 71 44 63C86 24 155 -10 251 -10C389 -10 478 63 478 178ZM302 -99C302 -67 284 -47 253 -47C222 -47 207 -66 207 -88C207 -119 235 -122 235 -150C235 -159 233 -171 217 -192C214 -196 213 -199 213 -202C213 -206 216 -209 221 -212L224 -214C228 -217 231 -218 234 -218C238 -218 241 -215 245 -211C280 -174 302 -133 302 -99Z" glyph-name="uni0218" horiz-adv-x="522" unicode="&#536;" /><glyph d="M401 128C401 220 334 250 235 275C164 292 130 307 130 355C130 396 164 426 232 426C279 426 317 411 345 392C356 385 362 385 369 396L387 422C394 432 392 440 382 447C350 471 298 490 232 490C125 490 52 439 52 353C52 255 125 233 215 209C289 190 323 170 323 124C323 76 277 54 220 54C168 54 117 77 84 103C74 110 67 110 59 100L40 75C33 66 34 57 43 50C76 21 144 -10 220 -10C323 -10 401 39 401 128ZM269 -99C269 -67 251 -47 220 -47C189 -47 174 -66 174 -88C174 -119 202 -122 202 -150C202 -159 200 -171 184 -192C181 -196 180 -199 180 -202C180 -206 183 -209 188 -212L191 -214C195 -217 198 -218 201 -218C205 -218 208 -215 212 -211C247 -174 269 -133 269 -99Z" glyph-name="uni0219" horiz-adv-x="445" unicode="&#537;" /><glyph d="M273 0C286 0 291 5 291 18V594H467C480 594 485 599 485 612V644C485 657 480 662 467 662H33C20 662 15 657 15 644V612C15 599 20 594 33 594H209V18C209 5 214 0 227 0ZM301 -99C301 -67 283 -47 252 -47C221 -47 206 -66 206 -88C206 -119 234 -122 234 -150C234 -159 232 -171 216 -192C213 -196 212 -199 212 -202C212 -206 215 -209 220 -212L223 -214C227 -217 230 -218 233 -218C237 -218 240 -215 244 -211C279 -174 301 -133 301 -99Z" glyph-name="uni021A" horiz-adv-x="500" unicode="&#538;" /><glyph d="M321 16C331 23 334 31 329 41L317 64C312 74 305 77 294 71C275 61 260 55 238 55C191 55 175 84 175 137V419H311C324 419 329 424 329 437V462C329 475 324 480 311 480H175V591C175 604 170 609 157 609H115C102 609 97 604 97 591V480H33C20 480 15 475 15 462V437C15 424 20 419 33 419H97V134C97 28 144 -10 228 -10C265 -10 294 -2 321 16ZM268 -99C268 -67 250 -47 219 -47C188 -47 173 -66 173 -88C173 -119 201 -122 201 -150C201 -159 199 -171 183 -192C180 -196 179 -199 179 -202C179 -206 182 -209 187 -212L190 -214C194 -217 197 -218 200 -218C204 -218 207 -215 211 -211C246 -174 268 -133 268 -99Z" glyph-name="uni021B" horiz-adv-x="355" unicode="&#539;" /><glyph d="M155 -45V462C155 475 150 480 137 480H95C82 480 77 475 77 462V-40C77 -106 59 -144 11 -144C-3 -144 -16 -141 -27 -136C-40 -130 -45 -133 -51 -145L-62 -171C-66 -182 -63 -190 -52 -195C-31 -206 -5 -210 20 -210C107 -210 155 -155 155 -45Z" glyph-name="uni0237" horiz-adv-x="232" unicode="&#567;" /><glyph d="M50 608C50 576 68 556 99 556C130 556 145 575 145 597C145 628 117 631 117 659C117 668 119 680 135 701C138 705 139 708 139 711C139 715 136 718 131 721L128 723C124 726 121 727 118 727C114 727 111 724 107 720C72 683 50 642 50 608Z" glyph-name="uni0312" horiz-adv-x="195" unicode="&#786;" /><glyph d="M67 545C78 543 85 545 89 556L137 688C139 694 140 699 140 702C140 708 136 712 127 714L94 721C89 722 84 723 81 723C74 723 69 718 68 708L52 564C51 553 55 547 67 545Z" glyph-name="uni0315" horiz-adv-x="195" unicode="&#789;" /><glyph d="M145 -99C145 -67 127 -47 96 -47C65 -47 50 -66 50 -88C50 -119 78 -122 78 -150C78 -159 76 -171 60 -192C57 -196 56 -199 56 -202C56 -206 59 -209 64 -212L67 -214C71 -217 74 -218 77 -218C81 -218 84 -215 88 -211C123 -174 145 -133 145 -99Z" glyph-name="uni0326" horiz-adv-x="195" unicode="&#806;" /><glyph d="M301 18V34C301 47 296 52 283 52H117C123 88 147 112 202 154C267 204 296 237 296 290C296 345 256 390 182 390C130 390 91 369 59 337C51 329 51 320 59 311L70 299C80 289 86 286 97 297C118 318 147 336 180 336C213 336 232 316 232 287C232 254 212 230 167 197C101 150 53 102 53 27V18C53 5 58 0 71 0H283C296 0 301 5 301 18Z" glyph-name="uni2082" horiz-adv-x="350" unicode="&#8322;" /><glyph d="M192 368 44 152C36 140 32 132 32 116V100C32 87 37 82 50 82H215V18C215 5 220 0 233 0H258C271 0 276 5 276 18V82H310C323 82 328 87 328 100V113C328 126 323 131 310 131H276V366C276 379 271 384 258 384H220C207 384 200 380 192 368ZM217 312V129H92Z" glyph-name="uni2084" horiz-adv-x="350" unicode="&#8324;" /><glyph d="M191 16C227 160 247 241 266 352C285 241 305 160 341 16C344 4 349 0 356 0H402C410 0 414 5 416 16C426 67 436 134 446 207H513C526 207 531 212 531 225V252C531 265 526 270 513 270H454L463 355H513C526 355 531 360 531 373V400C531 413 526 418 513 418H470C477 491 482 561 486 621C487 633 487 640 487 647C486 654 482 662 470 662H428C413 662 409 655 409 634C408 571 404 495 398 418H313C308 453 305 486 301 524C300 533 297 536 291 536H241C235 536 232 533 231 524C227 486 224 453 219 418H134C128 495 124 571 123 634C123 655 119 662 104 662H62C50 662 46 654 45 647C45 640 45 633 46 621C50 561 55 491 62 418H19C6 418 1 413 1 400V373C1 360 6 355 19 355H69L78 270H19C6 270 1 265 1 252V225C1 212 6 207 19 207H86C96 134 106 67 116 16C118 5 122 0 130 0H176C183 0 188 4 191 16ZM138 365H211C201 305 186 233 162 127C153 192 145 277 138 365ZM321 365H394C387 277 379 192 370 127C346 233 331 305 321 365Z" glyph-name="uni20A9" horiz-adv-x="532" unicode="&#8361;" /><glyph d="M57 644V614C57 601 62 596 75 596H144C250 596 302 561 313 499H75C62 499 57 494 57 481V453C57 440 62 435 75 435H312C299 374 245 338 145 338H75C62 338 57 333 57 320V293C57 284 59 280 64 277C195 203 311 95 382 16C393 5 401 0 415 0H476C489 0 490 6 482 17C402 106 284 216 182 279C297 287 376 343 393 435H464C477 435 482 440 482 453V481C482 494 477 499 464 499H394C388 540 368 575 331 601H466C479 601 484 606 484 619V644C484 657 479 662 466 662H75C62 662 57 657 57 644Z" glyph-name="uni20B9" horiz-adv-x="532" unicode="&#8377;" /><glyph d="M506 158C512 168 513 176 503 182L474 200C461 208 455 209 447 196C398 116 338 68 240 68H192V251L327 327C339 334 343 341 343 354V386C343 397 337 401 327 395L192 316V401L327 477C339 484 343 491 343 504V536C343 547 337 551 327 545L192 466V644C192 657 187 662 174 662H128C115 662 110 657 110 644V425L45 389C33 382 29 375 29 362V330C29 319 35 315 45 321L110 360V275L45 239C33 232 29 225 29 212V180C29 169 35 165 45 171L110 210V18C110 5 115 0 128 0H236C365 0 452 67 506 158Z" glyph-name="uni20BA" horiz-adv-x="532" unicode="&#8378;" /><glyph d="M193 18V120H369C382 120 387 125 387 138V162C387 175 382 180 369 180H193V251H263C423 251 501 350 501 462C501 565 442 662 273 662H129C116 662 111 657 111 644V311H39C26 311 21 306 21 293V269C21 256 26 251 39 251H111V180H39C26 180 21 175 21 162V138C21 125 26 120 39 120H111V18C111 5 116 0 129 0H175C188 0 193 5 193 18ZM193 594H267C382 594 417 532 417 455C417 378 376 311 259 311H193Z" glyph-name="uni20BD" horiz-adv-x="532" unicode="&#8381;" /><glyph d="M322 18V41C322 55 318 62 306 68C236 106 138 194 138 357C138 499 211 604 359 604C507 604 580 499 580 357C580 194 482 106 412 68C400 62 396 55 396 41V18C396 5 401 0 414 0H658C671 0 676 5 676 18V49C676 62 671 67 658 67H511C608 121 664 234 664 358C664 531 556 672 359 672C162 672 54 531 54 358C54 234 110 121 207 67H60C47 67 42 62 42 49V18C42 5 47 0 60 0H304C317 0 322 5 322 18Z" glyph-name="uni2126" horiz-adv-x="718" unicode="&#8486;" /><glyph d="M291 662C278 662 271 658 264 646C178 486 96 294 33 85C30 75 28 61 28 50V18C28 5 33 0 46 0H570C583 0 588 5 588 18V50C588 61 586 75 583 85C519 294 439 486 353 646C346 658 339 662 326 662ZM111 68C169 263 228 423 307 577C383 423 446 263 503 68Z" glyph-name="uni2206" horiz-adv-x="616" unicode="&#8710;" /><glyph d="M456 18V462C456 475 451 480 438 480H396C383 480 378 475 378 462V119C337 75 301 55 254 55C181 55 153 113 153 176V462C153 475 148 480 135 480H93C80 480 75 475 75 462V173C75 72 124 -10 236 -10C300 -10 345 17 383 57V0C343 -41 318 -75 318 -112C318 -157 355 -187 409 -187C436 -187 460 -180 479 -167C489 -161 490 -152 484 -143L481 -138C473 -126 468 -125 455 -131C444 -136 432 -139 421 -139C397 -139 378 -126 378 -96C378 -68 395 -42 427 0H438C451 0 456 5 456 18Z" glyph-name="uogonek" horiz-adv-x="533" unicode="&#371;" /><glyph d="M383 18C383 5 388 0 401 0H438C451 0 456 5 456 18V462C456 475 451 480 438 480H396C383 480 378 475 378 462V119C337 75 301 55 254 55C181 55 153 113 153 176V462C153 475 148 480 135 480H93C80 480 75 475 75 462V173C75 72 124 -10 236 -10C300 -10 345 17 383 57ZM370 643C370 704 322 746 265 746C208 746 160 704 160 643C160 582 208 540 265 540C322 540 370 582 370 643ZM206 643C206 680 231 704 265 704C299 704 324 680 324 643C324 606 299 582 265 582C231 582 206 606 206 643Z" glyph-name="uring" horiz-adv-x="533" unicode="&#367;" /><glyph d="M383 18C383 5 388 0 401 0H438C451 0 456 5 456 18V462C456 475 451 480 438 480H396C383 480 378 475 378 462V119C337 75 301 55 254 55C181 55 153 113 153 176V462C153 475 148 480 135 480H93C80 480 75 475 75 462V173C75 72 124 -10 236 -10C300 -10 345 17 383 57ZM324 564C361 564 394 588 407 612C410 617 411 622 411 625C411 630 409 634 404 638L397 644C392 649 387 651 382 651C377 651 373 649 368 644C354 631 338 623 321 623C287 623 251 657 206 657C169 657 136 633 123 609C120 604 119 599 119 596C119 591 121 587 126 583L133 577C138 572 143 570 148 570C153 570 157 572 162 577C176 590 192 598 209 598C243 598 279 564 324 564Z" glyph-name="utilde" horiz-adv-x="533" unicode="&#361;" /><glyph d="M271 16C332 124 402 298 433 451C435 461 436 465 436 469C436 477 431 480 421 480H380C366 480 361 474 359 464C335 349 287 197 231 85C176 198 128 347 105 463C103 476 97 480 84 480H38C27 480 23 475 23 468C23 464 25 454 26 450C61 298 127 124 188 16C194 4 202 0 215 0H244C257 0 265 4 271 16Z" glyph-name="v" horiz-adv-x="459" unicode="v" /><glyph d="M260 17C306 135 338 230 368 351C400 230 433 135 479 16C483 5 491 0 504 0H545C558 0 566 6 571 16C624 122 681 301 711 453C712 458 713 463 713 467C713 475 708 480 698 480H656C643 480 637 475 635 462C614 346 574 195 528 79C481 193 437 346 411 462C408 475 403 480 390 480H350C337 480 332 475 329 462C304 346 261 197 214 81C168 196 126 346 106 462C104 475 98 480 85 480H40C30 480 25 475 25 467C25 463 26 458 27 453C57 301 117 124 167 16C172 5 180 0 193 0H235C248 0 255 5 260 17Z" glyph-name="w" horiz-adv-x="738" unicode="w" /><glyph d="M260 17C306 135 338 230 368 351C400 230 433 135 479 16C483 5 491 0 504 0H545C558 0 566 6 571 16C624 122 681 301 711 453C712 458 713 463 713 467C713 475 708 480 698 480H656C643 480 637 475 635 462C614 346 574 195 528 79C481 193 437 346 411 462C408 475 403 480 390 480H350C337 480 332 475 329 462C304 346 261 197 214 81C168 196 126 346 106 462C104 475 98 480 85 480H40C30 480 25 475 25 467C25 463 26 458 27 453C57 301 117 124 167 16C172 5 180 0 193 0H235C248 0 255 5 260 17ZM311 589C306 584 303 580 303 575C303 572 305 568 308 564L319 550C323 545 328 542 332 542C336 542 340 544 345 548L475 646C480 650 482 654 482 658C482 662 481 666 477 671L460 692C456 697 451 699 447 699C443 699 439 698 434 694Z" glyph-name="wacute" horiz-adv-x="738" unicode="&#7811;" /><glyph d="M260 17C306 135 338 230 368 351C400 230 433 135 479 16C483 5 491 0 504 0H545C558 0 566 6 571 16C624 122 681 301 711 453C712 458 713 463 713 467C713 475 708 480 698 480H656C643 480 637 475 635 462C614 346 574 195 528 79C481 193 437 346 411 462C408 475 403 480 390 480H350C337 480 332 475 329 462C304 346 261 197 214 81C168 196 126 346 106 462C104 475 98 480 85 480H40C30 480 25 475 25 467C25 463 26 458 27 453C57 301 117 124 167 16C172 5 180 0 193 0H235C248 0 255 5 260 17ZM369 615 463 557C471 552 475 551 479 551C484 551 489 553 494 559L502 569C506 574 507 577 507 581C507 585 505 590 499 594L385 677C380 681 374 683 369 683C364 683 358 681 353 677L239 594C233 590 231 585 231 581C231 577 232 574 236 569L244 559C249 553 254 551 259 551C263 551 267 552 275 557Z" glyph-name="wcircumflex" horiz-adv-x="738" unicode="&#373;" /><glyph d="M260 17C306 135 338 230 368 351C400 230 433 135 479 16C483 5 491 0 504 0H545C558 0 566 6 571 16C624 122 681 301 711 453C712 458 713 463 713 467C713 475 708 480 698 480H656C643 480 637 475 635 462C614 346 574 195 528 79C481 193 437 346 411 462C408 475 403 480 390 480H350C337 480 332 475 329 462C304 346 261 197 214 81C168 196 126 346 106 462C104 475 98 480 85 480H40C30 480 25 475 25 467C25 463 26 458 27 453C57 301 117 124 167 16C172 5 180 0 193 0H235C248 0 255 5 260 17ZM329 617C329 645 311 667 280 667C249 667 231 645 231 617C231 589 249 567 280 567C311 567 329 589 329 617ZM507 617C507 645 489 667 458 667C427 667 409 645 409 617C409 589 427 567 458 567C489 567 507 589 507 617Z" glyph-name="wdieresis" horiz-adv-x="738" unicode="&#7813;" /><glyph d="M260 17C306 135 338 230 368 351C400 230 433 135 479 16C483 5 491 0 504 0H545C558 0 566 6 571 16C624 122 681 301 711 453C712 458 713 463 713 467C713 475 708 480 698 480H656C643 480 637 475 635 462C614 346 574 195 528 79C481 193 437 346 411 462C408 475 403 480 390 480H350C337 480 332 475 329 462C304 346 261 197 214 81C168 196 126 346 106 462C104 475 98 480 85 480H40C30 480 25 475 25 467C25 463 26 458 27 453C57 301 117 124 167 16C172 5 180 0 193 0H235C248 0 255 5 260 17ZM304 694C299 698 295 699 291 699C287 699 282 697 278 692L261 671C257 666 256 662 256 658C256 654 258 650 263 646L393 548C398 544 402 542 406 542C410 542 415 545 419 550L430 564C433 568 435 572 435 575C435 580 432 584 427 589Z" glyph-name="wgrave" horiz-adv-x="738" unicode="&#7809;" /><glyph d="M102 17C129 64 158 112 227 197C297 110 326 64 351 17C358 4 362 0 376 0H423C431 0 436 4 436 11C436 16 435 19 431 26C397 84 355 150 276 244C345 332 390 391 420 451C424 459 426 465 426 470C426 476 423 480 415 480H370C356 480 352 476 346 463C322 418 292 371 230 292C167 374 139 419 116 463C109 476 106 480 92 480H46C36 480 32 475 32 468C32 462 34 457 39 448C66 399 109 335 181 243C105 150 58 85 27 26C24 20 22 14 22 9C22 3 25 0 33 0H77C91 0 95 4 102 17Z" glyph-name="x" horiz-adv-x="458" unicode="x" /><glyph d="M87 -195C197 -123 283 17 347 177C382 264 414 361 432 451C434 461 435 465 435 469C435 477 430 480 420 480H380C366 480 361 474 359 464C333 342 293 210 231 87C174 206 128 346 105 463C103 476 97 480 84 480H37C26 480 22 475 22 468C22 464 24 454 25 450C58 310 115 147 190 11C135 -69 95 -101 44 -139C38 -143 34 -148 34 -153C34 -157 36 -161 39 -165L59 -192C63 -198 68 -200 73 -200C78 -200 83 -198 87 -195Z" glyph-name="y" horiz-adv-x="459" unicode="y" /><glyph d="M87 -195C197 -123 283 17 347 177C382 264 414 361 432 451C434 461 435 465 435 469C435 477 430 480 420 480H380C366 480 361 474 359 464C333 342 293 210 231 87C174 206 128 346 105 463C103 476 97 480 84 480H37C26 480 22 475 22 468C22 464 24 454 25 450C58 310 115 147 190 11C135 -69 95 -101 44 -139C38 -143 34 -148 34 -153C34 -157 36 -161 39 -165L59 -192C63 -198 68 -200 73 -200C78 -200 83 -198 87 -195ZM174 589C169 584 166 580 166 575C166 572 168 568 171 564L182 550C186 545 191 542 195 542C199 542 203 544 208 548L338 646C343 650 345 654 345 658C345 662 344 666 340 671L323 692C319 697 314 699 310 699C306 699 302 698 297 694Z" glyph-name="yacute" horiz-adv-x="459" unicode="&#253;" /><glyph d="M87 -195C197 -123 283 17 347 177C382 264 414 361 432 451C434 461 435 465 435 469C435 477 430 480 420 480H380C366 480 361 474 359 464C333 342 293 210 231 87C174 206 128 346 105 463C103 476 97 480 84 480H37C26 480 22 475 22 468C22 464 24 454 25 450C58 310 115 147 190 11C135 -69 95 -101 44 -139C38 -143 34 -148 34 -153C34 -157 36 -161 39 -165L59 -192C63 -198 68 -200 73 -200C78 -200 83 -198 87 -195ZM232 615 326 557C334 552 338 551 342 551C347 551 352 553 357 559L365 569C369 574 370 577 370 581C370 585 368 590 362 594L248 677C243 681 237 683 232 683C227 683 221 681 216 677L102 594C96 590 94 585 94 581C94 577 95 574 99 569L107 559C112 553 117 551 122 551C126 551 130 552 138 557Z" glyph-name="ycircumflex" horiz-adv-x="459" unicode="&#375;" /><glyph d="M87 -195C197 -123 283 17 347 177C382 264 414 361 432 451C434 461 435 465 435 469C435 477 430 480 420 480H380C366 480 361 474 359 464C333 342 293 210 231 87C174 206 128 346 105 463C103 476 97 480 84 480H37C26 480 22 475 22 468C22 464 24 454 25 450C58 310 115 147 190 11C135 -69 95 -101 44 -139C38 -143 34 -148 34 -153C34 -157 36 -161 39 -165L59 -192C63 -198 68 -200 73 -200C78 -200 83 -198 87 -195ZM192 617C192 645 174 667 143 667C112 667 94 645 94 617C94 589 112 567 143 567C174 567 192 589 192 617ZM370 617C370 645 352 667 321 667C290 667 272 645 272 617C272 589 290 567 321 567C352 567 370 589 370 617Z" glyph-name="ydieresis" horiz-adv-x="459" unicode="&#255;" /><glyph d="M306 18V116H457C470 116 475 121 475 134V158C475 171 470 176 457 176H306V250H457C470 250 475 255 475 268V292C475 305 470 310 457 310H328C402 443 450 543 491 645C495 656 491 662 479 662H434C421 662 415 657 410 645C368 537 318 435 266 338C212 435 165 537 125 645C120 657 114 662 101 662H53C41 662 37 656 41 645C81 542 130 441 204 310H75C62 310 57 305 57 292V268C57 255 62 250 75 250H226V176H75C62 176 57 171 57 158V134C57 121 62 116 75 116H226V18C226 5 231 0 244 0H288C301 0 306 5 306 18Z" glyph-name="yen" horiz-adv-x="532" unicode="&#165;" /><glyph d="M87 -195C197 -123 283 17 347 177C382 264 414 361 432 451C434 461 435 465 435 469C435 477 430 480 420 480H380C366 480 361 474 359 464C333 342 293 210 231 87C174 206 128 346 105 463C103 476 97 480 84 480H37C26 480 22 475 22 468C22 464 24 454 25 450C58 310 115 147 190 11C135 -69 95 -101 44 -139C38 -143 34 -148 34 -153C34 -157 36 -161 39 -165L59 -192C63 -198 68 -200 73 -200C78 -200 83 -198 87 -195ZM167 694C162 698 158 699 154 699C150 699 145 697 141 692L124 671C120 666 119 662 119 658C119 654 121 650 126 646L256 548C261 544 265 542 269 542C273 542 278 545 282 550L293 564C296 568 298 572 298 575C298 580 295 584 290 589Z" glyph-name="ygrave" horiz-adv-x="459" unicode="&#7923;" /><glyph d="M400 18V43C400 56 395 61 382 61H134L375 403C385 417 389 430 389 445V462C389 475 384 480 371 480H72C59 480 54 475 54 462V437C54 424 59 419 72 419H297L56 77C46 63 42 50 42 35V18C42 5 47 0 60 0H382C395 0 400 5 400 18Z" glyph-name="z" horiz-adv-x="438" unicode="z" /><glyph d="M400 18V43C400 56 395 61 382 61H134L375 403C385 417 389 430 389 445V462C389 475 384 480 371 480H72C59 480 54 475 54 462V437C54 424 59 419 72 419H297L56 77C46 63 42 50 42 35V18C42 5 47 0 60 0H382C395 0 400 5 400 18ZM163 589C158 584 155 580 155 575C155 572 157 568 160 564L171 550C175 545 180 542 184 542C188 542 192 544 197 548L327 646C332 650 334 654 334 658C334 662 333 666 329 671L312 692C308 697 303 699 299 699C295 699 291 698 286 694Z" glyph-name="zacute" horiz-adv-x="438" unicode="&#378;" /><glyph d="M400 18V43C400 56 395 61 382 61H134L375 403C385 417 389 430 389 445V462C389 475 384 480 371 480H72C59 480 54 475 54 462V437C54 424 59 419 72 419H297L56 77C46 63 42 50 42 35V18C42 5 47 0 60 0H382C395 0 400 5 400 18ZM221 613 127 671C119 676 115 677 111 677C106 677 101 675 96 669L88 659C84 654 83 651 83 647C83 643 85 638 91 634L205 551C210 547 216 545 221 545C226 545 232 547 237 551L351 634C357 638 359 643 359 647C359 651 358 654 354 659L346 669C341 675 336 677 331 677C327 677 323 676 315 671Z" glyph-name="zcaron" horiz-adv-x="438" unicode="&#382;" /><glyph d="M400 18V43C400 56 395 61 382 61H134L375 403C385 417 389 430 389 445V462C389 475 384 480 371 480H72C59 480 54 475 54 462V437C54 424 59 419 72 419H297L56 77C46 63 42 50 42 35V18C42 5 47 0 60 0H382C395 0 400 5 400 18ZM270 617C270 645 252 667 221 667C190 667 172 645 172 617C172 589 190 567 221 567C252 567 270 589 270 617Z" glyph-name="zdotaccent" horiz-adv-x="438" unicode="&#380;" /><glyph d="M501 331C501 524 413 672 266 672C121 672 31 522 31 331C31 138 120 -10 266 -10C412 -10 501 140 501 331ZM266 604C357 604 420 489 420 331C420 173 357 58 266 58C175 58 112 173 112 331C112 489 175 604 266 604Z" glyph-name="zero" horiz-adv-x="532" unicode="0" /><glyph d="M501 331C501 524 413 672 266 672C121 672 31 522 31 331C31 138 120 -10 266 -10C412 -10 501 140 501 331ZM266 604C357 604 420 489 420 331C420 173 357 58 266 58C175 58 112 173 112 331C112 489 175 604 266 604ZM314 331C314 359 295 380 266 380C237 380 218 359 218 331C218 303 237 282 266 282C295 282 314 303 314 331Z" glyph-name="zero.alt" horiz-adv-x="532" /></font>
</defs>
</svg>
